<svg xmlns="http://www.w3.org/2000/svg">
<defs>
<font id="Tofino-Bold" horiz-adv-x="692" >
  <font-face 
    font-family="Tofino Bold"
    font-weight="425"
    font-stretch="normal"
    units-per-em="1000"
    panose-1="2 0 0 0 0 0 0 0 0 0"
    ascent="760"
    descent="-240"
    x-height="543"
    cap-height="720"
    bbox="-155 -311 1263 1191"
    underline-thickness="50"
    underline-position="-75"
    unicode-range="U+000D-FB02"
  />
<missing-glyph horiz-adv-x="651" 
d="M50 0v702h551v-702h-551zM175 171q-23 28 -35.5 63t-12.5 75q0 46 17 86t46 69q-20 28 -10 59l-109 141v-629zM569 682h-487l108 -140q17 26 53.5 42t80.5 16t80.5 -16.5t56.5 -42.5zM461 157q-26 -27 -61.5 -43t-75.5 -16q-39 0 -74 15.5t-61 42.5l-105 -136h484z
M580 662l-109 -139q0 -1 1 -1q14 5 29.5 6t26.5 -7q13 -9 15 -30t-11 -32q-10 -7 -24 -7q-11 0 -22 2.5t-24 6.5q28 -29 44 -68t16 -84q0 -39 -12.5 -73.5t-34.5 -62.5l105 -136v625zM481 307q3 -26 -6.5 -49t-32.5 -26q-6 -1 -14.5 -1.5t-17.5 -0.5q-12 0 -25.5 1t-21.5 6
q-12 7 -19 20.5t-9 24.5q-1 2 -1 5q-3 10 -11 10q-6 0 -9 -10q-1 -1 -1 -5q-2 -11 -9 -24.5t-20 -20.5q-8 -5 -21.5 -6t-25.5 -1q-8 0 -17 0.5t-14 1.5q-23 3 -33 26t-7 49v1l-15 14v-13q0 -39 13.5 -73t37 -59.5t55 -40.5t67.5 -15t67.5 15t55.5 40.5t37.5 59.5t13.5 73
q0 5 -0.5 8.5t-0.5 8.5q-7 -6 -16 -18v-1zM395 480l-10 2q-13 2 -26 4.5t-23 9.5q-4 1 -12 1q-36 0 -69 -15q-10 -11 -9.5 -22t4.5 -19q7 -14 25 -30t48 -28.5t72 -20t97 -4.5q-17 65 -66 103q-5 0 -8 1q-15 5 -22 18h-1zM297 306h-1q-7 4 -25 7t-41 3q-29 0 -40.5 -4
t-11.5 -6q-1 -8 0 -18.5t4 -19.5t9 -16t16 -8q6 -1 14 -1.5t16 -0.5q32 0 42 5q8 5 14 15t8 22q3 13 -2 20zM470 306q-1 2 -12 6t-40 4q-23 0 -41 -3t-25 -7q-1 0 -1 -1q-1 0 -2 -1q-5 -7 -2 -20q2 -12 8 -22t14 -15q10 -5 41 -5q9 0 17 0.5t14 1.5q9 1 15 8t9.5 16
t4.5 19.5t0 18.5zM437 532q-18 21 -50 32.5t-63 11.5q-42 0 -76 -16.5t-44 -40.5q-9 -19 4 -39q24 19 52.5 29.5t59.5 11.5q0 5 0.5 9.5t2.5 10.5q9 21 25 25q15 4 31 -7.5t32 -25.5l2 -2q7 3 15 3q3 0 9 -2zM173 318q7 4 20 6.5t37 2.5q14 0 36 -2t35 -8q11 -5 21 -6.5

<glyph glyph-name="f_f" unicode="ff" horiz-adv-x="731" 
d="M439 0v412h-183v-412h-164v412h-74v124h74v9q0 43 6.5 82.5t27.5 70t59.5 48.5t102.5 18h74v-128h-41q-16 0 -28 -4t-20.5 -15t-12.5 -30.5t-4 -49.5v-1h183v9q0 43 6.5 82.5t27.5 70t59.5 48.5t102.5 18h74v-128h-41q-16 0 -28 -4t-20.5 -15t-12.5 -30.5t-4 -49.5v-1
h107v-124h-107v-412h-164z" />
    <glyph glyph-name="f_f_i" unicode="ffi" horiz-adv-x="1007" 
d="M440 0v412h-184v-412h-164v412h-74v124h74v9q0 43 6.5 82.5t27.5 70t59.5 48.5t102.5 18h74v-128h-41q-16 0 -28 -4t-20.5 -15t-12.5 -30.5t-4 -49.5v-1h184v9q0 43 6.5 82.5t27.5 70t59.5 48.5t102.5 18h74v-128h-41q-16 0 -28 -4t-20.5 -15t-12.5 -30.5t-4 -49.5v-1h98
v-124h-98v-412h-164zM782 0v546h164v-546h-164zM786 612v148h164v-148h-164z" />
    <glyph glyph-name="f_f_l" unicode="ffl" horiz-adv-x="1021" 
d="M439 0v412h-183v-412h-164v412h-74v124h74v9q0 43 6.5 82.5t27.5 70t59.5 48.5t102.5 18h74v-128h-41q-16 0 -28 -4t-20.5 -15t-12.5 -30.5t-4 -49.5v-1h183v9q0 43 6.5 82.5t27.5 70t59.5 48.5t102.5 18h74v-128h-41q-16 0 -28 -4t-20.5 -15t-12.5 -30.5t-4 -49.5v-1
h100v-124h-100v-412h-164zM789 0v760h164v-760h-164z" />
    <glyph glyph-name="fi" unicode="fi" horiz-adv-x="641" 
d="M92 0v412h-74v124h74v9q0 43 6.5 82.5t27.5 70t59.5 48.5t102.5 18h74v-128h-41q-16 0 -28 -4t-20.5 -15t-12.5 -30.5t-4 -49.5v-1h106v-124h-106v-412h-164zM416 0v546h164v-546h-164zM420 612v148h164v-148h-164z" />
    <glyph glyph-name="fl" unicode="fl" horiz-adv-x="649" 
d="M92 0v412h-74v124h74v9q0 43 6.5 82.5t27.5 70t59.5 48.5t102.5 18h74v-128h-41q-16 0 -28 -4t-20.5 -15t-12.5 -30.5t-4 -49.5v-1h106v-124h-106v-412h-164zM417 0v760h164v-760h-164z" />
    <glyph glyph-name=".notdef" horiz-adv-x="651" 
d="M50 0v702h551v-702h-551zM175 171q-23 28 -35.5 63t-12.5 75q0 46 17 86t46 69q-20 28 -10 59l-109 141v-629zM569 682h-487l108 -140q17 26 53.5 42t80.5 16t80.5 -16.5t56.5 -42.5zM461 157q-26 -27 -61.5 -43t-75.5 -16q-39 0 -74 15.5t-61 42.5l-105 -136h484z
M580 662l-109 -139q0 -1 1 -1q14 5 29.5 6t26.5 -7q13 -9 15 -30t-11 -32q-10 -7 -24 -7q-11 0 -22 2.5t-24 6.5q28 -29 44 -68t16 -84q0 -39 -12.5 -73.5t-34.5 -62.5l105 -136v625zM481 307q3 -26 -6.5 -49t-32.5 -26q-6 -1 -14.5 -1.5t-17.5 -0.5q-12 0 -25.5 1t-21.5 6
q-12 7 -19 20.5t-9 24.5q-1 2 -1 5q-3 10 -11 10q-6 0 -9 -10q-1 -1 -1 -5q-2 -11 -9 -24.5t-20 -20.5q-8 -5 -21.5 -6t-25.5 -1q-8 0 -17 0.5t-14 1.5q-23 3 -33 26t-7 49v1l-15 14v-13q0 -39 13.5 -73t37 -59.5t55 -40.5t67.5 -15t67.5 15t55.5 40.5t37.5 59.5t13.5 73
q0 5 -0.5 8.5t-0.5 8.5q-7 -6 -16 -18v-1zM395 480l-10 2q-13 2 -26 4.5t-23 9.5q-4 1 -12 1q-36 0 -69 -15q-10 -11 -9.5 -22t4.5 -19q7 -14 25 -30t48 -28.5t72 -20t97 -4.5q-17 65 -66 103q-5 0 -8 1q-15 5 -22 18h-1zM297 306h-1q-7 4 -25 7t-41 3q-29 0 -40.5 -4
t-11.5 -6q-1 -8 0 -18.5t4 -19.5t9 -16t16 -8q6 -1 14 -1.5t16 -0.5q32 0 42 5q8 5 14 15t8 22q3 13 -2 20zM470 306q-1 2 -12 6t-40 4q-23 0 -41 -3t-25 -7q-1 0 -1 -1q-1 0 -2 -1q-5 -7 -2 -20q2 -12 8 -22t14 -15q10 -5 41 -5q9 0 17 0.5t14 1.5q9 1 15 8t9.5 16
t4.5 19.5t0 18.5zM437 532q-18 21 -50 32.5t-63 11.5q-42 0 -76 -16.5t-44 -40.5q-9 -19 4 -39q24 19 52.5 29.5t59.5 11.5q0 5 0.5 9.5t2.5 10.5q9 21 25 25q15 4 31 -7.5t32 -25.5l2 -2q7 3 15 3q3 0 9 -2zM173 318q7 4 20 6.5t37 2.5q14 0 36 -2t35 -8q11 -5 21 -6.5
t25 6.5q12 6 34.5 8t36.5 2q15 0 31 -1.5t25 -7.5q2 3 5.5 7.5t8.5 8.5q-6 -1 -12 -0.5t-12 0.5q-57 0 -100.5 11t-74.5 28q-21 -20 -56 -33t-68 -15zM268 386q-14 11 -24 22.5t-15 22.5q-7 14 -7 30q-25 -20 -42.5 -48.5t-24.5 -63.5q31 -1 62.5 10.5t50.5 26.5zM377 180
q0 -16 -15.5 -26.5t-38.5 -10.5t-38.5 10.5t-15.5 26.5q0 15 15.5 25.5t38.5 10.5t38.5 -10.5t15.5 -25.5zM435 280q0 -2 0.5 -3.5t0.5 -3.5q0 -10 -7 -17t-18 -7q-10 0 -17 7t-7 17q0 14 12 21l-4 14q0 3 3 5q4 0 4 -3l3 -13q2 1 6 1l2 12q0 3 4 3q3 0 3 -4l-2 -12l5 -2
l6 10q2 4 4 2q5 -2 2 -5l-7 -11q3 -2 3 -4l10 8q2 2 5 0q2 -4 -1 -5zM249 310q1 3 5 3q4 -2 2 -5l-3 -14q11 -6 11 -21q0 -10 -7 -17t-17 -7t-17 7t-7 17q0 5 1 8l-11 9q-3 2 0 5q2 2 5 0l9 -8l3 4l-6 11q-3 3 1 5q3 2 5 -2l6 -10l4 2l-2 12q0 4 4 4q2 0 4 -3l1 -12
q2 0 3 -0.5t3 -0.5zM470 497q-1 -1 -4 -1q0 -7 -1 -10q1 -1 2 -1q6 -2 14 -4t15 -3.5t12.5 -1.5t8.5 2q4 2 2 12q0 8 -4 12q-7 5 -20.5 1.5t-24.5 -6.5zM395 515q-10 9 -22.5 19.5t-19.5 8.5q-4 -2 -7 -11q-3 -8 -1 -12q4 -7 18 -9.5t25 -4.5q1 -1 3 -1q1 1 1 3zM442 493
q2 6 -1 10t-9 6q-1 1 -4 1q-10 0 -13 -9q-1 -3 1 -9q4 -6 9 -7q1 0 2 -0.5t2 -0.5q11 0 13 9z" />
    <glyph glyph-name="Aacute" unicode="&#xc1;" 
d="M508 0l-43 137h-250l-43 -137h-172l268 720h160l264 -720h-184zM342 536l-80 -251h158zM276 764l88 169h175l-116 -169h-147z" />
    <glyph glyph-name="Abreve" unicode="&#x102;" 
d="M508 0l-43 137h-250l-43 -137h-172l268 720h160l264 -720h-184zM342 536l-80 -251h158zM528 918q0 -32 -10.5 -60t-32 -50t-56 -34.5t-82.5 -12.5t-82 12.5t-55.5 34.5t-32 50t-10.5 60h123q0 -19 15.5 -33.5t41.5 -14.5t43 14.5t17 33.5h121z" />
    <glyph glyph-name="Acircumflex" unicode="&#xc2;" 
d="M508 0l-43 137h-250l-43 -137h-172l268 720h160l264 -720h-184zM342 536l-80 -251h158zM405 764l-57 60l-57 -60h-135l111 155h161l113 -155h-136z" />
    <glyph glyph-name="Adieresis" unicode="&#xc4;" 
d="M508 0l-43 137h-250l-43 -137h-172l268 720h160l264 -720h-184zM342 536l-80 -251h158zM157 764v153h164v-153h-164zM375 764v153h164v-153h-164z" />
    <glyph glyph-name="uni1EA0" unicode="&#x1ea0;" 
d="M508 0l-43 137h-250l-43 -137h-172l268 720h160l264 -720h-184zM342 536l-80 -251h158zM266 -198v152h164v-152h-164z" />
    <glyph glyph-name="Agrave" unicode="&#xc0;" 
d="M508 0l-43 137h-250l-43 -137h-172l268 720h160l264 -720h-184zM342 536l-80 -251h158zM274 765l-116 169h175l88 -169h-147z" />
    <glyph glyph-name="Amacron" unicode="&#x100;" 
d="M508 0l-43 137h-250l-43 -137h-172l268 720h160l264 -720h-184zM342 536l-80 -251h158zM192 780v120h313v-120h-313z" />
    <glyph glyph-name="Aogonek" unicode="&#x104;" 
d="M508 0l-43 137h-250l-43 -137h-172l268 720h160l264 -720h-184zM342 536l-80 -251h158zM641 -187l-7.5 -5t-22 -11t-37 -10.5t-52.5 -4.5q-29 0 -48.5 7.5t-31.5 20t-17 28t-5 31.5q0 33 14.5 58.5t31.5 43.5q20 21 47 37l112 -6q-1 -1 -10.5 -6.5t-21 -16.5t-20.5 -27
t-9 -37q0 -11 6 -21t23 -10q9 0 17.5 2t15.5 4q8 3 15 7v-84z" />
    <glyph glyph-name="Aring" unicode="&#xc5;" 
d="M508 0l-43 137h-250l-43 -137h-172l268 720h160l264 -720h-184zM342 536l-80 -251h158zM465 872q0 -52 -30.5 -81.5t-84.5 -29.5q-56 0 -87 29.5t-31 81.5q0 51 31 80.5t87 29.5q54 0 84.5 -29.5t30.5 -80.5zM349 840q14 0 22.5 9t8.5 23t-8.5 23t-22.5 9t-22.5 -9
t-8.5 -23t8.5 -23t22.5 -9z" />
    <glyph glyph-name="Aringacute" unicode="&#x1fa;" 
d="M508 0l-43 137h-250l-43 -137h-172l268 720h160l264 -720h-184zM342 536l-80 -251h158zM465 872q0 -52 -30.5 -81.5t-84.5 -29.5q-56 0 -87 29.5t-31 81.5q0 51 31 80.5t87 29.5q54 0 84.5 -29.5t30.5 -80.5zM349 840q14 0 22.5 9t8.5 23t-8.5 23t-22.5 9t-22.5 -9
t-8.5 -23t8.5 -23t22.5 -9zM276 1022l88 169h175l-116 -169h-147z" />
    <glyph glyph-name="Atilde" unicode="&#xc3;" 
d="M508 0l-43 137h-250l-43 -137h-172l268 720h160l264 -720h-184zM342 536l-80 -251h158zM532 933q0 -82 -23.5 -124t-87.5 -42q-23 0 -39.5 6t-30.5 13t-26.5 13t-28.5 6q-15 0 -25.5 -5t-17 -11.5t-9 -13.5t-2.5 -11h-77q0 34 5.5 63.5t19 51.5t35 34t54.5 12q23 0 39 -5
t29.5 -11.5t25.5 -11.5t28 -5q15 0 25.5 5t16.5 11.5t9 13.5t3 11h77z" />
    <glyph glyph-name="AE" unicode="&#xc6;" horiz-adv-x="980" 
d="M452 0v137h-203l-69 -137h-180l384 720h554v-145h-331v-139h281v-137h-281v-153h338v-146h-493zM452 540l-129 -255h129v255z" />
    <glyph glyph-name="AEacute" unicode="&#x1fc;" horiz-adv-x="980" 
d="M452 0v137h-203l-69 -137h-180l384 720h554v-145h-331v-139h281v-137h-281v-153h338v-146h-493zM452 540l-129 -255h129v255zM416 764l88 169h175l-116 -169h-147z" />
    <glyph glyph-name="B" unicode="B" horiz-adv-x="695" 
d="M78 -2v724h247q91 0 148.5 -13t89.5 -37.5t43.5 -61t11.5 -82.5q0 -56 -19.5 -95.5t-75.5 -61.5q38 -11 62 -27.5t37 -38t17.5 -48t4.5 -57.5q0 -49 -10.5 -86.5t-44.5 -63t-98.5 -39t-171.5 -13.5h-241zM320 130q49 0 79.5 5t46.5 16t21.5 27.5t5.5 39.5t-5.5 40
t-21.5 28t-46.5 16t-79.5 5h-72v-177h72zM320 428q41 0 66.5 4.5t40 14.5t20 25.5t5.5 36.5t-5.5 36.5t-20 25.5t-40 14.5t-66.5 4.5h-72v-162h72z" />
    <glyph glyph-name="C" unicode="C" 
d="M643 276q-1 -80 -20 -136.5t-55 -92t-89 -51.5t-122 -16q-79 0 -136 21.5t-94.5 67t-55.5 117.5t-18 173t18 173.5t55.5 118.5t94.5 67.5t136 21.5q69 0 122 -16.5t89.5 -51.5t55.5 -90.5t20 -134.5h-167q-2 42 -10 70t-23 44.5t-37 23.5t-50 7q-36 0 -61 -11t-40.5 -38
t-23 -72t-7.5 -112q0 -66 7.5 -110.5t23 -71t40.5 -37.5t61 -11q28 0 49.5 6.5t36.5 23.5t23.5 45t10.5 72h166z" />
    <glyph glyph-name="Cacute" unicode="&#x106;" 
d="M643 276q-1 -80 -20 -136.5t-55 -92t-89 -51.5t-122 -16q-79 0 -136 21.5t-94.5 67t-55.5 117.5t-18 173t18 173.5t55.5 118.5t94.5 67.5t136 21.5q69 0 122 -16.5t89.5 -51.5t55.5 -90.5t20 -134.5h-167q-2 42 -10 70t-23 44.5t-37 23.5t-50 7q-36 0 -61 -11t-40.5 -38
t-23 -72t-7.5 -112q0 -66 7.5 -110.5t23 -71t40.5 -37.5t61 -11q28 0 49.5 6.5t36.5 23.5t23.5 45t10.5 72h166zM284 775l88 169h175l-116 -169h-147z" />
    <glyph glyph-name="Ccaron" unicode="&#x10c;" 
d="M643 276q-1 -80 -20 -136.5t-55 -92t-89 -51.5t-122 -16q-79 0 -136 21.5t-94.5 67t-55.5 117.5t-18 173t18 173.5t55.5 118.5t94.5 67.5t136 21.5q69 0 122 -16.5t89.5 -51.5t55.5 -90.5t20 -134.5h-167q-2 42 -10 70t-23 44.5t-37 23.5t-50 7q-36 0 -61 -11t-40.5 -38
t-23 -72t-7.5 -112q0 -66 7.5 -110.5t23 -71t40.5 -37.5t61 -11q28 0 49.5 6.5t36.5 23.5t23.5 45t10.5 72h166zM275 775l-111 155h135l57 -60l57 60h136l-113 -155h-161z" />
    <glyph glyph-name="Ccedilla" unicode="&#xc7;" 
d="M643 276q-1 -80 -20 -136.5t-55 -92t-89 -51.5t-122 -16q-79 0 -136 21.5t-94.5 67t-55.5 117.5t-18 173t18 173.5t55.5 118.5t94.5 67.5t136 21.5q69 0 122 -16.5t89.5 -51.5t55.5 -90.5t20 -134.5h-167q-2 42 -10 70t-23 44.5t-37 23.5t-50 7q-36 0 -61 -11t-40.5 -38
t-23 -72t-7.5 -112q0 -66 7.5 -110.5t23 -71t40.5 -37.5t61 -11q28 0 49.5 6.5t36.5 23.5t23.5 45t10.5 72h166zM235 -170q5 -2 15 -3q16 -3 54 -3q25 0 39 9.5t14 27.5q0 15 -10.5 22.5t-26.5 11.5t-33.5 4.5t-32.5 0.5h-1l57 103h130l-35 -58q19 -2 36 -8t30.5 -17.5
t21.5 -29t8 -41.5q0 -21 -6.5 -42t-24 -37t-48.5 -26t-80 -10q-61 0 -85 3q-14 2 -22 4v89z" />
    <glyph glyph-name="Ccircumflex" unicode="&#x108;" 
d="M643 276q-1 -80 -20 -136.5t-55 -92t-89 -51.5t-122 -16q-79 0 -136 21.5t-94.5 67t-55.5 117.5t-18 173t18 173.5t55.5 118.5t94.5 67.5t136 21.5q69 0 122 -16.5t89.5 -51.5t55.5 -90.5t20 -134.5h-167q-2 42 -10 70t-23 44.5t-37 23.5t-50 7q-36 0 -61 -11t-40.5 -38
t-23 -72t-7.5 -112q0 -66 7.5 -110.5t23 -71t40.5 -37.5t61 -11q28 0 49.5 6.5t36.5 23.5t23.5 45t10.5 72h166zM413 775l-57 60l-57 -60h-135l111 155h161l113 -155h-136z" />
    <glyph glyph-name="Cdotaccent" unicode="&#x10a;" 
d="M643 276q-1 -80 -20 -136.5t-55 -92t-89 -51.5t-122 -16q-79 0 -136 21.5t-94.5 67t-55.5 117.5t-18 173t18 173.5t55.5 118.5t94.5 67.5t136 21.5q69 0 122 -16.5t89.5 -51.5t55.5 -90.5t20 -134.5h-167q-2 42 -10 70t-23 44.5t-37 23.5t-50 7q-36 0 -61 -11t-40.5 -38
t-23 -72t-7.5 -112q0 -66 7.5 -110.5t23 -71t40.5 -37.5t61 -11q28 0 49.5 6.5t36.5 23.5t23.5 45t10.5 72h166zM274 775v153h164v-153h-164z" />
    <glyph glyph-name="D" unicode="D" horiz-adv-x="717" 
d="M78 -2v724h218q107 0 176 -17.5t111 -55.5q47 -43 64 -113.5t17 -176.5q0 -91 -13 -156.5t-46 -108.5q-40 -51 -113.5 -73.5t-195.5 -22.5h-218zM284 143q68 0 109.5 8t64.5 37q19 23 26.5 64t7.5 107q0 76 -9.5 119t-32.5 65q-24 23 -63.5 28t-102.5 6h-36v-434h36z" />
    <glyph glyph-name="Eth" unicode="&#xd0;" horiz-adv-x="717" 
d="M78 -2v724h218q107 0 176 -17.5t111 -55.5q47 -43 64 -113.5t17 -176.5q0 -91 -13 -156.5t-46 -108.5q-40 -51 -113.5 -73.5t-195.5 -22.5h-218zM284 143q68 0 109.5 8t64.5 37q19 23 26.5 64t7.5 107q0 76 -9.5 119t-32.5 65q-24 23 -63.5 28t-102.5 6h-36v-434h36z
M30 318v97h352v-97h-352z" />
    <glyph glyph-name="Dcaron" unicode="&#x10e;" horiz-adv-x="717" 
d="M78 -2v724h218q107 0 176 -17.5t111 -55.5q47 -43 64 -113.5t17 -176.5q0 -91 -13 -156.5t-46 -108.5q-40 -51 -113.5 -73.5t-195.5 -22.5h-218zM284 143q68 0 109.5 8t64.5 37q19 23 26.5 64t7.5 107q0 76 -9.5 119t-32.5 65q-24 23 -63.5 28t-102.5 6h-36v-434h36z
M260 764l-111 155h135l57 -60l57 60h136l-113 -155h-161z" />
    <glyph glyph-name="Dcroat" unicode="&#x110;" horiz-adv-x="717" 
d="M78 -2v724h218q107 0 176 -17.5t111 -55.5q47 -43 64 -113.5t17 -176.5q0 -91 -13 -156.5t-46 -108.5q-40 -51 -113.5 -73.5t-195.5 -22.5h-218zM284 143q68 0 109.5 8t64.5 37q19 23 26.5 64t7.5 107q0 76 -9.5 119t-32.5 65q-24 23 -63.5 28t-102.5 6h-36v-434h36z
M30 318v97h352v-97h-352z" />
    <glyph glyph-name="E" unicode="E" horiz-adv-x="620" 
d="M78 0v720h500v-145h-330v-139h280v-137h-280v-153h337v-146h-507z" />
    <glyph glyph-name="Eacute" unicode="&#xc9;" horiz-adv-x="620" 
d="M78 0v720h500v-145h-330v-139h280v-137h-280v-153h337v-146h-507zM254 764l88 169h175l-116 -169h-147z" />
    <glyph glyph-name="Ebreve" unicode="&#x114;" horiz-adv-x="620" 
d="M78 0v720h500v-145h-330v-139h280v-137h-280v-153h337v-146h-507zM506 918q0 -32 -10.5 -60t-32 -50t-56 -34.5t-82.5 -12.5t-82 12.5t-55.5 34.5t-32 50t-10.5 60h123q0 -19 15.5 -33.5t41.5 -14.5t43 14.5t17 33.5h121z" />
    <glyph glyph-name="Ecaron" unicode="&#x11a;" horiz-adv-x="620" 
d="M78 0v720h500v-145h-330v-139h280v-137h-280v-153h337v-146h-507zM245 764l-111 155h135l57 -60l57 60h136l-113 -155h-161z" />
    <glyph glyph-name="Ecircumflex" unicode="&#xca;" horiz-adv-x="620" 
d="M78 0v720h500v-145h-330v-139h280v-137h-280v-153h337v-146h-507zM383 764l-57 60l-57 -60h-135l111 155h161l113 -155h-136z" />
    <glyph glyph-name="Edieresis" unicode="&#xcb;" horiz-adv-x="620" 
d="M78 0v720h500v-145h-330v-139h280v-137h-280v-153h337v-146h-507zM135 764v153h164v-153h-164zM353 764v153h164v-153h-164z" />
    <glyph glyph-name="Edotaccent" unicode="&#x116;" horiz-adv-x="620" 
d="M78 0v720h500v-145h-330v-139h280v-137h-280v-153h337v-146h-507zM244 764v153h164v-153h-164z" />
    <glyph glyph-name="uni1EB8" unicode="&#x1eb8;" horiz-adv-x="620" 
d="M78 0v720h500v-145h-330v-139h280v-137h-280v-153h337v-146h-507zM250 -198v152h164v-152h-164z" />
    <glyph glyph-name="Egrave" unicode="&#xc8;" horiz-adv-x="620" 
d="M78 0v720h500v-145h-330v-139h280v-137h-280v-153h337v-146h-507zM252 765l-116 169h175l88 -169h-147z" />
    <glyph glyph-name="Emacron" unicode="&#x112;" horiz-adv-x="620" 
d="M78 0v720h500v-145h-330v-139h280v-137h-280v-153h337v-146h-507zM170 780v120h313v-120h-313z" />
    <glyph glyph-name="Eogonek" unicode="&#x118;" horiz-adv-x="620" 
d="M78 0v720h500v-145h-330v-139h280v-137h-280v-153h337v-146h-507zM598 -188l-7.5 -5t-22 -11t-37 -10.5t-52.5 -4.5q-29 0 -48.5 7.5t-31.5 20t-17 28t-5 31.5q0 33 14.5 58.5t31.5 43.5q20 21 47 37l112 -6q-1 -1 -10.5 -6.5t-21 -16.5t-20.5 -27t-9 -37q0 -11 6 -21
t23 -10q9 0 17.5 2t15.5 4q8 3 15 7v-84z" />
    <glyph glyph-name="uni1EBC" unicode="&#x1ebc;" horiz-adv-x="620" 
d="M78 0v720h500v-145h-330v-139h280v-137h-280v-153h337v-146h-507zM510 933q0 -82 -23.5 -124t-87.5 -42q-23 0 -39.5 6t-30.5 13t-26.5 13t-28.5 6q-15 0 -25.5 -5t-17 -11.5t-9 -13.5t-2.5 -11h-77q0 34 5.5 63.5t19 51.5t35 34t54.5 12q23 0 39 -5t29.5 -11.5
t25.5 -11.5t28 -5q15 0 25.5 5t16.5 11.5t9 13.5t3 11h77z" />
    <glyph glyph-name="F" unicode="F" horiz-adv-x="566" 
d="M78 0v720h478v-146h-308v-162h258v-140h-258v-272h-170z" />
    <glyph glyph-name="G" unicode="G" horiz-adv-x="702" 
d="M489 245h-109v127h262v-275q0 -8 -16 -27t-50.5 -39t-88 -35.5t-129.5 -15.5q-79 0 -136.5 20.5t-95 65.5t-55.5 117.5t-18 175.5t18 175.5t55.5 118t95 66.5t136.5 21q149 0 216.5 -68t67.5 -206h-163q-3 69 -33 98.5t-88 29.5q-36 0 -61.5 -11.5t-41 -39t-23 -72.5
t-7.5 -112t8 -112t25.5 -72.5t45 -39t67.5 -11.5q60 0 89 14t29 25v82z" />
    <glyph glyph-name="Gbreve" unicode="&#x11e;" horiz-adv-x="702" 
d="M489 245h-109v127h262v-275q0 -8 -16 -27t-50.5 -39t-88 -35.5t-129.5 -15.5q-79 0 -136.5 20.5t-95 65.5t-55.5 117.5t-18 175.5t18 175.5t55.5 118t95 66.5t136.5 21q149 0 216.5 -68t67.5 -206h-163q-3 69 -33 98.5t-88 29.5q-36 0 -61.5 -11.5t-41 -39t-23 -72.5
t-7.5 -112t8 -112t25.5 -72.5t45 -39t67.5 -11.5q60 0 89 14t29 25v82zM533 929q0 -32 -10.5 -60t-32 -50t-56 -34.5t-82.5 -12.5t-82 12.5t-55.5 34.5t-32 50t-10.5 60h123q0 -19 15.5 -33.5t41.5 -14.5t43 14.5t17 33.5h121z" />
    <glyph glyph-name="Gcaron" unicode="&#x1e6;" horiz-adv-x="702" 
d="M489 245h-109v127h262v-275q0 -8 -16 -27t-50.5 -39t-88 -35.5t-129.5 -15.5q-79 0 -136.5 20.5t-95 65.5t-55.5 117.5t-18 175.5t18 175.5t55.5 118t95 66.5t136.5 21q149 0 216.5 -68t67.5 -206h-163q-3 69 -33 98.5t-88 29.5q-36 0 -61.5 -11.5t-41 -39t-23 -72.5
t-7.5 -112t8 -112t25.5 -72.5t45 -39t67.5 -11.5q60 0 89 14t29 25v82zM272 775l-111 155h135l57 -60l57 60h136l-113 -155h-161z" />
    <glyph glyph-name="Gcircumflex" unicode="&#x11c;" horiz-adv-x="702" 
d="M489 245h-109v127h262v-275q0 -8 -16 -27t-50.5 -39t-88 -35.5t-129.5 -15.5q-79 0 -136.5 20.5t-95 65.5t-55.5 117.5t-18 175.5t18 175.5t55.5 118t95 66.5t136.5 21q149 0 216.5 -68t67.5 -206h-163q-3 69 -33 98.5t-88 29.5q-36 0 -61.5 -11.5t-41 -39t-23 -72.5
t-7.5 -112t8 -112t25.5 -72.5t45 -39t67.5 -11.5q60 0 89 14t29 25v82zM410 775l-57 60l-57 -60h-135l111 155h161l113 -155h-136z" />
    <glyph glyph-name="Gcommaaccent" unicode="&#x122;" horiz-adv-x="702" 
d="M489 245h-109v127h262v-275q0 -8 -16 -27t-50.5 -39t-88 -35.5t-129.5 -15.5q-79 0 -136.5 20.5t-95 65.5t-55.5 117.5t-18 175.5t18 175.5t55.5 118t95 66.5t136.5 21q149 0 216.5 -68t67.5 -206h-163q-3 69 -33 98.5t-88 29.5q-36 0 -61.5 -11.5t-41 -39t-23 -72.5
t-7.5 -112t8 -112t25.5 -72.5t45 -39t67.5 -11.5q60 0 89 14t29 25v82zM228 -309q8 18 17 39q8 18 16 42.5t16 53.5q14 55 17 82q2 17 2 30h154q-2 -17 -6 -36q-3 -17 -8.5 -39.5t-14.5 -48.5q-11 -33 -23 -56t-21 -38q-11 -18 -21 -29h-128z" />
    <glyph glyph-name="Gdotaccent" unicode="&#x120;" horiz-adv-x="702" 
d="M489 245h-109v127h262v-275q0 -8 -16 -27t-50.5 -39t-88 -35.5t-129.5 -15.5q-79 0 -136.5 20.5t-95 65.5t-55.5 117.5t-18 175.5t18 175.5t55.5 118t95 66.5t136.5 21q149 0 216.5 -68t67.5 -206h-163q-3 69 -33 98.5t-88 29.5q-36 0 -61.5 -11.5t-41 -39t-23 -72.5
t-7.5 -112t8 -112t25.5 -72.5t45 -39t67.5 -11.5q60 0 89 14t29 25v82zM271 775v153h164v-153h-164z" />
    <glyph glyph-name="H" unicode="H" horiz-adv-x="732" 
d="M484 0v287h-236v-287l-170 -1v720l170 1v-275h236v275h170v-720h-170z" />
    <glyph glyph-name="Hbar" unicode="&#x126;" horiz-adv-x="732" 
d="M484 0v287h-236v-287l-170 -1v720l170 1v-275h236v275h170v-720h-170zM5 529v106h722v-106h-722z" />
    <glyph glyph-name="Hcircumflex" unicode="&#x124;" horiz-adv-x="732" 
d="M484 0v287h-236v-287l-170 -1v720l170 1v-275h236v275h170v-720h-170zM423 764l-57 60l-57 -60h-135l111 155h161l113 -155h-136z" />
    <glyph glyph-name="I" unicode="I" horiz-adv-x="326" 
d="M78 0v720h170v-720h-170z" />
    <glyph glyph-name="IJ" unicode="&#x132;" horiz-adv-x="803" 
d="M78 0v720h170v-720h-170zM344 0v156h75q43 0 70.5 5.5t43.5 25t21.5 57t5.5 101.5l-1 363h170l2 -363q0 -97 -9 -163t-40.5 -106.5t-94 -58t-168.5 -17.5h-75z" />
    <glyph glyph-name="Iacute" unicode="&#xcd;" horiz-adv-x="326" 
d="M78 0v720h170v-720h-170zM91 764l88 169h175l-116 -169h-147z" />
    <glyph glyph-name="Ibreve" unicode="&#x12c;" horiz-adv-x="326" 
d="M78 0v720h170v-720h-170zM343 918q0 -32 -10.5 -60t-32 -50t-56 -34.5t-82.5 -12.5t-82 12.5t-55.5 34.5t-32 50t-10.5 60h123q0 -19 15.5 -33.5t41.5 -14.5t43 14.5t17 33.5h121z" />
    <glyph glyph-name="Icircumflex" unicode="&#xce;" horiz-adv-x="326" 
d="M78 0v720h170v-720h-170zM220 764l-57 60l-57 -60h-135l111 155h161l113 -155h-136z" />
    <glyph glyph-name="Idieresis" unicode="&#xcf;" horiz-adv-x="326" 
d="M78 0v720h170v-720h-170zM-28 764v153h164v-153h-164zM190 764v153h164v-153h-164z" />
    <glyph glyph-name="Idotaccent" unicode="&#x130;" horiz-adv-x="326" 
d="M78 0v720h170v-720h-170zM81 764v153h164v-153h-164z" />
    <glyph glyph-name="uni1ECA" unicode="&#x1eca;" horiz-adv-x="326" 
d="M78 0v720h170v-720h-170zM81 -200v152h164v-152h-164z" />
    <glyph glyph-name="Igrave" unicode="&#xcc;" horiz-adv-x="326" 
d="M78 0v720h170v-720h-170zM89 765l-116 169h175l88 -169h-147z" />
    <glyph glyph-name="Imacron" unicode="&#x12a;" horiz-adv-x="326" 
d="M78 0v720h170v-720h-170zM7 780v120h313v-120h-313z" />
    <glyph glyph-name="Iogonek" unicode="&#x12e;" horiz-adv-x="326" 
d="M78 0v720h170v-720h-170zM215 -187l-7.5 -5t-22 -11t-37 -10.5t-52.5 -4.5q-29 0 -48.5 7.5t-31.5 20t-17 28t-5 31.5q0 33 14.5 58.5t31.5 43.5q20 21 47 37l112 -6q-1 -1 -10.5 -6.5t-21 -16.5t-20.5 -27t-9 -37q0 -11 6 -21t23 -10q9 0 17.5 2t15.5 4q8 3 15 7v-84z
" />
    <glyph glyph-name="Itilde" unicode="&#x128;" horiz-adv-x="326" 
d="M78 0v720h170v-720h-170zM347 933q0 -82 -23.5 -124t-87.5 -42q-23 0 -39.5 6t-30.5 13t-26.5 13t-28.5 6q-15 0 -25.5 -5t-17 -11.5t-9 -13.5t-2.5 -11h-77q0 34 5.5 63.5t19 51.5t35 34t54.5 12q23 0 39 -5t29.5 -11.5t25.5 -11.5t28 -5q15 0 25.5 5t16.5 11.5t9 13.5
t3 11h77z" />
    <glyph glyph-name="J" unicode="J" horiz-adv-x="477" 
d="M18 0v156h75q43 0 70.5 5.5t43.5 25t21.5 57t5.5 101.5l-1 363h170l2 -363q0 -97 -9 -163t-40.5 -106.5t-94 -58t-168.5 -17.5h-75z" />
    <glyph glyph-name="Jcircumflex" unicode="&#x134;" horiz-adv-x="477" 
d="M18 0v156h75q43 0 70.5 5.5t43.5 25t21.5 57t5.5 101.5l-1 363h170l2 -363q0 -97 -9 -163t-40.5 -106.5t-94 -58t-168.5 -17.5h-75zM283 764l-57 60l-57 -60h-135l111 155h161l113 -155h-136z" />
    <glyph glyph-name="K" unicode="K" horiz-adv-x="696" 
d="M501 0l-182 270l-71 -90v-180h-170v720h170v-333l235 333h194l-257 -324l275 -396h-194z" />
    <glyph glyph-name="Kcommaaccent" unicode="&#x136;" horiz-adv-x="696" 
d="M501 0l-182 270l-71 -90v-180h-170v720h170v-333l235 333h194l-257 -324l275 -396h-194zM225 -309q8 18 17 39q8 18 16 42.5t16 53.5q14 55 17 82q2 17 2 30h154q-2 -17 -6 -36q-3 -17 -8.5 -39.5t-14.5 -48.5q-11 -33 -23 -56t-21 -38q-11 -18 -21 -29h-128z" />
    <glyph glyph-name="L" unicode="L" horiz-adv-x="521" 
d="M78 0v720h170v-565h254v-155h-424z" />
    <glyph glyph-name="Lacute" unicode="&#x139;" horiz-adv-x="521" 
d="M78 0v720h170v-565h254v-155h-424zM96 764l88 169h175l-116 -169h-147z" />
    <glyph glyph-name="Lcaron" unicode="&#x13d;" horiz-adv-x="521" 
d="M78 0v720h170v-565h254v-155h-424zM276 553l86 223h164l-114 -223h-136z" />
    <glyph glyph-name="Lcommaaccent" unicode="&#x13b;" horiz-adv-x="521" 
d="M78 0v720h170v-565h254v-155h-424zM142 -309q8 18 17 39q8 18 16 42.5t16 53.5q14 55 17 82q2 17 2 30h154q-2 -17 -6 -36q-3 -17 -8.5 -39.5t-14.5 -48.5q-11 -33 -23 -56t-21 -38q-11 -18 -21 -29h-128z" />
    <glyph glyph-name="Ldot" unicode="&#x13f;" horiz-adv-x="521" 
d="M78 0v720h170v-565h254v-155h-424zM285 289v142h164v-142h-164z" />
    <glyph glyph-name="Lslash" unicode="&#x141;" horiz-adv-x="521" 
d="M78 0v720h170v-565h254v-155h-424zM5 224l-53 101l381 203l53 -100z" />
    <glyph glyph-name="M" unicode="M" horiz-adv-x="939" 
d="M703 0l8 513l-177 -515h-157l-162 507l7 -505h-144v708h235l157 -509l164 509h228l-2 -708h-157z" />
    <glyph glyph-name="N" unicode="N" horiz-adv-x="751" 
d="M537 -1v1l-48 -1l-269 485l11 -484h-153v720h183l271 -487l-11 487h153v-721h-137z" />
    <glyph glyph-name="Nacute" unicode="&#x143;" horiz-adv-x="751" 
d="M537 -1v1l-48 -1l-269 485l11 -484h-153v720h183l271 -487l-11 487h153v-721h-137zM304 764l88 169h175l-116 -169h-147z" />
    <glyph glyph-name="Ncaron" unicode="&#x147;" horiz-adv-x="751" 
d="M537 -1v1l-48 -1l-269 485l11 -484h-153v720h183l271 -487l-11 487h153v-721h-137zM295 764l-111 155h135l57 -60l57 60h136l-113 -155h-161z" />
    <glyph glyph-name="Ncommaaccent" unicode="&#x145;" horiz-adv-x="751" 
d="M537 -1v1l-48 -1l-269 485l11 -484h-153v720h183l271 -487l-11 487h153v-721h-137zM227 -309q8 18 17 39q8 18 16 42.5t16 53.5q14 55 17 82q2 17 2 30h154q-2 -17 -6 -36q-3 -17 -8.5 -39.5t-14.5 -48.5q-11 -33 -23 -56t-21 -38q-11 -18 -21 -29h-128z" />
    <glyph glyph-name="Eng" unicode="&#x14a;" horiz-adv-x="751" 
d="M673 -1q0 -42 -11 -83t-40.5 -74t-81.5 -53.5t-135 -20.5h-65v141h73q57 0 84.5 24t28.5 66h-1l-305 497l11 -496h-153v720h183l273 -493l-13 493h153v-721h-1z" />
    <glyph glyph-name="uni019D" unicode="&#x19d;" horiz-adv-x="751" 
d="M537 -1v1l-32 -1l-285 491l11 -490h-153v720h183l271 -487l-11 487h153v-721h-137zM-88 -232v141h73q55 0 74 24.5t19 66.5h153q0 -42 -10.5 -83.5t-38.5 -74.5t-77.5 -53.5t-127.5 -20.5h-65z" />
    <glyph glyph-name="Ntilde" unicode="&#xd1;" horiz-adv-x="751" 
d="M537 -1v1l-48 -1l-269 485l11 -484h-153v720h183l271 -487l-11 487h153v-721h-137zM560 933q0 -82 -23.5 -124t-87.5 -42q-23 0 -39.5 6t-30.5 13t-26.5 13t-28.5 6q-15 0 -25.5 -5t-17 -11.5t-9 -13.5t-2.5 -11h-77q0 34 5.5 63.5t19 51.5t35 34t54.5 12q23 0 39 -5
t29.5 -11.5t25.5 -11.5t28 -5q15 0 25.5 5t16.5 11.5t9 13.5t3 11h77z" />
    <glyph glyph-name="O" unicode="O" horiz-adv-x="722" 
d="M361 -20q-81 0 -139 21.5t-95.5 67t-55.5 117.5t-18 173t18 173.5t55.5 118.5t95.5 67.5t139 21.5t139 -21.5t95.5 -67.5t55.5 -118.5t18 -173.5t-18 -173t-55.5 -117.5t-95.5 -67t-139 -21.5zM361 129q37 0 63 11.5t42 38t23 70.5t7 110t-7 111t-23 72t-42 38.5
t-63 11.5q-38 0 -63.5 -11.5t-42 -38.5t-23.5 -72t-7 -111t7 -110t23.5 -70.5t42 -38t63.5 -11.5z" />
    <glyph glyph-name="Oacute" unicode="&#xd3;" horiz-adv-x="722" 
d="M361 -20q-81 0 -139 21.5t-95.5 67t-55.5 117.5t-18 173t18 173.5t55.5 118.5t95.5 67.5t139 21.5t139 -21.5t95.5 -67.5t55.5 -118.5t18 -173.5t-18 -173t-55.5 -117.5t-95.5 -67t-139 -21.5zM361 129q37 0 63 11.5t42 38t23 70.5t7 110t-7 111t-23 72t-42 38.5
t-63 11.5q-38 0 -63.5 -11.5t-42 -38.5t-23.5 -72t-7 -111t7 -110t23.5 -70.5t42 -38t63.5 -11.5zM289 775l88 169h175l-116 -169h-147z" />
    <glyph glyph-name="Obreve" unicode="&#x14e;" horiz-adv-x="722" 
d="M361 -20q-81 0 -139 21.5t-95.5 67t-55.5 117.5t-18 173t18 173.5t55.5 118.5t95.5 67.5t139 21.5t139 -21.5t95.5 -67.5t55.5 -118.5t18 -173.5t-18 -173t-55.5 -117.5t-95.5 -67t-139 -21.5zM361 129q37 0 63 11.5t42 38t23 70.5t7 110t-7 111t-23 72t-42 38.5
t-63 11.5q-38 0 -63.5 -11.5t-42 -38.5t-23.5 -72t-7 -111t7 -110t23.5 -70.5t42 -38t63.5 -11.5zM541 929q0 -32 -10.5 -60t-32 -50t-56 -34.5t-82.5 -12.5t-82 12.5t-55.5 34.5t-32 50t-10.5 60h123q0 -19 15.5 -33.5t41.5 -14.5t43 14.5t17 33.5h121z" />
    <glyph glyph-name="Ocircumflex" unicode="&#xd4;" horiz-adv-x="722" 
d="M361 -20q-81 0 -139 21.5t-95.5 67t-55.5 117.5t-18 173t18 173.5t55.5 118.5t95.5 67.5t139 21.5t139 -21.5t95.5 -67.5t55.5 -118.5t18 -173.5t-18 -173t-55.5 -117.5t-95.5 -67t-139 -21.5zM361 129q37 0 63 11.5t42 38t23 70.5t7 110t-7 111t-23 72t-42 38.5
t-63 11.5q-38 0 -63.5 -11.5t-42 -38.5t-23.5 -72t-7 -111t7 -110t23.5 -70.5t42 -38t63.5 -11.5zM418 775l-57 60l-57 -60h-135l111 155h161l113 -155h-136z" />
    <glyph glyph-name="Odieresis" unicode="&#xd6;" horiz-adv-x="722" 
d="M361 -20q-81 0 -139 21.5t-95.5 67t-55.5 117.5t-18 173t18 173.5t55.5 118.5t95.5 67.5t139 21.5t139 -21.5t95.5 -67.5t55.5 -118.5t18 -173.5t-18 -173t-55.5 -117.5t-95.5 -67t-139 -21.5zM361 129q37 0 63 11.5t42 38t23 70.5t7 110t-7 111t-23 72t-42 38.5
t-63 11.5q-38 0 -63.5 -11.5t-42 -38.5t-23.5 -72t-7 -111t7 -110t23.5 -70.5t42 -38t63.5 -11.5zM170 775v153h164v-153h-164zM388 775v153h164v-153h-164z" />
    <glyph glyph-name="uni1ECC" unicode="&#x1ecc;" horiz-adv-x="722" 
d="M361 -20q-81 0 -139 21.5t-95.5 67t-55.5 117.5t-18 173t18 173.5t55.5 118.5t95.5 67.5t139 21.5t139 -21.5t95.5 -67.5t55.5 -118.5t18 -173.5t-18 -173t-55.5 -117.5t-95.5 -67t-139 -21.5zM361 129q37 0 63 11.5t42 38t23 70.5t7 110t-7 111t-23 72t-42 38.5
t-63 11.5q-38 0 -63.5 -11.5t-42 -38.5t-23.5 -72t-7 -111t7 -110t23.5 -70.5t42 -38t63.5 -11.5zM279 -202v152h164v-152h-164z" />
    <glyph glyph-name="Ograve" unicode="&#xd2;" horiz-adv-x="722" 
d="M361 -20q-81 0 -139 21.5t-95.5 67t-55.5 117.5t-18 173t18 173.5t55.5 118.5t95.5 67.5t139 21.5t139 -21.5t95.5 -67.5t55.5 -118.5t18 -173.5t-18 -173t-55.5 -117.5t-95.5 -67t-139 -21.5zM361 129q37 0 63 11.5t42 38t23 70.5t7 110t-7 111t-23 72t-42 38.5
t-63 11.5q-38 0 -63.5 -11.5t-42 -38.5t-23.5 -72t-7 -111t7 -110t23.5 -70.5t42 -38t63.5 -11.5zM287 776l-116 169h175l88 -169h-147z" />
    <glyph glyph-name="Ohungarumlaut" unicode="&#x150;" horiz-adv-x="722" 
d="M361 -20q-81 0 -139 21.5t-95.5 67t-55.5 117.5t-18 173t18 173.5t55.5 118.5t95.5 67.5t139 21.5t139 -21.5t95.5 -67.5t55.5 -118.5t18 -173.5t-18 -173t-55.5 -117.5t-95.5 -67t-139 -21.5zM361 129q37 0 63 11.5t42 38t23 70.5t7 110t-7 111t-23 72t-42 38.5
t-63 11.5q-38 0 -63.5 -11.5t-42 -38.5t-23.5 -72t-7 -111t7 -110t23.5 -70.5t42 -38t63.5 -11.5zM172 776l88 169h175l-116 -169h-147zM377 776l110 169h175l-138 -169h-147z" />
    <glyph glyph-name="Omacron" unicode="&#x14c;" horiz-adv-x="722" 
d="M361 -20q-81 0 -139 21.5t-95.5 67t-55.5 117.5t-18 173t18 173.5t55.5 118.5t95.5 67.5t139 21.5t139 -21.5t95.5 -67.5t55.5 -118.5t18 -173.5t-18 -173t-55.5 -117.5t-95.5 -67t-139 -21.5zM361 129q37 0 63 11.5t42 38t23 70.5t7 110t-7 111t-23 72t-42 38.5
t-63 11.5q-38 0 -63.5 -11.5t-42 -38.5t-23.5 -72t-7 -111t7 -110t23.5 -70.5t42 -38t63.5 -11.5zM205 791v120h313v-120h-313z" />
    <glyph glyph-name="uni01EA" unicode="&#x1ea;" horiz-adv-x="722" 
d="M361 -20q-81 0 -139 21.5t-95.5 67t-55.5 117.5t-18 173t18 173.5t55.5 118.5t95.5 67.5t139 21.5t139 -21.5t95.5 -67.5t55.5 -118.5t18 -173.5t-18 -173t-55.5 -117.5t-95.5 -67t-139 -21.5zM361 129q37 0 63 11.5t42 38t23 70.5t7 110t-7 111t-23 72t-42 38.5
t-63 11.5q-38 0 -63.5 -11.5t-42 -38.5t-23.5 -72t-7 -111t7 -110t23.5 -70.5t42 -38t63.5 -11.5zM548 -172l-7.5 -5t-22 -11t-37 -10.5t-52.5 -4.5q-29 0 -48.5 7.5t-31.5 20t-17 28t-5 31.5q0 33 14.5 58.5t31.5 43.5q20 21 47 37l112 -6q-1 -1 -10.5 -6.5t-21 -16.5
t-20.5 -27t-9 -37q0 -11 6 -21t23 -10q9 0 17.5 2t15.5 4q8 3 15 7v-84z" />
    <glyph glyph-name="Oslash" unicode="&#xd8;" horiz-adv-x="722" 
d="M361 -20q-81 0 -139 21.5t-95.5 67t-55.5 117.5t-18 173t18 173.5t55.5 118.5t95.5 67.5t139 21.5t139 -21.5t95.5 -67.5t55.5 -118.5t18 -173.5t-18 -173t-55.5 -117.5t-95.5 -67t-139 -21.5zM361 129q37 0 63 11.5t42 38t23 70.5t7 110t-7 111t-23 72t-42 38.5
t-63 11.5q-38 0 -63.5 -11.5t-42 -38.5t-23.5 -72t-7 -111t7 -110t23.5 -70.5t42 -38t63.5 -11.5zM44 -15l511 750h121l-511 -750h-121z" />
    <glyph glyph-name="Oslashacute" unicode="&#x1fe;" horiz-adv-x="722" 
d="M361 -20q-81 0 -139 21.5t-95.5 67t-55.5 117.5t-18 173t18 173.5t55.5 118.5t95.5 67.5t139 21.5t139 -21.5t95.5 -67.5t55.5 -118.5t18 -173.5t-18 -173t-55.5 -117.5t-95.5 -67t-139 -21.5zM361 129q37 0 63 11.5t42 38t23 70.5t7 110t-7 111t-23 72t-42 38.5
t-63 11.5q-38 0 -63.5 -11.5t-42 -38.5t-23.5 -72t-7 -111t7 -110t23.5 -70.5t42 -38t63.5 -11.5zM44 -15l511 750h121l-511 -750h-121zM289 772l88 169h175l-116 -169h-147z" />
    <glyph glyph-name="Otilde" unicode="&#xd5;" horiz-adv-x="722" 
d="M361 -20q-81 0 -139 21.5t-95.5 67t-55.5 117.5t-18 173t18 173.5t55.5 118.5t95.5 67.5t139 21.5t139 -21.5t95.5 -67.5t55.5 -118.5t18 -173.5t-18 -173t-55.5 -117.5t-95.5 -67t-139 -21.5zM361 129q37 0 63 11.5t42 38t23 70.5t7 110t-7 111t-23 72t-42 38.5
t-63 11.5q-38 0 -63.5 -11.5t-42 -38.5t-23.5 -72t-7 -111t7 -110t23.5 -70.5t42 -38t63.5 -11.5zM545 944q0 -82 -23.5 -124t-87.5 -42q-23 0 -39.5 6t-30.5 13t-26.5 13t-28.5 6q-15 0 -25.5 -5t-17 -11.5t-9 -13.5t-2.5 -11h-77q0 34 5.5 63.5t19 51.5t35 34t54.5 12
q23 0 39 -5t29.5 -11.5t25.5 -11.5t28 -5q15 0 25.5 5t16.5 11.5t9 13.5t3 11h77z" />
    <glyph glyph-name="OE" unicode="&#x152;" horiz-adv-x="986" 
d="M345 0q-75 0 -130 20.5t-91 64t-53.5 111.5t-17.5 163q0 96 17.5 164t53.5 112t91 64.5t130 20.5h598v-145h-329v-139h279v-137h-279v-153h336v-146h-605zM444 584h-83q-38 0 -63.5 -11.5t-42 -37.5t-23.5 -69.5t-7 -106.5t7 -105.5t23.5 -68.5t42 -37.5t63.5 -11.5h83
v448z" />
    <glyph glyph-name="P" unicode="P" horiz-adv-x="687" 
d="M78 -2v724h248q94 0 157.5 -10.5t101.5 -39t54 -77.5t16 -126t-16 -126.5t-54.5 -77.5t-102.5 -38.5t-161 -10.5h-73v-218h-170zM321 359q51 0 86 5t55 25q24 24 24 81q0 33 -7.5 53.5t-23.5 32.5q-20 16 -53.5 20t-80.5 4h-72v-221h72z" />
    <glyph glyph-name="Thorn" unicode="&#xde;" horiz-adv-x="687" 
d="M78 -2v724h171v-106h77q94 0 157.5 -10.5t101.5 -38.5t54 -77.5t16 -126.5t-16 -126.5t-54.5 -77.5t-102.5 -38.5t-161 -10.5h-73v-112h-170zM321 253q41 0 72 3t51.5 14t31 33t10.5 61t-10.5 61t-31 33t-51.5 13.5t-72 2.5h-73v-221h73z" />
    <glyph glyph-name="Q" unicode="Q" horiz-adv-x="722" 
d="M453 -11q-42 -9 -92 -9q-81 0 -139 21.5t-95.5 67t-55.5 117.5t-18 173t18 173.5t55.5 118.5t95.5 67.5t139 21.5t139 -21.5t95.5 -67.5t55.5 -118.5t18 -173.5q0 -116 -23.5 -192.5t-73.5 -121.5l125 -97l-90 -101zM361 129q37 0 63 11.5t42 38t23 70.5t7 110t-7 111
t-23 72t-42 38.5t-63 11.5q-38 0 -63.5 -11.5t-42 -38.5t-23.5 -72t-7 -111t7 -110t23.5 -70.5t42 -38t63.5 -11.5z" />
    <glyph glyph-name="R" unicode="R" horiz-adv-x="703" 
d="M491 0l-109 234q-14 -1 -28.5 -1h-30.5h-73v-233h-172v720h250q101 0 164 -12t98 -40t47.5 -74.5t12.5 -116.5q0 -44 -4.5 -78.5t-16.5 -61.5t-32.5 -46t-51.5 -31l138 -260h-192zM323 375q48 0 81 4t52 21q24 22 24 77q0 34 -8.5 54t-25.5 31q-20 12 -50.5 15t-72.5 3
h-73v-205h73z" />
    <glyph glyph-name="Racute" unicode="&#x154;" horiz-adv-x="703" 
d="M491 0l-109 234q-14 -1 -28.5 -1h-30.5h-73v-233h-172v720h250q101 0 164 -12t98 -40t47.5 -74.5t12.5 -116.5q0 -44 -4.5 -78.5t-16.5 -61.5t-32.5 -46t-51.5 -31l138 -260h-192zM323 375q48 0 81 4t52 21q24 22 24 77q0 34 -8.5 54t-25.5 31q-20 12 -50.5 15t-72.5 3
h-73v-205h73zM264 764l88 169h175l-116 -169h-147z" />
    <glyph glyph-name="Rcaron" unicode="&#x158;" horiz-adv-x="703" 
d="M491 0l-109 234q-14 -1 -28.5 -1h-30.5h-73v-233h-172v720h250q101 0 164 -12t98 -40t47.5 -74.5t12.5 -116.5q0 -44 -4.5 -78.5t-16.5 -61.5t-32.5 -46t-51.5 -31l138 -260h-192zM323 375q48 0 81 4t52 21q24 22 24 77q0 34 -8.5 54t-25.5 31q-20 12 -50.5 15t-72.5 3
h-73v-205h73zM255 764l-111 155h135l57 -60l57 60h136l-113 -155h-161z" />
    <glyph glyph-name="Rcommaaccent" unicode="&#x156;" horiz-adv-x="703" 
d="M491 0l-109 234q-14 -1 -28.5 -1h-30.5h-73v-233h-172v720h250q101 0 164 -12t98 -40t47.5 -74.5t12.5 -116.5q0 -44 -4.5 -78.5t-16.5 -61.5t-32.5 -46t-51.5 -31l138 -260h-192zM323 375q48 0 81 4t52 21q24 22 24 77q0 34 -8.5 54t-25.5 31q-20 12 -50.5 15t-72.5 3
h-73v-205h73zM221 -309q8 18 17 39q8 18 16 42.5t16 53.5q14 55 17 82q2 17 2 30h154q-2 -17 -6 -36q-3 -17 -8.5 -39.5t-14.5 -48.5q-11 -33 -23 -56t-21 -38q-11 -18 -21 -29h-128z" />
    <glyph glyph-name="S" unicode="S" horiz-adv-x="657" 
d="M446 504q0 40 -29 67.5t-85 27.5q-30 0 -50.5 -6t-33 -16.5t-18 -23.5t-5.5 -27q0 -27 17 -43.5t45 -27.5t63.5 -19.5t73 -18.5t73 -25t63.5 -39t45 -60.5t17 -89.5q0 -55 -16.5 -97t-51.5 -70t-91 -42t-135 -14q-146 0 -218.5 59t-72.5 194h163q0 -57 35 -84t87 -27
q66 0 95 21t29 53q0 27 -17 43t-44.5 26t-63 17.5t-72.5 17.5t-72 25.5t-63 42t-45 66t-17 98.5q0 48 16 87t49 66t85 41.5t125 14.5q146 0 213 -59t67 -178h-161z" />
    <glyph glyph-name="Sacute" unicode="&#x15a;" horiz-adv-x="657" 
d="M446 504q0 40 -29 67.5t-85 27.5q-30 0 -50.5 -6t-33 -16.5t-18 -23.5t-5.5 -27q0 -27 17 -43.5t45 -27.5t63.5 -19.5t73 -18.5t73 -25t63.5 -39t45 -60.5t17 -89.5q0 -55 -16.5 -97t-51.5 -70t-91 -42t-135 -14q-146 0 -218.5 59t-72.5 194h163q0 -57 35 -84t87 -27
q66 0 95 21t29 53q0 27 -17 43t-44.5 26t-63 17.5t-72.5 17.5t-72 25.5t-63 42t-45 66t-17 98.5q0 48 16 87t49 66t85 41.5t125 14.5q146 0 213 -59t67 -178h-161zM258 775l88 169h175l-116 -169h-147z" />
    <glyph glyph-name="Scaron" unicode="&#x160;" horiz-adv-x="657" 
d="M446 504q0 40 -29 67.5t-85 27.5q-30 0 -50.5 -6t-33 -16.5t-18 -23.5t-5.5 -27q0 -27 17 -43.5t45 -27.5t63.5 -19.5t73 -18.5t73 -25t63.5 -39t45 -60.5t17 -89.5q0 -55 -16.5 -97t-51.5 -70t-91 -42t-135 -14q-146 0 -218.5 59t-72.5 194h163q0 -57 35 -84t87 -27
q66 0 95 21t29 53q0 27 -17 43t-44.5 26t-63 17.5t-72.5 17.5t-72 25.5t-63 42t-45 66t-17 98.5q0 48 16 87t49 66t85 41.5t125 14.5q146 0 213 -59t67 -178h-161zM249 775l-111 155h135l57 -60l57 60h136l-113 -155h-161z" />
    <glyph glyph-name="Scedilla" unicode="&#x15e;" horiz-adv-x="657" 
d="M446 504q0 40 -29 67.5t-85 27.5q-30 0 -50.5 -6t-33 -16.5t-18 -23.5t-5.5 -27q0 -27 17 -43.5t45 -27.5t63.5 -19.5t73 -18.5t73 -25t63.5 -39t45 -60.5t17 -89.5q0 -55 -16.5 -97t-51.5 -70t-91 -42t-135 -14q-146 0 -218.5 59t-72.5 194h163q0 -57 35 -84t87 -27
q66 0 95 21t29 53q0 27 -17 43t-44.5 26t-63 17.5t-72.5 17.5t-72 25.5t-63 42t-45 66t-17 98.5q0 48 16 87t49 66t85 41.5t125 14.5q146 0 213 -59t67 -178h-161zM201 -172q5 -2 15 -3q16 -3 54 -3q25 0 39 9.5t14 27.5q0 15 -10.5 22.5t-26.5 11.5t-33.5 4.5t-32.5 0.5h-1
l57 103h130l-35 -58q19 -2 36 -8t30.5 -17.5t21.5 -29t8 -41.5q0 -21 -6.5 -42t-24 -37t-48.5 -26t-80 -10q-61 0 -85 3q-14 2 -22 4v89z" />
    <glyph glyph-name="Scircumflex" unicode="&#x15c;" horiz-adv-x="657" 
d="M446 504q0 40 -29 67.5t-85 27.5q-30 0 -50.5 -6t-33 -16.5t-18 -23.5t-5.5 -27q0 -27 17 -43.5t45 -27.5t63.5 -19.5t73 -18.5t73 -25t63.5 -39t45 -60.5t17 -89.5q0 -55 -16.5 -97t-51.5 -70t-91 -42t-135 -14q-146 0 -218.5 59t-72.5 194h163q0 -57 35 -84t87 -27
q66 0 95 21t29 53q0 27 -17 43t-44.5 26t-63 17.5t-72.5 17.5t-72 25.5t-63 42t-45 66t-17 98.5q0 48 16 87t49 66t85 41.5t125 14.5q146 0 213 -59t67 -178h-161zM387 775l-57 60l-57 -60h-135l111 155h161l113 -155h-136z" />
    <glyph glyph-name="Scommaaccent" unicode="&#x218;" horiz-adv-x="657" 
d="M446 504q0 40 -29 67.5t-85 27.5q-30 0 -50.5 -6t-33 -16.5t-18 -23.5t-5.5 -27q0 -27 17 -43.5t45 -27.5t63.5 -19.5t73 -18.5t73 -25t63.5 -39t45 -60.5t17 -89.5q0 -55 -16.5 -97t-51.5 -70t-91 -42t-135 -14q-146 0 -218.5 59t-72.5 194h163q0 -57 35 -84t87 -27
q66 0 95 21t29 53q0 27 -17 43t-44.5 26t-63 17.5t-72.5 17.5t-72 25.5t-63 42t-45 66t-17 98.5q0 48 16 87t49 66t85 41.5t125 14.5q146 0 213 -59t67 -178h-161zM205 -311q8 18 17 39q8 18 16 42.5t16 53.5q14 55 17 82q2 17 2 30h154q-2 -17 -6 -36q-3 -17 -8.5 -39.5
t-14.5 -48.5q-11 -33 -23 -56t-21 -38q-11 -18 -21 -29h-128z" />
    <glyph glyph-name="uni018F" unicode="&#x18f;" horiz-adv-x="722" 
d="M57 454q16 151 90 218.5t214 67.5q81 0 139 -21.5t95.5 -67.5t55.5 -118.5t18 -173.5t-18 -173t-55.5 -117.5t-95.5 -67t-139 -21.5t-139 22t-95.5 69.5t-55.5 123t-18 182.5h444q-1 61 -8.5 102t-24 66t-42 36t-61.5 11q-59 0 -90 -30.5t-40 -107.5h-174zM229 276
q5 -42 15 -70t26 -45.5t38.5 -24.5t52.5 -7t53 7.5t39 24.5t25.5 45t14.5 70h-264z" />
    <glyph glyph-name="T" unicode="T" horiz-adv-x="570" 
d="M198 0l1 565h-182v155h536v-155h-184l-1 -565h-170z" />
    <glyph glyph-name="Tbar" unicode="&#x166;" horiz-adv-x="570" 
d="M198 0l1 294h-113v118h113v153h-182v155h536v-155h-184v-153h114v-118h-114l-1 -294h-170z" />
    <glyph glyph-name="Tcaron" unicode="&#x164;" horiz-adv-x="570" 
d="M198 0l1 565h-182v155h536v-155h-184l-1 -565h-170zM204 764l-111 155h135l57 -60l57 60h136l-113 -155h-161z" />
    <glyph glyph-name="uni0162" unicode="&#x162;" horiz-adv-x="570" 
d="M198 0l1 565h-182v155h536v-155h-184l-1 -565h-170zM128 -170q5 -2 15 -3q16 -3 54 -3q25 0 39 9.5t14 27.5q0 15 -10.5 22.5t-26.5 11.5t-33.5 4.5t-32.5 0.5h-1l57 103h130l-35 -58q19 -2 36 -8t30.5 -17.5t21.5 -29t8 -41.5q0 -21 -6.5 -42t-24 -37t-48.5 -26t-80 -10
q-61 0 -85 3q-14 2 -22 4v89z" />
    <glyph glyph-name="uni021A" unicode="&#x21a;" horiz-adv-x="570" 
d="M198 0l1 565h-182v155h536v-155h-184l-1 -565h-170zM132 -309q8 18 17 39q8 18 16 42.5t16 53.5q14 55 17 82q2 17 2 30h154q-2 -17 -6 -36q-3 -17 -8.5 -39.5t-14.5 -48.5q-11 -33 -23 -56t-21 -38q-11 -18 -21 -29h-128z" />
    <glyph glyph-name="U" unicode="U" horiz-adv-x="721" 
d="M476 720h173v-382q0 -97 -15.5 -165t-50 -111t-89.5 -62.5t-134 -19.5t-133.5 19.5t-89 62.5t-50 111t-15.5 165v382h171v-378q0 -65 6.5 -106t20.5 -64.5t36 -32t53 -8.5t53 8.5t36.5 32t21 64.5t6.5 106v378z" />
    <glyph glyph-name="Uacute" unicode="&#xda;" horiz-adv-x="721" 
d="M476 720h173v-382q0 -97 -15.5 -165t-50 -111t-89.5 -62.5t-134 -19.5t-133.5 19.5t-89 62.5t-50 111t-15.5 165v382h171v-378q0 -65 6.5 -106t20.5 -64.5t36 -32t53 -8.5t53 8.5t36.5 32t21 64.5t6.5 106v378zM289 764l88 169h175l-116 -169h-147z" />
    <glyph glyph-name="Ubreve" unicode="&#x16c;" horiz-adv-x="721" 
d="M476 720h173v-382q0 -97 -15.5 -165t-50 -111t-89.5 -62.5t-134 -19.5t-133.5 19.5t-89 62.5t-50 111t-15.5 165v382h171v-378q0 -65 6.5 -106t20.5 -64.5t36 -32t53 -8.5t53 8.5t36.5 32t21 64.5t6.5 106v378zM541 918q0 -32 -10.5 -60t-32 -50t-56 -34.5t-82.5 -12.5
t-82 12.5t-55.5 34.5t-32 50t-10.5 60h123q0 -19 15.5 -33.5t41.5 -14.5t43 14.5t17 33.5h121z" />
    <glyph glyph-name="Ucircumflex" unicode="&#xdb;" horiz-adv-x="721" 
d="M476 720h173v-382q0 -97 -15.5 -165t-50 -111t-89.5 -62.5t-134 -19.5t-133.5 19.5t-89 62.5t-50 111t-15.5 165v382h171v-378q0 -65 6.5 -106t20.5 -64.5t36 -32t53 -8.5t53 8.5t36.5 32t21 64.5t6.5 106v378zM418 764l-57 60l-57 -60h-135l111 155h161l113 -155h-136z
" />
    <glyph glyph-name="Udieresis" unicode="&#xdc;" horiz-adv-x="721" 
d="M476 720h173v-382q0 -97 -15.5 -165t-50 -111t-89.5 -62.5t-134 -19.5t-133.5 19.5t-89 62.5t-50 111t-15.5 165v382h171v-378q0 -65 6.5 -106t20.5 -64.5t36 -32t53 -8.5t53 8.5t36.5 32t21 64.5t6.5 106v378zM170 764v153h164v-153h-164zM388 764v153h164v-153h-164z
" />
    <glyph glyph-name="uni1EE4" unicode="&#x1ee4;" horiz-adv-x="721" 
d="M476 720h173v-382q0 -97 -15.5 -165t-50 -111t-89.5 -62.5t-134 -19.5t-133.5 19.5t-89 62.5t-50 111t-15.5 165v382h171v-378q0 -65 6.5 -106t20.5 -64.5t36 -32t53 -8.5t53 8.5t36.5 32t21 64.5t6.5 106v378zM279 -202v152h164v-152h-164z" />
    <glyph glyph-name="Ugrave" unicode="&#xd9;" horiz-adv-x="721" 
d="M476 720h173v-382q0 -97 -15.5 -165t-50 -111t-89.5 -62.5t-134 -19.5t-133.5 19.5t-89 62.5t-50 111t-15.5 165v382h171v-378q0 -65 6.5 -106t20.5 -64.5t36 -32t53 -8.5t53 8.5t36.5 32t21 64.5t6.5 106v378zM287 765l-116 169h175l88 -169h-147z" />
    <glyph glyph-name="Uhungarumlaut" unicode="&#x170;" horiz-adv-x="721" 
d="M476 720h173v-382q0 -97 -15.5 -165t-50 -111t-89.5 -62.5t-134 -19.5t-133.5 19.5t-89 62.5t-50 111t-15.5 165v382h171v-378q0 -65 6.5 -106t20.5 -64.5t36 -32t53 -8.5t53 8.5t36.5 32t21 64.5t6.5 106v378zM172 765l88 169h175l-116 -169h-147zM377 765l110 169h175
l-138 -169h-147z" />
    <glyph glyph-name="Umacron" unicode="&#x16a;" horiz-adv-x="721" 
d="M476 720h173v-382q0 -97 -15.5 -165t-50 -111t-89.5 -62.5t-134 -19.5t-133.5 19.5t-89 62.5t-50 111t-15.5 165v382h171v-378q0 -65 6.5 -106t20.5 -64.5t36 -32t53 -8.5t53 8.5t36.5 32t21 64.5t6.5 106v378zM205 780v120h313v-120h-313z" />
    <glyph glyph-name="Uogonek" unicode="&#x172;" horiz-adv-x="721" 
d="M476 720h173v-382q0 -97 -15.5 -165t-50 -111t-89.5 -62.5t-134 -19.5t-133.5 19.5t-89 62.5t-50 111t-15.5 165v382h171v-378q0 -65 6.5 -106t20.5 -64.5t36 -32t53 -8.5t53 8.5t36.5 32t21 64.5t6.5 106v378zM559 -164l-7.5 -5t-22 -11t-37 -10.5t-52.5 -4.5
q-29 0 -48.5 7.5t-31.5 20t-17 28t-5 31.5q0 33 14.5 58.5t31.5 43.5q20 21 47 37l112 -6q-1 -1 -10.5 -6.5t-21 -16.5t-20.5 -27t-9 -37q0 -11 6 -21t23 -10q9 0 17.5 2t15.5 4q8 3 15 7v-84z" />
    <glyph glyph-name="Uring" unicode="&#x16e;" horiz-adv-x="721" 
d="M476 720h173v-382q0 -97 -15.5 -165t-50 -111t-89.5 -62.5t-134 -19.5t-133.5 19.5t-89 62.5t-50 111t-15.5 165v382h171v-378q0 -65 6.5 -106t20.5 -64.5t36 -32t53 -8.5t53 8.5t36.5 32t21 64.5t6.5 106v378zM478 872q0 -52 -30.5 -81.5t-84.5 -29.5q-56 0 -87 29.5
t-31 81.5q0 51 31 80.5t87 29.5q54 0 84.5 -29.5t30.5 -80.5zM362 840q14 0 22.5 9t8.5 23t-8.5 23t-22.5 9t-22.5 -9t-8.5 -23t8.5 -23t22.5 -9z" />
    <glyph glyph-name="Utilde" unicode="&#x168;" horiz-adv-x="721" 
d="M476 720h173v-382q0 -97 -15.5 -165t-50 -111t-89.5 -62.5t-134 -19.5t-133.5 19.5t-89 62.5t-50 111t-15.5 165v382h171v-378q0 -65 6.5 -106t20.5 -64.5t36 -32t53 -8.5t53 8.5t36.5 32t21 64.5t6.5 106v378zM545 933q0 -82 -23.5 -124t-87.5 -42q-23 0 -39.5 6
t-30.5 13t-26.5 13t-28.5 6q-15 0 -25.5 -5t-17 -11.5t-9 -13.5t-2.5 -11h-77q0 34 5.5 63.5t19 51.5t35 34t54.5 12q23 0 39 -5t29.5 -11.5t25.5 -11.5t28 -5q15 0 25.5 5t16.5 11.5t9 13.5t3 11h77z" />
    <glyph glyph-name="V" unicode="V" horiz-adv-x="672" 
d="M258 0l-258 720h191l151 -498l151 498h179l-260 -720h-154z" />
    <glyph glyph-name="W" unicode="W" horiz-adv-x="1020" 
d="M634 0l-129 474l-129 -474h-156l-220 720h188l115 -502l124 502h165l134 -512l118 512h176l-222 -720h-164z" />
    <glyph glyph-name="Wacute" unicode="&#x1e82;" horiz-adv-x="1020" 
d="M634 0l-129 474l-129 -474h-156l-220 720h188l115 -502l124 502h165l134 -512l118 512h176l-222 -720h-164zM444 764l88 169h175l-116 -169h-147z" />
    <glyph glyph-name="Wcircumflex" unicode="&#x174;" horiz-adv-x="1020" 
d="M634 0l-129 474l-129 -474h-156l-220 720h188l115 -502l124 502h165l134 -512l118 512h176l-222 -720h-164zM573 764l-57 60l-57 -60h-135l111 155h161l113 -155h-136z" />
    <glyph glyph-name="Wdieresis" unicode="&#x1e84;" horiz-adv-x="1020" 
d="M634 0l-129 474l-129 -474h-156l-220 720h188l115 -502l124 502h165l134 -512l118 512h176l-222 -720h-164zM325 764v153h164v-153h-164zM543 764v153h164v-153h-164z" />
    <glyph glyph-name="Wgrave" unicode="&#x1e80;" horiz-adv-x="1020" 
d="M634 0l-129 474l-129 -474h-156l-220 720h188l115 -502l124 502h165l134 -512l118 512h176l-222 -720h-164zM442 765l-116 169h175l88 -169h-147z" />
    <glyph glyph-name="X" unicode="X" horiz-adv-x="688" 
d="M498 0l-164 234l-155 -234h-184l245 368h1l-245 352h197l156 -224l148 224h184l-238 -360l252 -360h-197z" />
    <glyph glyph-name="Y" unicode="Y" horiz-adv-x="676" 
d="M256 0v245l-256 475h196l151 -318l145 318h184l-250 -477v-243h-170z" />
    <glyph glyph-name="Yacute" unicode="&#xdd;" horiz-adv-x="676" 
d="M256 0v245l-256 475h196l151 -318l145 318h184l-250 -477v-243h-170zM264 764l88 169h175l-116 -169h-147z" />
    <glyph glyph-name="Ycircumflex" unicode="&#x176;" horiz-adv-x="676" 
d="M256 0v245l-256 475h196l151 -318l145 318h184l-250 -477v-243h-170zM393 764l-57 60l-57 -60h-135l111 155h161l113 -155h-136z" />
    <glyph glyph-name="Ydieresis" unicode="&#x178;" horiz-adv-x="676" 
d="M256 0v245l-256 475h196l151 -318l145 318h184l-250 -477v-243h-170zM145 764v153h164v-153h-164zM363 764v153h164v-153h-164z" />
    <glyph glyph-name="Ygrave" unicode="&#x1ef2;" horiz-adv-x="676" 
d="M256 0v245l-256 475h196l151 -318l145 318h184l-250 -477v-243h-170zM262 765l-116 169h175l88 -169h-147z" />
    <glyph glyph-name="uni0232" unicode="&#x232;" horiz-adv-x="676" 
d="M256 0v245l-256 475h196l151 -318l145 318h184l-250 -477v-243h-170zM180 780v120h313v-120h-313z" />
    <glyph glyph-name="uni1EF8" unicode="&#x1ef8;" horiz-adv-x="676" 
d="M256 0v245l-256 475h196l151 -318l145 318h184l-250 -477v-243h-170zM520 933q0 -82 -23.5 -124t-87.5 -42q-23 0 -39.5 6t-30.5 13t-26.5 13t-28.5 6q-15 0 -25.5 -5t-17 -11.5t-9 -13.5t-2.5 -11h-77q0 34 5.5 63.5t19 51.5t35 34t54.5 12q23 0 39 -5t29.5 -11.5
t25.5 -11.5t28 -5q15 0 25.5 5t16.5 11.5t9 13.5t3 11h77z" />
    <glyph glyph-name="Z" unicode="Z" horiz-adv-x="614" 
d="M28 2v174l371 397l-356 -2v148h536v-174l-372 -398l375 3v-148h-554z" />
    <glyph glyph-name="Zacute" unicode="&#x179;" horiz-adv-x="614" 
d="M28 2v174l371 397l-356 -2v148h536v-174l-372 -398l375 3v-148h-554zM233 764l88 169h175l-116 -169h-147z" />
    <glyph glyph-name="Zcaron" unicode="&#x17d;" horiz-adv-x="614" 
d="M28 2v174l371 397l-356 -2v148h536v-174l-372 -398l375 3v-148h-554zM224 764l-111 155h135l57 -60l57 60h136l-113 -155h-161z" />
    <glyph glyph-name="Zdotaccent" unicode="&#x17b;" horiz-adv-x="614" 
d="M28 2v174l371 397l-356 -2v148h536v-174l-372 -398l375 3v-148h-554zM223 764v153h164v-153h-164z" />
    <glyph glyph-name="a" unicode="a" horiz-adv-x="629" 
d="M427 1l-15 55q-24 -32 -64 -50.5t-103 -18.5q-97 0 -144 34q-29 21 -41.5 55t-12.5 83q0 80 43 118q21 19 51.5 29.5t68.5 16t84 6.5t97 1q0 28 -2 48.5t-10 34.5q-8 16 -24.5 23.5t-45.5 7.5q-26 0 -43.5 -7t-28 -17.5t-15 -23t-4.5 -24.5h-146q0 24 6.5 56t29.5 61
t69 49t125 20q83 0 132 -16t75 -45q17 -19 26 -43t13.5 -52.5t5.5 -61.5t1 -70v-121l8 -148h-136zM391 236q-45 0 -79.5 -2.5t-58 -10.5t-36 -24t-12.5 -43q0 -28 18.5 -46t60.5 -18q31 0 61 14t46 52v78z" />
    <glyph glyph-name="aacute" unicode="&#xe1;" horiz-adv-x="629" 
d="M427 1l-15 55q-24 -32 -64 -50.5t-103 -18.5q-97 0 -144 34q-29 21 -41.5 55t-12.5 83q0 80 43 118q21 19 51.5 29.5t68.5 16t84 6.5t97 1q0 28 -2 48.5t-10 34.5q-8 16 -24.5 23.5t-45.5 7.5q-26 0 -43.5 -7t-28 -17.5t-15 -23t-4.5 -24.5h-146q0 24 6.5 56t29.5 61
t69 49t125 20q83 0 132 -16t75 -45q17 -19 26 -43t13.5 -52.5t5.5 -61.5t1 -70v-121l8 -148h-136zM391 236q-45 0 -79.5 -2.5t-58 -10.5t-36 -24t-12.5 -43q0 -28 18.5 -46t60.5 -18q31 0 61 14t46 52v78zM237 611l88 175h171l-116 -175h-143z" />
    <glyph glyph-name="abreve" unicode="&#x103;" horiz-adv-x="629" 
d="M427 1l-15 55q-24 -32 -64 -50.5t-103 -18.5q-97 0 -144 34q-29 21 -41.5 55t-12.5 83q0 80 43 118q21 19 51.5 29.5t68.5 16t84 6.5t97 1q0 28 -2 48.5t-10 34.5q-8 16 -24.5 23.5t-45.5 7.5q-26 0 -43.5 -7t-28 -17.5t-15 -23t-4.5 -24.5h-146q0 24 6.5 56t29.5 61
t69 49t125 20q83 0 132 -16t75 -45q17 -19 26 -43t13.5 -52.5t5.5 -61.5t1 -70v-121l8 -148h-136zM391 236q-45 0 -79.5 -2.5t-58 -10.5t-36 -24t-12.5 -43q0 -28 18.5 -46t60.5 -18q31 0 61 14t46 52v78zM494 768q0 -35 -11.5 -64.5t-34 -51t-57 -34t-79.5 -12.5
q-46 0 -80 12.5t-57 34t-34.5 51t-11.5 64.5h125q0 -19 15 -34.5t43 -15.5t43.5 15.5t15.5 34.5h123z" />
    <glyph glyph-name="acircumflex" unicode="&#xe2;" horiz-adv-x="629" 
d="M427 1l-15 55q-24 -32 -64 -50.5t-103 -18.5q-97 0 -144 34q-29 21 -41.5 55t-12.5 83q0 80 43 118q21 19 51.5 29.5t68.5 16t84 6.5t97 1q0 28 -2 48.5t-10 34.5q-8 16 -24.5 23.5t-45.5 7.5q-26 0 -43.5 -7t-28 -17.5t-15 -23t-4.5 -24.5h-146q0 24 6.5 56t29.5 61
t69 49t125 20q83 0 132 -16t75 -45q17 -19 26 -43t13.5 -52.5t5.5 -61.5t1 -70v-121l8 -148h-136zM391 236q-45 0 -79.5 -2.5t-58 -10.5t-36 -24t-12.5 -43q0 -28 18.5 -46t60.5 -18q31 0 61 14t46 52v78zM368 610l-57 72l-57 -72h-143l129 174h141l131 -174h-144z" />
    <glyph glyph-name="adieresis" unicode="&#xe4;" horiz-adv-x="629" 
d="M427 1l-15 55q-24 -32 -64 -50.5t-103 -18.5q-97 0 -144 34q-29 21 -41.5 55t-12.5 83q0 80 43 118q21 19 51.5 29.5t68.5 16t84 6.5t97 1q0 28 -2 48.5t-10 34.5q-8 16 -24.5 23.5t-45.5 7.5q-26 0 -43.5 -7t-28 -17.5t-15 -23t-4.5 -24.5h-146q0 24 6.5 56t29.5 61
t69 49t125 20q83 0 132 -16t75 -45q17 -19 26 -43t13.5 -52.5t5.5 -61.5t1 -70v-121l8 -148h-136zM391 236q-45 0 -79.5 -2.5t-58 -10.5t-36 -24t-12.5 -43q0 -28 18.5 -46t60.5 -18q31 0 61 14t46 52v78zM125 612v152h160v-152h-160zM339 612v152h160v-152h-160z" />
    <glyph glyph-name="uni1EA1" unicode="&#x1ea1;" horiz-adv-x="629" 
d="M427 1l-15 55q-24 -32 -64 -50.5t-103 -18.5q-97 0 -144 34q-29 21 -41.5 55t-12.5 83q0 80 43 118q21 19 51.5 29.5t68.5 16t84 6.5t97 1q0 28 -2 48.5t-10 34.5q-8 16 -24.5 23.5t-45.5 7.5q-26 0 -43.5 -7t-28 -17.5t-15 -23t-4.5 -24.5h-146q0 24 6.5 56t29.5 61
t69 49t125 20q83 0 132 -16t75 -45q17 -19 26 -43t13.5 -52.5t5.5 -61.5t1 -70v-121l8 -148h-136zM391 236q-45 0 -79.5 -2.5t-58 -10.5t-36 -24t-12.5 -43q0 -28 18.5 -46t60.5 -18q31 0 61 14t46 52v78zM230 -202v152h164v-152h-164z" />
    <glyph glyph-name="agrave" unicode="&#xe0;" horiz-adv-x="629" 
d="M427 1l-15 55q-24 -32 -64 -50.5t-103 -18.5q-97 0 -144 34q-29 21 -41.5 55t-12.5 83q0 80 43 118q21 19 51.5 29.5t68.5 16t84 6.5t97 1q0 28 -2 48.5t-10 34.5q-8 16 -24.5 23.5t-45.5 7.5q-26 0 -43.5 -7t-28 -17.5t-15 -23t-4.5 -24.5h-146q0 24 6.5 56t29.5 61
t69 49t125 20q83 0 132 -16t75 -45q17 -19 26 -43t13.5 -52.5t5.5 -61.5t1 -70v-121l8 -148h-136zM391 236q-45 0 -79.5 -2.5t-58 -10.5t-36 -24t-12.5 -43q0 -28 18.5 -46t60.5 -18q31 0 61 14t46 52v78zM243 611l-116 175h171l88 -175h-143z" />
    <glyph glyph-name="amacron" unicode="&#x101;" horiz-adv-x="629" 
d="M427 1l-15 55q-24 -32 -64 -50.5t-103 -18.5q-97 0 -144 34q-29 21 -41.5 55t-12.5 83q0 80 43 118q21 19 51.5 29.5t68.5 16t84 6.5t97 1q0 28 -2 48.5t-10 34.5q-8 16 -24.5 23.5t-45.5 7.5q-26 0 -43.5 -7t-28 -17.5t-15 -23t-4.5 -24.5h-146q0 24 6.5 56t29.5 61
t69 49t125 20q83 0 132 -16t75 -45q17 -19 26 -43t13.5 -52.5t5.5 -61.5t1 -70v-121l8 -148h-136zM391 236q-45 0 -79.5 -2.5t-58 -10.5t-36 -24t-12.5 -43q0 -28 18.5 -46t60.5 -18q31 0 61 14t46 52v78zM156 630v116h313v-116h-313z" />
    <glyph glyph-name="aogonek" unicode="&#x105;" horiz-adv-x="629" 
d="M427 1l-15 55q-24 -32 -64 -50.5t-103 -18.5q-97 0 -144 34q-29 21 -41.5 55t-12.5 83q0 80 43 118q21 19 51.5 29.5t68.5 16t84 6.5t97 1q0 28 -2 48.5t-10 34.5q-8 16 -24.5 23.5t-45.5 7.5q-26 0 -43.5 -7t-28 -17.5t-15 -23t-4.5 -24.5h-146q0 24 6.5 56t29.5 61
t69 49t125 20q83 0 132 -16t75 -45q17 -19 26 -43t13.5 -52.5t5.5 -61.5t1 -70v-121l8 -148h-136zM391 236q-45 0 -79.5 -2.5t-58 -10.5t-36 -24t-12.5 -43q0 -28 18.5 -46t60.5 -18q31 0 61 14t46 52v78zM565 -187l-7.5 -5t-22 -11t-37 -10.5t-52.5 -4.5q-29 0 -48.5 7.5
t-31.5 20t-17 28t-5 31.5q0 33 14.5 58.5t31.5 43.5q20 21 47 37l112 -6q-1 -1 -10.5 -6.5t-21 -16.5t-20.5 -27t-9 -37q0 -11 6 -21t23 -10q9 0 17.5 2t15.5 4q8 3 15 7v-84z" />
    <glyph glyph-name="aring" unicode="&#xe5;" horiz-adv-x="629" 
d="M427 1l-15 55q-24 -32 -64 -50.5t-103 -18.5q-97 0 -144 34q-29 21 -41.5 55t-12.5 83q0 80 43 118q21 19 51.5 29.5t68.5 16t84 6.5t97 1q0 28 -2 48.5t-10 34.5q-8 16 -24.5 23.5t-45.5 7.5q-26 0 -43.5 -7t-28 -17.5t-15 -23t-4.5 -24.5h-146q0 24 6.5 56t29.5 61
t69 49t125 20q83 0 132 -16t75 -45q17 -19 26 -43t13.5 -52.5t5.5 -61.5t1 -70v-121l8 -148h-136zM391 236q-45 0 -79.5 -2.5t-58 -10.5t-36 -24t-12.5 -43q0 -28 18.5 -46t60.5 -18q31 0 61 14t46 52v78zM442 724q0 -25 -8 -47.5t-24 -39.5t-40.5 -27t-56.5 -10
q-33 0 -57.5 10t-41 27t-24.5 39.5t-8 47.5q0 51 32.5 87.5t98.5 36.5q32 0 56.5 -10t40.5 -26.5t24 -39.5t8 -48zM313 692q14 0 22.5 9t8.5 23t-8.5 23t-22.5 9t-22.5 -9t-8.5 -23t8.5 -23t22.5 -9z" />
    <glyph glyph-name="aringacute" unicode="&#x1fb;" horiz-adv-x="629" 
d="M427 1l-15 55q-24 -32 -64 -50.5t-103 -18.5q-97 0 -144 34q-29 21 -41.5 55t-12.5 83q0 80 43 118q21 19 51.5 29.5t68.5 16t84 6.5t97 1q0 28 -2 48.5t-10 34.5q-8 16 -24.5 23.5t-45.5 7.5q-26 0 -43.5 -7t-28 -17.5t-15 -23t-4.5 -24.5h-146q0 24 6.5 56t29.5 61
t69 49t125 20q83 0 132 -16t75 -45q17 -19 26 -43t13.5 -52.5t5.5 -61.5t1 -70v-121l8 -148h-136zM391 236q-45 0 -79.5 -2.5t-58 -10.5t-36 -24t-12.5 -43q0 -28 18.5 -46t60.5 -18q31 0 61 14t46 52v78zM442 724q0 -25 -8 -47.5t-24 -39.5t-40.5 -27t-56.5 -10
q-33 0 -57.5 10t-41 27t-24.5 39.5t-8 47.5q0 51 32.5 87.5t98.5 36.5q32 0 56.5 -10t40.5 -26.5t24 -39.5t8 -48zM313 692q14 0 22.5 9t8.5 23t-8.5 23t-22.5 9t-22.5 -9t-8.5 -23t8.5 -23t22.5 -9zM237 890l88 175h171l-116 -175h-143z" />
    <glyph glyph-name="atilde" unicode="&#xe3;" horiz-adv-x="629" 
d="M427 1l-15 55q-24 -32 -64 -50.5t-103 -18.5q-97 0 -144 34q-29 21 -41.5 55t-12.5 83q0 80 43 118q21 19 51.5 29.5t68.5 16t84 6.5t97 1q0 28 -2 48.5t-10 34.5q-8 16 -24.5 23.5t-45.5 7.5q-26 0 -43.5 -7t-28 -17.5t-15 -23t-4.5 -24.5h-146q0 24 6.5 56t29.5 61
t69 49t125 20q83 0 132 -16t75 -45q17 -19 26 -43t13.5 -52.5t5.5 -61.5t1 -70v-121l8 -148h-136zM391 236q-45 0 -79.5 -2.5t-58 -10.5t-36 -24t-12.5 -43q0 -28 18.5 -46t60.5 -18q31 0 61 14t46 52v78zM496 773q0 -82 -23.5 -120t-87.5 -38q-23 0 -39.5 6t-30.5 13
t-26.5 13t-28.5 6q-15 0 -25.5 -5t-17 -11.5t-9 -14t-2.5 -11.5h-77q0 70 24.5 112t89.5 42q23 0 39 -5t29.5 -11.5t25.5 -11.5t28 -5q15 0 25.5 5t16.5 11.5t9 13.5t3 11h77z" />
    <glyph glyph-name="ae" unicode="&#xe6;" horiz-adv-x="964" 
d="M553 237q3 -74 25.5 -104.5t72.5 -30.5q28 0 46.5 7t30.5 18.5t17 25t6 26.5h165q0 -36 -13.5 -70.5t-44.5 -62.5t-81.5 -45t-124.5 -17q-85 0 -138.5 23t-83.5 68q-24 -41 -68.5 -64.5t-116.5 -23.5q-107 0 -152.5 41.5t-45.5 130.5q0 63 25 97.5t70 51t107.5 19.5
t137.5 3q2 14 4 27l4 26q-7 32 -26 46.5t-60 14.5q-26 0 -43.5 -7t-28 -17.5t-15 -23t-4.5 -24.5h-146q0 24 6.5 56t29.5 61t69 49t125 20q63 0 100 -15.5t58 -38.5q32 28 79 43t113 15q74 0 125 -20t82.5 -60.5t45 -101.5t13.5 -143h-365zM394 167q-4 16 -5.5 33t-2.5 36
q-44 0 -77.5 -2.5t-56.5 -11t-35 -24t-12 -42.5q0 -28 18.5 -46t60.5 -18q16 0 33 3.5t31.5 12.5t26.5 23.5t19 35.5zM751 338q-9 60 -32.5 85t-67.5 25q-45 0 -67.5 -25t-28.5 -85h196z" />
    <glyph glyph-name="aeacute" unicode="&#x1fd;" horiz-adv-x="964" 
d="M553 237q3 -74 25.5 -104.5t72.5 -30.5q28 0 46.5 7t30.5 18.5t17 25t6 26.5h165q0 -36 -13.5 -70.5t-44.5 -62.5t-81.5 -45t-124.5 -17q-85 0 -138.5 23t-83.5 68q-24 -41 -68.5 -64.5t-116.5 -23.5q-107 0 -152.5 41.5t-45.5 130.5q0 63 25 97.5t70 51t107.5 19.5
t137.5 3q2 14 4 27l4 26q-7 32 -26 46.5t-60 14.5q-26 0 -43.5 -7t-28 -17.5t-15 -23t-4.5 -24.5h-146q0 24 6.5 56t29.5 61t69 49t125 20q63 0 100 -15.5t58 -38.5q32 28 79 43t113 15q74 0 125 -20t82.5 -60.5t45 -101.5t13.5 -143h-365zM394 167q-4 16 -5.5 33t-2.5 36
q-44 0 -77.5 -2.5t-56.5 -11t-35 -24t-12 -42.5q0 -28 18.5 -46t60.5 -18q16 0 33 3.5t31.5 12.5t26.5 23.5t19 35.5zM751 338q-9 60 -32.5 85t-67.5 25q-45 0 -67.5 -25t-28.5 -85h196zM410 611l88 175h171l-116 -175h-143z" />
    <glyph glyph-name="b" unicode="b" horiz-adv-x="660" 
d="M69 0l6 156v604h165l-1 -269q11 11 26 23t34 21.5t42.5 16t51.5 6.5q120 0 171 -73t51 -212q0 -140 -51 -212.5t-171 -72.5q-66 0 -108 21t-66 53l-14 -62h-136zM239 194q4 -14 12.5 -28.5t22 -25.5t33 -18t46.5 -7q50 0 72 38.5t22 119.5t-22 119.5t-72 38.5
q-24 0 -42.5 -7.5t-32.5 -19t-23.5 -25.5t-15.5 -26v-159z" />
    <glyph glyph-name="c" unicode="c" horiz-adv-x="610" 
d="M408 332q-2 54 -26.5 78t-67.5 24q-57 0 -79.5 -37t-22.5 -124q0 -88 22.5 -124.5t79.5 -36.5q42 0 66.5 21t26.5 66h163q-3 -51 -18.5 -91t-46 -67.5t-78 -42t-113.5 -14.5q-78 0 -129.5 19.5t-82.5 56.5t-44 90.5t-13 122.5q0 68 13 121.5t44 90.5t82.5 56.5
t129.5 19.5q68 0 115.5 -15t77.5 -44.5t44.5 -72t17.5 -97.5h-161z" />
    <glyph glyph-name="cacute" unicode="&#x107;" horiz-adv-x="610" 
d="M408 332q-2 54 -26.5 78t-67.5 24q-57 0 -79.5 -37t-22.5 -124q0 -88 22.5 -124.5t79.5 -36.5q42 0 66.5 21t26.5 66h163q-3 -51 -18.5 -91t-46 -67.5t-78 -42t-113.5 -14.5q-78 0 -129.5 19.5t-82.5 56.5t-44 90.5t-13 122.5q0 68 13 121.5t44 90.5t82.5 56.5
t129.5 19.5q68 0 115.5 -15t77.5 -44.5t44.5 -72t17.5 -97.5h-161zM238 611l88 175h171l-116 -175h-143z" />
    <glyph glyph-name="ccaron" unicode="&#x10d;" horiz-adv-x="610" 
d="M408 332q-2 54 -26.5 78t-67.5 24q-57 0 -79.5 -37t-22.5 -124q0 -88 22.5 -124.5t79.5 -36.5q42 0 66.5 21t26.5 66h163q-3 -51 -18.5 -91t-46 -67.5t-78 -42t-113.5 -14.5q-78 0 -129.5 19.5t-82.5 56.5t-44 90.5t-13 122.5q0 68 13 121.5t44 90.5t82.5 56.5
t129.5 19.5q68 0 115.5 -15t77.5 -44.5t44.5 -72t17.5 -97.5h-161zM241 610l-129 174h143l57 -71l57 71h144l-131 -174h-141z" />
    <glyph glyph-name="ccedilla" unicode="&#xe7;" horiz-adv-x="610" 
d="M408 332q-2 54 -26.5 78t-67.5 24q-57 0 -79.5 -37t-22.5 -124q0 -88 22.5 -124.5t79.5 -36.5q42 0 66.5 21t26.5 66h163q-3 -51 -18.5 -91t-46 -67.5t-78 -42t-113.5 -14.5q-78 0 -129.5 19.5t-82.5 56.5t-44 90.5t-13 122.5q0 68 13 121.5t44 90.5t82.5 56.5
t129.5 19.5q68 0 115.5 -15t77.5 -44.5t44.5 -72t17.5 -97.5h-161zM185 -170q5 -2 15 -3q16 -3 54 -3q25 0 39 9.5t14 27.5q0 15 -10.5 22.5t-26.5 11.5t-33.5 4.5t-32.5 0.5h-1l57 103h130l-35 -58q19 -2 36 -8t30.5 -17.5t21.5 -29t8 -41.5q0 -21 -6.5 -42t-24 -37
t-48.5 -26t-80 -10q-61 0 -85 3q-14 2 -22 4v89z" />
    <glyph glyph-name="ccircumflex" unicode="&#x109;" horiz-adv-x="610" 
d="M408 332q-2 54 -26.5 78t-67.5 24q-57 0 -79.5 -37t-22.5 -124q0 -88 22.5 -124.5t79.5 -36.5q42 0 66.5 21t26.5 66h163q-3 -51 -18.5 -91t-46 -67.5t-78 -42t-113.5 -14.5q-78 0 -129.5 19.5t-82.5 56.5t-44 90.5t-13 122.5q0 68 13 121.5t44 90.5t82.5 56.5
t129.5 19.5q68 0 115.5 -15t77.5 -44.5t44.5 -72t17.5 -97.5h-161zM369 610l-57 72l-57 -72h-143l129 174h141l131 -174h-144z" />
    <glyph glyph-name="cdotaccent" unicode="&#x10b;" horiz-adv-x="610" 
d="M408 332q-2 54 -26.5 78t-67.5 24q-57 0 -79.5 -37t-22.5 -124q0 -88 22.5 -124.5t79.5 -36.5q42 0 66.5 21t26.5 66h163q-3 -51 -18.5 -91t-46 -67.5t-78 -42t-113.5 -14.5q-78 0 -129.5 19.5t-82.5 56.5t-44 90.5t-13 122.5q0 68 13 121.5t44 90.5t82.5 56.5
t129.5 19.5q68 0 115.5 -15t77.5 -44.5t44.5 -72t17.5 -97.5h-161zM231 612v152h164v-152h-164z" />
    <glyph glyph-name="d" unicode="d" horiz-adv-x="660" 
d="M454 0l-15 62q-24 -32 -65 -53t-107 -21q-120 0 -171 72.5t-51 212.5q0 139 51 212t171 73q55 0 93 -18.5t60 -38.5v259h164v-604l7 -156h-137zM420 353q-6 12 -15.5 26t-23 25.5t-32 19t-43.5 7.5q-50 0 -72 -38.5t-22 -119.5t22 -119.5t72 -38.5q27 0 46.5 7t33 18.5
t21.5 25.5t13 29v158z" />
    <glyph glyph-name="eth" unicode="&#xf0;" horiz-adv-x="635" 
d="M441 664q23 -30 47.5 -69t45.5 -85.5t35.5 -99.5t18.5 -111q1 -7 1.5 -13.5t0.5 -13.5q0 -66 -14 -119.5t-46 -91t-84.5 -57.5t-128.5 -20q-77 0 -129 20t-83.5 57.5t-45.5 91t-14 119.5q0 59 14 108.5t45.5 85.5t83.5 56t129 20q5 0 11 -0.5t11 -1.5q-8 14 -17 27.5
t-18 26.5l-77 -39l-41 65l71 36q-21 25 -40 44l-33 33q-17 16 -31 27h202q5 -4 10 -9t11 -12t14 -15l74 38l41 -65zM421 263q0 35 -5 67.5t-14 63.5q-11 19 -32.5 30t-53.5 11q-59 0 -81.5 -38t-22.5 -125q0 -44 5.5 -74.5t17.5 -50t32 -28t49 -8.5t48.5 8.5t32 26.5t18 47
t6.5 70z" />
    <glyph glyph-name="dcaron" unicode="&#x10f;" horiz-adv-x="660" 
d="M454 0l-15 62q-24 -32 -65 -53t-107 -21q-120 0 -171 72.5t-51 212.5q0 139 51 212t171 73q55 0 93 -18.5t60 -38.5v259h164v-604l7 -156h-137zM420 353q-6 12 -15.5 26t-23 25.5t-32 19t-43.5 7.5q-50 0 -72 -38.5t-22 -119.5t22 -119.5t72 -38.5q27 0 46.5 7t33 18.5
t21.5 25.5t13 29v158zM598 548l73 212h145l-105 -212h-113z" />
    <glyph glyph-name="dcroat" unicode="&#x111;" horiz-adv-x="660" 
d="M454 0l-15 62q-24 -32 -65 -53t-107 -21q-120 0 -171 72.5t-51 212.5q0 139 51 212t171 73q55 0 93 -18.5t60 -38.5v259h164v-604l7 -156h-137zM420 353q-6 12 -15.5 26t-23 25.5t-32 19t-43.5 7.5q-50 0 -72 -38.5t-22 -119.5t22 -119.5t72 -38.5q27 0 46.5 7t33 18.5
t21.5 25.5t13 29v158zM293 584v97h352v-97h-352z" />
    <glyph glyph-name="e" unicode="e" horiz-adv-x="624" 
d="M213 237q3 -74 25.5 -104.5t72.5 -30.5q28 0 46.5 7t30.5 18.5t17 25t6 26.5h165q0 -36 -13.5 -70.5t-44.5 -62.5t-81.5 -45t-124.5 -17q-77 0 -128 19t-82 56t-44 90.5t-13 121.5t13 122t44 91.5t82 57.5t128 20q74 0 125 -20t82.5 -60.5t45 -101.5t13.5 -143h-365z
M411 338q-9 60 -32.5 85t-67.5 25q-45 0 -67.5 -25t-28.5 -85h196z" />
    <glyph glyph-name="eacute" unicode="&#xe9;" horiz-adv-x="624" 
d="M213 237q3 -74 25.5 -104.5t72.5 -30.5q28 0 46.5 7t30.5 18.5t17 25t6 26.5h165q0 -36 -13.5 -70.5t-44.5 -62.5t-81.5 -45t-124.5 -17q-77 0 -128 19t-82 56t-44 90.5t-13 121.5t13 122t44 91.5t82 57.5t128 20q74 0 125 -20t82.5 -60.5t45 -101.5t13.5 -143h-365z
M411 338q-9 60 -32.5 85t-67.5 25q-45 0 -67.5 -25t-28.5 -85h196zM239 611l88 175h171l-116 -175h-143z" />
    <glyph glyph-name="ebreve" unicode="&#x115;" horiz-adv-x="624" 
d="M213 237q3 -74 25.5 -104.5t72.5 -30.5q28 0 46.5 7t30.5 18.5t17 25t6 26.5h165q0 -36 -13.5 -70.5t-44.5 -62.5t-81.5 -45t-124.5 -17q-77 0 -128 19t-82 56t-44 90.5t-13 121.5t13 122t44 91.5t82 57.5t128 20q74 0 125 -20t82.5 -60.5t45 -101.5t13.5 -143h-365z
M411 338q-9 60 -32.5 85t-67.5 25q-45 0 -67.5 -25t-28.5 -85h196zM496 768q0 -35 -11.5 -64.5t-34 -51t-57 -34t-79.5 -12.5q-46 0 -80 12.5t-57 34t-34.5 51t-11.5 64.5h125q0 -19 15 -34.5t43 -15.5t43.5 15.5t15.5 34.5h123z" />
    <glyph glyph-name="ecaron" unicode="&#x11b;" horiz-adv-x="624" 
d="M213 237q3 -74 25.5 -104.5t72.5 -30.5q28 0 46.5 7t30.5 18.5t17 25t6 26.5h165q0 -36 -13.5 -70.5t-44.5 -62.5t-81.5 -45t-124.5 -17q-77 0 -128 19t-82 56t-44 90.5t-13 121.5t13 122t44 91.5t82 57.5t128 20q74 0 125 -20t82.5 -60.5t45 -101.5t13.5 -143h-365z
M411 338q-9 60 -32.5 85t-67.5 25q-45 0 -67.5 -25t-28.5 -85h196zM242 610l-129 174h143l57 -71l57 71h144l-131 -174h-141z" />
    <glyph glyph-name="ecircumflex" unicode="&#xea;" horiz-adv-x="624" 
d="M213 237q3 -74 25.5 -104.5t72.5 -30.5q28 0 46.5 7t30.5 18.5t17 25t6 26.5h165q0 -36 -13.5 -70.5t-44.5 -62.5t-81.5 -45t-124.5 -17q-77 0 -128 19t-82 56t-44 90.5t-13 121.5t13 122t44 91.5t82 57.5t128 20q74 0 125 -20t82.5 -60.5t45 -101.5t13.5 -143h-365z
M411 338q-9 60 -32.5 85t-67.5 25q-45 0 -67.5 -25t-28.5 -85h196zM370 610l-57 72l-57 -72h-143l129 174h141l131 -174h-144z" />
    <glyph glyph-name="edieresis" unicode="&#xeb;" horiz-adv-x="624" 
d="M213 237q3 -74 25.5 -104.5t72.5 -30.5q28 0 46.5 7t30.5 18.5t17 25t6 26.5h165q0 -36 -13.5 -70.5t-44.5 -62.5t-81.5 -45t-124.5 -17q-77 0 -128 19t-82 56t-44 90.5t-13 121.5t13 122t44 91.5t82 57.5t128 20q74 0 125 -20t82.5 -60.5t45 -101.5t13.5 -143h-365z
M411 338q-9 60 -32.5 85t-67.5 25q-45 0 -67.5 -25t-28.5 -85h196zM127 612v152h160v-152h-160zM341 612v152h160v-152h-160z" />
    <glyph glyph-name="edotaccent" unicode="&#x117;" horiz-adv-x="624" 
d="M213 237q3 -74 25.5 -104.5t72.5 -30.5q28 0 46.5 7t30.5 18.5t17 25t6 26.5h165q0 -36 -13.5 -70.5t-44.5 -62.5t-81.5 -45t-124.5 -17q-77 0 -128 19t-82 56t-44 90.5t-13 121.5t13 122t44 91.5t82 57.5t128 20q74 0 125 -20t82.5 -60.5t45 -101.5t13.5 -143h-365z
M411 338q-9 60 -32.5 85t-67.5 25q-45 0 -67.5 -25t-28.5 -85h196zM232 612v152h164v-152h-164z" />
    <glyph glyph-name="uni1EB9" unicode="&#x1eb9;" horiz-adv-x="624" 
d="M213 237q3 -74 25.5 -104.5t72.5 -30.5q28 0 46.5 7t30.5 18.5t17 25t6 26.5h165q0 -36 -13.5 -70.5t-44.5 -62.5t-81.5 -45t-124.5 -17q-77 0 -128 19t-82 56t-44 90.5t-13 121.5t13 122t44 91.5t82 57.5t128 20q74 0 125 -20t82.5 -60.5t45 -101.5t13.5 -143h-365z
M411 338q-9 60 -32.5 85t-67.5 25q-45 0 -67.5 -25t-28.5 -85h196zM232 -201v152h164v-152h-164z" />
    <glyph glyph-name="egrave" unicode="&#xe8;" horiz-adv-x="624" 
d="M213 237q3 -74 25.5 -104.5t72.5 -30.5q28 0 46.5 7t30.5 18.5t17 25t6 26.5h165q0 -36 -13.5 -70.5t-44.5 -62.5t-81.5 -45t-124.5 -17q-77 0 -128 19t-82 56t-44 90.5t-13 121.5t13 122t44 91.5t82 57.5t128 20q74 0 125 -20t82.5 -60.5t45 -101.5t13.5 -143h-365z
M411 338q-9 60 -32.5 85t-67.5 25q-45 0 -67.5 -25t-28.5 -85h196zM245 611l-116 175h171l88 -175h-143z" />
    <glyph glyph-name="emacron" unicode="&#x113;" horiz-adv-x="624" 
d="M213 237q3 -74 25.5 -104.5t72.5 -30.5q28 0 46.5 7t30.5 18.5t17 25t6 26.5h165q0 -36 -13.5 -70.5t-44.5 -62.5t-81.5 -45t-124.5 -17q-77 0 -128 19t-82 56t-44 90.5t-13 121.5t13 122t44 91.5t82 57.5t128 20q74 0 125 -20t82.5 -60.5t45 -101.5t13.5 -143h-365z
M411 338q-9 60 -32.5 85t-67.5 25q-45 0 -67.5 -25t-28.5 -85h196zM158 630v116h313v-116h-313z" />
    <glyph glyph-name="eogonek" unicode="&#x119;" horiz-adv-x="624" 
d="M213 237q3 -74 25.5 -104.5t72.5 -30.5q28 0 46.5 7t30.5 18.5t17 25t6 26.5h165q0 -36 -13.5 -70.5t-44.5 -62.5t-81.5 -45t-124.5 -17q-77 0 -128 19t-82 56t-44 90.5t-13 121.5t13 122t44 91.5t82 57.5t128 20q74 0 125 -20t82.5 -60.5t45 -101.5t13.5 -143h-365z
M411 338q-9 60 -32.5 85t-67.5 25q-45 0 -67.5 -25t-28.5 -85h196zM510 -161l-7.5 -5t-22 -11t-37 -10.5t-52.5 -4.5q-29 0 -48.5 7.5t-31.5 20t-17 28t-5 31.5q0 33 14.5 58.5t31.5 43.5q20 21 47 37l112 -6q-1 -1 -10.5 -6.5t-21 -16.5t-20.5 -27t-9 -37q0 -11 6 -21
t23 -10q9 0 17.5 2t15.5 4q8 3 15 7v-84z" />
    <glyph glyph-name="uni1EBD" unicode="&#x1ebd;" horiz-adv-x="624" 
d="M213 237q3 -74 25.5 -104.5t72.5 -30.5q28 0 46.5 7t30.5 18.5t17 25t6 26.5h165q0 -36 -13.5 -70.5t-44.5 -62.5t-81.5 -45t-124.5 -17q-77 0 -128 19t-82 56t-44 90.5t-13 121.5t13 122t44 91.5t82 57.5t128 20q74 0 125 -20t82.5 -60.5t45 -101.5t13.5 -143h-365z
M411 338q-9 60 -32.5 85t-67.5 25q-45 0 -67.5 -25t-28.5 -85h196zM498 773q0 -82 -23.5 -120t-87.5 -38q-23 0 -39.5 6t-30.5 13t-26.5 13t-28.5 6q-15 0 -25.5 -5t-17 -11.5t-9 -14t-2.5 -11.5h-77q0 70 24.5 112t89.5 42q23 0 39 -5t29.5 -11.5t25.5 -11.5t28 -5
q15 0 25.5 5t16.5 11.5t9 13.5t3 11h77z" />
    <glyph glyph-name="f" unicode="f" horiz-adv-x="385" 
d="M92 0v412h-74v124h74v9q0 43 6.5 83t27.5 70.5t59.5 49t102.5 18.5h74v-130h-41q-16 0 -28 -4t-20.5 -15t-12.5 -30.5t-4 -49.5v-1h108v-124h-108v-412h-164z" />
    <glyph glyph-name="g" unicode="g" horiz-adv-x="658" 
d="M422 42q-25 -23 -62.5 -38t-92.5 -15q-120 0 -171 72t-51 212q0 139 51 212t171 73q35 0 63.5 -10t50 -24t35.5 -29.5t22 -25.5l17 77h137l-6 -165v-383q0 -24 -1 -50.5t-8 -53t-23 -51t-47 -43t-79 -29.5t-119 -11q-45 0 -78.5 7t-58.5 19t-42 28t-28 33
q-17 28 -22 55.5t-5 45.5h151q0 -5 1 -17t9.5 -24t28 -21.5t56.5 -9.5q29 0 47.5 5t29.5 16q17 16 20.5 41.5t3.5 57.5v46zM422 349q-6 12 -15 26.5t-23 27t-33.5 20.5t-44.5 8q-50 0 -72 -38.5t-22 -119.5t22 -119t72 -38q28 0 48 7.5t34 20t22 28t12 30.5v147z" />
    <glyph glyph-name="gbreve" unicode="&#x11f;" horiz-adv-x="658" 
d="M422 42q-25 -23 -62.5 -38t-92.5 -15q-120 0 -171 72t-51 212q0 139 51 212t171 73q35 0 63.5 -10t50 -24t35.5 -29.5t22 -25.5l17 77h137l-6 -165v-383q0 -24 -1 -50.5t-8 -53t-23 -51t-47 -43t-79 -29.5t-119 -11q-45 0 -78.5 7t-58.5 19t-42 28t-28 33
q-17 28 -22 55.5t-5 45.5h151q0 -5 1 -17t9.5 -24t28 -21.5t56.5 -9.5q29 0 47.5 5t29.5 16q17 16 20.5 41.5t3.5 57.5v46zM422 349q-6 12 -15 26.5t-23 27t-33.5 20.5t-44.5 8q-50 0 -72 -38.5t-22 -119.5t22 -119t72 -38q28 0 48 7.5t34 20t22 28t12 30.5v147zM508 768
q0 -35 -11.5 -64.5t-34 -51t-57 -34t-79.5 -12.5q-46 0 -80 12.5t-57 34t-34.5 51t-11.5 64.5h125q0 -19 15 -34.5t43 -15.5t43.5 15.5t15.5 34.5h123z" />
    <glyph glyph-name="gcaron" unicode="&#x1e7;" horiz-adv-x="658" 
d="M422 42q-25 -23 -62.5 -38t-92.5 -15q-120 0 -171 72t-51 212q0 139 51 212t171 73q35 0 63.5 -10t50 -24t35.5 -29.5t22 -25.5l17 77h137l-6 -165v-383q0 -24 -1 -50.5t-8 -53t-23 -51t-47 -43t-79 -29.5t-119 -11q-45 0 -78.5 7t-58.5 19t-42 28t-28 33
q-17 28 -22 55.5t-5 45.5h151q0 -5 1 -17t9.5 -24t28 -21.5t56.5 -9.5q29 0 47.5 5t29.5 16q17 16 20.5 41.5t3.5 57.5v46zM422 349q-6 12 -15 26.5t-23 27t-33.5 20.5t-44.5 8q-50 0 -72 -38.5t-22 -119.5t22 -119t72 -38q28 0 48 7.5t34 20t22 28t12 30.5v147zM254 610
l-129 174h143l57 -71l57 71h144l-131 -174h-141z" />
    <glyph glyph-name="gcircumflex" unicode="&#x11d;" horiz-adv-x="658" 
d="M422 42q-25 -23 -62.5 -38t-92.5 -15q-120 0 -171 72t-51 212q0 139 51 212t171 73q35 0 63.5 -10t50 -24t35.5 -29.5t22 -25.5l17 77h137l-6 -165v-383q0 -24 -1 -50.5t-8 -53t-23 -51t-47 -43t-79 -29.5t-119 -11q-45 0 -78.5 7t-58.5 19t-42 28t-28 33
q-17 28 -22 55.5t-5 45.5h151q0 -5 1 -17t9.5 -24t28 -21.5t56.5 -9.5q29 0 47.5 5t29.5 16q17 16 20.5 41.5t3.5 57.5v46zM422 349q-6 12 -15 26.5t-23 27t-33.5 20.5t-44.5 8q-50 0 -72 -38.5t-22 -119.5t22 -119t72 -38q28 0 48 7.5t34 20t22 28t12 30.5v147zM382 610
l-57 72l-57 -72h-143l129 174h141l131 -174h-144z" />
    <glyph glyph-name="gcommaaccent" unicode="&#x123;" horiz-adv-x="658" 
d="M422 42q-25 -23 -62.5 -38t-92.5 -15q-120 0 -171 72t-51 212q0 139 51 212t171 73q35 0 63.5 -10t50 -24t35.5 -29.5t22 -25.5l17 77h137l-6 -165v-383q0 -24 -1 -50.5t-8 -53t-23 -51t-47 -43t-79 -29.5t-119 -11q-45 0 -78.5 7t-58.5 19t-42 28t-28 33
q-17 28 -22 55.5t-5 45.5h151q0 -5 1 -17t9.5 -24t28 -21.5t56.5 -9.5q29 0 47.5 5t29.5 16q17 16 20.5 41.5t3.5 57.5v46zM422 349q-6 12 -15 26.5t-23 27t-33.5 20.5t-44.5 8q-50 0 -72 -38.5t-22 -119.5t22 -119t72 -38q28 0 48 7.5t34 20t22 28t12 30.5v147zM218 597
q1 16 5 38q3 18 8.5 44t15.5 58q11 35 22 61.5t21 43.5q11 20 23 34h131q-9 -20 -18 -44q-8 -20 -16 -48t-15 -59q-7 -32 -10.5 -56t-5.5 -40q-3 -18 -3 -32h-158z" />
    <glyph glyph-name="gdotaccent" unicode="&#x121;" horiz-adv-x="658" 
d="M422 42q-25 -23 -62.5 -38t-92.5 -15q-120 0 -171 72t-51 212q0 139 51 212t171 73q35 0 63.5 -10t50 -24t35.5 -29.5t22 -25.5l17 77h137l-6 -165v-383q0 -24 -1 -50.5t-8 -53t-23 -51t-47 -43t-79 -29.5t-119 -11q-45 0 -78.5 7t-58.5 19t-42 28t-28 33
q-17 28 -22 55.5t-5 45.5h151q0 -5 1 -17t9.5 -24t28 -21.5t56.5 -9.5q29 0 47.5 5t29.5 16q17 16 20.5 41.5t3.5 57.5v46zM422 349q-6 12 -15 26.5t-23 27t-33.5 20.5t-44.5 8q-50 0 -72 -38.5t-22 -119.5t22 -119t72 -38q28 0 48 7.5t34 20t22 28t12 30.5v147zM244 612
v152h164v-152h-164z" />
    <glyph glyph-name="h" unicode="h" horiz-adv-x="660" 
d="M425 0q0 82 1 148v55.5t0.5 50t0.5 38v19.5q0 22 -2.5 42t-10 34.5t-21.5 23t-38 8.5q-28 0 -48.5 -10.5t-35.5 -25t-24 -30t-14 -26.5v-93.5v-89.5v-80v-64h-164v760h162l1 -276q10 12 25.5 25.5t36.5 25t47 19t58 7.5q52 0 88.5 -12t59.5 -39.5t33.5 -72.5t10.5 -110
v-21.5t-0.5 -40.5t-0.5 -52.5v-58.5q-1 -70 -1 -154h-164z" />
    <glyph glyph-name="hbar" unicode="&#x127;" horiz-adv-x="660" 
d="M425 0q0 82 1 148v55.5t0.5 50t0.5 38v19.5q0 22 -2.5 42t-10 34.5t-21.5 23t-38 8.5q-28 0 -48.5 -10.5t-35.5 -25t-24 -30t-14 -26.5v-93.5v-89.5v-80v-64h-164v760h162l1 -276q10 12 25.5 25.5t36.5 25t47 19t58 7.5q52 0 88.5 -12t59.5 -39.5t33.5 -72.5t10.5 -110
v-21.5t-0.5 -40.5t-0.5 -52.5v-58.5q-1 -70 -1 -154h-164zM9 590v97h352v-97h-352z" />
    <glyph glyph-name="hcircumflex" unicode="&#x125;" horiz-adv-x="660" 
d="M425 0q0 82 1 148v55.5t0.5 50t0.5 38v19.5q0 22 -2.5 42t-10 34.5t-21.5 23t-38 8.5q-28 0 -48.5 -10.5t-35.5 -25t-24 -30t-14 -26.5v-93.5v-89.5v-80v-64h-164v760h162l1 -276q10 12 25.5 25.5t36.5 25t47 19t58 7.5q52 0 88.5 -12t59.5 -39.5t33.5 -72.5t10.5 -110
v-21.5t-0.5 -40.5t-0.5 -52.5v-58.5q-1 -70 -1 -154h-164zM206 800l-57 60l-57 -60h-135l111 155h161l113 -155h-136z" />
    <glyph glyph-name="i" unicode="i" horiz-adv-x="279" 
d="M54 0v546h164v-546h-164zM58 612v152h164v-152h-164z" />
    <glyph glyph-name="dotlessi" unicode="&#x131;" horiz-adv-x="279" 
d="M54 0v546h164v-546h-164z" />
    <glyph glyph-name="iacute" unicode="&#xed;" horiz-adv-x="279" 
d="M54 0v546h164v-546h-164zM65 611l88 175h171l-116 -175h-143z" />
    <glyph glyph-name="ibreve" unicode="&#x12d;" horiz-adv-x="279" 
d="M54 0v546h164v-546h-164zM322 768q0 -35 -11.5 -64.5t-34 -51t-57 -34t-79.5 -12.5q-46 0 -80 12.5t-57 34t-34.5 51t-11.5 64.5h125q0 -19 15 -34.5t43 -15.5t43.5 15.5t15.5 34.5h123z" />
    <glyph glyph-name="icircumflex" unicode="&#xee;" horiz-adv-x="279" 
d="M54 0v546h164v-546h-164zM196 610l-57 72l-57 -72h-143l129 174h141l131 -174h-144z" />
    <glyph glyph-name="idieresis" unicode="&#xef;" horiz-adv-x="279" 
d="M54 0v546h164v-546h-164zM-47 612v152h160v-152h-160zM167 612v152h160v-152h-160z" />
    <glyph glyph-name="i.loclTRK" horiz-adv-x="279" 
d="M54 0v546h164v-546h-164zM58 612v152h164v-152h-164z" />
    <glyph glyph-name="uni1ECB" unicode="&#x1ecb;" horiz-adv-x="279" 
d="M57 0v546h164v-546h-164zM57 612v152h164v-152h-164zM57 -209v152h164v-152h-164z" />
    <glyph glyph-name="igrave" unicode="&#xec;" horiz-adv-x="279" 
d="M54 0v546h164v-546h-164zM71 611l-116 175h171l88 -175h-143z" />
    <glyph glyph-name="ij" unicode="&#x133;" horiz-adv-x="591" 
d="M54 0v546h164v-546h-164zM58 612v152h164v-152h-164zM236 -91q43 0 67 7.5t35 25t13.5 46t2.5 70.5v488h164v-488q0 -79 -8.5 -134t-37.5 -89t-85 -49t-151 -15v138zM353 612v152h164v-152h-164z" />
    <glyph glyph-name="imacron" unicode="&#x12b;" horiz-adv-x="279" 
d="M54 0v546h164v-546h-164zM-16 630v116h313v-116h-313z" />
    <glyph glyph-name="iogonek" unicode="&#x12f;" horiz-adv-x="279" 
d="M54 0v546h164v-546h-164zM58 612v152h164v-152h-164zM194 -187l-7.5 -5t-22 -11t-37 -10.5t-52.5 -4.5q-29 0 -48.5 7.5t-31.5 20t-17 28t-5 31.5q0 33 14.5 58.5t31.5 43.5q20 21 47 37l112 -6q-1 -1 -10.5 -6.5t-21 -16.5t-20.5 -27t-9 -37q0 -11 6 -21t23 -10
q9 0 17.5 2t15.5 4q8 3 15 7v-84z" />
    <glyph glyph-name="itilde" unicode="&#x129;" horiz-adv-x="279" 
d="M54 0v546h164v-546h-164zM324 773q0 -82 -23.5 -120t-87.5 -38q-23 0 -39.5 6t-30.5 13t-26.5 13t-28.5 6q-15 0 -25.5 -5t-17 -11.5t-9 -14t-2.5 -11.5h-77q0 70 24.5 112t89.5 42q23 0 39 -5t29.5 -11.5t25.5 -11.5t28 -5q15 0 25.5 5t16.5 11.5t9 13.5t3 11h77z" />
    <glyph glyph-name="j" unicode="j" horiz-adv-x="312" 
d="M-43 -91q43 0 67 7.5t35 25t13.5 46t2.5 70.5v488h164v-488q0 -79 -8.5 -134t-37.5 -89t-85 -49t-151 -15v138zM74 612v152h164v-152h-164z" />
    <glyph glyph-name="uni0237" unicode="&#x237;" horiz-adv-x="312" 
d="M-43 -91q43 0 67 7.5t35 25t13.5 46t2.5 70.5v488h164v-488q0 -79 -8.5 -134t-37.5 -89t-85 -49t-151 -15v138z" />
    <glyph glyph-name="jcircumflex" unicode="&#x135;" horiz-adv-x="312" 
d="M-43 -91q43 0 67 7.5t35 25t13.5 46t2.5 70.5v488h164v-488q0 -79 -8.5 -134t-37.5 -89t-85 -49t-151 -15v138zM212 610l-57 72l-57 -72h-143l129 174h141l131 -174h-144z" />
    <glyph glyph-name="k" unicode="k" horiz-adv-x="595" 
d="M416 0l-139 204l-44 -51v-153h-164v760h164v-427l155 213h189l-202 -230l225 -316h-184z" />
    <glyph glyph-name="kcommaaccent" unicode="&#x137;" horiz-adv-x="595" 
d="M416 0l-139 204l-44 -51v-153h-164v760h164v-427l155 213h189l-202 -230l225 -316h-184zM163 -309q8 18 17 39q8 18 16 42.5t16 53.5q14 55 17 82q2 17 2 30h154q-2 -17 -6 -36q-3 -17 -8.5 -39.5t-14.5 -48.5q-11 -33 -23 -56t-21 -38q-11 -18 -21 -29h-128z" />
    <glyph glyph-name="kgreenlandic" unicode="&#x138;" horiz-adv-x="595" 
d="M416 0l-139 204l-44 -51v-153h-164v546h164v-213l155 213h189l-202 -230l225 -316h-184z" />
    <glyph glyph-name="l" unicode="l" horiz-adv-x="301" 
d="M69 0v760h164v-760h-164z" />
    <glyph glyph-name="lacute" unicode="&#x13a;" horiz-adv-x="301" 
d="M69 0v760h164v-760h-164zM77 793l88 169h175l-116 -169h-147z" />
    <glyph glyph-name="lcaron" unicode="&#x13e;" horiz-adv-x="483" 
d="M69 0v760h164v-760h-164zM245 548l73 212h145l-105 -212h-113z" />
    <glyph glyph-name="lcommaaccent" unicode="&#x13c;" horiz-adv-x="301" 
d="M69 0v760h164v-760h-164zM-4 -309q8 18 17 39q8 18 16 42.5t16 53.5q14 55 17 82q2 17 2 30h154q-2 -17 -6 -36q-3 -17 -8.5 -39.5t-14.5 -48.5q-11 -33 -23 -56t-21 -38q-11 -18 -21 -29h-128z" />
    <glyph glyph-name="ldot" unicode="&#x140;" horiz-adv-x="455" 
d="M73 0v760h164v-760h-164zM270 308v141h164v-141h-164z" />
    <glyph glyph-name="lslash" unicode="&#x142;" horiz-adv-x="301" 
d="M69 0v760h164v-760h-164zM-12 242l-53 101l381 203l53 -100z" />
    <glyph glyph-name="m" unicode="m" horiz-adv-x="973" 
d="M744 0v148v55.5t0.5 50t0.5 38v19.5q0 22 -1.5 42t-8 34.5t-19.5 23t-36 8.5q-22 0 -39 -7t-30.5 -17.5t-23.5 -23.5t-16 -25q0 -5 0.5 -9.5t0.5 -9.5v-21.5t-0.5 -40.5t-0.5 -52.5v-58.5v-154h-154v148v55.5t0.5 50t0.5 38v19.5q0 22 -1.5 42t-8 34.5t-19.5 23t-37 8.5
t-42.5 -9t-32.5 -21.5t-23 -27t-15 -26.5v-335h-164v394l-6 152h136l17 -79q7 10 21.5 26t36 31t51 26t65.5 11q60 0 98 -21t57 -70q8 11 22.5 26.5t36 30t50 24.5t63.5 10q46 0 80 -12t56.5 -39.5t33.5 -72.5t11 -110v-21.5t-0.5 -40.5t-0.5 -52.5v-58.5q-1 -70 -1 -154
h-158z" />
    <glyph glyph-name="n" unicode="n" horiz-adv-x="660" 
d="M425 0q0 82 1 148v55.5t0.5 50t0.5 38v19.5q0 22 -2.5 42t-10 34.5t-21.5 23t-38 8.5q-25 0 -44 -8t-33 -20t-23.5 -26t-15.5 -26v-339h-164v394l-6 152h136l17 -76q7 10 22 26t37 30t51.5 24.5t66.5 10.5q52 0 88.5 -12t59.5 -39.5t33.5 -72.5t10.5 -110v-21.5
t-0.5 -40.5t-0.5 -52.5v-58.5q-1 -70 -1 -154h-164z" />
    <glyph glyph-name="nacute" unicode="&#x144;" horiz-adv-x="660" 
d="M425 0q0 82 1 148v55.5t0.5 50t0.5 38v19.5q0 22 -2.5 42t-10 34.5t-21.5 23t-38 8.5q-25 0 -44 -8t-33 -20t-23.5 -26t-15.5 -26v-339h-164v394l-6 152h136l17 -76q7 10 22 26t37 30t51.5 24.5t66.5 10.5q52 0 88.5 -12t59.5 -39.5t33.5 -72.5t10.5 -110v-21.5
t-0.5 -40.5t-0.5 -52.5v-58.5q-1 -70 -1 -154h-164zM270 611l88 175h171l-116 -175h-143z" />
    <glyph glyph-name="ncaron" unicode="&#x148;" horiz-adv-x="660" 
d="M425 0q0 82 1 148v55.5t0.5 50t0.5 38v19.5q0 22 -2.5 42t-10 34.5t-21.5 23t-38 8.5q-25 0 -44 -8t-33 -20t-23.5 -26t-15.5 -26v-339h-164v394l-6 152h136l17 -76q7 10 22 26t37 30t51.5 24.5t66.5 10.5q52 0 88.5 -12t59.5 -39.5t33.5 -72.5t10.5 -110v-21.5
t-0.5 -40.5t-0.5 -52.5v-58.5q-1 -70 -1 -154h-164zM273 610l-129 174h143l57 -71l57 71h144l-131 -174h-141z" />
    <glyph glyph-name="ncommaaccent" unicode="&#x146;" horiz-adv-x="660" 
d="M425 0q0 82 1 148v55.5t0.5 50t0.5 38v19.5q0 22 -2.5 42t-10 34.5t-21.5 23t-38 8.5q-25 0 -44 -8t-33 -20t-23.5 -26t-15.5 -26v-339h-164v394l-6 152h136l17 -76q7 10 22 26t37 30t51.5 24.5t66.5 10.5q52 0 88.5 -12t59.5 -39.5t33.5 -72.5t10.5 -110v-21.5
t-0.5 -40.5t-0.5 -52.5v-58.5q-1 -70 -1 -154h-164zM184 -309q8 18 17 39q8 18 16 42.5t16 53.5q14 55 17 82q2 17 2 30h154q-2 -17 -6 -36q-3 -17 -8.5 -39.5t-14.5 -48.5q-11 -33 -23 -56t-21 -38q-11 -18 -21 -29h-128z" />
    <glyph glyph-name="eng" unicode="&#x14b;" horiz-adv-x="660" 
d="M308 -91q43 0 66.5 7.5t34.5 25t13.5 46t2.5 70.5l2 253q0 22 -2.5 42t-10 34.5t-21.5 23t-38 8.5q-25 0 -44 -8t-33 -20t-23.5 -26t-15.5 -26v-339h-164v394l-6 152h136l17 -76q7 10 22 26t37 30t51.5 24.5t66.5 10.5q52 0 88.5 -12t59.5 -39.5t33.5 -72.5t10.5 -110
v-62l-1 -207q0 -79 -8.5 -134t-37.5 -89t-85 -49t-151 -15v138z" />
    <glyph glyph-name="uni0272" unicode="&#x272;" horiz-adv-x="661" 
d="M426 0q0 82 1 148v55.5t0.5 50t0.5 38v19.5q0 22 -2.5 42t-10 34.5t-21.5 23t-38 8.5q-25 0 -44 -8t-33 -20t-23.5 -26t-15.5 -26v-22l-1 -259q0 -79 -8.5 -134t-37.5 -89t-85 -49t-151 -15v138q43 0 66.5 7.5t34.5 25t13.5 46t2.5 70.5l2 253v83l-6 152h136l17 -76
q7 10 22 26t37 30t51.5 24.5t66.5 10.5q52 0 88.5 -12t59.5 -39.5t33.5 -72.5t10.5 -110v-21.5t-0.5 -40.5t-0.5 -52.5v-58.5q-1 -70 -1 -154h-164z" />
    <glyph glyph-name="ntilde" unicode="&#xf1;" horiz-adv-x="660" 
d="M425 0q0 82 1 148v55.5t0.5 50t0.5 38v19.5q0 22 -2.5 42t-10 34.5t-21.5 23t-38 8.5q-25 0 -44 -8t-33 -20t-23.5 -26t-15.5 -26v-339h-164v394l-6 152h136l17 -76q7 10 22 26t37 30t51.5 24.5t66.5 10.5q52 0 88.5 -12t59.5 -39.5t33.5 -72.5t10.5 -110v-21.5
t-0.5 -40.5t-0.5 -52.5v-58.5q-1 -70 -1 -154h-164zM529 773q0 -82 -23.5 -120t-87.5 -38q-23 0 -39.5 6t-30.5 13t-26.5 13t-28.5 6q-15 0 -25.5 -5t-17 -11.5t-9 -14t-2.5 -11.5h-77q0 70 24.5 112t89.5 42q23 0 39 -5t29.5 -11.5t25.5 -11.5t28 -5q15 0 25.5 5t16.5 11.5
t9 13.5t3 11h77z" />
    <glyph glyph-name="o" unicode="o" horiz-adv-x="635" 
d="M317 -16q-77 0 -129 20t-83.5 57.5t-45.5 91t-14 119.5q0 67 14 120.5t45.5 91t83.5 58t129 20.5q76 0 128.5 -20.5t84.5 -58t46 -91t14 -120.5q0 -66 -14 -119.5t-46 -91t-84.5 -57.5t-128.5 -20zM317 111q59 0 82 36.5t23 124.5q0 87 -23.5 125t-81.5 38q-59 0 -82 -38
t-23 -125q0 -88 23 -124.5t82 -36.5z" />
    <glyph glyph-name="oacute" unicode="&#xf3;" horiz-adv-x="635" 
d="M317 -16q-77 0 -129 20t-83.5 57.5t-45.5 91t-14 119.5q0 67 14 120.5t45.5 91t83.5 58t129 20.5q76 0 128.5 -20.5t84.5 -58t46 -91t14 -120.5q0 -66 -14 -119.5t-46 -91t-84.5 -57.5t-128.5 -20zM317 111q59 0 82 36.5t23 124.5q0 87 -23.5 125t-81.5 38q-59 0 -82 -38
t-23 -125q0 -88 23 -124.5t82 -36.5zM241 611l88 175h171l-116 -175h-143z" />
    <glyph glyph-name="obreve" unicode="&#x14f;" horiz-adv-x="635" 
d="M317 -16q-77 0 -129 20t-83.5 57.5t-45.5 91t-14 119.5q0 67 14 120.5t45.5 91t83.5 58t129 20.5q76 0 128.5 -20.5t84.5 -58t46 -91t14 -120.5q0 -66 -14 -119.5t-46 -91t-84.5 -57.5t-128.5 -20zM317 111q59 0 82 36.5t23 124.5q0 87 -23.5 125t-81.5 38q-59 0 -82 -38
t-23 -125q0 -88 23 -124.5t82 -36.5zM498 768q0 -35 -11.5 -64.5t-34 -51t-57 -34t-79.5 -12.5q-46 0 -80 12.5t-57 34t-34.5 51t-11.5 64.5h125q0 -19 15 -34.5t43 -15.5t43.5 15.5t15.5 34.5h123z" />
    <glyph glyph-name="ocircumflex" unicode="&#xf4;" horiz-adv-x="635" 
d="M317 -16q-77 0 -129 20t-83.5 57.5t-45.5 91t-14 119.5q0 67 14 120.5t45.5 91t83.5 58t129 20.5q76 0 128.5 -20.5t84.5 -58t46 -91t14 -120.5q0 -66 -14 -119.5t-46 -91t-84.5 -57.5t-128.5 -20zM317 111q59 0 82 36.5t23 124.5q0 87 -23.5 125t-81.5 38q-59 0 -82 -38
t-23 -125q0 -88 23 -124.5t82 -36.5zM372 610l-57 72l-57 -72h-143l129 174h141l131 -174h-144z" />
    <glyph glyph-name="odieresis" unicode="&#xf6;" horiz-adv-x="635" 
d="M317 -16q-77 0 -129 20t-83.5 57.5t-45.5 91t-14 119.5q0 67 14 120.5t45.5 91t83.5 58t129 20.5q76 0 128.5 -20.5t84.5 -58t46 -91t14 -120.5q0 -66 -14 -119.5t-46 -91t-84.5 -57.5t-128.5 -20zM317 111q59 0 82 36.5t23 124.5q0 87 -23.5 125t-81.5 38q-59 0 -82 -38
t-23 -125q0 -88 23 -124.5t82 -36.5zM129 612v152h160v-152h-160zM343 612v152h160v-152h-160z" />
    <glyph glyph-name="uni1ECD" unicode="&#x1ecd;" horiz-adv-x="635" 
d="M317 -16q-77 0 -129 20t-83.5 57.5t-45.5 91t-14 119.5q0 67 14 120.5t45.5 91t83.5 58t129 20.5q76 0 128.5 -20.5t84.5 -58t46 -91t14 -120.5q0 -66 -14 -119.5t-46 -91t-84.5 -57.5t-128.5 -20zM317 111q59 0 82 36.5t23 124.5q0 87 -23.5 125t-81.5 38q-59 0 -82 -38
t-23 -125q0 -88 23 -124.5t82 -36.5zM234 -202v152h164v-152h-164z" />
    <glyph glyph-name="ograve" unicode="&#xf2;" horiz-adv-x="635" 
d="M317 -16q-77 0 -129 20t-83.5 57.5t-45.5 91t-14 119.5q0 67 14 120.5t45.5 91t83.5 58t129 20.5q76 0 128.5 -20.5t84.5 -58t46 -91t14 -120.5q0 -66 -14 -119.5t-46 -91t-84.5 -57.5t-128.5 -20zM317 111q59 0 82 36.5t23 124.5q0 87 -23.5 125t-81.5 38q-59 0 -82 -38
t-23 -125q0 -88 23 -124.5t82 -36.5zM247 611l-116 175h171l88 -175h-143z" />
    <glyph glyph-name="ohungarumlaut" unicode="&#x151;" horiz-adv-x="635" 
d="M317 -16q-77 0 -129 20t-83.5 57.5t-45.5 91t-14 119.5q0 67 14 120.5t45.5 91t83.5 58t129 20.5q76 0 128.5 -20.5t84.5 -58t46 -91t14 -120.5q0 -66 -14 -119.5t-46 -91t-84.5 -57.5t-128.5 -20zM317 111q59 0 82 36.5t23 124.5q0 87 -23.5 125t-81.5 38q-59 0 -82 -38
t-23 -125q0 -88 23 -124.5t82 -36.5zM119 611l88 175h175l-116 -175h-147zM324 611l110 175h175l-138 -175h-147z" />
    <glyph glyph-name="omacron" unicode="&#x14d;" horiz-adv-x="635" 
d="M317 -16q-77 0 -129 20t-83.5 57.5t-45.5 91t-14 119.5q0 67 14 120.5t45.5 91t83.5 58t129 20.5q76 0 128.5 -20.5t84.5 -58t46 -91t14 -120.5q0 -66 -14 -119.5t-46 -91t-84.5 -57.5t-128.5 -20zM317 111q59 0 82 36.5t23 124.5q0 87 -23.5 125t-81.5 38q-59 0 -82 -38
t-23 -125q0 -88 23 -124.5t82 -36.5zM160 630v116h313v-116h-313z" />
    <glyph glyph-name="uni01EB" unicode="&#x1eb;" horiz-adv-x="635" 
d="M317 -16q-77 0 -129 20t-83.5 57.5t-45.5 91t-14 119.5q0 67 14 120.5t45.5 91t83.5 58t129 20.5q76 0 128.5 -20.5t84.5 -58t46 -91t14 -120.5q0 -66 -14 -119.5t-46 -91t-84.5 -57.5t-128.5 -20zM317 111q59 0 82 36.5t23 124.5q0 87 -23.5 125t-81.5 38q-59 0 -82 -38
t-23 -125q0 -88 23 -124.5t82 -36.5zM517 -154l-7.5 -5t-22 -11t-37 -10.5t-52.5 -4.5q-29 0 -48.5 7.5t-31.5 20t-17 28t-5 31.5q0 33 14.5 58.5t31.5 43.5q20 21 47 37l112 -6q-1 -1 -10.5 -6.5t-21 -16.5t-20.5 -27t-9 -37q0 -11 6 -21t23 -10q9 0 17.5 2t15.5 4
q8 3 15 7v-84z" />
    <glyph glyph-name="oslash" unicode="&#xf8;" horiz-adv-x="635" 
d="M317 -16q-77 0 -129 20t-83.5 57.5t-45.5 91t-14 119.5q0 67 14 120.5t45.5 91t83.5 58t129 20.5q76 0 128.5 -20.5t84.5 -58t46 -91t14 -120.5q0 -66 -14 -119.5t-46 -91t-84.5 -57.5t-128.5 -20zM317 111q59 0 82 36.5t23 124.5q0 87 -23.5 125t-81.5 38q-59 0 -82 -38
t-23 -125q0 -88 23 -124.5t82 -36.5zM47 -15l425 571h106l-424 -571h-107z" />
    <glyph glyph-name="oslashacute" unicode="&#x1ff;" horiz-adv-x="635" 
d="M317 -16q-77 0 -129 20t-83.5 57.5t-45.5 91t-14 119.5q0 67 14 120.5t45.5 91t83.5 58t129 20.5q76 0 128.5 -20.5t84.5 -58t46 -91t14 -120.5q0 -66 -14 -119.5t-46 -91t-84.5 -57.5t-128.5 -20zM317 111q59 0 82 36.5t23 124.5q0 87 -23.5 125t-81.5 38q-59 0 -82 -38
t-23 -125q0 -88 23 -124.5t82 -36.5zM47 -15l425 571h106l-424 -571h-107zM241 611l88 175h171l-116 -175h-143z" />
    <glyph glyph-name="otilde" unicode="&#xf5;" horiz-adv-x="635" 
d="M317 -16q-77 0 -129 20t-83.5 57.5t-45.5 91t-14 119.5q0 67 14 120.5t45.5 91t83.5 58t129 20.5q76 0 128.5 -20.5t84.5 -58t46 -91t14 -120.5q0 -66 -14 -119.5t-46 -91t-84.5 -57.5t-128.5 -20zM317 111q59 0 82 36.5t23 124.5q0 87 -23.5 125t-81.5 38q-59 0 -82 -38
t-23 -125q0 -88 23 -124.5t82 -36.5zM500 773q0 -82 -23.5 -120t-87.5 -38q-23 0 -39.5 6t-30.5 13t-26.5 13t-28.5 6q-15 0 -25.5 -5t-17 -11.5t-9 -14t-2.5 -11.5h-77q0 70 24.5 112t89.5 42q23 0 39 -5t29.5 -11.5t25.5 -11.5t28 -5q15 0 25.5 5t16.5 11.5t9 13.5t3 11
h77z" />
    <glyph glyph-name="oe" unicode="&#x153;" horiz-adv-x="990" 
d="M578 237q4 -74 26.5 -104.5t72.5 -30.5q28 0 46.5 7t30.5 18.5t17 25t6 26.5h165q0 -36 -13.5 -70.5t-44.5 -62.5t-81.5 -45t-124.5 -17q-66 0 -110 15t-72 44q-29 -29 -72.5 -44t-106.5 -15q-77 0 -129 20t-83.5 57.5t-45.5 91t-14 119.5q0 67 14 120.5t45.5 91t83.5 58
t129 20.5q63 0 107 -15.5t73 -44.5q28 29 72 44.5t109 15.5q74 0 125 -20t82.5 -60.5t45 -101.5t13.5 -143h-366zM317 111q59 0 82 36.5t23 124.5q0 87 -23.5 125t-81.5 38q-59 0 -82 -38t-23 -125q0 -88 23 -124.5t82 -36.5zM776 338q-9 60 -32 85t-67 25q-45 0 -67.5 -25
t-29.5 -85h196z" />
    <glyph glyph-name="p" unicode="p" horiz-adv-x="660" 
d="M75 -240v624l-6 162h136l17 -77q7 11 21.5 26t36 29t50 24t63.5 10q120 0 171 -73t51 -212q0 -140 -51 -212.5t-171 -72.5q-54 0 -91.5 14.5t-62.5 37.5v-194q0 -46 1 -86h-165zM239 195q4 -15 12.5 -29t22 -25.5t33 -18.5t46.5 -7q50 0 72 38.5t22 119.5t-22 119.5
t-72 38.5q-24 0 -43 -7.5t-32.5 -19t-23 -25.5t-15.5 -26v-158z" />
    <glyph glyph-name="thorn" unicode="&#xfe;" horiz-adv-x="651" 
d="M69 -240v1000h162v-269q10 11 25 23t34 21.5t42.5 16t51.5 6.5q120 0 170.5 -73t50.5 -212q0 -140 -50.5 -212.5t-170.5 -72.5q-54 0 -91 14t-62 37v-279h-162zM231 191q5 -14 13.5 -28t22 -24.5t32.5 -17t45 -6.5q50 0 72 38.5t22 119.5t-22 119.5t-72 38.5
q-24 0 -42 -7t-32 -18.5t-23.5 -25t-15.5 -25.5v-164z" />
    <glyph glyph-name="q" unicode="q" horiz-adv-x="660" 
d="M421 -240v280q-25 -23 -62.5 -37.5t-91.5 -14.5q-120 0 -171 72.5t-51 212.5q0 139 51 212t171 73q34 0 62 -9.5t49.5 -23t36 -29t22.5 -26.5l18 76h137l-7 -157v-629h-164zM421 351q-6 12 -15 26t-23 26t-33 20t-44 8q-50 0 -72 -38.5t-22 -119.5t22 -119.5t72 -38.5
q27 0 47 7.5t33.5 19t21.5 26.5t13 30v153z" />
    <glyph glyph-name="r" unicode="r" horiz-adv-x="444" 
d="M75 0v384l-6 162h136l19 -95q6 15 18 34t34.5 36t57 29t84.5 12v-150q-53 0 -86.5 -16t-53 -38t-28 -44.5t-11.5 -35.5v-278h-164z" />
    <glyph glyph-name="racute" unicode="&#x155;" horiz-adv-x="444" 
d="M75 0v384l-6 162h136l19 -95q6 15 18 34t34.5 36t57 29t84.5 12v-150q-53 0 -86.5 -16t-53 -38t-28 -44.5t-11.5 -35.5v-278h-164zM154 611l88 175h171l-116 -175h-143z" />
    <glyph glyph-name="rcaron" unicode="&#x159;" horiz-adv-x="444" 
d="M75 0v384l-6 162h136l19 -95q6 15 18 34t34.5 36t57 29t84.5 12v-150q-53 0 -86.5 -16t-53 -38t-28 -44.5t-11.5 -35.5v-278h-164zM157 610l-129 174h143l57 -71l57 71h144l-131 -174h-141z" />
    <glyph glyph-name="rcommaaccent" unicode="&#x157;" horiz-adv-x="444" 
d="M75 0v384l-6 162h136l19 -95q6 15 18 34t34.5 36t57 29t84.5 12v-150q-53 0 -86.5 -16t-53 -38t-28 -44.5t-11.5 -35.5v-278h-164zM9 -309q8 18 17 39q8 18 16 42.5t16 53.5q14 55 17 82q2 17 2 30h154q-2 -17 -6 -36q-3 -17 -8.5 -39.5t-14.5 -48.5q-11 -33 -23 -56
t-21 -38q-11 -18 -21 -29h-128z" />
    <glyph glyph-name="s" unicode="s" horiz-adv-x="571" 
d="M377 381q0 31 -20 48.5t-68 17.5q-22 0 -37 -4.5t-24 -11t-12.5 -15t-3.5 -16.5q0 -27 24 -40t60.5 -21t78.5 -16t78.5 -26t60.5 -50.5t24 -89.5q0 -85 -60.5 -129t-191.5 -44q-124 0 -183.5 47.5t-59.5 151.5h146q0 -49 27 -67t68 -18q44 0 67 12.5t23 35.5
q0 28 -24 41.5t-60 21.5t-77.5 16.5t-77.5 27t-60 52.5t-24 94q0 75 58 118.5t176 43.5q125 0 181.5 -45.5t56.5 -134.5h-146z" />
    <glyph glyph-name="sacute" unicode="&#x15b;" horiz-adv-x="571" 
d="M377 381q0 31 -20 48.5t-68 17.5q-22 0 -37 -4.5t-24 -11t-12.5 -15t-3.5 -16.5q0 -27 24 -40t60.5 -21t78.5 -16t78.5 -26t60.5 -50.5t24 -89.5q0 -85 -60.5 -129t-191.5 -44q-124 0 -183.5 47.5t-59.5 151.5h146q0 -49 27 -67t68 -18q44 0 67 12.5t23 35.5
q0 28 -24 41.5t-60 21.5t-77.5 16.5t-77.5 27t-60 52.5t-24 94q0 75 58 118.5t176 43.5q125 0 181.5 -45.5t56.5 -134.5h-146zM213 611l88 175h171l-116 -175h-143z" />
    <glyph glyph-name="scaron" unicode="&#x161;" horiz-adv-x="571" 
d="M377 381q0 31 -20 48.5t-68 17.5q-22 0 -37 -4.5t-24 -11t-12.5 -15t-3.5 -16.5q0 -27 24 -40t60.5 -21t78.5 -16t78.5 -26t60.5 -50.5t24 -89.5q0 -85 -60.5 -129t-191.5 -44q-124 0 -183.5 47.5t-59.5 151.5h146q0 -49 27 -67t68 -18q44 0 67 12.5t23 35.5
q0 28 -24 41.5t-60 21.5t-77.5 16.5t-77.5 27t-60 52.5t-24 94q0 75 58 118.5t176 43.5q125 0 181.5 -45.5t56.5 -134.5h-146zM216 610l-129 174h143l57 -71l57 71h144l-131 -174h-141z" />
    <glyph glyph-name="scedilla" unicode="&#x15f;" horiz-adv-x="571" 
d="M377 381q0 31 -20 48.5t-68 17.5q-22 0 -37 -4.5t-24 -11t-12.5 -15t-3.5 -16.5q0 -27 24 -40t60.5 -21t78.5 -16t78.5 -26t60.5 -50.5t24 -89.5q0 -85 -60.5 -129t-191.5 -44q-124 0 -183.5 47.5t-59.5 151.5h146q0 -49 27 -67t68 -18q44 0 67 12.5t23 35.5
q0 28 -24 41.5t-60 21.5t-77.5 16.5t-77.5 27t-60 52.5t-24 94q0 75 58 118.5t176 43.5q125 0 181.5 -45.5t56.5 -134.5h-146zM161 -170q5 -2 15 -3q16 -3 54 -3q25 0 39 9.5t14 27.5q0 15 -10.5 22.5t-26.5 11.5t-33.5 4.5t-32.5 0.5h-1l57 103h130l-35 -58q19 -2 36 -8
t30.5 -17.5t21.5 -29t8 -41.5q0 -21 -6.5 -42t-24 -37t-48.5 -26t-80 -10q-61 0 -85 3q-14 2 -22 4v89z" />
    <glyph glyph-name="scircumflex" unicode="&#x15d;" horiz-adv-x="571" 
d="M377 381q0 31 -20 48.5t-68 17.5q-22 0 -37 -4.5t-24 -11t-12.5 -15t-3.5 -16.5q0 -27 24 -40t60.5 -21t78.5 -16t78.5 -26t60.5 -50.5t24 -89.5q0 -85 -60.5 -129t-191.5 -44q-124 0 -183.5 47.5t-59.5 151.5h146q0 -49 27 -67t68 -18q44 0 67 12.5t23 35.5
q0 28 -24 41.5t-60 21.5t-77.5 16.5t-77.5 27t-60 52.5t-24 94q0 75 58 118.5t176 43.5q125 0 181.5 -45.5t56.5 -134.5h-146zM344 610l-57 72l-57 -72h-143l129 174h141l131 -174h-144z" />
    <glyph glyph-name="scommaaccent" unicode="&#x219;" horiz-adv-x="571" 
d="M377 381q0 31 -20 48.5t-68 17.5q-22 0 -37 -4.5t-24 -11t-12.5 -15t-3.5 -16.5q0 -27 24 -40t60.5 -21t78.5 -16t78.5 -26t60.5 -50.5t24 -89.5q0 -85 -60.5 -129t-191.5 -44q-124 0 -183.5 47.5t-59.5 151.5h146q0 -49 27 -67t68 -18q44 0 67 12.5t23 35.5
q0 28 -24 41.5t-60 21.5t-77.5 16.5t-77.5 27t-60 52.5t-24 94q0 75 58 118.5t176 43.5q125 0 181.5 -45.5t56.5 -134.5h-146zM165 -309q8 18 17 39q8 18 16 42.5t16 53.5q14 55 17 82q2 17 2 30h154q-2 -17 -6 -36q-3 -17 -8.5 -39.5t-14.5 -48.5q-11 -33 -23 -56t-21 -38
q-11 -18 -21 -29h-128z" />
    <glyph glyph-name="germandbls" unicode="&#xdf;" horiz-adv-x="650" 
d="M276 127q37 0 66.5 3.5t50.5 14.5t32 31t11 54q0 37 -15.5 58t-38.5 31.5t-50 13t-51 4.5v123q19 0 42 4.5t42.5 15t32.5 29t13 45.5q0 87 -86 87v127q79 0 128.5 -17t77.5 -45.5t38 -66t10 -79.5q0 -45 -20 -75t-43 -49q-27 -22 -62 -35q42 -4 75 -23q14 -8 27.5 -21
t24 -31t17 -43t6.5 -57q0 -56 -15.5 -98.5t-53 -71t-101 -42.5t-158.5 -14v127zM233 0h-164v514q0 55 10 101.5t37.5 80.5t77.5 53t131 19v-127q-44 -1 -68 -22.5t-24 -64.5v-554z" />
    <glyph glyph-name="uni0259" unicode="&#x259;" horiz-adv-x="624" 
d="M47 368q0 35 13.5 70t44.5 62.5t81.5 44.5t124.5 17q76 0 127.5 -19.5t82.5 -56t44 -90t13 -121.5t-13 -122t-44 -91.5t-82.5 -57.5t-127.5 -20q-74 0 -125 20t-82.5 60.5t-45 101.5t-13.5 143h366q-4 74 -27 104.5t-72 30.5q-28 0 -46.5 -7t-30 -18t-17 -24.5
t-6.5 -26.5h-165zM212 208q9 -60 32.5 -85t67.5 -25q45 0 67.5 25t29.5 85h-197z" />
    <glyph glyph-name="t" unicode="t" horiz-adv-x="418" 
d="M304 -7q-71 0 -112.5 18.5t-63 50.5t-27.5 75t-6 93v192h-71v124h71v140l164 27v-167h117v-124h-117v-190q0 -34 4 -55t12.5 -33t20.5 -16t28 -4h58v-131h-78z" />
    <glyph glyph-name="tbar" unicode="&#x167;" horiz-adv-x="418" 
d="M304 -7q-71 0 -112.5 18.5t-63 50.5t-27.5 75t-6 93v192h-71v124h71v140l164 27v-167h117v-124h-117v-190q0 -34 4 -55t12.5 -33t20.5 -16t28 -4h58v-131h-78zM23 242v97h352v-97h-352z" />
    <glyph glyph-name="tcaron" unicode="&#x165;" horiz-adv-x="418" 
d="M304 -7q-71 0 -112.5 18.5t-63 50.5t-27.5 75t-6 93v192h-71v124h71v140l164 27v-167h117v-124h-117v-190q0 -34 4 -55t12.5 -33t20.5 -16t28 -4h58v-131h-78zM283 582l73 212h145l-105 -212h-113z" />
    <glyph glyph-name="uni0163" unicode="&#x163;" horiz-adv-x="418" 
d="M304 -7q-71 0 -112.5 18.5t-63 50.5t-27.5 75t-6 93v192h-71v124h71v140l164 27v-167h117v-124h-117v-190q0 -34 4 -55t12.5 -33t20.5 -16t28 -4h58v-131h-78zM123 -160q5 -2 15 -3q16 -3 54 -3q25 0 39 9.5t14 27.5q0 15 -10.5 22.5t-26.5 11.5t-33.5 4.5t-32.5 0.5h-1
l57 103h130l-35 -58q19 -2 36 -8t30.5 -17.5t21.5 -29t8 -41.5q0 -21 -6.5 -42t-24 -37t-48.5 -26t-80 -10q-61 0 -85 3q-14 2 -22 4v89z" />
    <glyph glyph-name="uni021B" unicode="&#x21b;" horiz-adv-x="418" 
d="M304 -7q-71 0 -112.5 18.5t-63 50.5t-27.5 75t-6 93v192h-71v124h71v140l164 27v-167h117v-124h-117v-190q0 -34 4 -55t12.5 -33t20.5 -16t28 -4h58v-131h-78zM127 -299q8 18 17 39q8 18 16 42.5t16 53.5q14 55 17 82q2 17 2 30h154q-2 -17 -6 -36q-3 -17 -8.5 -39.5
t-14.5 -48.5q-11 -33 -23 -56t-21 -38q-11 -18 -21 -29h-128z" />
    <glyph glyph-name="u" unicode="u" horiz-adv-x="646" 
d="M443 0l-18 78q-7 -11 -21.5 -26.5t-36.5 -30.5t-52 -25.5t-68 -10.5q-49 0 -84.5 12t-59 38.5t-35 69.5t-11.5 106v21v41.5t0.5 54.5t0.5 60q0 71 1 158h163q-1 -82 -1 -148v-163q0 -23 2 -42.5t9 -34.5t21 -23.5t38 -8.5q25 0 45 8.5t34 21.5t23.5 27.5t15.5 26.5v336
h164v-394l7 -152h-137z" />
    <glyph glyph-name="uacute" unicode="&#xfa;" horiz-adv-x="646" 
d="M443 0l-18 78q-7 -11 -21.5 -26.5t-36.5 -30.5t-52 -25.5t-68 -10.5q-49 0 -84.5 12t-59 38.5t-35 69.5t-11.5 106v21v41.5t0.5 54.5t0.5 60q0 71 1 158h163q-1 -82 -1 -148v-163q0 -23 2 -42.5t9 -34.5t21 -23.5t38 -8.5q25 0 45 8.5t34 21.5t23.5 27.5t15.5 26.5v336
h164v-394l7 -152h-137zM244 611l88 175h171l-116 -175h-143z" />
    <glyph glyph-name="ubreve" unicode="&#x16d;" horiz-adv-x="646" 
d="M443 0l-18 78q-7 -11 -21.5 -26.5t-36.5 -30.5t-52 -25.5t-68 -10.5q-49 0 -84.5 12t-59 38.5t-35 69.5t-11.5 106v21v41.5t0.5 54.5t0.5 60q0 71 1 158h163q-1 -82 -1 -148v-163q0 -23 2 -42.5t9 -34.5t21 -23.5t38 -8.5q25 0 45 8.5t34 21.5t23.5 27.5t15.5 26.5v336
h164v-394l7 -152h-137zM501 768q0 -35 -11.5 -64.5t-34 -51t-57 -34t-79.5 -12.5q-46 0 -80 12.5t-57 34t-34.5 51t-11.5 64.5h125q0 -19 15 -34.5t43 -15.5t43.5 15.5t15.5 34.5h123z" />
    <glyph glyph-name="ucircumflex" unicode="&#xfb;" horiz-adv-x="646" 
d="M443 0l-18 78q-7 -11 -21.5 -26.5t-36.5 -30.5t-52 -25.5t-68 -10.5q-49 0 -84.5 12t-59 38.5t-35 69.5t-11.5 106v21v41.5t0.5 54.5t0.5 60q0 71 1 158h163q-1 -82 -1 -148v-163q0 -23 2 -42.5t9 -34.5t21 -23.5t38 -8.5q25 0 45 8.5t34 21.5t23.5 27.5t15.5 26.5v336
h164v-394l7 -152h-137zM375 610l-57 72l-57 -72h-143l129 174h141l131 -174h-144z" />
    <glyph glyph-name="udieresis" unicode="&#xfc;" horiz-adv-x="646" 
d="M443 0l-18 78q-7 -11 -21.5 -26.5t-36.5 -30.5t-52 -25.5t-68 -10.5q-49 0 -84.5 12t-59 38.5t-35 69.5t-11.5 106v21v41.5t0.5 54.5t0.5 60q0 71 1 158h163q-1 -82 -1 -148v-163q0 -23 2 -42.5t9 -34.5t21 -23.5t38 -8.5q25 0 45 8.5t34 21.5t23.5 27.5t15.5 26.5v336
h164v-394l7 -152h-137zM132 612v152h160v-152h-160zM346 612v152h160v-152h-160z" />
    <glyph glyph-name="uni1EE5" unicode="&#x1ee5;" horiz-adv-x="646" 
d="M443 0l-18 78q-7 -11 -21.5 -26.5t-36.5 -30.5t-52 -25.5t-68 -10.5q-49 0 -84.5 12t-59 38.5t-35 69.5t-11.5 106v21v41.5t0.5 54.5t0.5 60q0 71 1 158h163q-1 -82 -1 -148v-163q0 -23 2 -42.5t9 -34.5t21 -23.5t38 -8.5q25 0 45 8.5t34 21.5t23.5 27.5t15.5 26.5v336
h164v-394l7 -152h-137zM237 -202v152h164v-152h-164z" />
    <glyph glyph-name="ugrave" unicode="&#xf9;" horiz-adv-x="646" 
d="M443 0l-18 78q-7 -11 -21.5 -26.5t-36.5 -30.5t-52 -25.5t-68 -10.5q-49 0 -84.5 12t-59 38.5t-35 69.5t-11.5 106v21v41.5t0.5 54.5t0.5 60q0 71 1 158h163q-1 -82 -1 -148v-163q0 -23 2 -42.5t9 -34.5t21 -23.5t38 -8.5q25 0 45 8.5t34 21.5t23.5 27.5t15.5 26.5v336
h164v-394l7 -152h-137zM250 611l-116 175h171l88 -175h-143z" />
    <glyph glyph-name="uhungarumlaut" unicode="&#x171;" horiz-adv-x="646" 
d="M443 0l-18 78q-7 -11 -21.5 -26.5t-36.5 -30.5t-52 -25.5t-68 -10.5q-49 0 -84.5 12t-59 38.5t-35 69.5t-11.5 106v21v41.5t0.5 54.5t0.5 60q0 71 1 158h163q-1 -82 -1 -148v-163q0 -23 2 -42.5t9 -34.5t21 -23.5t38 -8.5q25 0 45 8.5t34 21.5t23.5 27.5t15.5 26.5v336
h164v-394l7 -152h-137zM122 611l88 175h175l-116 -175h-147zM327 611l110 175h175l-138 -175h-147z" />
    <glyph glyph-name="umacron" unicode="&#x16b;" horiz-adv-x="646" 
d="M443 0l-18 78q-7 -11 -21.5 -26.5t-36.5 -30.5t-52 -25.5t-68 -10.5q-49 0 -84.5 12t-59 38.5t-35 69.5t-11.5 106v21v41.5t0.5 54.5t0.5 60q0 71 1 158h163q-1 -82 -1 -148v-163q0 -23 2 -42.5t9 -34.5t21 -23.5t38 -8.5q25 0 45 8.5t34 21.5t23.5 27.5t15.5 26.5v336
h164v-394l7 -152h-137zM163 630v116h313v-116h-313z" />
    <glyph glyph-name="uogonek" unicode="&#x173;" horiz-adv-x="646" 
d="M443 0l-18 78q-7 -11 -21.5 -26.5t-36.5 -30.5t-52 -25.5t-68 -10.5q-49 0 -84.5 12t-59 38.5t-35 69.5t-11.5 106v21v41.5t0.5 54.5t0.5 60q0 71 1 158h163q-1 -82 -1 -148v-163q0 -23 2 -42.5t9 -34.5t21 -23.5t38 -8.5q25 0 45 8.5t34 21.5t23.5 27.5t15.5 26.5v336
h164v-394l7 -152h-137zM585 -187l-7.5 -5t-22 -11t-37 -10.5t-52.5 -4.5q-29 0 -48.5 7.5t-31.5 20t-17 28t-5 31.5q0 33 14.5 58.5t31.5 43.5q20 21 47 37l112 -6q-1 -1 -10.5 -6.5t-21 -16.5t-20.5 -27t-9 -37q0 -11 6 -21t23 -10q9 0 17.5 2t15.5 4q8 3 15 7v-84z" />
    <glyph glyph-name="uring" unicode="&#x16f;" horiz-adv-x="646" 
d="M443 0l-18 78q-7 -11 -21.5 -26.5t-36.5 -30.5t-52 -25.5t-68 -10.5q-49 0 -84.5 12t-59 38.5t-35 69.5t-11.5 106v21v41.5t0.5 54.5t0.5 60q0 71 1 158h163q-1 -82 -1 -148v-163q0 -23 2 -42.5t9 -34.5t21 -23.5t38 -8.5q25 0 45 8.5t34 21.5t23.5 27.5t15.5 26.5v336
h164v-394l7 -152h-137zM449 724q0 -25 -8 -47.5t-24 -39.5t-40.5 -27t-56.5 -10q-33 0 -57.5 10t-41 27t-24.5 39.5t-8 47.5q0 51 32.5 87.5t98.5 36.5q32 0 56.5 -10t40.5 -26.5t24 -39.5t8 -48zM320 692q14 0 22.5 9t8.5 23t-8.5 23t-22.5 9t-22.5 -9t-8.5 -23t8.5 -23
t22.5 -9z" />
    <glyph glyph-name="utilde" unicode="&#x169;" horiz-adv-x="646" 
d="M443 0l-18 78q-7 -11 -21.5 -26.5t-36.5 -30.5t-52 -25.5t-68 -10.5q-49 0 -84.5 12t-59 38.5t-35 69.5t-11.5 106v21v41.5t0.5 54.5t0.5 60q0 71 1 158h163q-1 -82 -1 -148v-163q0 -23 2 -42.5t9 -34.5t21 -23.5t38 -8.5q25 0 45 8.5t34 21.5t23.5 27.5t15.5 26.5v336
h164v-394l7 -152h-137zM503 773q0 -82 -23.5 -120t-87.5 -38q-23 0 -39.5 6t-30.5 13t-26.5 13t-28.5 6q-15 0 -25.5 -5t-17 -11.5t-9 -14t-2.5 -11.5h-77q0 70 24.5 112t89.5 42q23 0 39 -5t29.5 -11.5t25.5 -11.5t28 -5q15 0 25.5 5t16.5 11.5t9 13.5t3 11h77z" />
    <glyph glyph-name="v" unicode="v" horiz-adv-x="585" 
d="M214 0l-210 546h183l113 -375l110 375h171l-210 -546h-157z" />
    <glyph glyph-name="w" unicode="w" horiz-adv-x="813" 
d="M506 0l-98 345l-93 -345h-139l-176 546h165l87 -351l91 351h144l89 -347l87 347h149l-171 -546h-135z" />
    <glyph glyph-name="wacute" unicode="&#x1e83;" horiz-adv-x="813" 
d="M506 0l-98 345l-93 -345h-139l-176 546h165l87 -351l91 351h144l89 -347l87 347h149l-171 -546h-135zM335 611l88 175h171l-116 -175h-143z" />
    <glyph glyph-name="wcircumflex" unicode="&#x175;" horiz-adv-x="813" 
d="M506 0l-98 345l-93 -345h-139l-176 546h165l87 -351l91 351h144l89 -347l87 347h149l-171 -546h-135zM466 610l-57 72l-57 -72h-143l129 174h141l131 -174h-144z" />
    <glyph glyph-name="wdieresis" unicode="&#x1e85;" horiz-adv-x="813" 
d="M506 0l-98 345l-93 -345h-139l-176 546h165l87 -351l91 351h144l89 -347l87 347h149l-171 -546h-135zM223 612v152h160v-152h-160zM437 612v152h160v-152h-160z" />
    <glyph glyph-name="wgrave" unicode="&#x1e81;" horiz-adv-x="813" 
d="M506 0l-98 345l-93 -345h-139l-176 546h165l87 -351l91 351h144l89 -347l87 347h149l-171 -546h-135zM341 611l-116 175h171l88 -175h-143z" />
    <glyph glyph-name="x" unicode="x" horiz-adv-x="567" 
d="M379 0l-108 152l-103 -152h-168l187 274l-184 272h181l110 -163l106 163h167l-189 -288l182 -258h-181z" />
    <glyph glyph-name="y" unicode="y" horiz-adv-x="589" 
d="M171 -224l71 224h-43l-195 546h178l110 -388l123 388h169l-268 -770h-145z" />
    <glyph glyph-name="yacute" unicode="&#xfd;" horiz-adv-x="589" 
d="M171 -224l71 224h-43l-195 546h178l110 -388l123 388h169l-268 -770h-145zM210 611l88 175h171l-116 -175h-143z" />
    <glyph glyph-name="ycircumflex" unicode="&#x177;" horiz-adv-x="589" 
d="M171 -224l71 224h-43l-195 546h178l110 -388l123 388h169l-268 -770h-145zM341 610l-57 72l-57 -72h-143l129 174h141l131 -174h-144z" />
    <glyph glyph-name="ydieresis" unicode="&#xff;" horiz-adv-x="589" 
d="M171 -224l71 224h-43l-195 546h178l110 -388l123 388h169l-268 -770h-145zM98 612v152h160v-152h-160zM312 612v152h160v-152h-160z" />
    <glyph glyph-name="ygrave" unicode="&#x1ef3;" horiz-adv-x="589" 
d="M171 -224l71 224h-43l-195 546h178l110 -388l123 388h169l-268 -770h-145zM216 611l-116 175h171l88 -175h-143z" />
    <glyph glyph-name="uni0233" unicode="&#x233;" horiz-adv-x="589" 
d="M171 -224l71 224h-43l-195 546h178l110 -388l123 388h169l-268 -770h-145zM129 630v116h313v-116h-313z" />
    <glyph glyph-name="uni1EF9" unicode="&#x1ef9;" horiz-adv-x="589" 
d="M171 -224l71 224h-43l-195 546h178l110 -388l123 388h169l-268 -770h-145zM469 773q0 -82 -23.5 -120t-87.5 -38q-23 0 -39.5 6t-30.5 13t-26.5 13t-28.5 6q-15 0 -25.5 -5t-17 -11.5t-9 -14t-2.5 -11.5h-77q0 70 24.5 112t89.5 42q23 0 39 -5t29.5 -11.5t25.5 -11.5
t28 -5q15 0 25.5 5t16.5 11.5t9 13.5t3 11h77z" />
    <glyph glyph-name="z" unicode="z" horiz-adv-x="533" 
d="M38 1v162l284 257l-274 -3v126h443v-160l-283 -256l283 4v-130h-453z" />
    <glyph glyph-name="zacute" unicode="&#x17a;" horiz-adv-x="533" 
d="M38 1v162l284 257l-274 -3v126h443v-160l-283 -256l283 4v-130h-453zM189 611l88 175h171l-116 -175h-143z" />
    <glyph glyph-name="zcaron" unicode="&#x17e;" horiz-adv-x="533" 
d="M38 1v162l284 257l-274 -3v126h443v-160l-283 -256l283 4v-130h-453zM192 610l-129 174h143l57 -71l57 71h144l-131 -174h-141z" />
    <glyph glyph-name="zdotaccent" unicode="&#x17c;" horiz-adv-x="533" 
d="M38 1v162l284 257l-274 -3v126h443v-160l-283 -256l283 4v-130h-453zM182 612v152h164v-152h-164z" />
    <glyph glyph-name="f_i" horiz-adv-x="641" 
d="M92 0v412h-74v124h74v9q0 43 6.5 82.5t27.5 70t59.5 48.5t102.5 18h74v-128h-41q-16 0 -28 -4t-20.5 -15t-12.5 -30.5t-4 -49.5v-1h106v-124h-106v-412h-164zM416 0v546h164v-546h-164zM420 612v148h164v-148h-164z" />
    <glyph glyph-name="f_l" horiz-adv-x="649" 
d="M92 0v412h-74v124h74v9q0 43 6.5 82.5t27.5 70t59.5 48.5t102.5 18h74v-128h-41q-16 0 -28 -4t-20.5 -15t-12.5 -30.5t-4 -49.5v-1h106v-124h-106v-412h-164zM417 0v760h164v-760h-164z" />
    <glyph glyph-name="ordfeminine" unicode="&#xaa;" horiz-adv-x="433" 
d="M291 360l-12 38q-13 -22 -38 -35t-69 -13q-84 0 -116.5 30t-32.5 95q0 40 15 63t45 34t75 13.5t104 2.5q0 38 -6 57t-39 19q-25 0 -37 -12.5t-12 -31.5h-126q0 16 3.5 39t20 44t50.5 36t95 15q72 0 111.5 -14.5t57.5 -41t21 -64.5t3 -84v-82l4 -108h-117zM262 523
q-47 0 -71 -8t-24 -41q0 -21 11 -32.5t31 -11.5q14 0 29 4.5t24 20.5v68z" />
    <glyph glyph-name="ordmasculine" unicode="&#xba;" horiz-adv-x="449" 
d="M224 348q-57 0 -95.5 13.5t-62 39.5t-33.5 64t-10 87t10 87.5t33.5 64.5t62.5 39.5t96 13.5t95.5 -13.5t61.5 -39.5t33 -64.5t10 -87.5t-10 -87t-33.5 -64t-62 -39.5t-95.5 -13.5zM224 452q31 0 44 20.5t13 79.5t-13 80t-44 21t-43.5 -21t-12.5 -80t12.5 -79.5
t43.5 -20.5z" />
    <glyph glyph-name="pi" unicode="&#x3c0;" horiz-adv-x="623" 
d="M547 0q-68 0 -106.5 14.5t-57.5 44t-23.5 74.5t-4.5 106v218h-101v-457h-132v457h-88v124h540v-124h-87v-218q0 -27 -0.5 -51t4 -43t18 -30t41.5 -11h31v-104h-34z" />
    <glyph glyph-name="zero" unicode="0" horiz-adv-x="684" 
d="M53 346q0 97 13 169t45.5 118.5t88.5 69.5t142 23t142 -23t88.5 -69.5t45.5 -118.5t13 -169q0 -90 -13 -157.5t-45.5 -112.5t-88.5 -67t-142 -22t-142 22t-88.5 67t-45.5 112.5t-13 157.5zM458 346q0 65 -6 109.5t-20 71.5t-36 39t-55 12q-32 0 -54.5 -12t-36 -39
t-19.5 -71.5t-6 -109.5q0 -58 6 -98t19.5 -65t36 -36.5t54.5 -11.5q33 0 55 11.5t36 36.5t20 65t6 98z" />
    <glyph glyph-name="one" unicode="1" horiz-adv-x="383" 
d="M135 0v555l-134 -61v144l178 80l-3 -10l4 10h125v-718h-170z" />
    <glyph glyph-name="two" unicode="2" horiz-adv-x="588" 
d="M31 0v139l16 12.5t43 33.5t61.5 48.5t70.5 58.5q27 24 55 47.5t50.5 47.5t36.5 49.5t14 54.5q0 91 -85 91q-46 0 -69.5 -24.5t-23.5 -78.5h-174q0 125 64 187t203 62q134 0 194.5 -59t60.5 -173q0 -43 -13 -79.5t-33.5 -68t-45.5 -58.5t-49 -50q-25 -24 -49.5 -43.5
t-44.5 -33.5q-24 -17 -45 -29q68 2 124 4q24 1 47.5 1.5t43 1t34 1t19.5 0.5v-142h-505z" />
    <glyph glyph-name="three" unicode="3" horiz-adv-x="599" 
d="M372 452q97 -20 142 -75t45 -149q0 -110 -66 -173.5t-207 -63.5q-68 0 -117 17.5t-81.5 49t-48 76t-15.5 97.5h163q0 -15 4.5 -31.5t16 -30.5t30 -23.5t46.5 -9.5t47.5 8t31.5 21.5t17 31t5 35.5q0 20 -5.5 38t-20.5 32t-40.5 22.5t-65.5 8.5q-14 0 -29 -1t-28 -3
q-15 -2 -29 -3v128h2l160 113l-280 -8v142h492v-128z" />
    <glyph glyph-name="four" unicode="4" horiz-adv-x="639" 
d="M361 0l1 117h-331v140l323 444h177v-444h84v-140h-84v-117h-170zM365 492l-170 -235h168z" />
    <glyph glyph-name="five" unicode="5" horiz-adv-x="608" 
d="M244 564l-18 -124q21 14 51 24t72 10q57 0 100 -17.5t71 -49t42 -77t14 -100.5q0 -56 -15.5 -100.5t-48.5 -75t-85 -47t-126 -16.5q-70 0 -119.5 17t-81 46.5t-46 68t-14.5 82.5h164q0 -6 4.5 -18.5t15.5 -25t29.5 -21.5t47.5 -9t48.5 8.5t31.5 22t17.5 31.5t5.5 37
t-5.5 38.5t-17.5 35t-31.5 25t-48.5 9.5q-27 0 -45.5 -7.5t-29.5 -16.5t-16 -17.5t-6 -10.5l-152 2l39 278h-1l18 135h429v-140z" />
    <glyph glyph-name="six" unicode="6" horiz-adv-x="663" 
d="M420 514q0 10 -5 22.5t-15.5 23.5t-27 18.5t-38.5 7.5q-21 0 -37.5 -6.5t-29.5 -24t-21.5 -49t-13.5 -81.5q27 18 61.5 29.5t82.5 11.5q70 0 115.5 -21.5t72 -56t36.5 -77.5t10 -87q0 -46 -13.5 -88.5t-46 -75.5t-85.5 -53t-131 -20q-79 0 -133 21t-87 62.5t-47 103.5
t-14 143q0 111 15.5 188.5t49 126.5t87 71.5t129.5 22.5q74 0 123.5 -19t79 -49t41.5 -68t12 -76h-170zM227 288q2 -46 9.5 -76.5t21 -49t32.5 -26.5t44 -8q51 0 76.5 28t25.5 70q0 44 -21.5 75t-73.5 31q-40 0 -67.5 -12.5t-46.5 -31.5z" />
    <glyph glyph-name="seven" unicode="7" horiz-adv-x="537" 
d="M111 0q0 56 9.5 110t25.5 104t36 95t41 83q49 90 112 167l-325 -2v144h510v-144q-65 -83 -116 -175q-22 -39 -42.5 -84.5t-36.5 -94t-26 -100t-10 -103.5h-178z" />
    <glyph glyph-name="eight" unicode="8" horiz-adv-x="671" 
d="M501 388q9 -1 28.5 -12.5t39 -33.5t34.5 -55.5t15 -78.5q0 -51 -13.5 -91.5t-46.5 -69t-87.5 -43.5t-135.5 -15t-135 15t-87 43.5t-46.5 69t-13.5 91.5q0 45 14.5 78.5t34 55.5t39 33.5t29.5 12.5q-6 1 -21.5 9.5t-31.5 25.5t-28.5 43t-12.5 62q0 43 13 80t43 63.5
t79.5 41.5t123.5 15t124 -15t80 -41.5t43 -63.5t13 -80q0 -36 -12.5 -62t-28.5 -43t-31.5 -25.5t-21.5 -9.5zM443 222q0 42 -24 69.5t-83 27.5q-60 0 -84 -27.5t-24 -69.5t24 -68t84 -26q59 0 83 26.5t24 67.5zM424 513q0 41 -20.5 62t-68.5 21t-68.5 -21t-20.5 -62
q0 -34 20.5 -54t68.5 -20t68.5 20t20.5 54z" />
    <glyph glyph-name="nine" unicode="9" horiz-adv-x="663" 
d="M232 199q0 -10 4 -22.5t14.5 -23.5t29.5 -18.5t48 -7.5q23 0 40 6t29 21.5t19.5 43.5t12.5 73q-26 -18 -61.5 -30t-80.5 -12q-67 0 -112 21t-72 56.5t-38.5 81t-11.5 93.5q0 49 15 93.5t48 78t85.5 53.5t127.5 20q76 0 129.5 -21t87 -62.5t49 -103.5t15.5 -143
q0 -111 -14 -188.5t-47 -126.5t-87 -71.5t-134 -22.5q-82 0 -133.5 20t-81 51t-40.5 68.5t-11 72.5h170zM436 403q-1 52 -8 87t-20.5 56t-33 30t-45.5 9q-51 0 -76.5 -29t-25.5 -77q0 -52 22 -84t73 -32q40 0 67.5 11.5t46.5 28.5z" />
    <glyph glyph-name="zero.subs" horiz-adv-x="418" 
d="M22 97q0 58 8.5 102t29.5 72.5t57 43t92 14.5t92 -14.5t57 -43t29.5 -72.5t8.5 -102q0 -54 -8.5 -95t-29.5 -68.5t-57 -41.5t-92 -14t-92 14t-57 41.5t-29.5 68.5t-8.5 95zM261 97q0 66 -10.5 92.5t-42.5 26.5q-31 0 -41 -26.5t-10 -92.5q0 -57 10 -81t41 -24
q32 0 42.5 24t10.5 81z" />
    <glyph glyph-name="one.subs" horiz-adv-x="243" 
d="M74 -112v320l-71 -30v97l121 47h83v-434h-133z" />
    <glyph glyph-name="two.subs" horiz-adv-x="388" 
d="M17 -112v101l117 78q17 12 35 24t33 25t24.5 27.5t9.5 30.5t-9.5 30.5t-33.5 14.5t-33.5 -17t-9.5 -45h-136q0 39 9 71t29.5 54.5t55 35t85.5 12.5t84.5 -12t53.5 -32.5t28 -47t8 -55.5q0 -26 -9 -48.5t-22 -41.5t-28.5 -33.5t-27.5 -24.5q-13 -11 -25 -19t-21 -15
q-11 -8 -21 -14q37 2 68 5q26 2 50 3.5t30 1.5v-109h-344z" />
    <glyph glyph-name="three.subs" horiz-adv-x="387" 
d="M277 150q50 -15 70 -47t20 -80q0 -28 -9 -54t-29.5 -46t-54.5 -32t-84 -12q-51 0 -85.5 12.5t-55 34t-29.5 50t-9 60.5h134q0 -17 8.5 -33.5t33.5 -16.5q26 0 34.5 14.5t8.5 31.5q0 23 -11.5 40.5t-49.5 17.5q-8 0 -17 -1t-17 -2q-10 -2 -19 -3v75h-1l79 55l-169 -7v108
h334v-93z" />
    <glyph glyph-name="four.subs" horiz-adv-x="405" 
d="M217 -112v63h-209v98l200 267h143v-267h46v-98h-46v-63h-134zM218 182l-98 -133h98v133z" />
    <glyph glyph-name="five.subs" horiz-adv-x="392" 
d="M172 218l-10 -64q14 8 32 13t43 5q39 0 65 -12t42.5 -32.5t23.5 -46.5t7 -53q0 -29 -9 -56t-29.5 -47.5t-54.5 -33t-85 -12.5q-52 0 -86.5 12.5t-55 31.5t-29 42.5t-8.5 45.5h135q0 -2 2 -7.5t7 -11.5t13.5 -11t21.5 -5q26 0 35 15.5t9 36.5t-9 38.5t-35 17.5
q-13 0 -22 -3.5t-15 -8.5t-9 -9.5t-3 -5.5l-122 2l22 163l13 93h288v-102z" />
    <glyph glyph-name="six.subs" horiz-adv-x="416" 
d="M254 195q0 11 -9 24t-35 13q-21 0 -32.5 -17t-16.5 -71q15 9 33.5 15t42.5 6q46 0 76 -11.5t48 -31t25.5 -44.5t7.5 -52t-8.5 -53.5t-29.5 -47.5t-56.5 -34t-89.5 -13q-53 0 -89 12.5t-58 38t-31.5 64t-9.5 88.5q0 70 10 117.5t32.5 76.5t58.5 41.5t87 12.5q49 0 82 -12
t52.5 -31t27.5 -43t8 -48h-126zM158 60q2 -45 14 -64.5t38 -19.5t37 16.5t11 37.5q0 24 -11.5 38t-34.5 14q-19 0 -32 -6.5t-22 -15.5z" />
    <glyph glyph-name="seven.subs" horiz-adv-x="337" 
d="M57 -112q0 65 20.5 124t45.5 104q29 53 66 98l-183 -4v106h325v-106q-35 -50 -62 -104q-23 -47 -42.5 -104t-19.5 -114h-150z" />
    <glyph glyph-name="eight.subs" horiz-adv-x="413" 
d="M318 122q6 0 18 -7t24.5 -20.5t21.5 -34t9 -48.5q0 -30 -8.5 -54.5t-29.5 -42t-56.5 -26.5t-89.5 -9t-90 9t-57 26.5t-29.5 42t-8.5 54.5q0 27 9 47.5t21 34.5t24 21t18 7q-5 1 -14 6t-18.5 15t-16.5 26t-7 38q0 27 8 49.5t27 39t51.5 25.5t82.5 9t82.5 -9t51.5 -25.5
t26.5 -39t7.5 -49.5q0 -22 -7.5 -38t-17 -26t-19 -15t-13.5 -6zM207 -25q26 0 36 15t10 38q0 22 -10 38.5t-36 16.5q-29 0 -38 -16.5t-9 -38.5q0 -23 9.5 -38t37.5 -15zM206 152q23 0 32.5 12t9.5 31q0 25 -9.5 38t-32.5 13t-32.5 -13t-9.5 -38q0 -19 9.5 -31t32.5 -12z" />
    <glyph glyph-name="nine.subs" horiz-adv-x="416" 
d="M153 12q0 -11 10 -23.5t40 -12.5q11 0 19.5 3t14.5 11.5t10 24t7 40.5q-15 -9 -34 -14.5t-43 -5.5q-45 0 -75 11t-47.5 30.5t-25 46t-7.5 57.5q0 28 9 54.5t30 47.5t56 34t88 13q105 1 147 -50.5t42 -153.5q0 -69 -9.5 -116.5t-32 -76.5t-59 -41.5t-90.5 -12.5t-88.5 12
t-54 31.5t-27 43.5t-7.5 47h127zM258 142q-2 47 -14.5 68t-38.5 21t-36.5 -17t-10.5 -38q0 -57 45 -57q19 0 32.5 6.5t22.5 16.5z" />
    <glyph glyph-name="zero.tf" horiz-adv-x="704" 
d="M63 346q0 97 13 169t45.5 118.5t88.5 69.5t142 23t142 -23t88.5 -69.5t45.5 -118.5t13 -169q0 -90 -13 -157.5t-45.5 -112.5t-88.5 -67t-142 -22t-142 22t-88.5 67t-45.5 112.5t-13 157.5zM468 346q0 65 -6 109.5t-20 71.5t-36 39t-55 12q-32 0 -54.5 -12t-36 -39
t-19.5 -71.5t-6 -109.5q0 -58 6 -98t19.5 -65t36 -36.5t54.5 -11.5q33 0 55 11.5t36 36.5t20 65t6 98z" />
    <glyph glyph-name="one.tf" horiz-adv-x="704" 
d="M163 0v139h125v416l-134 -61v144l178 80l-3 -10l4 10h125v-579h123v-139h-418z" />
    <glyph glyph-name="two.tf" horiz-adv-x="704" 
d="M95 0v139l16 12.5t43 33.5t61.5 48.5t70.5 58.5q27 24 55 47.5t50.5 47.5t36.5 49.5t14 54.5q0 91 -85 91q-46 0 -69.5 -24.5t-23.5 -78.5h-174q0 125 64 187t203 62q134 0 194.5 -59t60.5 -173q0 -43 -13 -79.5t-33.5 -68t-45.5 -58.5t-49 -50q-25 -24 -49.5 -43.5
t-44.5 -33.5q-24 -17 -45 -29q68 2 124 4q24 1 47.5 1.5t43 1t34 1t19.5 0.5v-142h-505z" />
    <glyph glyph-name="three.tf" horiz-adv-x="704" 
d="M430 452q97 -20 142 -75t45 -149q0 -110 -66 -173.5t-207 -63.5q-68 0 -117 17.5t-81.5 49t-48 76t-15.5 97.5h163q0 -15 4.5 -31.5t16 -30.5t30 -23.5t46.5 -9.5t47.5 8t31.5 21.5t17 31t5 35.5q0 20 -5.5 38t-20.5 32t-40.5 22.5t-65.5 8.5q-14 0 -29 -1t-28 -3
q-15 -2 -29 -3v128h2l160 113l-280 -8v142h492v-128z" />
    <glyph glyph-name="four.tf" horiz-adv-x="704" 
d="M385 0l1 117h-331v140l323 444h177v-444h84v-140h-84v-117h-170zM389 492l-170 -235h168z" />
    <glyph glyph-name="five.tf" horiz-adv-x="704" 
d="M293 564l-18 -124q21 14 51 24t72 10q57 0 100 -17.5t71 -49t42 -77t14 -100.5q0 -56 -15.5 -100.5t-48.5 -75t-85 -47t-126 -16.5q-70 0 -119.5 17t-81 46.5t-46 68t-14.5 82.5h164q0 -6 4.5 -18.5t15.5 -25t29.5 -21.5t47.5 -9t48.5 8.5t31.5 22t17.5 31.5t5.5 37
t-5.5 38.5t-17.5 35t-31.5 25t-48.5 9.5q-27 0 -45.5 -7.5t-29.5 -16.5t-16 -17.5t-6 -10.5l-152 2l39 278h-1l18 135h429v-140z" />
    <glyph glyph-name="six.tf" horiz-adv-x="704" 
d="M440 514q0 10 -5 22.5t-15.5 23.5t-27 18.5t-38.5 7.5q-21 0 -37.5 -6.5t-29.5 -24t-21.5 -49t-13.5 -81.5q27 18 61.5 29.5t82.5 11.5q70 0 115.5 -21.5t72 -56t36.5 -77.5t10 -87q0 -46 -13.5 -88.5t-46 -75.5t-85.5 -53t-131 -20q-79 0 -133 21t-87 62.5t-47 103.5
t-14 143q0 111 15.5 188.5t49 126.5t87 71.5t129.5 22.5q74 0 123.5 -19t79 -49t41.5 -68t12 -76h-170zM247 288q2 -46 9.5 -76.5t21 -49t32.5 -26.5t44 -8q51 0 76.5 28t25.5 70q0 44 -21.5 75t-73.5 31q-40 0 -67.5 -12.5t-46.5 -31.5z" />
    <glyph glyph-name="seven.tf" horiz-adv-x="704" 
d="M202 0q0 56 9.5 110t25.5 104t36 95t41 83q49 90 112 167l-325 -2v144h510v-144q-65 -83 -116 -175q-22 -39 -42.5 -84.5t-36.5 -94t-26 -100t-10 -103.5h-178z" />
    <glyph glyph-name="eight.tf" horiz-adv-x="704" 
d="M518 388q9 -1 28.5 -12.5t39 -33.5t34.5 -55.5t15 -78.5q0 -51 -13.5 -91.5t-46.5 -69t-87.5 -43.5t-135.5 -15t-135 15t-87 43.5t-46.5 69t-13.5 91.5q0 45 14.5 78.5t34 55.5t39 33.5t29.5 12.5q-6 1 -21.5 9.5t-31.5 25.5t-28.5 43t-12.5 62q0 43 13 80t43 63.5
t79.5 41.5t123.5 15t124 -15t80 -41.5t43 -63.5t13 -80q0 -36 -12.5 -62t-28.5 -43t-31.5 -25.5t-21.5 -9.5zM460 222q0 42 -24 69.5t-83 27.5q-60 0 -84 -27.5t-24 -69.5t24 -68t84 -26q59 0 83 26.5t24 67.5zM441 513q0 41 -20.5 62t-68.5 21t-68.5 -21t-20.5 -62
q0 -34 20.5 -54t68.5 -20t68.5 20t20.5 54z" />
    <glyph glyph-name="nine.tf" horiz-adv-x="704" 
d="M252 199q0 -10 4 -22.5t14.5 -23.5t29.5 -18.5t48 -7.5q23 0 40 6t29 21.5t19.5 43.5t12.5 73q-26 -18 -61.5 -30t-80.5 -12q-67 0 -112 21t-72 56.5t-38.5 81t-11.5 93.5q0 49 15 93.5t48 78t85.5 53.5t127.5 20q76 0 129.5 -21t87 -62.5t49 -103.5t15.5 -143
q0 -111 -14 -188.5t-47 -126.5t-87 -71.5t-134 -22.5q-82 0 -133.5 20t-81 51t-40.5 68.5t-11 72.5h170zM456 403q-1 52 -8 87t-20.5 56t-33 30t-45.5 9q-51 0 -76.5 -29t-25.5 -77q0 -52 22 -84t73 -32q40 0 67.5 11.5t46.5 28.5z" />
    <glyph glyph-name="fraction" unicode="&#x2044;" horiz-adv-x="254" 
d="M-155 -40l426 796h140l-426 -796h-140z" />
    <glyph glyph-name="onehalf" unicode="&#xbd;" horiz-adv-x="884" 
d="M74 304v320l-71 -30v97l121 47h83v-434h-133zM88 -40l426 796h140l-426 -796h-140zM514 1v100q16 11 35 23q16 11 37.5 24.5t45.5 30.5q17 11 35 23t33 25t24.5 27.5t9.5 31.5t-10 31t-34 14q-25 0 -34.5 -16.5t-9.5 -44.5h-135q0 39 9 70.5t29.5 54t55 35t85.5 12.5
q50 0 83 -12t53 -32.5t28.5 -47t8.5 -55.5q0 -26 -9 -48.5t-22 -41t-28.5 -33.5t-28.5 -25q-25 -20 -45.5 -33t-22.5 -15q1 0 22.5 1.5t47.5 3.5t50 3.5t30 1.5v-108h-343z" />
    <glyph glyph-name="onequarter" unicode="&#xbc;" horiz-adv-x="888" 
d="M74 304v320l-71 -30v97l121 47h83v-434h-133zM88 -40l426 796h140l-426 -796h-140zM702 0v64h-210v96l201 268h141v-268h46v-96h-46v-64h-132zM703 296l-101 -136h101v136z" />
    <glyph glyph-name="threequarters" unicode="&#xbe;" horiz-adv-x="1030" 
d="M277 566q50 -15 70 -47t20 -80q0 -28 -9 -54t-29.5 -46t-54.5 -32t-84 -12q-51 0 -85.5 12.5t-55 34t-29.5 50t-9 60.5h134q0 -17 8.5 -33.5t33.5 -16.5q26 0 34.5 14.5t8.5 31.5q0 23 -11.5 40.5t-49.5 17.5q-8 0 -17 -1t-17 -2q-10 -2 -19 -3v75h-1l79 55l-169 -7v108
h334v-93zM230 -40l426 796h140l-426 -796h-140zM844 0v64h-210v96l201 268h141v-268h46v-96h-46v-64h-132zM845 296l-101 -136h101v136z" />
    <glyph glyph-name="oneeighth" unicode="&#x215b;" horiz-adv-x="910" 
d="M74 304v320l-71 -30v97l121 47h83v-434h-133zM88 -40l426 796h140l-426 -796h-140zM815 234q7 -1 19.5 -8t24.5 -20.5t20.5 -33.5t8.5 -47q0 -31 -8.5 -55.5t-29.5 -41.5t-56 -26t-89 -9t-89.5 9t-57 26t-30 41.5t-8.5 55.5q0 27 9 47t21 33.5t24 20.5t18 8q-5 1 -14 6
t-18.5 15.5t-16.5 26t-7 37.5q0 27 8 49.5t27 39t51.5 25.5t82.5 9q49 0 81.5 -9t51.5 -25.5t26.5 -39t7.5 -49.5q0 -22 -7 -37.5t-17 -26t-19.5 -15.5t-13.5 -6zM705 87q27 0 37.5 15.5t10.5 37.5t-10.5 38.5t-37.5 16.5q-29 0 -39 -16.5t-10 -38.5t10 -37.5t39 -15.5z
M705 264q23 0 33 12t10 32q0 23 -10 36.5t-33 13.5q-25 0 -34.5 -13.5t-9.5 -36.5q0 -20 10 -32t34 -12z" />
    <glyph glyph-name="threeeighths" unicode="&#x215c;" horiz-adv-x="1052" 
d="M277 566q50 -15 70 -47t20 -80q0 -28 -9 -54t-29.5 -46t-54.5 -32t-84 -12q-51 0 -85.5 12.5t-55 34t-29.5 50t-9 60.5h134q0 -17 8.5 -33.5t33.5 -16.5q26 0 34.5 14.5t8.5 31.5q0 23 -11.5 40.5t-49.5 17.5q-8 0 -17 -1t-17 -2q-10 -2 -19 -3v75h-1l79 55l-169 -7v108
h334v-93zM230 -40l426 796h140l-426 -796h-140zM957 234q7 -1 19.5 -8t24.5 -20.5t20.5 -33.5t8.5 -47q0 -31 -8.5 -55.5t-29.5 -41.5t-56 -26t-89 -9t-89.5 9t-57 26t-30 41.5t-8.5 55.5q0 27 9 47t21 33.5t24 20.5t18 8q-5 1 -14 6t-18.5 15.5t-16.5 26t-7 37.5
q0 27 8 49.5t27 39t51.5 25.5t82.5 9q49 0 81.5 -9t51.5 -25.5t26.5 -39t7.5 -49.5q0 -22 -7 -37.5t-17 -26t-19.5 -15.5t-13.5 -6zM847 87q27 0 37.5 15.5t10.5 37.5t-10.5 38.5t-37.5 16.5q-29 0 -39 -16.5t-10 -38.5t10 -37.5t39 -15.5zM847 264q23 0 33 12t10 32
q0 23 -10 36.5t-33 13.5q-25 0 -34.5 -13.5t-9.5 -36.5q0 -20 10 -32t34 -12z" />
    <glyph glyph-name="fiveeighths" unicode="&#x215d;" horiz-adv-x="1057" 
d="M172 634l-10 -64q14 8 32 13t43 5q39 0 65 -12t42.5 -32.5t23.5 -46.5t7 -53q0 -29 -9 -56t-29.5 -47.5t-54.5 -33t-85 -12.5q-52 0 -86.5 12.5t-55 31.5t-29 42.5t-8.5 45.5h135q0 -2 2 -7.5t7 -11.5t13.5 -11t21.5 -5q26 0 35 15.5t9 36.5t-9 38.5t-35 17.5
q-13 0 -22 -3.5t-15 -8.5t-9 -9.5t-3 -5.5l-122 2l22 163l13 93h288v-102zM235 -40l426 796h140l-426 -796h-140zM962 234q7 -1 19.5 -8t24.5 -20.5t20.5 -33.5t8.5 -47q0 -31 -8.5 -55.5t-29.5 -41.5t-56 -26t-89 -9t-89.5 9t-57 26t-30 41.5t-8.5 55.5q0 27 9 47t21 33.5
t24 20.5t18 8q-5 1 -14 6t-18.5 15.5t-16.5 26t-7 37.5q0 27 8 49.5t27 39t51.5 25.5t82.5 9q49 0 81.5 -9t51.5 -25.5t26.5 -39t7.5 -49.5q0 -22 -7 -37.5t-17 -26t-19.5 -15.5t-13.5 -6zM852 87q27 0 37.5 15.5t10.5 37.5t-10.5 38.5t-37.5 16.5q-29 0 -39 -16.5
t-10 -38.5t10 -37.5t39 -15.5zM852 264q23 0 33 12t10 32q0 23 -10 36.5t-33 13.5q-25 0 -34.5 -13.5t-9.5 -36.5q0 -20 10 -32t34 -12z" />
    <glyph glyph-name="seveneighths" unicode="&#x215e;" horiz-adv-x="996" 
d="M57 304q0 65 20.5 124t45.5 104q29 53 66 98l-183 -4v106h325v-106q-35 -50 -62 -104q-23 -47 -42.5 -104t-19.5 -114h-150zM174 -40l426 796h140l-426 -796h-140zM901 234q7 -1 19.5 -8t24.5 -20.5t20.5 -33.5t8.5 -47q0 -31 -8.5 -55.5t-29.5 -41.5t-56 -26t-89 -9
t-89.5 9t-57 26t-30 41.5t-8.5 55.5q0 27 9 47t21 33.5t24 20.5t18 8q-5 1 -14 6t-18.5 15.5t-16.5 26t-7 37.5q0 27 8 49.5t27 39t51.5 25.5t82.5 9q49 0 81.5 -9t51.5 -25.5t26.5 -39t7.5 -49.5q0 -22 -7 -37.5t-17 -26t-19.5 -15.5t-13.5 -6zM791 87q27 0 37.5 15.5
t10.5 37.5t-10.5 38.5t-37.5 16.5q-29 0 -39 -16.5t-10 -38.5t10 -37.5t39 -15.5zM791 264q23 0 33 12t10 32q0 23 -10 36.5t-33 13.5q-25 0 -34.5 -13.5t-9.5 -36.5q0 -20 10 -32t34 -12z" />
    <glyph glyph-name="zero.dnom" horiz-adv-x="419" 
d="M23 209q0 59 8.5 102.5t29.5 72.5t57 43t92 14t92 -14t57 -43t29.5 -72.5t8.5 -102.5q0 -54 -8.5 -94.5t-29.5 -68t-57 -41.5t-92 -14t-92 14t-57 41.5t-29.5 68t-8.5 94.5zM262 209q0 67 -10 92.5t-43 25.5q-32 0 -42.5 -25.5t-10.5 -92.5q0 -57 10.5 -80.5t42.5 -23.5
q33 0 43 23.5t10 80.5z" />
    <glyph glyph-name="one.dnom" horiz-adv-x="242" 
d="M74 0v320l-71 -29v96l120 48h83v-435h-132z" />
    <glyph glyph-name="two.dnom" horiz-adv-x="387" 
d="M17 1v100q16 11 35 23q16 11 37.5 24.5t45.5 30.5q17 11 35 23t33 25t24.5 27.5t9.5 31.5t-10 31t-34 14q-25 0 -34.5 -16.5t-9.5 -44.5h-135q0 39 9 70.5t29.5 54t55 35t85.5 12.5q50 0 83 -12t53 -32.5t28.5 -47t8.5 -55.5q0 -26 -9 -48.5t-22 -41t-28.5 -33.5
t-28.5 -25q-25 -20 -45.5 -33t-22.5 -15q1 0 22.5 1.5t47.5 3.5t50 3.5t30 1.5v-108h-343z" />
    <glyph glyph-name="three.dnom" horiz-adv-x="387" 
d="M274 262q51 -15 72 -46.5t21 -81.5q0 -27 -9 -52.5t-30 -45.5t-55 -32t-84 -12q-51 0 -85 12.5t-54.5 33.5t-29.5 49.5t-9 60.5h133q0 -8 2 -17t7 -16.5t13 -12.5t21 -5q26 0 35 14.5t9 31.5q0 24 -12 41.5t-50 17.5q-8 0 -17 -1t-17 -2q-10 -2 -19 -3v75h-1l80 56
l-170 -8v109h333v-93z" />
    <glyph glyph-name="four.dnom" horiz-adv-x="404" 
d="M218 0v64h-210v96l201 268h141v-268h46v-96h-46v-64h-132zM219 296l-101 -136h101v136z" />
    <glyph glyph-name="five.dnom" horiz-adv-x="392" 
d="M169 330l-9 -65q14 8 32 13.5t44 5.5q39 0 65.5 -12.5t43 -32.5t23.5 -46.5t7 -53.5q0 -29 -9 -55.5t-29.5 -47t-55 -32.5t-85.5 -12t-85.5 12t-55 31t-29 42t-8.5 45h134q0 -2 2 -7.5t7 -11t13.5 -10t21.5 -4.5q28 0 37.5 15t9.5 35q0 21 -10 39t-37 18q-26 0 -37.5 -12
t-12.5 -15l-120 2l22 163h1l12 94h289v-103z" />
    <glyph glyph-name="six.dnom" horiz-adv-x="417" 
d="M255 307q0 11 -9 24.5t-35 13.5q-22 0 -33.5 -17.5t-16.5 -71.5q15 9 33.5 15t43.5 6q45 0 75 -12t48 -31.5t25.5 -44.5t7.5 -52t-8.5 -53t-29.5 -46.5t-56.5 -33.5t-88.5 -13q-54 0 -90 12.5t-57.5 38t-31 63.5t-9.5 89q0 69 10 116.5t32.5 76.5t58.5 41.5t87 12.5
q49 0 81.5 -12t52 -31t27.5 -43t8 -48h-125zM158 172q2 -45 14 -64.5t39 -19.5t38 17t11 37q0 24 -12 38t-35 14q-19 0 -32.5 -6.5t-22.5 -15.5z" />
    <glyph glyph-name="seven.dnom" horiz-adv-x="336" 
d="M58 0q0 66 20.5 125t45.5 104q29 53 66 98l-184 -5v105h324v-105q-36 -50 -63 -104q-23 -46 -42.5 -103.5t-19.5 -114.5h-147z" />
    <glyph glyph-name="eight.dnom" horiz-adv-x="413" 
d="M318 234q7 -1 19.5 -8t24.5 -20.5t20.5 -33.5t8.5 -47q0 -31 -8.5 -55.5t-29.5 -41.5t-56 -26t-89 -9t-89.5 9t-57 26t-30 41.5t-8.5 55.5q0 27 9 47t21 33.5t24 20.5t18 8q-5 1 -14 6t-18.5 15.5t-16.5 26t-7 37.5q0 27 8 49.5t27 39t51.5 25.5t82.5 9q49 0 81.5 -9
t51.5 -25.5t26.5 -39t7.5 -49.5q0 -22 -7 -37.5t-17 -26t-19.5 -15.5t-13.5 -6zM208 87q27 0 37.5 15.5t10.5 37.5t-10.5 38.5t-37.5 16.5q-29 0 -39 -16.5t-10 -38.5t10 -37.5t39 -15.5zM208 264q23 0 33 12t10 32q0 23 -10 36.5t-33 13.5q-25 0 -34.5 -13.5t-9.5 -36.5
q0 -20 10 -32t34 -12z" />
    <glyph glyph-name="nine.dnom" horiz-adv-x="417" 
d="M152 125q0 -12 10.5 -24.5t40.5 -12.5q23 0 35.5 14.5t17.5 63.5q-15 -8 -34 -13.5t-44 -5.5q-45 0 -75 11t-47.5 30.5t-25 46.5t-7.5 58q0 28 9 54.5t30 47t56 33.5t87 13q105 1 147 -50.5t42 -153.5q0 -70 -9.5 -117t-31.5 -75.5t-59 -41t-91 -12.5t-88 12t-53.5 31.5
t-27 43t-7.5 47.5h125zM260 253q-2 48 -14.5 69.5t-40.5 21.5q-26 0 -36.5 -17t-10.5 -39q0 -58 45 -58q20 0 33.5 6.5t23.5 16.5z" />
    <glyph glyph-name="zero.numr" horiz-adv-x="418" 
d="M22 513q0 58 8.5 102t29.5 72.5t57 43t92 14.5t92 -14.5t57 -43t29.5 -72.5t8.5 -102q0 -54 -8.5 -95t-29.5 -68.5t-57 -41.5t-92 -14t-92 14t-57 41.5t-29.5 68.5t-8.5 95zM261 513q0 66 -10.5 92.5t-42.5 26.5q-31 0 -41 -26.5t-10 -92.5q0 -57 10 -81t41 -24
q32 0 42.5 24t10.5 81z" />
    <glyph glyph-name="one.numr" horiz-adv-x="243" 
d="M74 304v320l-71 -30v97l121 47h83v-434h-133z" />
    <glyph glyph-name="two.numr" horiz-adv-x="388" 
d="M17 304v101l117 78q17 12 35 24t33 25t24.5 27.5t9.5 30.5t-9.5 30.5t-33.5 14.5t-33.5 -17t-9.5 -45h-136q0 39 9 71t29.5 54.5t55 35t85.5 12.5t84.5 -12t53.5 -32.5t28 -47t8 -55.5q0 -26 -9 -48.5t-22 -41.5t-28.5 -33.5t-27.5 -24.5q-13 -11 -25 -19t-21 -15
q-11 -8 -21 -14q37 2 68 5q26 2 50 3.5t30 1.5v-109h-344z" />
    <glyph glyph-name="three.numr" horiz-adv-x="387" 
d="M277 566q50 -15 70 -47t20 -80q0 -28 -9 -54t-29.5 -46t-54.5 -32t-84 -12q-51 0 -85.5 12.5t-55 34t-29.5 50t-9 60.5h134q0 -17 8.5 -33.5t33.5 -16.5q26 0 34.5 14.5t8.5 31.5q0 23 -11.5 40.5t-49.5 17.5q-8 0 -17 -1t-17 -2q-10 -2 -19 -3v75h-1l79 55l-169 -7v108
h334v-93z" />
    <glyph glyph-name="four.numr" horiz-adv-x="405" 
d="M217 304v63h-209v98l200 267h143v-267h46v-98h-46v-63h-134zM218 598l-98 -133h98v133z" />
    <glyph glyph-name="five.numr" horiz-adv-x="392" 
d="M172 634l-10 -64q14 8 32 13t43 5q39 0 65 -12t42.5 -32.5t23.5 -46.5t7 -53q0 -29 -9 -56t-29.5 -47.5t-54.5 -33t-85 -12.5q-52 0 -86.5 12.5t-55 31.5t-29 42.5t-8.5 45.5h135q0 -2 2 -7.5t7 -11.5t13.5 -11t21.5 -5q26 0 35 15.5t9 36.5t-9 38.5t-35 17.5
q-13 0 -22 -3.5t-15 -8.5t-9 -9.5t-3 -5.5l-122 2l22 163l13 93h288v-102z" />
    <glyph glyph-name="six.numr" horiz-adv-x="416" 
d="M254 611q0 11 -9 24t-35 13q-21 0 -32.5 -17t-16.5 -71q15 9 33.5 15t42.5 6q46 0 76 -11.5t48 -31t25.5 -44.5t7.5 -52t-8.5 -53.5t-29.5 -47.5t-56.5 -34t-89.5 -13q-53 0 -89 12.5t-58 38t-31.5 64t-9.5 88.5q0 70 10 117.5t32.5 76.5t58.5 41.5t87 12.5q49 0 82 -12
t52.5 -31t27.5 -43t8 -48h-126zM158 476q2 -45 14 -64.5t38 -19.5t37 16.5t11 37.5q0 24 -11.5 38t-34.5 14q-19 0 -32 -6.5t-22 -15.5z" />
    <glyph glyph-name="seven.numr" horiz-adv-x="337" 
d="M57 304q0 65 20.5 124t45.5 104q29 53 66 98l-183 -4v106h325v-106q-35 -50 -62 -104q-23 -47 -42.5 -104t-19.5 -114h-150z" />
    <glyph glyph-name="eight.numr" horiz-adv-x="413" 
d="M318 538q6 0 18 -7t24.5 -20.5t21.5 -34t9 -48.5q0 -30 -8.5 -54.5t-29.5 -42t-56.5 -26.5t-89.5 -9t-90 9t-57 26.5t-29.5 42t-8.5 54.5q0 27 9 47.5t21 34.5t24 21t18 7q-5 1 -14 6t-18.5 15t-16.5 26t-7 38q0 27 8 49.5t27 39t51.5 25.5t82.5 9t82.5 -9t51.5 -25.5
t26.5 -39t7.5 -49.5q0 -22 -7.5 -38t-17 -26t-19 -15t-13.5 -6zM207 391q26 0 36 15t10 38q0 22 -10 38.5t-36 16.5q-29 0 -38 -16.5t-9 -38.5q0 -23 9.5 -38t37.5 -15zM206 568q23 0 32.5 12t9.5 31q0 25 -9.5 38t-32.5 13t-32.5 -13t-9.5 -38q0 -19 9.5 -31t32.5 -12z" />
    <glyph glyph-name="nine.numr" horiz-adv-x="416" 
d="M153 428q0 -11 10 -23.5t40 -12.5q11 0 19.5 3t14.5 11.5t10 24t7 40.5q-15 -9 -34 -14.5t-43 -5.5q-45 0 -75 11t-47.5 30.5t-25 46t-7.5 57.5q0 28 9 54.5t30 47.5t56 34t88 13q105 1 147 -50.5t42 -153.5q0 -69 -9.5 -116.5t-32 -76.5t-59 -41.5t-90.5 -12.5t-88.5 12
t-54 31.5t-27 43.5t-7.5 47h127zM258 558q-2 47 -14.5 68t-38.5 21t-36.5 -17t-10.5 -38q0 -57 45 -57q19 0 32.5 6.5t22.5 16.5z" />
    <glyph glyph-name="uni2070" unicode="&#x2070;" horiz-adv-x="457" 
d="M25 577q0 64 9.5 112t32.5 79.5t62.5 47t99.5 15.5t99 -15.5t62.5 -47t32.5 -79.5t9 -112q0 -59 -9 -104t-32.5 -75.5t-62.5 -46t-99 -15.5t-99.5 15.5t-62.5 46t-32.5 75.5t-9.5 104zM290 577q0 75 -12 105t-50 30q-36 0 -48.5 -30t-12.5 -105q0 -66 12.5 -93t48.5 -27
q38 0 50 27t12 93z" />
    <glyph glyph-name="uni00B9" unicode="&#xb9;" horiz-adv-x="263" 
d="M82 347v356l-79 -33v102l131 52h88v-477h-140z" />
    <glyph glyph-name="uni00B2" unicode="&#xb2;" horiz-adv-x="423" 
d="M19 347v106q18 13 39 27q18 12 41 28t49 34q19 13 39 26.5t36.5 28.5t27 31.5t10.5 34.5q0 20 -11.5 36t-39.5 16t-39.5 -18.5t-11.5 -50.5h-143q0 42 10 76.5t32.5 58.5t60 37.5t91.5 13.5t90.5 -13t58 -34.5t31 -50.5t9.5 -61q0 -29 -10 -53.5t-25 -45.5t-32 -37.5
t-31 -28.5q-28 -24 -50.5 -39l-25.5 -17q1 0 12.5 0.5t28.5 1.5t37.5 2.5t38.5 2.5t32 1.5t18 0.5v-114h-373z" />
    <glyph glyph-name="uni00B3" unicode="&#xb3;" horiz-adv-x="421" 
d="M295 637q57 -17 80.5 -52.5t23.5 -89.5q0 -30 -10 -58.5t-33 -50.5t-59.5 -35.5t-90.5 -13.5q-55 0 -92 13.5t-59.5 37t-32.5 54t-10 65.5h140q0 -20 11 -39t40 -19q30 0 41 17t11 38q0 28 -14 47.5t-57 19.5q-9 0 -19 -1t-19 -2q-11 -2 -20 -3v80h-1l92 65l-189 -8v114
h362v-98z" />
    <glyph glyph-name="uni2074" unicode="&#x2074;" horiz-adv-x="440" 
d="M239 347v71h-230v103l221 297h150v-297h51v-103h-51v-71h-141zM240 675l-113 -154h113v154z" />
    <glyph glyph-name="uni2075" unicode="&#x2075;" horiz-adv-x="427" 
d="M184 715l-12 -77q15 8 35 14.5t49 6.5q42 0 71 -13.5t47 -35.5t26 -50.5t8 -58.5q0 -32 -10 -61.5t-32.5 -52t-59.5 -36t-91 -13.5q-56 0 -93 13t-60 34t-32.5 46.5t-9.5 50.5h141q0 -3 2.5 -10t8.5 -14t16.5 -12.5t26.5 -5.5q31 0 42 17.5t11 43.5q0 25 -11.5 45
t-41.5 20q-17 0 -28 -5t-18 -10q-8 -7 -12 -15l-128 2l25 181l14 98h312v-108z" />
    <glyph glyph-name="uni2076" unicode="&#x2076;" horiz-adv-x="454" 
d="M281 685q0 14 -11 29t-41 15q-12 0 -22 -4t-17 -15.5t-11.5 -31.5t-7.5 -51q17 11 38 18t49 7q49 0 82 -13t53 -34t28 -49t8 -58t-9.5 -59t-32.5 -52t-61.5 -37t-96.5 -14q-57 0 -96 14t-63 42t-34.5 69.5t-10.5 97.5q0 76 11 128t35.5 84t63.5 46t94 14q53 0 88.5 -13
t57 -34t30.5 -47t9 -52h-133zM168 537q2 -52 16 -75t45 -23q32 0 44.5 19t12.5 45q0 28 -13.5 44.5t-40.5 16.5q-23 0 -38 -8t-26 -19z" />
    <glyph glyph-name="uni2077" unicode="&#x2077;" horiz-adv-x="367" 
d="M63 347q0 72 23 138t51 116q33 59 74 110l-205 -6v112h354v-112q-39 -55 -70 -115q-13 -26 -25.5 -55t-22 -60t-15.5 -63.5t-6 -64.5h-158z" />
    <glyph glyph-name="uni2078" unicode="&#x2078;" horiz-adv-x="451" 
d="M346 604q7 -1 20.5 -8.5t26.5 -22t23 -37t10 -52.5q0 -34 -9.5 -61t-32 -46t-61.5 -29t-97 -10q-59 0 -97.5 10t-61.5 29t-32.5 46t-9.5 61q0 30 9.5 52.5t22.5 37t26.5 22t20.5 8.5q-5 1 -15 6.5t-20.5 17t-18 28.5t-7.5 41q0 30 8.5 54.5t29.5 42.5t56 28t89 10t89 -10
t56 -28t29 -42.5t8 -54.5q0 -24 -7.5 -41t-18 -28.5t-21 -17t-15.5 -6.5zM226 438q31 0 43 17.5t12 43.5t-11.5 45t-43.5 19q-33 0 -44.5 -19t-11.5 -45t12 -43.5t44 -17.5zM225 635q28 0 39 14t11 37q0 28 -11.5 43t-38.5 15t-38.5 -15t-11.5 -43q0 -23 11.5 -37t38.5 -14z
" />
    <glyph glyph-name="uni2079" unicode="&#x2079;" horiz-adv-x="454" 
d="M163 482q0 -14 12 -28.5t47 -14.5q25 0 39.5 17.5t20.5 74.5q-17 -10 -38 -16.5t-49 -6.5q-49 0 -81.5 12t-52 33.5t-28 51t-8.5 63.5q0 31 10 60t33 52t61 37t95 14t96 -13.5t63 -41.5t35 -70.5t11 -98.5q0 -76 -10.5 -128t-35 -83.5t-64 -45.5t-97.5 -14t-95.5 13
t-59 34t-30 47t-8.5 52h134zM286 623q-2 56 -16 80.5t-46 24.5q-31 0 -43.5 -19t-12.5 -45q0 -68 54 -68q23 0 38 8t26 19z" />
    <glyph glyph-name="asterisk" unicode="*" horiz-adv-x="444" 
d="M273 380l-51 90l-51 -90l-108 74l84 83l-107 9l29 124l102 -41l-12 100h125l-12 -100l103 41l28 -124l-106 -9l83 -83z" />
    <glyph glyph-name="backslash" unicode="\" horiz-adv-x="531" 
d="M342 -40l-310 840h158l310 -840h-158z" />
    <glyph glyph-name="periodcentered" unicode="&#xb7;" horiz-adv-x="254" 
d="M45 229v141h164v-141h-164z" />
    <glyph glyph-name="bullet" unicode="&#x2022;" horiz-adv-x="454" 
d="M121 198v204h212v-204h-212z" />
    <glyph glyph-name="colon" unicode=":" horiz-adv-x="278" 
d="M57 0v144h164v-144h-164zM57 358v142h164v-142h-164z" />
    <glyph glyph-name="comma" unicode="," horiz-adv-x="294" 
d="M9 -147q9 21 19 47q8 22 16.5 50.5t15.5 61.5q7 34 11 58.5t6 40.5q2 18 2 31h161q-1 -16 -5 -37q-3 -18 -8.5 -44.5t-15.5 -60.5q-11 -38 -23 -65.5t-22 -45.5q-12 -21 -23 -36h-134z" />
    <glyph glyph-name="uni2016" unicode="&#x2016;" horiz-adv-x="482" 
d="M69 -180v1000h132v-1000h-132zM281 -180v1000h132v-1000h-132z" />
    <glyph glyph-name="ellipsis" unicode="&#x2026;" horiz-adv-x="771" 
d="M57 0v144h164v-144h-164zM304 0v144h164v-144h-164zM550 0v144h164v-144h-164z" />
    <glyph glyph-name="exclam" unicode="!" horiz-adv-x="301" 
d="M69 0v139h163v-139h-163zM81 194l-12 526h163l-12 -526h-139z" />
    <glyph glyph-name="exclamdown" unicode="&#xa1;" horiz-adv-x="301" 
d="M69 -174l12 526h139l12 -526h-163zM69 407v139h163v-139h-163z" />
    <glyph glyph-name="numbersign" unicode="#" horiz-adv-x="784" 
d="M367 0l35 177h-98l-35 -177h-142l35 177h-93v114h116l29 146h-98v114h121l30 151h142l-30 -151h98l30 151h142l-30 -151h92v-114h-115l-29 -146h97v-114h-120l-35 -177h-142zM454 437h-98l-29 -146h98z" />
    <glyph glyph-name="period" unicode="." horiz-adv-x="278" 
d="M57 0v142h164v-142h-164z" />
    <glyph glyph-name="question" unicode="?" horiz-adv-x="538" 
d="M171 0v136h164v-136h-164zM177 190v16q0 47 11 81t27.5 60t36 46.5t36 40.5t27.5 42t11 52q0 16 -2.5 31t-10.5 26.5t-22.5 18.5t-38.5 7q-23 0 -37.5 -8.5t-22.5 -24t-10.5 -38.5t-2.5 -52h-164q0 133 56 200t185 67q68 0 113.5 -16.5t72.5 -44.5t38.5 -65.5t11.5 -80.5
q0 -48 -12 -82t-29.5 -61t-38.5 -48.5t-39 -43.5t-30.5 -47.5t-13.5 -59.5l-1 -16h-151z" />
    <glyph glyph-name="questiondown" unicode="&#xbf;" horiz-adv-x="538" 
d="M204 387v136h164v-136h-164zM523 35q0 -133 -56 -200t-185 -67q-68 0 -113.5 16.5t-72.5 44.5t-38.5 65.5t-11.5 80.5q0 47 12 81.5t29.5 61.5t38.5 48.5t39 43.5t30.5 47.5t13.5 59.5l1 16h151v-16q0 -47 -11 -81t-27.5 -60t-36 -46.5t-36 -40.5t-27.5 -42.5t-11 -51.5
q0 -16 2.5 -31t10.5 -26.5t22.5 -18.5t38.5 -7q46 0 59.5 32t13.5 91h164z" />
    <glyph glyph-name="quotedbl" unicode="&#x22;" horiz-adv-x="422" 
d="M26 494l-18 257h174l-18 -257h-138zM258 494l-18 257h174l-18 -257h-138z" />
    <glyph glyph-name="quotesingle" unicode="'" horiz-adv-x="174" 
d="M18 494l-18 257h174l-18 -257h-138z" />
    <glyph glyph-name="semicolon" unicode=";" horiz-adv-x="301" 
d="M4 -147q9 21 19 47q8 22 16.5 50.5t15.5 61.5q7 34 11 58.5t6 40.5q2 18 2 31h161q-1 -16 -5 -37q-3 -18 -8.5 -44.5t-15.5 -60.5q-11 -38 -23 -65.5t-22 -45.5q-12 -21 -23 -36h-134zM80 358v138h164v-138h-164z" />
    <glyph glyph-name="slash" unicode="/" horiz-adv-x="507" 
d="M32 -40l310 840h158l-310 -840h-158z" />
    <glyph glyph-name="underscore" unicode="_" horiz-adv-x="555" 
d="M62 0v122h431v-122h-431z" />
    <glyph glyph-name="exclamdown.case" horiz-adv-x="301" 
d="M69 0l12 526h139l12 -526h-163zM69 581v139h163v-139h-163z" />
    <glyph glyph-name="questiondown.case" horiz-adv-x="530" 
d="M204 585v135h164v-135h-164zM523 233q0 -133 -56 -200.5t-185 -67.5q-68 0 -113.5 16.5t-72.5 44.5t-38.5 66t-11.5 81q0 47 12 81.5t29.5 61.5t38.5 48.5t39 43.5t30.5 47.5t13.5 59.5l1 16h151v-16q0 -47 -11 -81t-27.5 -60t-36 -46.5t-36 -40.5t-27.5 -42.5t-11 -51.5
q0 -17 2.5 -32t10.5 -26t22.5 -18t38.5 -7q46 0 59.5 32t13.5 91h164z" />
    <glyph glyph-name="braceleft" unicode="{" horiz-adv-x="434" 
d="M424 -196q-96 0 -154 9.5t-89 34.5t-41 68t-10 110v19.5t-0.5 20.5t-0.5 34.5v61.5q0 15 -3 25.5t-12.5 17.5t-26.5 10t-45 3v128q28 0 45 3t26.5 9.5t12.5 16.5t3 25v146q0 67 10 108.5t41 64.5t89.5 31t154.5 8v-138q-41 0 -67 -3.5t-40.5 -15.5t-20 -34.5t-5.5 -60.5
v-15.5t-0.5 -11t-0.5 -24.5v-57q0 -32 -10.5 -54t-24 -36t-25 -20t-14.5 -7q1 -1 13 -7t26 -19.5t25 -35.5t11 -55q0 -15 0.5 -43.5t0.5 -65.5q0 -38 5 -60t19.5 -33.5t40.5 -15t67 -3.5v-139z" />
    <glyph glyph-name="braceright" unicode="}" horiz-adv-x="434" 
d="M10 -57q41 0 67 3.5t40.5 14.5t19.5 32.5t5 57.5q0 37 0.5 67.5t0.5 45.5q0 32 10.5 54t24 35.5t25 20t14.5 7.5q-1 0 -12.5 6t-25 19.5t-24.5 36t-11 55.5v40.5t-0.5 28.5t-0.5 22.5v22.5q0 36 -5.5 57.5t-20 32.5t-40.5 14.5t-67 3.5v138q96 0 154 -8t89.5 -30.5
t41.5 -63t10 -106.5v-150q0 -15 3 -25t12.5 -16.5t26.5 -9.5t45 -3v-128q-28 0 -45 -3t-26.5 -10t-12.5 -17.5t-3 -25.5v-54.5t-0.5 -36.5t-0.5 -26v-23q0 -65 -10 -107.5t-41 -67t-89 -34t-154 -9.5v139z" />
    <glyph glyph-name="bracketleft" unicode="[" horiz-adv-x="414" 
d="M80 -200v960h324v-140h-166v-680h166v-140h-324z" />
    <glyph glyph-name="bracketright" unicode="]" horiz-adv-x="414" 
d="M10 -200v140h166v680h-166v140h324v-960h-324z" />
    <glyph glyph-name="parenleft" unicode="(" horiz-adv-x="352" 
d="M182 -194q-35 55 -62 128q-23 62 -42.5 150t-19.5 199t16 198.5t36 150.5q23 72 52 128h160q-29 -58 -52 -132q-20 -63 -36 -151t-16 -194q0 -107 19.5 -194.5t42.5 -150.5q27 -74 62 -132h-160z" />
    <glyph glyph-name="parenright" unicode=")" horiz-adv-x="352" 
d="M10 -194q35 58 62 132q23 63 42.5 150.5t19.5 194.5q0 106 -16 194t-36 151q-23 74 -52 132h160q29 -56 52 -128q20 -63 36 -150.5t16 -198.5t-19.5 -199t-42.5 -150q-27 -73 -62 -128h-160z" />
    <glyph glyph-name="braceleft.case" horiz-adv-x="436" 
d="M424 -103q-96 0 -154 9.5t-89 34t-41 67t-10 107.5v18t-0.5 14t-0.5 21.5v39.5q0 15 -3 25.5t-12.5 17.5t-26.5 10t-45 3v128q28 0 45 3t26.5 9.5t12.5 17t3 25.5v103q0 66 10 106.5t41 63t89.5 30.5t154.5 8v-138q-41 0 -67 -3.5t-40.5 -14t-20 -30t-5.5 -52.5v-15
t-0.5 -7.5t-0.5 -15v-37.5q0 -32 -10.5 -54t-24 -36t-25 -20t-14.5 -7q1 -1 13 -7t26 -19.5t25 -36t11 -55.5v-12.5t0.5 -13t0.5 -18.5v-29q0 -35 5 -55t19.5 -30.5t40.5 -13.5t67 -3v-138z" />
    <glyph glyph-name="braceright.case" horiz-adv-x="436" 
d="M12 35q41 0 67 3t40.5 13.5t19.5 30.5t5 55v29t0.5 18.5t0.5 13v12.5q0 32 10.5 54t24 36t25 20.5t14.5 7.5q-1 0 -12.5 6t-25 19.5t-24.5 36t-11 55.5v31.5t-0.5 15t-0.5 11v17.5q0 33 -5.5 52.5t-20 30t-40.5 14t-67 3.5v138q96 0 154 -8t89.5 -30.5t41.5 -63
t10 -106.5v-103q0 -15 3 -25.5t12.5 -17t26.5 -9.5t45 -3v-128q-28 0 -45 -3t-26.5 -10t-12.5 -17.5t-3 -25.5v-33t-0.5 -22.5t-0.5 -17.5v-20q0 -65 -10 -107.5t-41 -67t-89 -34t-154 -9.5v138z" />
    <glyph glyph-name="bracketleft.case" horiz-adv-x="412" 
d="M80 -90v850h320v-136h-162v-577h162v-137h-320z" />
    <glyph glyph-name="bracketright.case" horiz-adv-x="410" 
d="M12 -90v137h162v577h-162v136h320v-850h-320z" />
    <glyph glyph-name="parenleft.case" horiz-adv-x="358" 
d="M182 -119q-31 45 -56 109q-21 55 -38.5 136.5t-17.5 192.5t14.5 193t31.5 138q20 64 46 110h166q-26 -48 -46 -114q-17 -57 -31.5 -139t-14.5 -188q0 -107 17.5 -188t38.5 -137q25 -65 56 -113h-166z" />
    <glyph glyph-name="parenright.case" horiz-adv-x="358" 
d="M10 -119q31 48 56 113q21 56 38.5 137t17.5 188q0 106 -14.5 188t-31.5 139q-20 66 -46 114h166q26 -46 46 -110q17 -56 31.5 -138t14.5 -193t-17.5 -192.5t-38.5 -136.5q-25 -64 -56 -109h-166z" />
    <glyph glyph-name="emdash" unicode="&#x2014;" horiz-adv-x="929" 
d="M62 259v122h805v-122h-805z" />
    <glyph glyph-name="endash" unicode="&#x2013;" horiz-adv-x="555" 
d="M62 259v122h431v-122h-431z" />
    <glyph glyph-name="hyphen" unicode="-" horiz-adv-x="374" 
d="M62 257v124h250v-124h-250z" />
    <glyph glyph-name="guillemotleft" unicode="&#xab;" horiz-adv-x="631" 
d="M412 75l-117 172v34l117 179h174l-137 -197l137 -188h-174zM162 75l-117 172v34l117 179h174l-137 -197l137 -188h-174z" />
    <glyph glyph-name="guillemotright" unicode="&#xbb;" horiz-adv-x="631" 
d="M295 75l137 188l-137 197h174l117 -179v-34l-117 -172h-174zM45 75l137 188l-137 197h174l117 -179v-34l-117 -172h-174z" />
    <glyph glyph-name="guilsinglleft" unicode="&#x2039;" horiz-adv-x="380" 
d="M162 75l-117 172v34l117 179h174l-137 -197l137 -188h-174z" />
    <glyph glyph-name="guilsinglright" unicode="&#x203a;" horiz-adv-x="380" 
d="M45 75l137 188l-137 197h174l117 -179v-34l-117 -172h-174z" />
    <glyph glyph-name="quotedblbase" unicode="&#x201e;" horiz-adv-x="472" 
d="M227 -147q9 21 19 47q8 22 16.5 50.5t15.5 61.5q7 34 11 58.5t6 40.5q2 18 2 31h161q-1 -16 -5 -37q-3 -18 -8.5 -44.5t-15.5 -60.5q-11 -38 -23 -65.5t-22 -45.5q-12 -21 -23 -36h-134zM2 -147q9 21 19 47q8 22 16.5 50.5t15.5 61.5q7 34 11 58.5t6 40.5q2 18 2 31h161
q-1 -16 -5 -37q-3 -18 -8.5 -44.5t-15.5 -60.5q-11 -38 -23 -65.5t-22 -45.5q-12 -21 -23 -36h-134z" />
    <glyph glyph-name="quotedblleft" unicode="&#x201c;" horiz-adv-x="476" 
d="M244 470q1 16 5 38q3 18 8.5 44.5t15.5 60.5q11 37 22 64t22 46q11 21 24 37h134q-9 -21 -19 -47q-8 -22 -17 -51t-16 -61q-7 -35 -10.5 -59.5t-5.5 -40.5q-2 -18 -2 -31h-161zM18 470q1 16 5 38q3 18 8.5 44.5t15.5 60.5q11 37 22 64t22 46q11 21 24 37h134
q-9 -21 -19 -47q-8 -22 -17 -51t-16 -61q-7 -35 -10.5 -59.5t-5.5 -40.5q-2 -18 -2 -31h-161z" />
    <glyph glyph-name="quotedblright" unicode="&#x201d;" horiz-adv-x="472" 
d="M228 470q9 21 19 47q8 22 16.5 51t15.5 62q7 34 11 58.5t6 40.5q2 18 2 31h161q-1 -16 -5 -37q-3 -18 -8.5 -44.5t-15.5 -60.5q-11 -38 -23 -65t-22 -46q-12 -22 -23 -37h-134zM2 470q9 21 19 47q8 22 16.5 51t15.5 62q7 34 11 58.5t6 40.5q2 18 2 31h161q-1 -16 -5 -37
q-3 -18 -8.5 -44.5t-15.5 -60.5q-11 -38 -23 -65t-22 -46q-12 -22 -23 -37h-134z" />
    <glyph glyph-name="quoteleft" unicode="&#x2018;" horiz-adv-x="247" 
d="M14 470q1 16 5 38q3 18 8.5 44.5t15.5 60.5q11 37 22 64t22 46q11 21 24 37h134q-9 -21 -19 -47q-8 -22 -17 -51t-16 -61q-7 -35 -10.5 -59.5t-5.5 -40.5q-2 -18 -2 -31h-161z" />
    <glyph glyph-name="quoteright" unicode="&#x2019;" horiz-adv-x="235" 
d="M2 470q9 21 19 47q8 22 16.5 51t15.5 62q7 34 11 58.5t6 40.5q2 18 2 31h161q-1 -16 -5 -37q-3 -18 -8.5 -44.5t-15.5 -60.5q-11 -38 -23 -65t-22 -46q-12 -22 -23 -37h-134z" />
    <glyph glyph-name="quotesinglbase" unicode="&#x201a;" horiz-adv-x="275" 
d="M10 -147q9 21 19 47q8 22 16.5 50.5t15.5 61.5q7 34 11 58.5t6 40.5q2 18 2 31h161q-1 -16 -5 -37q-3 -18 -8.5 -44.5t-15.5 -60.5q-11 -38 -23 -65.5t-22 -45.5q-12 -21 -23 -36h-134z" />
    <glyph glyph-name="guillemotleft.case" horiz-adv-x="622" 
d="M408 133l-117 172v34l117 179h174l-137 -197l137 -188h-174zM157 133l-117 172v34l117 179h174l-137 -197l137 -188h-174z" />
    <glyph glyph-name="guillemotright.case" horiz-adv-x="622" 
d="M291 133l137 188l-137 197h174l117 -179v-34l-117 -172h-174zM40 133l137 188l-137 197h174l117 -179v-34l-117 -172h-174z" />
    <glyph glyph-name="guilsinglleft.case" horiz-adv-x="371" 
d="M157 133l-117 172v34l117 179h174l-137 -197l137 -188h-174z" />
    <glyph glyph-name="guilsinglright.case" horiz-adv-x="371" 
d="M40 133l137 188l-137 197h174l117 -179v-34l-117 -172h-174z" />
    <glyph glyph-name="space" unicode=" " horiz-adv-x="198" 
 />
    <glyph glyph-name="uni2009" unicode="&#x2009;" horiz-adv-x="58" 
 />
    <glyph glyph-name="A" unicode="A" 
d="M508 0l-43 137h-250l-43 -137h-172l268 720h160l264 -720h-184zM342 536l-80 -251h158z" />
    <glyph glyph-name="cent" unicode="&#xa2;" horiz-adv-x="610" 
d="M254 -20v85q-60 7 -100 30t-64 59t-34 85.5t-10 111.5q0 61 10 110t34 85t64 58.5t100 30.5v75h118v-75q52 -6 88.5 -23.5t60 -46t35.5 -67.5t14 -88h-161q-2 54 -26.5 78t-67.5 24q-57 0 -79.5 -37t-22.5 -124q0 -88 22.5 -124.5t79.5 -36.5q42 0 66.5 21t26.5 66h163
q-5 -91 -51.5 -146t-147.5 -66v-85h-118z" />
    <glyph glyph-name="currency" unicode="&#xa4;" horiz-adv-x="722" 
d="M588 9l-58 58q-31 -19 -71.5 -29t-94.5 -10q-104 0 -166 39l-65 -64l-88 88l73 72q-14 34 -20.5 74t-6.5 86q0 45 5.5 84t19.5 73l-67 67l88 88l56 -57q62 43 171 44q52 0 92 -9.5t70 -27.5l57 57l88 -88l-63 -63q16 -35 23 -77.5t7 -90.5q0 -46 -6.5 -86.5t-21.5 -74.5
l67 -65zM365 173q30 0 50.5 10.5t32.5 30t17 47.5t5 62t-5 62.5t-17 48.5t-32.5 31.5t-50.5 11.5q-31 0 -51.5 -11.5t-32.5 -31.5t-17 -48.5t-5 -62.5t5 -62t17 -47.5t32.5 -30t51.5 -10.5z" />
    <glyph glyph-name="dollar" unicode="$" horiz-adv-x="582" 
d="M241 -24l6 59q-110 8 -160 61.5t-50 163.5h151q0 -53 26.5 -75.5t70.5 -22.5q48 0 73.5 17.5t25.5 47.5q0 33 -25 48t-62.5 24.5t-81.5 19t-81.5 31.5t-62.5 62t-25 111q0 80 48 129.5t153 57.5l-6 57h104l-6 -57q105 -10 150 -62.5t45 -148.5h-150q0 37 -21.5 61
t-67.5 24q-48 0 -68.5 -19.5t-20.5 -45.5q0 -24 14.5 -38.5t38.5 -23.5t55 -16t63 -16t63 -22t55 -34.5t38.5 -54.5t14.5 -81q0 -89 -50.5 -138.5t-158.5 -58.5l6 -60h-104z" />
    <glyph glyph-name="Euro" unicode="&#x20ac;" horiz-adv-x="637" 
d="M587 186q-2 -42 -16.5 -79.5t-44 -65.5t-74 -44.5t-107.5 -16.5q-66 0 -114 17t-81 48.5t-52.5 76.5t-28.5 100h-45v94h36v34v30h-36v93h44q9 57 28 103t52 78.5t81.5 50t115.5 17.5q64 0 110 -17.5t75.5 -47.5t43.5 -70t16 -84h-147q-3 32 -29.5 54.5t-68.5 22.5
q-47 0 -73.5 -27.5t-38.5 -79.5h162v-93h-173v-30v-34h173v-94h-161q13 -50 39.5 -75t71.5 -25q38 0 64.5 18.5t31.5 45.5h146z" />
    <glyph glyph-name="uni20BD" unicode="&#x20bd;" horiz-adv-x="653" 
d="M263 99v-101h-170v101h-69v115h69v58h-69v132h69v318h209q88 0 148.5 -10.5t98.5 -36t55 -69.5t17 -111q0 -66 -17 -109t-55 -68.5t-99.5 -35.5t-151.5 -10h-35v-58h146v-115h-146zM298 404q38 0 67.5 2.5t49.5 11.5t30.5 27.5t10.5 50.5t-10.5 50.5t-30.5 27.5
t-49.5 11.5t-67.5 2.5h-34l-1 -184h35z" />
    <glyph glyph-name="sterling" unicode="&#xa3;" horiz-adv-x="549" 
d="M27 -4v129q24 12 42 30q16 15 29 37t13 51v10h-86v113h51q-15 29 -28 62t-13 82q0 37 13.5 72.5t43 63.5t75 45t110.5 17q72 0 119 -17.5t74 -48.5t37.5 -72t10.5 -87h-172q0 19 -3 36.5t-11 31t-21 21t-34 7.5q-19 0 -32 -7.5t-21 -19t-11.5 -25.5t-3.5 -28
q0 -35 14.5 -66.5t29.5 -66.5h161v-113h-134v-4q0 -23 -7 -41.5t-17.5 -33.5t-23.5 -27t-26 -21q52 1 105 1.5t98 1.5q51 1 100 1v-134h-482z" />
    <glyph glyph-name="yen" unicode="&#xa5;" horiz-adv-x="644" 
d="M241 0v118h-115v86h115v41h-115v87h73l-199 388h194l138 -306l131 306h181l-193 -388h73v-87h-113v-41h113v-86h-113v-118h-170z" />
    <glyph glyph-name="approxequal" unicode="&#x2248;" horiz-adv-x="563" 
d="M531 308q0 -35 -5.5 -68t-22.5 -59t-47.5 -42t-81.5 -16q-33 0 -55.5 8.5t-42 19t-39.5 19t-49 8.5q-17 0 -28.5 -6.5t-18.5 -15.5t-10.5 -18t-3.5 -15h-95q0 34 5.5 67.5t22 59.5t47.5 42t81 16q34 0 56.5 -8.5t42 -19t39 -19t48.5 -8.5q17 0 28.5 6.5t19 15.5t11 18
t3.5 15h95zM531 521q0 -35 -5.5 -68.5t-22.5 -59.5t-47.5 -42t-81.5 -16q-33 0 -55.5 8.5t-42 19t-39.5 19t-49 8.5q-17 0 -28.5 -6.5t-18.5 -15.5t-10.5 -18t-3.5 -15h-95q0 35 5.5 68.5t22 59.5t47.5 42t81 16q34 0 56.5 -8.5t42 -19t39 -19t48.5 -8.5q17 0 28.5 6.5
t19 15.5t11 18t3.5 15h95z" />
    <glyph glyph-name="asciitilde" unicode="~" horiz-adv-x="555" 
d="M527 404q0 -36 -5.5 -70.5t-22.5 -61t-47.5 -42.5t-81.5 -16q-34 0 -56.5 8.5t-41.5 19t-39 19t-49 8.5q-17 0 -28.5 -6.5t-18.5 -15.5t-10.5 -18t-3.5 -15h-95q0 36 5.5 70.5t22 61t47.5 42.5t81 16q34 0 56.5 -8.5t41.5 -19t39 -19t49 -8.5q17 0 28.5 6.5t19 15.5
t11 18t3.5 15h95z" />
    <glyph glyph-name="divide" unicode="&#xf7;" horiz-adv-x="518" 
d="M30 273v124h458v-124h-458zM183 97v141h152v-141h-152zM183 432v142h152v-142h-152z" />
    <glyph glyph-name="equal" unicode="=" horiz-adv-x="509" 
d="M32 349v124h445v-124h-445zM32 157v124h445v-124h-445z" />
    <glyph glyph-name="greater" unicode="&#x3e;" horiz-adv-x="506" 
d="M32 104v138l314 76l-314 76v138l450 -146v-136z" />
    <glyph glyph-name="greaterequal" unicode="&#x2265;" horiz-adv-x="539" 
d="M48 200v138l314 76l-314 76v138l450 -146v-136zM53 47v124h438v-124h-438z" />
    <glyph glyph-name="infinity" unicode="&#x221e;" horiz-adv-x="821" 
d="M410 225q-17 -20 -35.5 -38.5t-40.5 -32t-48.5 -21.5t-59.5 -8q-103 0 -149.5 47t-46.5 132t46.5 132t149.5 47q33 0 59.5 -8t48.5 -22t40.5 -32t35.5 -38q16 20 34.5 38t41 32t49.5 22t61 8q102 0 148.5 -47.5t46.5 -131.5q0 -85 -46.5 -132t-148.5 -47q-34 0 -61 8
t-49.5 21.5t-41 32t-34.5 38.5zM471 304q26 -32 54.5 -53.5t70.5 -21.5q43 0 59.5 21.5t16.5 53.5t-16.5 53.5t-59.5 21.5q-42 0 -70.5 -21.5t-54.5 -53.5zM349 304q-26 32 -54.5 53.5t-68.5 21.5q-44 0 -60.5 -21.5t-16.5 -53.5t16.5 -53.5t60.5 -21.5q40 0 68.5 21.5
t54.5 53.5z" />
    <glyph glyph-name="less" unicode="&#x3c;" horiz-adv-x="506" 
d="M24 250v136l450 146v-138l-315 -76l315 -76v-138z" />
    <glyph glyph-name="lessequal" unicode="&#x2264;" horiz-adv-x="539" 
d="M41 346v136l450 146v-138l-315 -76l315 -76v-138zM48 47v124h438v-124h-438z" />
    <glyph glyph-name="minus" unicode="&#x2212;" horiz-adv-x="478" 
d="M28 273v124h422v-124h-422z" />
    <glyph glyph-name="multiply" unicode="&#xd7;" horiz-adv-x="487" 
d="M372 93l-129 132l-127 -132l-87 84l130 135l-130 136l86 83l128 -132l127 132l88 -83l-131 -136l132 -135z" />
    <glyph glyph-name="notequal" unicode="&#x2260;" horiz-adv-x="505" 
d="M209 157l-49 -86h-109l49 86h-70v124h142l39 68h-181v124h252l45 77h109l-45 -77h84v-124h-155l-39 -68h194v-124h-266z" />
    <glyph glyph-name="percent" unicode="%" horiz-adv-x="885" 
d="M144 0l460 702h143l-460 -702h-143zM212 349q-51 0 -86.5 12t-57 35.5t-31 57.5t-9.5 78q0 45 9.5 79.5t31 58.5t57 36.5t86.5 12.5q52 0 87 -12.5t56.5 -36.5t30.5 -58.5t9 -79.5q0 -44 -9 -78t-30.5 -57.5t-56.5 -35.5t-87 -12zM212 443q39 0 51.5 22t12.5 67
q0 46 -12.5 69.5t-51.5 23.5q-38 0 -51.5 -23.5t-13.5 -69.5q0 -45 13.5 -67t51.5 -22zM674 -18q-51 0 -86.5 12t-57 35.5t-31 57.5t-9.5 78q0 45 9.5 79.5t31 58.5t57 36.5t86.5 12.5q52 0 87 -12.5t56.5 -36.5t30.5 -58.5t9 -79.5q0 -44 -9 -78t-30.5 -57.5t-56.5 -35.5
t-87 -12zM675 76q39 0 51.5 22t12.5 67q0 46 -12.5 69.5t-51.5 23.5q-38 0 -51.5 -23.5t-13.5 -69.5q0 -45 13.5 -67t51.5 -22z" />
    <glyph glyph-name="perthousand" unicode="&#x2030;" horiz-adv-x="1292" 
d="M144 0l460 702h143l-460 -702h-143zM212 349q-51 0 -86.5 12t-57 35.5t-31 57.5t-9.5 78q0 45 9.5 79.5t31 58.5t57 36.5t86.5 12.5q52 0 87 -12.5t56.5 -36.5t30.5 -58.5t9 -79.5q0 -44 -9 -78t-30.5 -57.5t-56.5 -35.5t-87 -12zM212 443q39 0 51.5 22t12.5 67
q0 46 -12.5 69.5t-51.5 23.5q-38 0 -51.5 -23.5t-13.5 -69.5q0 -45 13.5 -67t51.5 -22zM674 -18q-51 0 -86.5 12t-57 35.5t-31 57.5t-9.5 78q0 45 9.5 79.5t31 58.5t57 36.5t86.5 12.5q52 0 87 -12.5t56.5 -36.5t30.5 -58.5t9 -79.5q0 -44 -9 -78t-30.5 -57.5t-56.5 -35.5
t-87 -12zM675 76q39 0 51.5 22t12.5 67q0 46 -12.5 69.5t-51.5 23.5q-38 0 -51.5 -23.5t-13.5 -69.5q0 -45 13.5 -67t51.5 -22zM1080 -18q-51 0 -86.5 12t-57 35.5t-31 57.5t-9.5 78q0 45 9.5 79.5t31 58.5t57 36.5t86.5 12.5q52 0 87 -12.5t56.5 -36.5t30.5 -58.5t9 -79.5
q0 -44 -9 -78t-30.5 -57.5t-56.5 -35.5t-87 -12zM1081 76q39 0 51.5 22t12.5 67q0 46 -12.5 69.5t-51.5 23.5q-38 0 -51.5 -23.5t-13.5 -69.5q0 -45 13.5 -67t51.5 -22z" />
    <glyph glyph-name="plus" unicode="+" horiz-adv-x="478" 
d="M173 124v151h-145v120h145v151h132v-151h145v-120h-145v-151h-132z" />
    <glyph glyph-name="plusminus" unicode="&#xb1;" horiz-adv-x="483" 
d="M306 331v-99h-131v99h-145v121h145v98h131v-98h146v-121h-146zM30 73v124h422v-124h-422z" />
    <glyph glyph-name="arrowup" unicode="&#x2191;" horiz-adv-x="643" 
d="M239 -34l8 404l-118 -151l-101 84l290 354l297 -354l-102 -84l-117 150l9 -403h-166z" />
    <glyph glyph-name="uni2197" unicode="&#x2197;" horiz-adv-x="601" 
d="M391 95l24 190l-279 -291l-118 117l290 279l-188 -23l-12 131l455 46l-40 -461z" />
    <glyph glyph-name="arrowright" unicode="&#x2192;" horiz-adv-x="747" 
d="M718 312l-354 -296l-84 101l151 118l-403 -8v165l403 -8l-150 118l84 101l354 -291h-1z" />
    <glyph glyph-name="uni2198" unicode="&#x2198;" horiz-adv-x="605" 
d="M107 56l12 132l190 -24l-291 280l117 117l279 -291l-23 189l131 12l45 -456z" />
    <glyph glyph-name="arrowdown" unicode="&#x2193;" horiz-adv-x="643" 
d="M28 319l101 85l118 -153l-8 405h166l-9 -403l117 150l102 -84l-290 -355z" />
    <glyph glyph-name="uni2199" unicode="&#x2199;" horiz-adv-x="602" 
d="M38 11l41 460l131 -11l-24 -190l280 291l118 -118l-291 -279l188 23l13 -131z" />
    <glyph glyph-name="arrowleft" unicode="&#x2190;" horiz-adv-x="748" 
d="M317 216l150 -117l-84 -102l-355 290l355 297l85 -101l-151 -118l403 8v-166z" />
    <glyph glyph-name="uni2196" unicode="&#x2196;" horiz-adv-x="606" 
d="M191 286l24 -189l-131 -13l-46 457l461 -42l-12 -131l-190 24l291 -280l-117 -118z" />
    <glyph glyph-name="arrowboth" unicode="&#x2194;" horiz-adv-x="1078" 
d="M696 -3l-85 102l152 118l-449 1l153 -119l-84 -102l-355 290l355 297l85 -101l-154 -120h450l-154 120l85 101l355 -297z" />
    <glyph glyph-name="arrowupdn" unicode="&#x2195;" horiz-adv-x="643" 
d="M28 135l102 84l118 -152l1 451l-119 -154l-102 84l290 355l297 -356l-101 -84l-120 154v-451l120 154l101 -84l-297 -356z" />
    <glyph glyph-name="bar" unicode="|" horiz-adv-x="270" 
d="M69 -200v1020h132v-1020h-132z" />
    <glyph glyph-name="brokenbar" unicode="&#xa6;" horiz-adv-x="270" 
d="M69 -180v425h132v-425h-132zM69 395v425h132v-425h-132z" />
    <glyph glyph-name="at" unicode="@" horiz-adv-x="920" 
d="M670 -108q-35 -13 -85 -20.5t-124 -7.5q-111 0 -188.5 31t-126.5 86t-71 131t-22 167q0 89 22.5 165.5t71 132.5t126 87.5t188.5 31.5q109 0 186 -31.5t125.5 -87.5t71 -132.5t22.5 -165.5q0 -130 -42 -197t-135 -67q-54 0 -86 21.5t-49 56.5q-20 -23 -53.5 -38
t-86.5 -15q-93 0 -135 61t-42 176q0 114 42 175.5t135 61.5q45 0 76 -17.5t50 -36.5l14 53h116v-308q0 -54 10 -76t31 -22q10 0 20 5t18 22.5t13 51.5t5 93q0 68 -16 127.5t-52 104t-94.5 70t-143.5 25.5q-84 0 -142 -25.5t-93 -70t-50.5 -104t-15.5 -127.5q0 -65 12.5 -124
t46 -103.5t92 -71t151.5 -26.5q25 0 54.5 2t58 6t53.5 10t42 14v-94zM534 361q-11 18 -31 33t-54 15q-32 0 -52.5 -33t-20.5 -99q0 -67 20.5 -100t52.5 -33q36 0 56 13.5t29 32.5v171z" />
    <glyph glyph-name="ampersand" unicode="&#x26;" horiz-adv-x="750" 
d="M562 -2q-6 5 -13 11q-6 5 -14 13l-19 19q-79 -61 -201 -61q-137 0 -200 59t-63 169q0 43 10.5 76.5t27 58t37 41.5t40.5 28q-20 30 -31.5 61.5t-11.5 70.5q0 41 11.5 76t38.5 60.5t71 40t108 14.5q67 0 110 -17t68 -47t34.5 -71t9.5 -89h-164q0 36 -11 61.5t-47 25.5
q-18 0 -29 -5.5t-17 -13.5t-8.5 -18.5t-2.5 -20.5q0 -31 13.5 -59t37.5 -58t56.5 -63.5t71.5 -74.5l15 -17q6 25 9.5 54t3.5 62h139q0 -71 -11 -128.5t-31 -103.5q32 -34 59.5 -62t47.5 -48q24 -24 43 -44h-188zM254 312q-17 -17 -28.5 -39.5t-11.5 -54.5q0 -19 5 -37
t17.5 -32.5t34 -23t54.5 -8.5q51 0 89 26q-58 58 -118 124z" />
    <glyph glyph-name="paragraph" unicode="&#xb6;" horiz-adv-x="730" 
d="M529 0v625h-65v-625h-132v254q-84 2 -140.5 14.5t-90 41t-47.5 76t-14 120.5t14.5 121t48 76.5t89.5 41t140 14.5v1h18h19h292v-760h-132zM332 623q-33 -2 -58 -7.5t-41 -18t-24 -34t-8 -55.5q0 -35 8 -57t24 -34.5t41 -18.5t58 -7v232z" />
    <glyph glyph-name="copyright" unicode="&#xa9;" horiz-adv-x="844" 
d="M421 -34q-100 0 -170 30t-114 81.5t-64 121t-20 149.5t20 150.5t64 123t114 83t170 30.5q102 0 172.5 -30.5t114.5 -83t63.5 -123t19.5 -150.5t-19.5 -149.5t-63.5 -121t-114.5 -81.5t-172.5 -30zM421 47q79 0 132 25.5t84.5 68t44.5 96.5t13 111t-13 112t-44.5 98
t-84.5 69.5t-132 26.5t-131.5 -26.5t-84 -69.5t-44.5 -98t-13 -112t13 -111t44.5 -96.5t84 -68t131.5 -25.5zM479 403q-2 41 -16.5 57t-38.5 16q-16 0 -27.5 -5t-19 -18.5t-11 -38t-3.5 -62.5q0 -70 14.5 -96t46.5 -26q24 0 38 15.5t16 58.5h136q0 -52 -13 -87.5t-37.5 -57
t-59.5 -31t-80 -9.5q-51 0 -88.5 12.5t-62.5 40.5t-37.5 72.5t-12.5 107.5q0 128 50 181.5t151 53.5q90 0 139.5 -41t50.5 -143h-135z" />
    <glyph glyph-name="registered" unicode="&#xae;" horiz-adv-x="844" 
d="M421 -34q-100 0 -170 30t-114 81.5t-64 121t-20 149.5t20 150.5t64 123t114 83t170 30.5q102 0 172.5 -30.5t114.5 -83t63.5 -123t19.5 -150.5t-19.5 -149.5t-63.5 -121t-114.5 -81.5t-172.5 -30zM421 47q79 0 132 25.5t84.5 68t44.5 96.5t13 111t-13 112t-44.5 98
t-84.5 69.5t-132 26.5t-131.5 -26.5t-84 -69.5t-44.5 -98t-13 -112t13 -111t44.5 -96.5t84 -68t131.5 -25.5zM491 140l-59 121h-28h-27v-121h-135v429h165q60 0 101.5 -7t67 -25t36.5 -48t11 -75q0 -54 -16.5 -85.5t-54.5 -47.5l74 -142zM404 366q38 0 60 7.5t22 40.5
q0 18 -5.5 28t-16 15t-26 6t-34.5 1h-27v-98h27z" />
    <glyph glyph-name="uni2117" unicode="&#x2117;" horiz-adv-x="844" 
d="M421 -34q-100 0 -170 30t-114 81.5t-64 121t-20 149.5t20 150.5t64 123t114 83t170 30.5q102 0 172.5 -30.5t114.5 -83t63.5 -123t19.5 -150.5t-19.5 -149.5t-63.5 -121t-114.5 -81.5t-172.5 -30zM421 47q79 0 132 25.5t84.5 68t44.5 96.5t13 111t-13 112t-44.5 98
t-84.5 69.5t-132 26.5t-131.5 -26.5t-84 -69.5t-44.5 -98t-13 -112t13 -111t44.5 -96.5t84 -68t131.5 -25.5zM250 134v429h165q60 0 101.5 -7.5t67 -26t36.5 -50.5t11 -81q0 -48 -11.5 -79.5t-37.5 -50t-67.5 -26t-102.5 -7.5h-27v-101h-135zM412 341q19 0 34.5 1.5t26 7
t16 17t5.5 31.5q0 22 -5.5 34t-16 18t-26 7.5t-34.5 1.5h-27v-118h27z" />
    <glyph glyph-name="section" unicode="&#xa7;" horiz-adv-x="581" 
d="M390 611q0 31 -20 48.5t-75 17.5q-50 0 -68.5 -15.5t-18.5 -31.5q0 -28 25 -40.5t63 -20t82 -15t82 -25t63 -50.5t25 -92q0 -43 -20 -74.5t-44 -52.5q29 -18 46.5 -48.5t17.5 -79.5q0 -85 -61 -129.5t-195 -44.5q-133 0 -191 47.5t-58 151.5h146q0 -49 27 -66.5t75 -17.5
q46 0 71 12t25 35q0 29 -25 42.5t-63 21.5t-82 16t-82 26.5t-63 52.5t-25 94q0 38 20 69t44 53q-29 20 -46.5 51.5t-17.5 82.5q0 75 59 118.5t185 43.5q66 0 113 -11.5t76 -34t42.5 -56.5t13.5 -78h-146zM239 451q-13 -14 -22 -32.5t-9 -44.5q0 -19 11.5 -30.5t31 -18.5
t45 -11.5t53.5 -9.5q15 14 26 31.5t11 40.5q0 19 -12 31.5t-32.5 20t-47 12.5t-55.5 11z" />
    <glyph glyph-name="trademark" unicode="&#x2122;" horiz-adv-x="728" 
d="M607 373l4 234l-81 -235h-79l-75 232l3 -231h-73v341h117l75 -240l77 240h113l-1 -341h-80zM96 373l1 273h-89v74h259v-74h-88l-1 -273h-82z" />
    <glyph glyph-name="degree" unicode="&#xb0;" horiz-adv-x="357" 
d="M178 459q-65 0 -101.5 33.5t-36.5 105.5t36.5 106.5t101.5 34.5q66 0 102.5 -34.5t36.5 -106.5t-36.5 -105.5t-102.5 -33.5zM178 542q24 0 32 18t8 38t-8 39t-32 19q-23 0 -31.5 -19t-8.5 -39t8.5 -38t31.5 -18z" />
    <glyph glyph-name="uni2116" unicode="&#x2116;" horiz-adv-x="1290" 
d="M537 -1v1l-48 -1l-269 485l11 -484h-153v720h183l271 -487l-11 487h153v-721h-137zM981 165q-64 0 -106 15.5t-67.5 45.5t-36 73t-10.5 99q0 55 10.5 98.5t36 73.5t67.5 45.5t106 15.5t106.5 -15.5t68 -45.5t36 -73.5t10.5 -98.5q0 -56 -10.5 -99t-36 -73t-68 -45.5
t-106.5 -15.5zM770 0v122h435v-122h-435zM980 282q40 0 56.5 27t16.5 89q0 61 -16.5 88.5t-56.5 27.5q-38 0 -54.5 -27.5t-16.5 -88.5q0 -62 16.5 -89t54.5 -27z" />
    <glyph glyph-name="asciicircum" unicode="^" horiz-adv-x="454" 
d="M284 459l-60 144l-60 -144h-126l127 287h118l128 -287h-127z" />
    <glyph glyph-name="dagger" unicode="&#x2020;" horiz-adv-x="530" 
d="M199 0v489h-141v124h141v179h132v-179h141v-124h-141v-489h-132z" />
    <glyph glyph-name="daggerdbl" unicode="&#x2021;" horiz-adv-x="545" 
d="M199 0v179h-141v124h141v186h-141v124h141v179h132v-179h141v-124h-141v-186h141v-124h-141v-179h-132z" />
    <glyph glyph-name="uni2120" unicode="&#x2120;" horiz-adv-x="773" 
d="M648 373l4 234l-81 -235h-80l-74 231l3 -230h-73v341h114l76 -241l78 241h114l-1 -341h-80zM218 616q0 20 -12.5 33t-41.5 13q-28 0 -40 -11t-12 -25q0 -19 14 -27.5t35.5 -13.5t46 -9.5t46 -15.5t35.5 -31.5t14 -57.5q0 -54 -33 -80.5t-108 -26.5q-76 0 -107 28t-31 94
h79q0 -28 15.5 -41t41.5 -13q27 0 42 10t15 25q0 21 -14 30.5t-35 14t-45 8.5t-45 15.5t-35 33t-14 61.5q0 47 30 74t103 27q75 0 104 -29t29 -86h-77z" />
    <glyph glyph-name="paragraph.alt" horiz-adv-x="730" 
d="M529 0v618h-65v-618h-132v254q-84 2 -140.5 14.5t-90 41t-47.5 76t-14 120.5t14.5 121t48 76.5t89.5 41t140 14.5v1h18h19h292v-760h-132z" />
    <glyph glyph-name="registered.alt" horiz-adv-x="454" 
d="M227 317q-58 0 -98.5 16.5t-65.5 45t-36.5 68t-11.5 84.5q0 46 11.5 85.5t36.5 69t65.5 46.5t98.5 17t98.5 -17t65.5 -46.5t36 -69t11 -85.5q0 -45 -11 -84.5t-36 -68t-65.5 -45t-98.5 -16.5zM227 363q46 0 76.5 13t48.5 35.5t25.5 53t7.5 66.5t-7.5 67.5t-25.5 54.5
t-48.5 36.5t-76.5 13.5t-76.5 -13.5t-48.5 -36.5t-25.5 -54.5t-7.5 -67.5t7.5 -66.5t25.5 -53t48.5 -35.5t76.5 -13zM258 413l-27 79h-24h-6v-79h-75v244h83q37 0 61 -2.5t37.5 -11t19 -25t5.5 -44.5q0 -31 -6.5 -47.5t-24.5 -24.5l42 -91zM206 546q32 0 43 3.5t11 24.5
q0 23 -10.5 27t-42.5 4h-6v-59h5z" />
    <glyph glyph-name="at.case" horiz-adv-x="920" 
d="M670 -20q-35 -13 -85 -20.5t-124 -7.5q-111 0 -188.5 31t-126.5 86t-71 131t-22 167q0 89 22.5 165.5t71 132.5t126 87.5t188.5 31.5q109 0 186 -31.5t125.5 -87.5t71 -132.5t22.5 -165.5q0 -130 -42 -197t-135 -67q-54 0 -86 21.5t-49 56.5q-20 -23 -53.5 -38t-86.5 -15
q-93 0 -135 61t-42 176q0 114 42 175.5t135 61.5q45 0 76 -17.5t50 -36.5l14 53h116v-308q0 -54 10 -76t31 -22q10 0 20 5t18 22.5t13 51.5t5 93q0 68 -16 127.5t-52 104t-94.5 70t-143.5 25.5q-84 0 -142 -25.5t-93 -70t-50.5 -104t-15.5 -127.5q0 -65 12.5 -124t46 -103.5
t92 -71t151.5 -26.5q25 0 54.5 2t58 6t53.5 10t42 14v-94zM534 293v156q-11 18 -31 33t-54 15q-32 0 -52.5 -33t-20.5 -99q0 -67 20.5 -100t52.5 -33q36 0 56 13.5t29 32.5v15z" />
    <glyph glyph-name="section.sups" horiz-adv-x="323" 
d="M207 668q0 14 -9.5 23t-36.5 9q-23 0 -32.5 -7.5t-9.5 -15.5q0 -13 12 -19.5t30.5 -10t39.5 -7t39.5 -12t30.5 -24.5t12 -44q0 -21 -10 -36t-21 -25q14 -9 22.5 -24t8.5 -38q0 -42 -29 -63t-93 -21q-65 0 -93 22.5t-28 73.5h71q0 -23 12.5 -32t35.5 -9q47 0 47 23
q0 14 -12 20.5t-30 10.5t-39.5 7.5t-39.5 12.5t-30 25.5t-12 45.5q0 18 9.5 32.5t20.5 25.5q-14 10 -22.5 25t-8.5 40q0 36 28 57.5t89 21.5q65 0 91.5 -22.5t26.5 -64.5h-70zM135 590q-15 -15 -15 -37q0 -18 20.5 -23.5t46.5 -9.5q8 6 13 14.5t5 19.5q0 19 -21.5 25
t-48.5 11z" />
    <glyph glyph-name="dagger.sups" horiz-adv-x="280" 
d="M108 373v236h-68v59h68v87h64v-87h68v-59h-68v-236h-64z" />
    <glyph glyph-name="daggerdbl.sups" horiz-adv-x="280" 
d="M108 373v86h-68v60h68v90h-68v59h68v87h64v-87h68v-59h-68v-90h68v-60h-68v-86h-64z" />
    <glyph glyph-name="uni0308" unicode="&#x308;" horiz-adv-x="552" 
d="M89 612v152h160v-152h-160zM303 612v152h160v-152h-160z" />
    <glyph glyph-name="uni0307" unicode="&#x307;" horiz-adv-x="302" 
d="M69 612v152h164v-152h-164z" />
    <glyph glyph-name="gravecomb" unicode="&#x300;" horiz-adv-x="352" 
d="M161 611l-116 175h171l88 -175h-143z" />
    <glyph glyph-name="acutecomb" unicode="&#x301;" horiz-adv-x="352" 
d="M48 611l88 175h171l-116 -175h-143z" />
    <glyph glyph-name="uni030B" unicode="&#x30b;" horiz-adv-x="582" 
d="M50 611l88 175h175l-116 -175h-147zM255 611l110 175h175l-138 -175h-147z" />
    <glyph glyph-name="caroncomb.alt" horiz-adv-x="377" 
d="M76 548l73 212h145l-105 -212h-113z" />
    <glyph glyph-name="uni0302" unicode="&#x302;" horiz-adv-x="486" 
d="M299 610l-57 72l-57 -72h-143l129 174h141l131 -174h-144z" />
    <glyph glyph-name="uni030C" unicode="&#x30c;" horiz-adv-x="486" 
d="M171 610l-129 174h143l57 -71l57 71h144l-131 -174h-141z" />
    <glyph glyph-name="uni0306" unicode="&#x306;" horiz-adv-x="394" 
d="M379 768q0 -35 -11.5 -64.5t-34 -51t-57 -34t-79.5 -12.5q-46 0 -80 12.5t-57 34t-34.5 51t-11.5 64.5h125q0 -19 15 -34.5t43 -15.5t43.5 15.5t15.5 34.5h123z" />
    <glyph glyph-name="uni030A" unicode="&#x30a;" horiz-adv-x="333" 
d="M296 724q0 -25 -8 -47.5t-24 -39.5t-40.5 -27t-56.5 -10q-33 0 -57.5 10t-41 27t-24.5 39.5t-8 47.5q0 51 32.5 87.5t98.5 36.5q32 0 56.5 -10t40.5 -26.5t24 -39.5t8 -48zM167 692q14 0 22.5 9t8.5 23t-8.5 23t-22.5 9t-22.5 -9t-8.5 -23t8.5 -23t22.5 -9z" />
    <glyph glyph-name="tildecomb" unicode="&#x303;" horiz-adv-x="500" 
d="M434 773q0 -82 -23.5 -120t-87.5 -38q-23 0 -39.5 6t-30.5 13t-26.5 13t-28.5 6q-15 0 -25.5 -5t-17 -11.5t-9 -14t-2.5 -11.5h-77q0 70 24.5 112t89.5 42q23 0 39 -5t29.5 -11.5t25.5 -11.5t28 -5q15 0 25.5 5t16.5 11.5t9 13.5t3 11h77z" />
    <glyph glyph-name="uni0304" unicode="&#x304;" horiz-adv-x="433" 
d="M60 630v116h313v-116h-313z" />
    <glyph glyph-name="uni0312" unicode="&#x312;" horiz-adv-x="302" 
d="M37 597q1 16 5 38q3 18 8.5 44t15.5 58q11 35 22 61.5t21 43.5q11 20 23 34h131q-9 -20 -18 -44q-8 -20 -16 -48t-15 -59q-7 -32 -10.5 -56t-5.5 -40q-3 -18 -3 -32h-158z" />
    <glyph glyph-name="dotbelowcomb" unicode="&#x323;" horiz-adv-x="302" 
d="M69 -198v152h164v-152h-164z" />
    <glyph glyph-name="uni0326" unicode="&#x326;" horiz-adv-x="302" 
d="M15 -309q8 18 17 39q8 18 16 42.5t16 53.5q14 55 17 82q2 17 2 30h154q-2 -17 -6 -36q-3 -17 -8.5 -39.5t-14.5 -48.5q-11 -33 -23 -56t-21 -38q-11 -18 -21 -29h-128z" />
    <glyph glyph-name="uni0327" unicode="&#x327;" horiz-adv-x="394" 
d="M68 -170q5 -2 15 -3q16 -3 54 -3q25 0 39 9.5t14 27.5q0 15 -10.5 22.5t-26.5 11.5t-33.5 4.5t-32.5 0.5h-1l57 103h130l-35 -58q19 -2 36 -8t30.5 -17.5t21.5 -29t8 -41.5q0 -21 -6.5 -42t-24 -37t-48.5 -26t-80 -10q-61 0 -85 3q-14 2 -22 4v89z" />
    <glyph glyph-name="uni0328" unicode="&#x328;" horiz-adv-x="254" 
d="M249 -185l-7.5 -5t-22 -11t-37 -10.5t-52.5 -4.5q-29 0 -48.5 7.5t-31.5 20t-17 28t-5 31.5q0 33 14.5 58.5t31.5 43.5q20 21 47 37l112 -6q-1 -1 -10.5 -6.5t-21 -16.5t-20.5 -27t-9 -37q0 -11 6 -21t23 -10q9 0 17.5 2t15.5 4q8 3 15 7v-84z" />
    <glyph glyph-name="uni0335" unicode="&#x335;" horiz-adv-x="434" 
d="M40 296v97h352v-97h-352z" />
    <glyph glyph-name="uni0336" unicode="&#x336;" horiz-adv-x="922" 
d="M100 293v106h722v-106h-722z" />
    <glyph glyph-name="uni0337" unicode="&#x337;" horiz-adv-x="499" 
d="M100 165l-53 101l381 203l53 -100z" />
    <glyph glyph-name="uni0338" unicode="&#x338;" horiz-adv-x="425" 
d="M-50 94l425 571h106l-424 -571h-107z" />
    <glyph glyph-name="uni0308.case" horiz-adv-x="548" 
d="M85 764v153h164v-153h-164zM303 764v153h164v-153h-164z" />
    <glyph glyph-name="uni0307.case" horiz-adv-x="302" 
d="M69 764v153h164v-153h-164z" />
    <glyph glyph-name="gravecomb.case" horiz-adv-x="356" 
d="M158 765l-116 169h175l88 -169h-147z" />
    <glyph glyph-name="acutecomb.case" horiz-adv-x="347" 
d="M46 764l88 169h175l-116 -169h-147z" />
    <glyph glyph-name="uni030B.case" horiz-adv-x="574" 
d="M46 765l88 169h175l-116 -169h-147zM251 765l110 169h175l-138 -169h-147z" />
    <glyph glyph-name="caroncomb.alt.case" horiz-adv-x="386" 
d="M78 764l86 223h164l-114 -223h-136z" />
    <glyph glyph-name="uni0302.case" horiz-adv-x="486" 
d="M299 764l-57 60l-57 -60h-135l111 155h161l113 -155h-136z" />
    <glyph glyph-name="uni030C.case" horiz-adv-x="472" 
d="M161 764l-111 155h135l57 -60l57 60h136l-113 -155h-161z" />
    <glyph glyph-name="uni0306.case" horiz-adv-x="394" 
d="M377 918q0 -32 -10.5 -60t-32 -50t-56 -34.5t-82.5 -12.5t-82 12.5t-55.5 34.5t-32 50t-10.5 60h123q0 -19 15.5 -33.5t41.5 -14.5t43 14.5t17 33.5h121z" />
    <glyph glyph-name="uni030A.case" horiz-adv-x="333" 
d="M283 872q0 -52 -30.5 -81.5t-84.5 -29.5q-56 0 -87 29.5t-31 81.5q0 51 31 80.5t87 29.5q54 0 84.5 -29.5t30.5 -80.5zM167 840q14 0 22.5 9t8.5 23t-8.5 23t-22.5 9t-22.5 -9t-8.5 -23t8.5 -23t22.5 -9z" />
    <glyph glyph-name="tildecomb.case" horiz-adv-x="500" 
d="M434 933q0 -82 -23.5 -124t-87.5 -42q-23 0 -39.5 6t-30.5 13t-26.5 13t-28.5 6q-15 0 -25.5 -5t-17 -11.5t-9 -13.5t-2.5 -11h-77q0 34 5.5 63.5t19 51.5t35 34t54.5 12q23 0 39 -5t29.5 -11.5t25.5 -11.5t28 -5q15 0 25.5 5t16.5 11.5t9 13.5t3 11h77z" />
    <glyph glyph-name="uni0304.case" horiz-adv-x="433" 
d="M60 780v120h313v-120h-313z" />
    <glyph glyph-name="uni0338.case" horiz-adv-x="374" 
d="M-109 7l511 750h121l-511 -750h-121z" />
    <glyph glyph-name="acute" unicode="&#xb4;" horiz-adv-x="600" 
d="M48 611l88 175h171l-116 -175h-143z" />
    <glyph glyph-name="breve" unicode="&#x2d8;" horiz-adv-x="600" 
d="M379 768q0 -35 -11.5 -64.5t-34 -51t-57 -34t-79.5 -12.5q-46 0 -80 12.5t-57 34t-34.5 51t-11.5 64.5h125q0 -19 15 -34.5t43 -15.5t43.5 15.5t15.5 34.5h123z" />
    <glyph glyph-name="caron" unicode="&#x2c7;" horiz-adv-x="600" 
d="M171 610l-129 174h143l57 -71l57 71h144l-131 -174h-141z" />
    <glyph glyph-name="cedilla" unicode="&#xb8;" horiz-adv-x="600" 
d="M68 -170q5 -2 15 -3q16 -3 54 -3q25 0 39 9.5t14 27.5q0 15 -10.5 22.5t-26.5 11.5t-33.5 4.5t-32.5 0.5h-1l57 103h130l-35 -58q19 -2 36 -8t30.5 -17.5t21.5 -29t8 -41.5q0 -21 -6.5 -42t-24 -37t-48.5 -26t-80 -10q-61 0 -85 3q-14 2 -22 4v89z" />
    <glyph glyph-name="circumflex" unicode="&#x2c6;" horiz-adv-x="600" 
d="M299 610l-57 72l-57 -72h-143l129 174h141l131 -174h-144z" />
    <glyph glyph-name="dieresis" unicode="&#xa8;" horiz-adv-x="600" 
d="M89 612v152h160v-152h-160zM303 612v152h160v-152h-160z" />
    <glyph glyph-name="dotaccent" unicode="&#x2d9;" horiz-adv-x="600" 
d="M69 612v152h164v-152h-164z" />
    <glyph glyph-name="grave" unicode="`" horiz-adv-x="600" 
d="M161 611l-116 175h171l88 -175h-143z" />
    <glyph glyph-name="hungarumlaut" unicode="&#x2dd;" horiz-adv-x="600" 
d="M50 611l88 175h175l-116 -175h-147zM255 611l110 175h175l-138 -175h-147z" />
    <glyph glyph-name="macron" unicode="&#xaf;" horiz-adv-x="600" 
d="M60 630v116h313v-116h-313z" />
    <glyph glyph-name="ogonek" unicode="&#x2db;" horiz-adv-x="600" 
d="M249 -185l-7.5 -5t-22 -11t-37 -10.5t-52.5 -4.5q-29 0 -48.5 7.5t-31.5 20t-17 28t-5 31.5q0 33 14.5 58.5t31.5 43.5q20 21 47 37l112 -6q-1 -1 -10.5 -6.5t-21 -16.5t-20.5 -27t-9 -37q0 -11 6 -21t23 -10q9 0 17.5 2t15.5 4q8 3 15 7v-84z" />
    <glyph glyph-name="ring" unicode="&#x2da;" horiz-adv-x="600" 
d="M296 724q0 -25 -8 -47.5t-24 -39.5t-40.5 -27t-56.5 -10q-33 0 -57.5 10t-41 27t-24.5 39.5t-8 47.5q0 51 32.5 87.5t98.5 36.5q32 0 56.5 -10t40.5 -26.5t24 -39.5t8 -48zM167 692q14 0 22.5 9t8.5 23t-8.5 23t-22.5 9t-22.5 -9t-8.5 -23t8.5 -23t22.5 -9z" />
    <glyph glyph-name="tilde" unicode="&#x2dc;" horiz-adv-x="600" 
d="M434 773q0 -82 -23.5 -120t-87.5 -38q-23 0 -39.5 6t-30.5 13t-26.5 13t-28.5 6q-15 0 -25.5 -5t-17 -11.5t-9 -14t-2.5 -11.5h-77q0 70 24.5 112t89.5 42q23 0 39 -5t29.5 -11.5t25.5 -11.5t28 -5q15 0 25.5 5t16.5 11.5t9 13.5t3 11h77z" />
    <glyph glyph-name="bitcoin" horiz-adv-x="619" 
d="M316 -43v95h-32h-11v-95h-97v95h-53v1h-45v653h98v79h97v-79h17q7 0 13 -0.5t13 -0.5v80h97v-89q39 -8 64 -21.5t40 -34t20.5 -48t5.5 -62.5q0 -47 -11.5 -81t-43.5 -57q50 -23 65 -62.5t15 -93.5q0 -38 -5.5 -68t-22 -51.5t-47 -36t-80.5 -21.5v-102h-97zM285 178
q36 0 58.5 3t35 11t17.5 23t5 38q0 24 -5 39t-17.5 23t-35 11t-58.5 3h-38v-151h38zM285 443q29 0 48 2.5t30 10t15.5 21t4.5 34.5q0 22 -4.5 35.5t-15.5 21t-30 10t-48 2.5h-38v-137h38z" />
    <glyph glyph-name="nonmarkingreturn" unicode="&#xd;" horiz-adv-x="198" 
 />
    <glyph glyph-name="uni00A0" unicode="&#xa0;" horiz-adv-x="198" 
 />
    <glyph glyph-name="NULL" horiz-adv-x="0" 
 />
    <glyph glyph-name="NULL" horiz-adv-x="0" 
 />
    </font>
</defs>
</svg>
