<svg xmlns="http://www.w3.org/2000/svg">
<defs>
<font id="Tofino-Regular" horiz-adv-x="709" >
  <font-face 
    font-family="Tofino Regular"
    font-weight="415"
    font-stretch="normal"
    units-per-em="1000"
    panose-1="2 0 0 0 0 0 0 0 0 0"
    ascent="760"
    descent="-240"
    x-height="535"
    cap-height="712"
    bbox="-163 -268 1145 1125"
    underline-thickness="50"
    underline-position="-75"
    unicode-range="U+000D-FB02"
  />
<missing-glyph horiz-adv-x="651" 
d="M50 0v702h551v-702h-551zM175 171q-23 28 -35.5 63t-12.5 75q0 46 17 86t46 69q-20 28 -10 59l-109 141v-629zM569 682h-487l108 -140q17 26 53.5 42t80.5 16t80.5 -16.5t56.5 -42.5zM461 157q-26 -27 -61.5 -43t-75.5 -16q-39 0 -74 15.5t-61 42.5l-105 -136h484z
M580 662l-109 -139q0 -1 1 -1q14 5 29.5 6t26.5 -7q13 -9 15 -30t-11 -32q-10 -7 -24 -7q-11 0 -22 2.5t-24 6.5q28 -29 44 -68t16 -84q0 -39 -12.5 -73.5t-34.5 -62.5l105 -136v625zM481 307q3 -26 -6.5 -49t-32.5 -26q-6 -1 -14.5 -1.5t-17.5 -0.5q-12 0 -25.5 1t-21.5 6
q-12 7 -19 20.5t-9 24.5q-1 2 -1 5q-3 10 -11 10q-6 0 -9 -10q-1 -1 -1 -5q-2 -11 -9 -24.5t-20 -20.5q-8 -5 -21.5 -6t-25.5 -1q-8 0 -17 0.5t-14 1.5q-23 3 -33 26t-7 49v1l-15 14v-13q0 -39 13.5 -73t37 -59.5t55 -40.5t67.5 -15t67.5 15t55.5 40.5t37.5 59.5t13.5 73
q0 5 -0.5 8.5t-0.5 8.5q-7 -6 -16 -18v-1zM395 480l-10 2q-13 2 -26 4.5t-23 9.5q-4 1 -12 1q-36 0 -69 -15q-10 -11 -9.5 -22t4.5 -19q7 -14 25 -30t48 -28.5t72 -20t97 -4.5q-17 65 -66 103q-5 0 -8 1q-15 5 -22 18h-1zM297 306h-1q-7 4 -25 7t-41 3q-29 0 -40.5 -4
t-11.5 -6q-1 -8 0 -18.5t4 -19.5t9 -16t16 -8q6 -1 14 -1.5t16 -0.5q32 0 42 5q8 5 14 15t8 22q3 13 -2 20zM470 306q-1 2 -12 6t-40 4q-23 0 -41 -3t-25 -7q-1 0 -1 -1q-1 0 -2 -1q-5 -7 -2 -20q2 -12 8 -22t14 -15q10 -5 41 -5q9 0 17 0.5t14 1.5q9 1 15 8t9.5 16
t4.5 19.5t0 18.5zM437 532q-18 21 -50 32.5t-63 11.5q-42 0 -76 -16.5t-44 -40.5q-9 -19 4 -39q24 19 52.5 29.5t59.5 11.5q0 5 0.5 9.5t2.5 10.5q9 21 25 25q15 4 31 -7.5t32 -25.5l2 -2q7 3 15 3q3 0 9 -2zM173 318q7 4 20 6.5t37 2.5q14 0 36 -2t35 -8q11 -5 21 -6.5

<glyph glyph-name="f_f" unicode="ff" horiz-adv-x="648" 
d="M408 0v458h-214v-458h-100v458h-74v81h74v14q0 45 5.5 83.5t23.5 67.5t52 45.5t92 16.5h56v-81h-43q-49 0 -67.5 -29.5t-18.5 -102.5v-14h214v14q0 45 5.5 83.5t23.5 67.5t52 45.5t92 16.5h56v-81h-43q-49 0 -67.5 -29.5t-18.5 -102.5v-14h127v-81h-127v-458h-100z" />
    <glyph glyph-name="f_f_i" unicode="ffi" horiz-adv-x="887" 
d="M409 0v458h-215v-458h-100v458h-74v81h74v14q0 45 5.5 83.5t23.5 67.5t52 45.5t92 16.5h56v-81h-43q-49 0 -67.5 -29.5t-18.5 -102.5v-14h215v14q0 45 5.5 83.5t23.5 67.5t52 45.5t92 16.5h56v-81h-43q-49 0 -67.5 -29.5t-18.5 -102.5v-14h121v-81h-121v-458h-100zM714 0
v539h100v-539h-100zM716 622v141h100v-141h-100z" />
    <glyph glyph-name="f_f_l" unicode="ffl" horiz-adv-x="901" 
d="M408 0v458h-214v-458h-100v458h-74v81h74v14q0 45 5.5 83.5t23.5 67.5t52 45.5t92 16.5h56v-81h-43q-49 0 -67.5 -29.5t-18.5 -102.5v-14h214v14q0 45 5.5 83.5t23.5 67.5t52 45.5t92 16.5h56v-81h-43q-49 0 -67.5 -29.5t-18.5 -102.5v-14h122v-81h-122v-458h-100zM720 0
v760h100v-760h-100z" />
    <glyph glyph-name="fi" unicode="fi" horiz-adv-x="551" 
d="M94 0v458h-74v81h74v14q0 45 5.5 83.5t23.5 67.5t52 45.5t92 16.5h56v-81h-43q-49 0 -67.5 -29.5t-18.5 -102.5v-14h120v-81h-120v-458h-100zM378 0v539h100v-539h-100zM380 622v141h100v-141h-100z" />
    <glyph glyph-name="fl" unicode="fl" horiz-adv-x="557" 
d="M94 0v458h-74v81h74v14q0 45 5.5 83.5t23.5 67.5t52 45.5t92 16.5h56v-81h-43q-49 0 -67.5 -29.5t-18.5 -102.5v-14h120v-81h-120v-458h-100zM375 0v760h100v-760h-100z" />
    <glyph glyph-name=".notdef" horiz-adv-x="651" 
d="M50 0v702h551v-702h-551zM175 171q-23 28 -35.5 63t-12.5 75q0 46 17 86t46 69q-20 28 -10 59l-109 141v-629zM569 682h-487l108 -140q17 26 53.5 42t80.5 16t80.5 -16.5t56.5 -42.5zM461 157q-26 -27 -61.5 -43t-75.5 -16q-39 0 -74 15.5t-61 42.5l-105 -136h484z
M580 662l-109 -139q0 -1 1 -1q14 5 29.5 6t26.5 -7q13 -9 15 -30t-11 -32q-10 -7 -24 -7q-11 0 -22 2.5t-24 6.5q28 -29 44 -68t16 -84q0 -39 -12.5 -73.5t-34.5 -62.5l105 -136v625zM481 307q3 -26 -6.5 -49t-32.5 -26q-6 -1 -14.5 -1.5t-17.5 -0.5q-12 0 -25.5 1t-21.5 6
q-12 7 -19 20.5t-9 24.5q-1 2 -1 5q-3 10 -11 10q-6 0 -9 -10q-1 -1 -1 -5q-2 -11 -9 -24.5t-20 -20.5q-8 -5 -21.5 -6t-25.5 -1q-8 0 -17 0.5t-14 1.5q-23 3 -33 26t-7 49v1l-15 14v-13q0 -39 13.5 -73t37 -59.5t55 -40.5t67.5 -15t67.5 15t55.5 40.5t37.5 59.5t13.5 73
q0 5 -0.5 8.5t-0.5 8.5q-7 -6 -16 -18v-1zM395 480l-10 2q-13 2 -26 4.5t-23 9.5q-4 1 -12 1q-36 0 -69 -15q-10 -11 -9.5 -22t4.5 -19q7 -14 25 -30t48 -28.5t72 -20t97 -4.5q-17 65 -66 103q-5 0 -8 1q-15 5 -22 18h-1zM297 306h-1q-7 4 -25 7t-41 3q-29 0 -40.5 -4
t-11.5 -6q-1 -8 0 -18.5t4 -19.5t9 -16t16 -8q6 -1 14 -1.5t16 -0.5q32 0 42 5q8 5 14 15t8 22q3 13 -2 20zM470 306q-1 2 -12 6t-40 4q-23 0 -41 -3t-25 -7q-1 0 -1 -1q-1 0 -2 -1q-5 -7 -2 -20q2 -12 8 -22t14 -15q10 -5 41 -5q9 0 17 0.5t14 1.5q9 1 15 8t9.5 16
t4.5 19.5t0 18.5zM437 532q-18 21 -50 32.5t-63 11.5q-42 0 -76 -16.5t-44 -40.5q-9 -19 4 -39q24 19 52.5 29.5t59.5 11.5q0 5 0.5 9.5t2.5 10.5q9 21 25 25q15 4 31 -7.5t32 -25.5l2 -2q7 3 15 3q3 0 9 -2zM173 318q7 4 20 6.5t37 2.5q14 0 36 -2t35 -8q11 -5 21 -6.5
t25 6.5q12 6 34.5 8t36.5 2q15 0 31 -1.5t25 -7.5q2 3 5.5 7.5t8.5 8.5q-6 -1 -12 -0.5t-12 0.5q-57 0 -100.5 11t-74.5 28q-21 -20 -56 -33t-68 -15zM268 386q-14 11 -24 22.5t-15 22.5q-7 14 -7 30q-25 -20 -42.5 -48.5t-24.5 -63.5q31 -1 62.5 10.5t50.5 26.5zM377 180
q0 -16 -15.5 -26.5t-38.5 -10.5t-38.5 10.5t-15.5 26.5q0 15 15.5 25.5t38.5 10.5t38.5 -10.5t15.5 -25.5zM435 280q0 -2 0.5 -3.5t0.5 -3.5q0 -10 -7 -17t-18 -7q-10 0 -17 7t-7 17q0 14 12 21l-4 14q0 3 3 5q4 0 4 -3l3 -13q2 1 6 1l2 12q0 3 4 3q3 0 3 -4l-2 -12l5 -2
l6 10q2 4 4 2q5 -2 2 -5l-7 -11q3 -2 3 -4l10 8q2 2 5 0q2 -4 -1 -5zM249 310q1 3 5 3q4 -2 2 -5l-3 -14q11 -6 11 -21q0 -10 -7 -17t-17 -7t-17 7t-7 17q0 5 1 8l-11 9q-3 2 0 5q2 2 5 0l9 -8l3 4l-6 11q-3 3 1 5q3 2 5 -2l6 -10l4 2l-2 12q0 4 4 4q2 0 4 -3l1 -12
q2 0 3 -0.5t3 -0.5zM470 497q-1 -1 -4 -1q0 -7 -1 -10q1 -1 2 -1q6 -2 14 -4t15 -3.5t12.5 -1.5t8.5 2q4 2 2 12q0 8 -4 12q-7 5 -20.5 1.5t-24.5 -6.5zM395 515q-10 9 -22.5 19.5t-19.5 8.5q-4 -2 -7 -11q-3 -8 -1 -12q4 -7 18 -9.5t25 -4.5q1 -1 3 -1q1 1 1 3zM442 493
q2 6 -1 10t-9 6q-1 1 -4 1q-10 0 -13 -9q-1 -3 1 -9q4 -6 9 -7q1 0 2 -0.5t2 -0.5q11 0 13 9z" />
    <glyph glyph-name="Aacute" unicode="&#xc1;" horiz-adv-x="649" 
d="M535 0l-62 171h-304l-61 -171h-103l270 712h99l269 -712h-108zM321 593l-117 -324h234zM281 760l77 145h112l-98 -145h-91z" />
    <glyph glyph-name="Abreve" unicode="&#x102;" horiz-adv-x="649" 
d="M535 0l-62 171h-304l-61 -171h-103l270 712h99l269 -712h-108zM321 593l-117 -324h234zM468 885q0 -24 -8.5 -47t-26.5 -40t-45 -27.5t-63 -10.5t-63 10.5t-45 27.5t-26.5 40t-8.5 47h78q0 -19 17.5 -36t47.5 -17q31 0 48.5 17t17.5 36h77z" />
    <glyph glyph-name="Acircumflex" unicode="&#xc2;" horiz-adv-x="649" 
d="M535 0l-62 171h-304l-61 -171h-103l270 712h99l269 -712h-108zM321 593l-117 -324h234zM388 760l-63 64l-61 -64h-91l103 130h98l104 -130h-90z" />
    <glyph glyph-name="Adieresis" unicode="&#xc4;" horiz-adv-x="649" 
d="M535 0l-62 171h-304l-61 -171h-103l270 712h99l269 -712h-108zM321 593l-117 -324h234zM190 760v134h100v-134h-100zM361 760v134h100v-134h-100z" />
    <glyph glyph-name="uni1EA0" unicode="&#x1ea0;" horiz-adv-x="649" 
d="M535 0l-62 171h-304l-61 -171h-103l270 712h99l269 -712h-108zM321 593l-117 -324h234zM275 -188v127h100v-127h-100z" />
    <glyph glyph-name="Agrave" unicode="&#xc0;" horiz-adv-x="649" 
d="M535 0l-62 171h-304l-61 -171h-103l270 712h99l269 -712h-108zM321 593l-117 -324h234zM282 760l-98 145h112l77 -145h-91z" />
    <glyph glyph-name="Amacron" unicode="&#x100;" horiz-adv-x="649" 
d="M535 0l-62 171h-304l-61 -171h-103l270 712h99l269 -712h-108zM321 593l-117 -324h234zM195 783v78h261v-78h-261z" />
    <glyph glyph-name="Aogonek" unicode="&#x104;" horiz-adv-x="649" 
d="M535 0l-62 171h-304l-61 -171h-103l270 712h99l269 -712h-108zM321 593l-117 -324h234zM620 -170l-6 -4t-18 -8.5t-29 -8.5t-38 -4q-42 0 -61.5 22.5t-19.5 54.5q0 30 14.5 53.5t31.5 40.5q20 19 47 34l70 -8q-1 -1 -13 -7t-25.5 -18t-24.5 -29t-11 -39q0 -16 9 -26
t26 -10q9 0 17.5 2t15.5 4q8 3 15 7v-56z" />
    <glyph glyph-name="Aring" unicode="&#xc5;" horiz-adv-x="649" 
d="M535 0l-62 171h-304l-61 -171h-103l270 712h99l269 -712h-108zM321 593l-117 -324h234zM414 846q0 -38 -23 -62t-66 -24q-44 0 -67 24t-23 62t23 62t67 24q43 0 66 -24t23 -62zM325 810q15 0 24.5 9.5t9.5 26.5q0 16 -9.5 25.5t-24.5 9.5q-16 0 -25.5 -9.5t-9.5 -25.5
q0 -17 9.5 -26.5t25.5 -9.5z" />
    <glyph glyph-name="Aringacute" unicode="&#x1fa;" horiz-adv-x="649" 
d="M535 0l-62 171h-304l-61 -171h-103l270 712h99l269 -712h-108zM321 593l-117 -324h234zM414 846q0 -38 -23 -62t-66 -24q-44 0 -67 24t-23 62t23 62t67 24q43 0 66 -24t23 -62zM325 810q15 0 24.5 9.5t9.5 26.5q0 16 -9.5 25.5t-24.5 9.5q-16 0 -25.5 -9.5t-9.5 -25.5
q0 -17 9.5 -26.5t25.5 -9.5zM281 980l77 145h112l-98 -145h-91z" />
    <glyph glyph-name="Atilde" unicode="&#xc3;" horiz-adv-x="649" 
d="M535 0l-62 171h-304l-61 -171h-103l270 712h99l269 -712h-108zM321 593l-117 -324h234zM472 889q0 -28 -3.5 -51t-13.5 -39.5t-27 -25.5t-44 -9q-21 0 -35 6t-24.5 13.5t-20.5 14t-25 6.5t-24 -5t-14.5 -12.5t-7.5 -15t-2 -11.5h-53q0 23 4 44.5t14 38.5t27.5 27.5
t44.5 10.5q22 0 35 -5.5t23.5 -12t20 -12t24.5 -5.5t24 5t14.5 12t7.5 14t2 12h53z" />
    <glyph glyph-name="AE" unicode="&#xc6;" horiz-adv-x="932" 
d="M436 0v171h-227l-94 -171h-110l397 712h494v-91h-364v-208h314v-89h-314v-233h370v-91h-466zM436 585l-174 -316h174v316z" />
    <glyph glyph-name="AEacute" unicode="&#x1fc;" horiz-adv-x="932" 
d="M436 0v171h-227l-94 -171h-110l397 712h494v-91h-364v-208h314v-89h-314v-233h370v-91h-466zM436 585l-174 -316h174v316zM436 760l77 145h112l-98 -145h-91z" />
    <glyph glyph-name="B" unicode="B" horiz-adv-x="667" 
d="M88 -3v718h247q78 0 127 -13.5t77.5 -38t39 -59t10.5 -75.5q0 -29 -4.5 -53.5t-16.5 -45t-33 -36t-54 -25.5q40 -10 65.5 -26.5t39.5 -38.5t19.5 -49.5t5.5 -59.5q0 -46 -9.5 -83t-38.5 -62.5t-84.5 -39t-146.5 -13.5h-244zM332 83q55 0 89.5 7t53.5 22t25.5 38t6.5 55
q0 30 -7.5 53t-27 38t-53.5 23t-87 8h-141v-244h141zM332 408q48 0 78 7t47 21t23.5 34.5t6.5 48.5t-7.5 48.5t-25.5 34t-47.5 20.5t-74.5 7h-141v-221h141z" />
    <glyph glyph-name="C" unicode="C" horiz-adv-x="674" 
d="M617 245q-3 -135 -69 -199t-197 -64q-80 0 -135.5 23.5t-90 70.5t-50 117t-15.5 162q0 93 15.5 163t50 117t90 71t135.5 24q264 0 268 -267h-101q-4 94 -45 135t-122 41q-52 0 -87.5 -16.5t-57.5 -51t-32 -88t-10 -128.5t10 -128t32 -87.5t57.5 -50.5t87.5 -16
q78 0 119.5 39.5t45.5 132.5h101z" />
    <glyph glyph-name="Cacute" unicode="&#x106;" horiz-adv-x="674" 
d="M617 245q-3 -135 -69 -199t-197 -64q-80 0 -135.5 23.5t-90 70.5t-50 117t-15.5 162q0 93 15.5 163t50 117t90 71t135.5 24q264 0 268 -267h-101q-4 94 -45 135t-122 41q-52 0 -87.5 -16.5t-57.5 -51t-32 -88t-10 -128.5t10 -128t32 -87.5t57.5 -50.5t87.5 -16
q78 0 119.5 39.5t45.5 132.5h101zM302 767l77 145h112l-98 -145h-91z" />
    <glyph glyph-name="Ccaron" unicode="&#x10c;" horiz-adv-x="674" 
d="M617 245q-3 -135 -69 -199t-197 -64q-80 0 -135.5 23.5t-90 70.5t-50 117t-15.5 162q0 93 15.5 163t50 117t90 71t135.5 24q264 0 268 -267h-101q-4 94 -45 135t-122 41q-52 0 -87.5 -16.5t-57.5 -51t-32 -88t-10 -128.5t10 -128t32 -87.5t57.5 -50.5t87.5 -16
q78 0 119.5 39.5t45.5 132.5h101zM297 767l-103 130h90l62 -64l63 64h90l-104 -130h-98z" />
    <glyph glyph-name="Ccedilla" unicode="&#xc7;" horiz-adv-x="674" 
d="M617 245q-3 -135 -69 -199t-197 -64q-80 0 -135.5 23.5t-90 70.5t-50 117t-15.5 162q0 93 15.5 163t50 117t90 71t135.5 24q264 0 268 -267h-101q-4 94 -45 135t-122 41q-52 0 -87.5 -16.5t-57.5 -51t-32 -88t-10 -128.5t10 -128t32 -87.5t57.5 -50.5t87.5 -16
q78 0 119.5 39.5t45.5 132.5h101zM258 -170q6 -2 15 -3q15 -3 46 -3q29 0 44 9.5t15 32.5q0 15 -9.5 23t-24.5 12.5t-32.5 5.5t-32.5 1h-3l48 91h81l-32 -55q38 -3 64 -22t26 -62q0 -21 -6.5 -39t-21 -31t-38.5 -20.5t-59 -7.5q-45 0 -63 3q-11 1 -17 3v62z" />
    <glyph glyph-name="Ccircumflex" unicode="&#x108;" horiz-adv-x="674" 
d="M617 245q-3 -135 -69 -199t-197 -64q-80 0 -135.5 23.5t-90 70.5t-50 117t-15.5 162q0 93 15.5 163t50 117t90 71t135.5 24q264 0 268 -267h-101q-4 94 -45 135t-122 41q-52 0 -87.5 -16.5t-57.5 -51t-32 -88t-10 -128.5t10 -128t32 -87.5t57.5 -50.5t87.5 -16
q78 0 119.5 39.5t45.5 132.5h101zM409 767l-63 64l-61 -64h-91l103 130h98l104 -130h-90z" />
    <glyph glyph-name="Cdotaccent" unicode="&#x10a;" horiz-adv-x="674" 
d="M617 245q-3 -135 -69 -199t-197 -64q-80 0 -135.5 23.5t-90 70.5t-50 117t-15.5 162q0 93 15.5 163t50 117t90 71t135.5 24q264 0 268 -267h-101q-4 94 -45 135t-122 41q-52 0 -87.5 -16.5t-57.5 -51t-32 -88t-10 -128.5t10 -128t32 -87.5t57.5 -50.5t87.5 -16
q78 0 119.5 39.5t45.5 132.5h101zM296 767v134h100v-134h-100z" />
    <glyph glyph-name="D" unicode="D" horiz-adv-x="694" 
d="M88 -3v718h191q92 0 155 -15t104 -47q56 -43 76 -116t20 -182q0 -100 -17 -170t-63 -114q-41 -38 -107 -56t-168 -18h-191zM283 88q73 0 120.5 11.5t75.5 41.5q29 30 40 81.5t11 132.5q0 89 -13 143t-47 83q-29 25 -74 34t-113 9h-92v-536h92z" />
    <glyph glyph-name="Eth" unicode="&#xd0;" horiz-adv-x="694" 
d="M88 -3v718h191q92 0 155 -15t104 -47q56 -43 76 -116t20 -182q0 -100 -17 -170t-63 -114q-41 -38 -107 -56t-168 -18h-191zM283 88q73 0 120.5 11.5t75.5 41.5q29 30 40 81.5t11 132.5q0 89 -13 143t-47 83q-29 25 -74 34t-113 9h-92v-536h92zM31 328v67h304v-67h-304z
" />
    <glyph glyph-name="Dcaron" unicode="&#x10e;" horiz-adv-x="694" 
d="M88 -3v718h191q92 0 155 -15t104 -47q56 -43 76 -116t20 -182q0 -100 -17 -170t-63 -114q-41 -38 -107 -56t-168 -18h-191zM283 88q73 0 120.5 11.5t75.5 41.5q29 30 40 81.5t11 132.5q0 89 -13 143t-47 83q-29 25 -74 34t-113 9h-92v-536h92zM279 760l-103 130h90
l62 -64l63 64h90l-104 -130h-98z" />
    <glyph glyph-name="Dcroat" unicode="&#x110;" horiz-adv-x="694" 
d="M88 -3v718h191q92 0 155 -15t104 -47q56 -43 76 -116t20 -182q0 -100 -17 -170t-63 -114q-41 -38 -107 -56t-168 -18h-191zM283 88q73 0 120.5 11.5t75.5 41.5q29 30 40 81.5t11 132.5q0 89 -13 143t-47 83q-29 25 -74 34t-113 9h-92v-536h92zM31 328v67h304v-67h-304z
" />
    <glyph glyph-name="E" unicode="E" horiz-adv-x="590" 
d="M88 0v712h466v-91h-364v-208h314v-89h-314v-233h370v-91h-472z" />
    <glyph glyph-name="Eacute" unicode="&#xc9;" horiz-adv-x="590" 
d="M88 0v712h466v-91h-364v-208h314v-89h-314v-233h370v-91h-472zM275 760l77 145h112l-98 -145h-91z" />
    <glyph glyph-name="Ebreve" unicode="&#x114;" horiz-adv-x="590" 
d="M88 0v712h466v-91h-364v-208h314v-89h-314v-233h370v-91h-472zM462 885q0 -24 -8.5 -47t-26.5 -40t-45 -27.5t-63 -10.5t-63 10.5t-45 27.5t-26.5 40t-8.5 47h78q0 -19 17.5 -36t47.5 -17q31 0 48.5 17t17.5 36h77z" />
    <glyph glyph-name="Ecaron" unicode="&#x11a;" horiz-adv-x="590" 
d="M88 0v712h466v-91h-364v-208h314v-89h-314v-233h370v-91h-472zM270 760l-103 130h90l62 -64l63 64h90l-104 -130h-98z" />
    <glyph glyph-name="Ecircumflex" unicode="&#xca;" horiz-adv-x="590" 
d="M88 0v712h466v-91h-364v-208h314v-89h-314v-233h370v-91h-472zM382 760l-63 64l-61 -64h-91l103 130h98l104 -130h-90z" />
    <glyph glyph-name="Edieresis" unicode="&#xcb;" horiz-adv-x="590" 
d="M88 0v712h466v-91h-364v-208h314v-89h-314v-233h370v-91h-472zM184 760v134h100v-134h-100zM355 760v134h100v-134h-100z" />
    <glyph glyph-name="Edotaccent" unicode="&#x116;" horiz-adv-x="590" 
d="M88 0v712h466v-91h-364v-208h314v-89h-314v-233h370v-91h-472zM269 760v134h100v-134h-100z" />
    <glyph glyph-name="uni1EB8" unicode="&#x1eb8;" horiz-adv-x="590" 
d="M88 0v712h466v-91h-364v-208h314v-89h-314v-233h370v-91h-472zM272 -188v127h100v-127h-100z" />
    <glyph glyph-name="Egrave" unicode="&#xc8;" horiz-adv-x="590" 
d="M88 0v712h466v-91h-364v-208h314v-89h-314v-233h370v-91h-472zM276 760l-98 145h112l77 -145h-91z" />
    <glyph glyph-name="Emacron" unicode="&#x112;" horiz-adv-x="590" 
d="M88 0v712h466v-91h-364v-208h314v-89h-314v-233h370v-91h-472zM189 783v78h261v-78h-261z" />
    <glyph glyph-name="Eogonek" unicode="&#x118;" horiz-adv-x="590" 
d="M88 0v712h466v-91h-364v-208h314v-89h-314v-233h370v-91h-472zM568 -172l-6 -4t-18 -8.5t-29 -8.5t-38 -4q-42 0 -61.5 22.5t-19.5 54.5q0 30 14.5 53.5t31.5 40.5q20 19 47 34l70 -8q-1 -1 -13 -7t-25.5 -18t-24.5 -29t-11 -39q0 -16 9 -26t26 -10q9 0 17.5 2t15.5 4
q8 3 15 7v-56z" />
    <glyph glyph-name="uni1EBC" unicode="&#x1ebc;" horiz-adv-x="590" 
d="M88 0v712h466v-91h-364v-208h314v-89h-314v-233h370v-91h-472zM466 889q0 -28 -3.5 -51t-13.5 -39.5t-27 -25.5t-44 -9q-21 0 -35 6t-24.5 13.5t-20.5 14t-25 6.5t-24 -5t-14.5 -12.5t-7.5 -15t-2 -11.5h-53q0 23 4 44.5t14 38.5t27.5 27.5t44.5 10.5q22 0 35 -5.5
t23.5 -12t20 -12t24.5 -5.5t24 5t14.5 12t7.5 14t2 12h53z" />
    <glyph glyph-name="F" unicode="F" horiz-adv-x="552" 
d="M88 0v712h455v-91h-352v-226h302v-91h-302v-304h-103z" />
    <glyph glyph-name="G" unicode="G" horiz-adv-x="683" 
d="M520 267h-133v86h229v-265q0 -6 -15 -23.5t-47 -35.5t-82.5 -32.5t-120.5 -14.5q-80 0 -135.5 22.5t-90 69t-50 117t-15.5 164.5t15.5 164t50 117t90 70.5t135.5 23.5q69 0 119.5 -17.5t83.5 -50t48.5 -78t15.5 -102.5h-101q-1 73 -43 115t-123 42q-52 0 -87.5 -16.5
t-57.5 -51t-32 -88.5t-10 -128t10.5 -127t33.5 -87.5t60 -51t90 -16.5q40 0 70 6.5t50.5 14.5t31 16.5t10.5 12.5v144z" />
    <glyph glyph-name="Gbreve" unicode="&#x11e;" horiz-adv-x="683" 
d="M520 267h-133v86h229v-265q0 -6 -15 -23.5t-47 -35.5t-82.5 -32.5t-120.5 -14.5q-80 0 -135.5 22.5t-90 69t-50 117t-15.5 164.5t15.5 164t50 117t90 70.5t135.5 23.5q69 0 119.5 -17.5t83.5 -50t48.5 -78t15.5 -102.5h-101q-1 73 -43 115t-123 42q-52 0 -87.5 -16.5
t-57.5 -51t-32 -88.5t-10 -128t10.5 -127t33.5 -87.5t60 -51t90 -16.5q40 0 70 6.5t50.5 14.5t31 16.5t10.5 12.5v144zM489 892q0 -24 -8.5 -47t-26.5 -40t-45 -27.5t-63 -10.5t-63 10.5t-45 27.5t-26.5 40t-8.5 47h78q0 -19 17.5 -36t47.5 -17q31 0 48.5 17t17.5 36h77z
" />
    <glyph glyph-name="Gcaron" unicode="&#x1e6;" horiz-adv-x="683" 
d="M520 267h-133v86h229v-265q0 -6 -15 -23.5t-47 -35.5t-82.5 -32.5t-120.5 -14.5q-80 0 -135.5 22.5t-90 69t-50 117t-15.5 164.5t15.5 164t50 117t90 70.5t135.5 23.5q69 0 119.5 -17.5t83.5 -50t48.5 -78t15.5 -102.5h-101q-1 73 -43 115t-123 42q-52 0 -87.5 -16.5
t-57.5 -51t-32 -88.5t-10 -128t10.5 -127t33.5 -87.5t60 -51t90 -16.5q40 0 70 6.5t50.5 14.5t31 16.5t10.5 12.5v144zM297 767l-103 130h90l62 -64l63 64h90l-104 -130h-98z" />
    <glyph glyph-name="Gcircumflex" unicode="&#x11c;" horiz-adv-x="683" 
d="M520 267h-133v86h229v-265q0 -6 -15 -23.5t-47 -35.5t-82.5 -32.5t-120.5 -14.5q-80 0 -135.5 22.5t-90 69t-50 117t-15.5 164.5t15.5 164t50 117t90 70.5t135.5 23.5q69 0 119.5 -17.5t83.5 -50t48.5 -78t15.5 -102.5h-101q-1 73 -43 115t-123 42q-52 0 -87.5 -16.5
t-57.5 -51t-32 -88.5t-10 -128t10.5 -127t33.5 -87.5t60 -51t90 -16.5q40 0 70 6.5t50.5 14.5t31 16.5t10.5 12.5v144zM409 767l-63 64l-61 -64h-91l103 130h98l104 -130h-90z" />
    <glyph glyph-name="Gcommaaccent" unicode="&#x122;" horiz-adv-x="683" 
d="M520 267h-133v86h229v-265q0 -6 -15 -23.5t-47 -35.5t-82.5 -32.5t-120.5 -14.5q-80 0 -135.5 22.5t-90 69t-50 117t-15.5 164.5t15.5 164t50 117t90 70.5t135.5 23.5q69 0 119.5 -17.5t83.5 -50t48.5 -78t15.5 -102.5h-101q-1 73 -43 115t-123 42q-52 0 -87.5 -16.5
t-57.5 -51t-32 -88.5t-10 -128t10.5 -127t33.5 -87.5t60 -51t90 -16.5q40 0 70 6.5t50.5 14.5t31 16.5t10.5 12.5v144zM252 -264q7 15 15 33q7 16 14.5 37t14.5 45q6 21 9 38t5 30q2 14 2 26h99q-1 -14 -4 -30q-2 -14 -6 -32t-11 -39q-8 -26 -17 -46t-17 -34q-9 -17 -18 -28
h-86z" />
    <glyph glyph-name="Gdotaccent" unicode="&#x120;" horiz-adv-x="683" 
d="M520 267h-133v86h229v-265q0 -6 -15 -23.5t-47 -35.5t-82.5 -32.5t-120.5 -14.5q-80 0 -135.5 22.5t-90 69t-50 117t-15.5 164.5t15.5 164t50 117t90 70.5t135.5 23.5q69 0 119.5 -17.5t83.5 -50t48.5 -78t15.5 -102.5h-101q-1 73 -43 115t-123 42q-52 0 -87.5 -16.5
t-57.5 -51t-32 -88.5t-10 -128t10.5 -127t33.5 -87.5t60 -51t90 -16.5q40 0 70 6.5t50.5 14.5t31 16.5t10.5 12.5v144zM296 767v134h100v-134h-100z" />
    <glyph glyph-name="H" unicode="H" horiz-adv-x="712" 
d="M522 0v318h-331v-318l-103 -1v712l103 1v-297h331v297h103v-712h-103z" />
    <glyph glyph-name="Hbar" unicode="&#x126;" horiz-adv-x="712" 
d="M522 0v318h-331v-318l-103 -1v712l103 1v-297h331v297h103v-712h-103zM20 523v78h675v-78h-675z" />
    <glyph glyph-name="Hcircumflex" unicode="&#x124;" horiz-adv-x="712" 
d="M522 0v318h-331v-318l-103 -1v712l103 1v-297h331v297h103v-712h-103zM419 760l-63 64l-61 -64h-91l103 130h98l104 -130h-90z" />
    <glyph glyph-name="I" unicode="I" horiz-adv-x="279" 
d="M88 0v712h103v-712h-103z" />
    <glyph glyph-name="IJ" unicode="&#x132;" horiz-adv-x="703" 
d="M88 0v712h103v-712h-103zM292 0v98h66q52 0 84.5 8t50.5 31t24 64.5t6 109.5l-1 391h103l2 -391q0 -87 -8 -146t-36 -96t-81.5 -53t-143.5 -16h-66z" />
    <glyph glyph-name="Iacute" unicode="&#xcd;" horiz-adv-x="279" 
d="M88 0v712h103v-712h-103zM95 760l77 145h112l-98 -145h-91z" />
    <glyph glyph-name="Ibreve" unicode="&#x12c;" horiz-adv-x="279" 
d="M88 0v712h103v-712h-103zM282 885q0 -24 -8.5 -47t-26.5 -40t-45 -27.5t-63 -10.5t-63 10.5t-45 27.5t-26.5 40t-8.5 47h78q0 -19 17.5 -36t47.5 -17q31 0 48.5 17t17.5 36h77z" />
    <glyph glyph-name="Icircumflex" unicode="&#xce;" horiz-adv-x="279" 
d="M88 0v712h103v-712h-103zM202 760l-63 64l-61 -64h-91l103 130h98l104 -130h-90z" />
    <glyph glyph-name="Idieresis" unicode="&#xcf;" horiz-adv-x="279" 
d="M88 0v712h103v-712h-103zM4 760v134h100v-134h-100zM175 760v134h100v-134h-100z" />
    <glyph glyph-name="Idotaccent" unicode="&#x130;" horiz-adv-x="279" 
d="M88 0v712h103v-712h-103zM89 760v134h100v-134h-100z" />
    <glyph glyph-name="uni1ECA" unicode="&#x1eca;" horiz-adv-x="279" 
d="M88 0v712h103v-712h-103zM89 -188v127h100v-127h-100z" />
    <glyph glyph-name="Igrave" unicode="&#xcc;" horiz-adv-x="279" 
d="M88 0v712h103v-712h-103zM96 760l-98 145h112l77 -145h-91z" />
    <glyph glyph-name="Imacron" unicode="&#x12a;" horiz-adv-x="279" 
d="M88 0v712h103v-712h-103zM9 783v78h261v-78h-261z" />
    <glyph glyph-name="Iogonek" unicode="&#x12e;" horiz-adv-x="279" 
d="M88 0v712h103v-712h-103zM176 -171l-6 -4t-18 -8.5t-29 -8.5t-38 -4q-42 0 -61.5 22.5t-19.5 54.5q0 30 14.5 53.5t31.5 40.5q20 19 47 34l70 -8q-1 -1 -13 -7t-25.5 -18t-24.5 -29t-11 -39q0 -16 9 -26t26 -10q9 0 17.5 2t15.5 4q8 3 15 7v-56z" />
    <glyph glyph-name="Itilde" unicode="&#x128;" horiz-adv-x="279" 
d="M88 0v712h103v-712h-103zM286 889q0 -28 -3.5 -51t-13.5 -39.5t-27 -25.5t-44 -9q-21 0 -35 6t-24.5 13.5t-20.5 14t-25 6.5t-24 -5t-14.5 -12.5t-7.5 -15t-2 -11.5h-53q0 23 4 44.5t14 38.5t27.5 27.5t44.5 10.5q22 0 35 -5.5t23.5 -12t20 -12t24.5 -5.5t24 5t14.5 12
t7.5 14t2 12h53z" />
    <glyph glyph-name="J" unicode="J" horiz-adv-x="424" 
d="M13 0v98h66q52 0 84.5 8t50.5 31t24 64.5t6 109.5l-1 391h103l2 -391q0 -87 -8 -146t-36 -96t-81.5 -53t-143.5 -16h-66z" />
    <glyph glyph-name="Jcircumflex" unicode="&#x134;" horiz-adv-x="424" 
d="M13 0v98h66q52 0 84.5 8t50.5 31t24 64.5t6 109.5l-1 391h103l2 -391q0 -87 -8 -146t-36 -96t-81.5 -53t-143.5 -16h-66zM269 760l-63 64l-61 -64h-91l103 130h98l104 -130h-90z" />
    <glyph glyph-name="K" unicode="K" horiz-adv-x="635" 
d="M514 0l-227 317l-96 -117v-200h-103v712h103v-390l303 390h121l-265 -319l280 -393h-116z" />
    <glyph glyph-name="Kcommaaccent" unicode="&#x136;" horiz-adv-x="635" 
d="M514 0l-227 317l-96 -117v-200h-103v712h103v-390l303 390h121l-265 -319l280 -393h-116zM223 -264q7 15 15 33q7 16 14.5 37t14.5 45q6 21 9 38t5 30q2 14 2 26h99q-1 -14 -4 -30q-2 -14 -6 -32t-11 -39q-8 -26 -17 -46t-17 -34q-9 -17 -18 -28h-86z" />
    <glyph glyph-name="L" unicode="L" horiz-adv-x="510" 
d="M88 0v712h103v-617h300v-95h-403z" />
    <glyph glyph-name="Lacute" unicode="&#x139;" horiz-adv-x="510" 
d="M88 0v712h103v-617h300v-95h-403zM104 760l77 145h112l-98 -145h-91z" />
    <glyph glyph-name="Lcaron" unicode="&#x13d;" horiz-adv-x="510" 
d="M88 0v712h103v-617h300v-95h-403zM254 598l73 174h112l-94 -174h-91z" />
    <glyph glyph-name="Lcommaaccent" unicode="&#x13b;" horiz-adv-x="510" 
d="M88 0v712h103v-617h300v-95h-403zM176 -264q7 15 15 33q7 16 14.5 37t14.5 45q6 21 9 38t5 30q2 14 2 26h99q-1 -14 -4 -30q-2 -14 -6 -32t-11 -39q-8 -26 -17 -46t-17 -34q-9 -17 -18 -28h-86z" />
    <glyph glyph-name="Ldot" unicode="&#x13f;" horiz-adv-x="510" 
d="M88 0v712h103v-617h300v-95h-403zM269 289v125h100v-125h-100z" />
    <glyph glyph-name="Lslash" unicode="&#x141;" horiz-adv-x="510" 
d="M88 0v712h103v-617h300v-95h-403zM11 238l-37 66l302 177l38 -66z" />
    <glyph glyph-name="M" unicode="M" horiz-adv-x="888" 
d="M699 0l7 601l-222 -603h-100l-210 604l5 -602h-91v702h155l201 -589l207 589h150l-2 -702h-100z" />
    <glyph glyph-name="N" unicode="N" horiz-adv-x="733" 
d="M560 -1v1l-29 -1l-354 576l9 -575h-98l2 712h85v-2l28 2l354 -575l-10 575h98v-713h-85z" />
    <glyph glyph-name="Nacute" unicode="&#x143;" horiz-adv-x="733" 
d="M560 -1v1l-29 -1l-354 576l9 -575h-98l2 712h85v-2l28 2l354 -575l-10 575h98v-713h-85zM323 760l77 145h112l-98 -145h-91z" />
    <glyph glyph-name="Ncaron" unicode="&#x147;" horiz-adv-x="733" 
d="M560 -1v1l-29 -1l-354 576l9 -575h-98l2 712h85v-2l28 2l354 -575l-10 575h98v-713h-85zM318 760l-103 130h90l62 -64l63 64h90l-104 -130h-98z" />
    <glyph glyph-name="Ncommaaccent" unicode="&#x145;" horiz-adv-x="733" 
d="M560 -1v1l-29 -1l-354 576l9 -575h-98l2 712h85v-2l28 2l354 -575l-10 575h98v-713h-85zM253 -264q7 15 15 33q7 16 14.5 37t14.5 45q6 21 9 38t5 30q2 14 2 26h99q-1 -14 -4 -30q-2 -14 -6 -32t-11 -39q-8 -26 -17 -46t-17 -34q-9 -17 -18 -28h-86z" />
    <glyph glyph-name="Eng" unicode="&#x14a;" horiz-adv-x="733" 
d="M363 -225v92h66q66 0 93.5 33.5t28.5 98.5h-1l-373 578l9 -577h-98l2 712h85v-2l28 2l354 -575l-10 575h98v-712q0 -47 -9 -88t-33 -71.5t-67.5 -48t-112.5 -17.5h-60z" />
    <glyph glyph-name="uni019D" unicode="&#x19d;" horiz-adv-x="734" 
d="M560 -1v1l-22 -1l-360 577l8 -559h1q0 -53 -8.5 -97.5t-32 -76.5t-65 -50t-107.5 -18h-59v92h66q33 0 54 9t32.5 27t16 46.5t4.5 67.5h1l2 695h85v-2l28 2l353 -573l-10 573h98v-713h-85z" />
    <glyph glyph-name="Ntilde" unicode="&#xd1;" horiz-adv-x="733" 
d="M560 -1v1l-29 -1l-354 576l9 -575h-98l2 712h85v-2l28 2l354 -575l-10 575h98v-713h-85zM514 889q0 -28 -3.5 -51t-13.5 -39.5t-27 -25.5t-44 -9q-21 0 -35 6t-24.5 13.5t-20.5 14t-25 6.5t-24 -5t-14.5 -12.5t-7.5 -15t-2 -11.5h-53q0 23 4 44.5t14 38.5t27.5 27.5
t44.5 10.5q22 0 35 -5.5t23.5 -12t20 -12t24.5 -5.5t24 5t14.5 12t7.5 14t2 12h53z" />
    <glyph glyph-name="O" unicode="O" 
d="M60 355q0 93 15.5 163t50.5 117t91 71t138 24q81 0 137.5 -24t91 -71t50 -117t15.5 -163q0 -92 -15.5 -162t-50 -117t-91 -70.5t-137.5 -23.5q-82 0 -138 23.5t-91 70.5t-50.5 117t-15.5 162zM546 355q0 74 -10 128t-32.5 88.5t-59 51t-89.5 16.5t-89.5 -16.5t-59 -51
t-32.5 -88.5t-10 -128t10 -127t32.5 -87.5t59 -51t89.5 -16.5t89.5 16.5t59 51t32.5 87.5t10 127z" />
    <glyph glyph-name="Oacute" unicode="&#xd3;" 
d="M60 355q0 93 15.5 163t50.5 117t91 71t138 24q81 0 137.5 -24t91 -71t50 -117t15.5 -163q0 -92 -15.5 -162t-50 -117t-91 -70.5t-137.5 -23.5q-82 0 -138 23.5t-91 70.5t-50.5 117t-15.5 162zM546 355q0 74 -10 128t-32.5 88.5t-59 51t-89.5 16.5t-89.5 -16.5t-59 -51
t-32.5 -88.5t-10 -128t10 -127t32.5 -87.5t59 -51t89.5 -16.5t89.5 16.5t59 51t32.5 87.5t10 127zM311 767l77 145h112l-98 -145h-91z" />
    <glyph glyph-name="Obreve" unicode="&#x14e;" 
d="M60 355q0 93 15.5 163t50.5 117t91 71t138 24q81 0 137.5 -24t91 -71t50 -117t15.5 -163q0 -92 -15.5 -162t-50 -117t-91 -70.5t-137.5 -23.5q-82 0 -138 23.5t-91 70.5t-50.5 117t-15.5 162zM546 355q0 74 -10 128t-32.5 88.5t-59 51t-89.5 16.5t-89.5 -16.5t-59 -51
t-32.5 -88.5t-10 -128t10 -127t32.5 -87.5t59 -51t89.5 -16.5t89.5 16.5t59 51t32.5 87.5t10 127zM498 892q0 -24 -8.5 -47t-26.5 -40t-45 -27.5t-63 -10.5t-63 10.5t-45 27.5t-26.5 40t-8.5 47h78q0 -19 17.5 -36t47.5 -17q31 0 48.5 17t17.5 36h77z" />
    <glyph glyph-name="Ocircumflex" unicode="&#xd4;" 
d="M60 355q0 93 15.5 163t50.5 117t91 71t138 24q81 0 137.5 -24t91 -71t50 -117t15.5 -163q0 -92 -15.5 -162t-50 -117t-91 -70.5t-137.5 -23.5q-82 0 -138 23.5t-91 70.5t-50.5 117t-15.5 162zM546 355q0 74 -10 128t-32.5 88.5t-59 51t-89.5 16.5t-89.5 -16.5t-59 -51
t-32.5 -88.5t-10 -128t10 -127t32.5 -87.5t59 -51t89.5 -16.5t89.5 16.5t59 51t32.5 87.5t10 127zM418 767l-63 64l-61 -64h-91l103 130h98l104 -130h-90z" />
    <glyph glyph-name="Odieresis" unicode="&#xd6;" 
d="M60 355q0 93 15.5 163t50.5 117t91 71t138 24q81 0 137.5 -24t91 -71t50 -117t15.5 -163q0 -92 -15.5 -162t-50 -117t-91 -70.5t-137.5 -23.5q-82 0 -138 23.5t-91 70.5t-50.5 117t-15.5 162zM546 355q0 74 -10 128t-32.5 88.5t-59 51t-89.5 16.5t-89.5 -16.5t-59 -51
t-32.5 -88.5t-10 -128t10 -127t32.5 -87.5t59 -51t89.5 -16.5t89.5 16.5t59 51t32.5 87.5t10 127zM220 767v134h100v-134h-100zM391 767v134h100v-134h-100z" />
    <glyph glyph-name="uni1ECC" unicode="&#x1ecc;" 
d="M60 355q0 93 15.5 163t50.5 117t91 71t138 24q81 0 137.5 -24t91 -71t50 -117t15.5 -163q0 -92 -15.5 -162t-50 -117t-91 -70.5t-137.5 -23.5q-82 0 -138 23.5t-91 70.5t-50.5 117t-15.5 162zM546 355q0 74 -10 128t-32.5 88.5t-59 51t-89.5 16.5t-89.5 -16.5t-59 -51
t-32.5 -88.5t-10 -128t10 -127t32.5 -87.5t59 -51t89.5 -16.5t89.5 16.5t59 51t32.5 87.5t10 127zM305 -188v127h100v-127h-100z" />
    <glyph glyph-name="Ograve" unicode="&#xd2;" 
d="M60 355q0 93 15.5 163t50.5 117t91 71t138 24q81 0 137.5 -24t91 -71t50 -117t15.5 -163q0 -92 -15.5 -162t-50 -117t-91 -70.5t-137.5 -23.5q-82 0 -138 23.5t-91 70.5t-50.5 117t-15.5 162zM546 355q0 74 -10 128t-32.5 88.5t-59 51t-89.5 16.5t-89.5 -16.5t-59 -51
t-32.5 -88.5t-10 -128t10 -127t32.5 -87.5t59 -51t89.5 -16.5t89.5 16.5t59 51t32.5 87.5t10 127zM312 767l-98 145h112l77 -145h-91z" />
    <glyph glyph-name="Ohungarumlaut" unicode="&#x150;" 
d="M60 355q0 93 15.5 163t50.5 117t91 71t138 24q81 0 137.5 -24t91 -71t50 -117t15.5 -163q0 -92 -15.5 -162t-50 -117t-91 -70.5t-137.5 -23.5q-82 0 -138 23.5t-91 70.5t-50.5 117t-15.5 162zM546 355q0 74 -10 128t-32.5 88.5t-59 51t-89.5 16.5t-89.5 -16.5t-59 -51
t-32.5 -88.5t-10 -128t10 -127t32.5 -87.5t59 -51t89.5 -16.5t89.5 16.5t59 51t32.5 87.5t10 127zM218 767l74 145h112l-95 -145h-91zM377 767l90 145h112l-111 -145h-91z" />
    <glyph glyph-name="Omacron" unicode="&#x14c;" 
d="M60 355q0 93 15.5 163t50.5 117t91 71t138 24q81 0 137.5 -24t91 -71t50 -117t15.5 -163q0 -92 -15.5 -162t-50 -117t-91 -70.5t-137.5 -23.5q-82 0 -138 23.5t-91 70.5t-50.5 117t-15.5 162zM546 355q0 74 -10 128t-32.5 88.5t-59 51t-89.5 16.5t-89.5 -16.5t-59 -51
t-32.5 -88.5t-10 -128t10 -127t32.5 -87.5t59 -51t89.5 -16.5t89.5 16.5t59 51t32.5 87.5t10 127zM225 790v78h261v-78h-261z" />
    <glyph glyph-name="uni01EA" unicode="&#x1ea;" 
d="M60 355q0 93 15.5 163t50.5 117t91 71t138 24q81 0 137.5 -24t91 -71t50 -117t15.5 -163q0 -92 -15.5 -162t-50 -117t-91 -70.5t-137.5 -23.5q-82 0 -138 23.5t-91 70.5t-50.5 117t-15.5 162zM546 355q0 74 -10 128t-32.5 88.5t-59 51t-89.5 16.5t-89.5 -16.5t-59 -51
t-32.5 -88.5t-10 -128t10 -127t32.5 -87.5t59 -51t89.5 -16.5t89.5 16.5t59 51t32.5 87.5t10 127zM521 -157l-6 -4t-18 -8.5t-29 -8.5t-38 -4q-42 0 -61.5 22.5t-19.5 54.5q0 30 14.5 53.5t31.5 40.5q20 19 47 34l70 -8q-1 -1 -13 -7t-25.5 -18t-24.5 -29t-11 -39
q0 -16 9 -26t26 -10q9 0 17.5 2t15.5 4q8 3 15 7v-56z" />
    <glyph glyph-name="Oslash" unicode="&#xd8;" 
d="M60 355q0 93 15.5 163t50.5 117t91 71t138 24q81 0 137.5 -24t91 -71t50 -117t15.5 -163q0 -92 -15.5 -162t-50 -117t-91 -70.5t-137.5 -23.5q-82 0 -138 23.5t-91 70.5t-50.5 117t-15.5 162zM546 355q0 74 -10 128t-32.5 88.5t-59 51t-89.5 16.5t-89.5 -16.5t-59 -51
t-32.5 -88.5t-10 -128t10 -127t32.5 -87.5t59 -51t89.5 -16.5t89.5 16.5t59 51t32.5 87.5t10 127zM56 -12l503 737h91l-503 -737h-91z" />
    <glyph glyph-name="Oslashacute" unicode="&#x1fe;" 
d="M60 355q0 93 15.5 163t50.5 117t91 71t138 24q81 0 137.5 -24t91 -71t50 -117t15.5 -163q0 -92 -15.5 -162t-50 -117t-91 -70.5t-137.5 -23.5q-82 0 -138 23.5t-91 70.5t-50.5 117t-15.5 162zM546 355q0 74 -10 128t-32.5 88.5t-59 51t-89.5 16.5t-89.5 -16.5t-59 -51
t-32.5 -88.5t-10 -128t10 -127t32.5 -87.5t59 -51t89.5 -16.5t89.5 16.5t59 51t32.5 87.5t10 127zM56 -12l503 737h91l-503 -737h-91zM308 767l77 145h112l-98 -145h-91z" />
    <glyph glyph-name="Otilde" unicode="&#xd5;" 
d="M60 355q0 93 15.5 163t50.5 117t91 71t138 24q81 0 137.5 -24t91 -71t50 -117t15.5 -163q0 -92 -15.5 -162t-50 -117t-91 -70.5t-137.5 -23.5q-82 0 -138 23.5t-91 70.5t-50.5 117t-15.5 162zM546 355q0 74 -10 128t-32.5 88.5t-59 51t-89.5 16.5t-89.5 -16.5t-59 -51
t-32.5 -88.5t-10 -128t10 -127t32.5 -87.5t59 -51t89.5 -16.5t89.5 16.5t59 51t32.5 87.5t10 127zM502 896q0 -28 -3.5 -51t-13.5 -39.5t-27 -25.5t-44 -9q-21 0 -35 6t-24.5 13.5t-20.5 14t-25 6.5t-24 -5t-14.5 -12.5t-7.5 -15t-2 -11.5h-53q0 23 4 44.5t14 38.5
t27.5 27.5t44.5 10.5q22 0 35 -5.5t23.5 -12t20 -12t24.5 -5.5t24 5t14.5 12t7.5 14t2 12h53z" />
    <glyph glyph-name="OE" unicode="&#x152;" horiz-adv-x="974" 
d="M342 0q-77 0 -130.5 23.5t-87.5 69t-49 111.5t-15 151t15 151.5t49 112t87.5 69.5t130.5 24h596v-91h-364v-208h314v-89h-314v-233h370v-91h-602zM472 627h-117q-53 0 -89.5 -16.5t-59 -50t-32.5 -85t-10 -120.5t10 -120t32.5 -84t59 -49.5t89.5 -16.5h117v542z" />
    <glyph glyph-name="P" unicode="P" horiz-adv-x="657" 
d="M88 -1v716h248q76 0 130 -10.5t88 -37.5t50 -73t16 -116q0 -71 -15.5 -116.5t-50 -72.5t-89 -37.5t-132.5 -10.5h-142v-242h-103zM333 332q46 0 82.5 5.5t60.5 25.5q20 16 30 43t10 72q0 42 -9.5 68t-26.5 43q-24 23 -61.5 29t-85.5 6h-142v-292h142z" />
    <glyph glyph-name="Thorn" unicode="&#xde;" horiz-adv-x="653" 
d="M191 124v-125h-103v716h103v-117h141q76 0 130 -10.5t88.5 -37.5t50 -73t15.5 -116q0 -71 -15.5 -117t-50 -72.5t-89 -37t-131.5 -10.5h-139zM330 215q40 0 74 4t58 19t37.5 44t13.5 79q0 49 -13.5 78t-37.5 44t-58 19.5t-74 4.5h-139v-292h139z" />
    <glyph glyph-name="Q" unicode="Q" 
d="M481 1q-51 -19 -126 -19q-82 0 -138 23.5t-91 70.5t-50.5 117t-15.5 162q0 93 15.5 163t50.5 117t91 71t138 24q81 0 137.5 -24t91 -71t50 -117t15.5 -163q0 -111 -22.5 -188.5t-73.5 -122.5l124 -96l-59 -67zM355 73q53 0 89.5 16.5t59 51t32.5 87.5t10 127t-10 128
t-32.5 88.5t-59 51t-89.5 16.5t-89.5 -16.5t-59 -51t-32.5 -88.5t-10 -128t10 -127t32.5 -87.5t59 -51t89.5 -16.5z" />
    <glyph glyph-name="R" unicode="R" horiz-adv-x="674" 
d="M524 0l-136 264q-13 -1 -26.5 -1h-27.5h-142v-263h-104v714h249q82 0 135.5 -11.5t85 -38t44.5 -70t13 -106.5q0 -90 -27.5 -140t-97.5 -69l150 -279h-116zM334 354q43 0 77.5 3.5t57.5 20.5q20 14 31 40t11 70q0 40 -9.5 65t-26.5 40q-23 20 -59 25t-82 5h-142v-269h142
z" />
    <glyph glyph-name="Racute" unicode="&#x154;" horiz-adv-x="674" 
d="M524 0l-136 264q-13 -1 -26.5 -1h-27.5h-142v-263h-104v714h249q82 0 135.5 -11.5t85 -38t44.5 -70t13 -106.5q0 -90 -27.5 -140t-97.5 -69l150 -279h-116zM334 354q43 0 77.5 3.5t57.5 20.5q20 14 31 40t11 70q0 40 -9.5 65t-26.5 40q-23 20 -59 25t-82 5h-142v-269h142
zM284 760l77 145h112l-98 -145h-91z" />
    <glyph glyph-name="Rcaron" unicode="&#x158;" horiz-adv-x="674" 
d="M524 0l-136 264q-13 -1 -26.5 -1h-27.5h-142v-263h-104v714h249q82 0 135.5 -11.5t85 -38t44.5 -70t13 -106.5q0 -90 -27.5 -140t-97.5 -69l150 -279h-116zM334 354q43 0 77.5 3.5t57.5 20.5q20 14 31 40t11 70q0 40 -9.5 65t-26.5 40q-23 20 -59 25t-82 5h-142v-269h142
zM279 760l-103 130h90l62 -64l63 64h90l-104 -130h-98z" />
    <glyph glyph-name="Rcommaaccent" unicode="&#x156;" horiz-adv-x="674" 
d="M524 0l-136 264q-13 -1 -26.5 -1h-27.5h-142v-263h-104v714h249q82 0 135.5 -11.5t85 -38t44.5 -70t13 -106.5q0 -90 -27.5 -140t-97.5 -69l150 -279h-116zM334 354q43 0 77.5 3.5t57.5 20.5q20 14 31 40t11 70q0 40 -9.5 65t-26.5 40q-23 20 -59 25t-82 5h-142v-269h142
zM239 -264q7 15 15 33q7 16 14.5 37t14.5 45q6 21 9 38t5 30q2 14 2 26h99q-1 -14 -4 -30q-2 -14 -6 -32t-11 -39q-8 -26 -17 -46t-17 -34q-9 -17 -18 -28h-86z" />
    <glyph glyph-name="S" unicode="S" horiz-adv-x="633" 
d="M477 514q0 23 -8.5 45.5t-27 40t-49 29t-74.5 11.5q-45 0 -74 -9t-46.5 -24t-24 -34.5t-6.5 -39.5q0 -48 31.5 -72.5t79 -39t102.5 -25.5t102.5 -33.5t79 -63t31.5 -112.5q0 -101 -66.5 -153.5t-208.5 -51.5q-64 0 -114.5 14t-86 42.5t-54 73.5t-18.5 107h100
q0 -69 44 -107t125 -39q47 0 79.5 8t53 23t30 35t9.5 44q0 37 -18 59.5t-48 37t-68 23.5t-78 18.5t-78 23.5t-68 37.5t-48 60.5t-18 93q0 45 14.5 81t45 61.5t78.5 39t115 13.5q135 -1 197.5 -58t62.5 -159h-98z" />
    <glyph glyph-name="Sacute" unicode="&#x15a;" horiz-adv-x="633" 
d="M477 514q0 23 -8.5 45.5t-27 40t-49 29t-74.5 11.5q-45 0 -74 -9t-46.5 -24t-24 -34.5t-6.5 -39.5q0 -48 31.5 -72.5t79 -39t102.5 -25.5t102.5 -33.5t79 -63t31.5 -112.5q0 -101 -66.5 -153.5t-208.5 -51.5q-64 0 -114.5 14t-86 42.5t-54 73.5t-18.5 107h100
q0 -69 44 -107t125 -39q47 0 79.5 8t53 23t30 35t9.5 44q0 37 -18 59.5t-48 37t-68 23.5t-78 18.5t-78 23.5t-68 37.5t-48 60.5t-18 93q0 45 14.5 81t45 61.5t78.5 39t115 13.5q135 -1 197.5 -58t62.5 -159h-98zM276 767l77 145h112l-98 -145h-91z" />
    <glyph glyph-name="Scaron" unicode="&#x160;" horiz-adv-x="633" 
d="M477 514q0 23 -8.5 45.5t-27 40t-49 29t-74.5 11.5q-45 0 -74 -9t-46.5 -24t-24 -34.5t-6.5 -39.5q0 -48 31.5 -72.5t79 -39t102.5 -25.5t102.5 -33.5t79 -63t31.5 -112.5q0 -101 -66.5 -153.5t-208.5 -51.5q-64 0 -114.5 14t-86 42.5t-54 73.5t-18.5 107h100
q0 -69 44 -107t125 -39q47 0 79.5 8t53 23t30 35t9.5 44q0 37 -18 59.5t-48 37t-68 23.5t-78 18.5t-78 23.5t-68 37.5t-48 60.5t-18 93q0 45 14.5 81t45 61.5t78.5 39t115 13.5q135 -1 197.5 -58t62.5 -159h-98zM271 767l-103 130h90l62 -64l63 64h90l-104 -130h-98z" />
    <glyph glyph-name="Scedilla" unicode="&#x15e;" horiz-adv-x="633" 
d="M477 514q0 23 -8.5 45.5t-27 40t-49 29t-74.5 11.5q-45 0 -74 -9t-46.5 -24t-24 -34.5t-6.5 -39.5q0 -48 31.5 -72.5t79 -39t102.5 -25.5t102.5 -33.5t79 -63t31.5 -112.5q0 -101 -66.5 -153.5t-208.5 -51.5q-64 0 -114.5 14t-86 42.5t-54 73.5t-18.5 107h100
q0 -69 44 -107t125 -39q47 0 79.5 8t53 23t30 35t9.5 44q0 37 -18 59.5t-48 37t-68 23.5t-78 18.5t-78 23.5t-68 37.5t-48 60.5t-18 93q0 45 14.5 81t45 61.5t78.5 39t115 13.5q135 -1 197.5 -58t62.5 -159h-98zM222 -170q6 -2 15 -3q15 -3 46 -3q29 0 44 9.5t15 32.5
q0 15 -9.5 23t-24.5 12.5t-32.5 5.5t-32.5 1h-3l48 91h81l-32 -55q38 -3 64 -22t26 -62q0 -21 -6.5 -39t-21 -31t-38.5 -20.5t-59 -7.5q-45 0 -63 3q-11 1 -17 3v62z" />
    <glyph glyph-name="Scircumflex" unicode="&#x15c;" horiz-adv-x="633" 
d="M477 514q0 23 -8.5 45.5t-27 40t-49 29t-74.5 11.5q-45 0 -74 -9t-46.5 -24t-24 -34.5t-6.5 -39.5q0 -48 31.5 -72.5t79 -39t102.5 -25.5t102.5 -33.5t79 -63t31.5 -112.5q0 -101 -66.5 -153.5t-208.5 -51.5q-64 0 -114.5 14t-86 42.5t-54 73.5t-18.5 107h100
q0 -69 44 -107t125 -39q47 0 79.5 8t53 23t30 35t9.5 44q0 37 -18 59.5t-48 37t-68 23.5t-78 18.5t-78 23.5t-68 37.5t-48 60.5t-18 93q0 45 14.5 81t45 61.5t78.5 39t115 13.5q135 -1 197.5 -58t62.5 -159h-98zM383 767l-63 64l-61 -64h-91l103 130h98l104 -130h-90z" />
    <glyph glyph-name="Scommaaccent" unicode="&#x218;" horiz-adv-x="633" 
d="M477 514q0 23 -8.5 45.5t-27 40t-49 29t-74.5 11.5q-45 0 -74 -9t-46.5 -24t-24 -34.5t-6.5 -39.5q0 -48 31.5 -72.5t79 -39t102.5 -25.5t102.5 -33.5t79 -63t31.5 -112.5q0 -101 -66.5 -153.5t-208.5 -51.5q-64 0 -114.5 14t-86 42.5t-54 73.5t-18.5 107h100
q0 -69 44 -107t125 -39q47 0 79.5 8t53 23t30 35t9.5 44q0 37 -18 59.5t-48 37t-68 23.5t-78 18.5t-78 23.5t-68 37.5t-48 60.5t-18 93q0 45 14.5 81t45 61.5t78.5 39t115 13.5q135 -1 197.5 -58t62.5 -159h-98zM229 -268q7 15 15 33q7 16 14.5 37t14.5 45q6 21 9 38t5 30
q2 14 2 26h99q-1 -14 -4 -30q-2 -14 -6 -32t-11 -39q-8 -26 -17 -46t-17 -34q-9 -17 -18 -28h-86z" />
    <glyph glyph-name="uni018F" unicode="&#x18f;" 
d="M546 365q-1 72 -11.5 123.5t-33 85t-58.5 49.5t-88 16q-82 0 -125.5 -39t-57.5 -126h-105q18 127 86 191.5t202 64.5q81 0 137.5 -24t91 -71t50 -117t15.5 -163q0 -92 -15.5 -162t-50 -117t-91 -70.5t-137.5 -23.5q-82 0 -138 24t-91 72t-50.5 120t-15.5 168h104z
M166 292q9 -116 52.5 -167.5t136.5 -51.5q94 0 137.5 52.5t51.5 166.5h-378z" />
    <glyph glyph-name="T" unicode="T" horiz-adv-x="553" 
d="M222 0l2 617h-208v95h520v-95h-209l-2 -617h-103z" />
    <glyph glyph-name="Tbar" unicode="&#x166;" horiz-adv-x="560" 
d="M226 0l1 320h-119v81h120v216h-208v95h520v-95h-209v-216h121v-81h-122l-1 -320h-103z" />
    <glyph glyph-name="Tcaron" unicode="&#x164;" horiz-adv-x="553" 
d="M222 0l2 617h-208v95h520v-95h-209l-2 -617h-103zM228 760l-103 130h90l62 -64l63 64h90l-104 -130h-98z" />
    <glyph glyph-name="uni0162" unicode="&#x162;" horiz-adv-x="553" 
d="M222 0l2 617h-208v95h520v-95h-209l-2 -617h-103zM160 -167q6 -2 15 -3q15 -3 46 -3q29 0 44 9.5t15 32.5q0 15 -9.5 23t-24.5 12.5t-32.5 5.5t-32.5 1h-3l48 91h81l-32 -55q38 -3 64 -22t26 -62q0 -21 -6.5 -39t-21 -31t-38.5 -20.5t-59 -7.5q-45 0 -63 3q-11 1 -17 3
v62z" />
    <glyph glyph-name="uni021A" unicode="&#x21a;" horiz-adv-x="560" 
d="M226 0l2 617h-208v95h520v-95h-209l-2 -617h-103zM163 -265q7 15 15 33q7 16 14.5 37t14.5 45q6 21 9 38t5 30q2 14 2 26h99q-1 -14 -4 -30q-2 -14 -6 -32.5t-11 -38.5q-8 -26 -17 -46t-17 -34q-9 -17 -18 -28h-86z" />
    <glyph glyph-name="U" unicode="U" horiz-adv-x="700" 
d="M519 712h105v-370q0 -92 -14 -160t-46.5 -112.5t-85 -66t-129.5 -21.5t-129 21.5t-84 66t-46 112.5t-14 160v370h103v-370q0 -74 8.5 -125t28 -83t52.5 -46.5t81 -14.5t81 14.5t52.5 46.5t28 83t8.5 125v370z" />
    <glyph glyph-name="Uacute" unicode="&#xda;" horiz-adv-x="700" 
d="M519 712h105v-370q0 -92 -14 -160t-46.5 -112.5t-85 -66t-129.5 -21.5t-129 21.5t-84 66t-46 112.5t-14 160v370h103v-370q0 -74 8.5 -125t28 -83t52.5 -46.5t81 -14.5t81 14.5t52.5 46.5t28 83t8.5 125v370zM307 760l77 145h112l-98 -145h-91z" />
    <glyph glyph-name="Ubreve" unicode="&#x16c;" horiz-adv-x="700" 
d="M519 712h105v-370q0 -92 -14 -160t-46.5 -112.5t-85 -66t-129.5 -21.5t-129 21.5t-84 66t-46 112.5t-14 160v370h103v-370q0 -74 8.5 -125t28 -83t52.5 -46.5t81 -14.5t81 14.5t52.5 46.5t28 83t8.5 125v370zM494 885q0 -24 -8.5 -47t-26.5 -40t-45 -27.5t-63 -10.5
t-63 10.5t-45 27.5t-26.5 40t-8.5 47h78q0 -19 17.5 -36t47.5 -17q31 0 48.5 17t17.5 36h77z" />
    <glyph glyph-name="Ucircumflex" unicode="&#xdb;" horiz-adv-x="700" 
d="M519 712h105v-370q0 -92 -14 -160t-46.5 -112.5t-85 -66t-129.5 -21.5t-129 21.5t-84 66t-46 112.5t-14 160v370h103v-370q0 -74 8.5 -125t28 -83t52.5 -46.5t81 -14.5t81 14.5t52.5 46.5t28 83t8.5 125v370zM414 760l-63 64l-61 -64h-91l103 130h98l104 -130h-90z" />
    <glyph glyph-name="Udieresis" unicode="&#xdc;" horiz-adv-x="700" 
d="M519 712h105v-370q0 -92 -14 -160t-46.5 -112.5t-85 -66t-129.5 -21.5t-129 21.5t-84 66t-46 112.5t-14 160v370h103v-370q0 -74 8.5 -125t28 -83t52.5 -46.5t81 -14.5t81 14.5t52.5 46.5t28 83t8.5 125v370zM216 760v134h100v-134h-100zM387 760v134h100v-134h-100z" />
    <glyph glyph-name="uni1EE4" unicode="&#x1ee4;" horiz-adv-x="700" 
d="M519 712h105v-370q0 -92 -14 -160t-46.5 -112.5t-85 -66t-129.5 -21.5t-129 21.5t-84 66t-46 112.5t-14 160v370h103v-370q0 -74 8.5 -125t28 -83t52.5 -46.5t81 -14.5t81 14.5t52.5 46.5t28 83t8.5 125v370zM301 -188v127h100v-127h-100z" />
    <glyph glyph-name="Ugrave" unicode="&#xd9;" horiz-adv-x="700" 
d="M519 712h105v-370q0 -92 -14 -160t-46.5 -112.5t-85 -66t-129.5 -21.5t-129 21.5t-84 66t-46 112.5t-14 160v370h103v-370q0 -74 8.5 -125t28 -83t52.5 -46.5t81 -14.5t81 14.5t52.5 46.5t28 83t8.5 125v370zM308 760l-98 145h112l77 -145h-91z" />
    <glyph glyph-name="Uhungarumlaut" unicode="&#x170;" horiz-adv-x="700" 
d="M519 712h105v-370q0 -92 -14 -160t-46.5 -112.5t-85 -66t-129.5 -21.5t-129 21.5t-84 66t-46 112.5t-14 160v370h103v-370q0 -74 8.5 -125t28 -83t52.5 -46.5t81 -14.5t81 14.5t52.5 46.5t28 83t8.5 125v370zM214 760l74 145h112l-95 -145h-91zM373 760l90 145h112
l-111 -145h-91z" />
    <glyph glyph-name="Umacron" unicode="&#x16a;" horiz-adv-x="700" 
d="M519 712h105v-370q0 -92 -14 -160t-46.5 -112.5t-85 -66t-129.5 -21.5t-129 21.5t-84 66t-46 112.5t-14 160v370h103v-370q0 -74 8.5 -125t28 -83t52.5 -46.5t81 -14.5t81 14.5t52.5 46.5t28 83t8.5 125v370zM221 783v78h261v-78h-261z" />
    <glyph glyph-name="Uogonek" unicode="&#x172;" horiz-adv-x="700" 
d="M519 712h105v-370q0 -92 -14 -160t-46.5 -112.5t-85 -66t-129.5 -21.5t-129 21.5t-84 66t-46 112.5t-14 160v370h103v-370q0 -74 8.5 -125t28 -83t52.5 -46.5t81 -14.5t81 14.5t52.5 46.5t28 83t8.5 125v370zM528 -148l-6 -4t-18 -8.5t-29 -8.5t-38 -4q-42 0 -61.5 22.5
t-19.5 54.5q0 30 14.5 53.5t31.5 40.5q20 19 47 34l70 -8q-1 -1 -13 -7t-25.5 -18t-24.5 -29t-11 -39q0 -16 9 -26t26 -10q9 0 17.5 2t15.5 4q8 3 15 7v-56z" />
    <glyph glyph-name="Uring" unicode="&#x16e;" horiz-adv-x="700" 
d="M519 712h105v-370q0 -92 -14 -160t-46.5 -112.5t-85 -66t-129.5 -21.5t-129 21.5t-84 66t-46 112.5t-14 160v370h103v-370q0 -74 8.5 -125t28 -83t52.5 -46.5t81 -14.5t81 14.5t52.5 46.5t28 83t8.5 125v370zM440 846q0 -38 -23 -62t-66 -24q-44 0 -67 24t-23 62t23 62
t67 24q43 0 66 -24t23 -62zM351 810q15 0 24.5 9.5t9.5 26.5q0 16 -9.5 25.5t-24.5 9.5q-16 0 -25.5 -9.5t-9.5 -25.5q0 -17 9.5 -26.5t25.5 -9.5z" />
    <glyph glyph-name="Utilde" unicode="&#x168;" horiz-adv-x="700" 
d="M519 712h105v-370q0 -92 -14 -160t-46.5 -112.5t-85 -66t-129.5 -21.5t-129 21.5t-84 66t-46 112.5t-14 160v370h103v-370q0 -74 8.5 -125t28 -83t52.5 -46.5t81 -14.5t81 14.5t52.5 46.5t28 83t8.5 125v370zM498 889q0 -28 -3.5 -51t-13.5 -39.5t-27 -25.5t-44 -9
q-21 0 -35 6t-24.5 13.5t-20.5 14t-25 6.5t-24 -5t-14.5 -12.5t-7.5 -15t-2 -11.5h-53q0 23 4 44.5t14 38.5t27.5 27.5t44.5 10.5q22 0 35 -5.5t23.5 -12t20 -12t24.5 -5.5t24 5t14.5 12t7.5 14t2 12h53z" />
    <glyph glyph-name="V" unicode="V" horiz-adv-x="622" 
d="M261 0l-259 712h114l198 -575l199 575h107l-260 -712h-99z" />
    <glyph glyph-name="W" unicode="W" horiz-adv-x="975" 
d="M647 0l-164 565l-160 -565h-100l-218 712h114l155 -581l158 581h106l169 -589l155 589h108l-216 -712h-107z" />
    <glyph glyph-name="Wacute" unicode="&#x1e82;" horiz-adv-x="975" 
d="M647 0l-164 565l-160 -565h-100l-218 712h114l155 -581l158 581h106l169 -589l155 589h108l-216 -712h-107zM448 760l77 145h112l-98 -145h-91z" />
    <glyph glyph-name="Wcircumflex" unicode="&#x174;" horiz-adv-x="975" 
d="M647 0l-164 565l-160 -565h-100l-218 712h114l155 -581l158 581h106l169 -589l155 589h108l-216 -712h-107zM555 760l-63 64l-61 -64h-91l103 130h98l104 -130h-90z" />
    <glyph glyph-name="Wdieresis" unicode="&#x1e84;" horiz-adv-x="975" 
d="M647 0l-164 565l-160 -565h-100l-218 712h114l155 -581l158 581h106l169 -589l155 589h108l-216 -712h-107zM357 760v134h100v-134h-100zM528 760v134h100v-134h-100z" />
    <glyph glyph-name="Wgrave" unicode="&#x1e80;" horiz-adv-x="975" 
d="M647 0l-164 565l-160 -565h-100l-218 712h114l155 -581l158 581h106l169 -589l155 589h108l-216 -712h-107zM449 760l-98 145h112l77 -145h-91z" />
    <glyph glyph-name="X" unicode="X" horiz-adv-x="633" 
d="M512 0l-201 283l-197 -283h-113l253 363l-248 349h118l195 -274l191 274h113l-247 -355l254 -357h-118z" />
    <glyph glyph-name="Y" unicode="Y" horiz-adv-x="621" 
d="M264 0v258l-259 454h119l193 -352l184 352h115l-249 -454v-258h-103z" />
    <glyph glyph-name="Yacute" unicode="&#xdd;" horiz-adv-x="621" 
d="M264 0v258l-259 454h119l193 -352l184 352h115l-249 -454v-258h-103zM265 760l77 145h112l-98 -145h-91z" />
    <glyph glyph-name="Ycircumflex" unicode="&#x176;" horiz-adv-x="621" 
d="M264 0v258l-259 454h119l193 -352l184 352h115l-249 -454v-258h-103zM372 760l-63 64l-61 -64h-91l103 130h98l104 -130h-90z" />
    <glyph glyph-name="Ydieresis" unicode="&#x178;" horiz-adv-x="621" 
d="M264 0v258l-259 454h119l193 -352l184 352h115l-249 -454v-258h-103zM174 760v134h100v-134h-100zM345 760v134h100v-134h-100z" />
    <glyph glyph-name="Ygrave" unicode="&#x1ef2;" horiz-adv-x="621" 
d="M264 0v258l-259 454h119l193 -352l184 352h115l-249 -454v-258h-103zM266 760l-98 145h112l77 -145h-91z" />
    <glyph glyph-name="uni0232" unicode="&#x232;" horiz-adv-x="621" 
d="M264 0v258l-259 454h119l193 -352l184 352h115l-249 -454v-258h-103zM179 783v78h261v-78h-261z" />
    <glyph glyph-name="uni1EF8" unicode="&#x1ef8;" horiz-adv-x="621" 
d="M264 0v258l-259 454h119l193 -352l184 352h115l-249 -454v-258h-103zM456 889q0 -28 -3.5 -51t-13.5 -39.5t-27 -25.5t-44 -9q-21 0 -35 6t-24.5 13.5t-20.5 14t-25 6.5t-24 -5t-14.5 -12.5t-7.5 -15t-2 -11.5h-53q0 23 4 44.5t14 38.5t27.5 27.5t44.5 10.5q22 0 35 -5.5
t23.5 -12t20 -12t24.5 -5.5t24 5t14.5 12t7.5 14t2 12h53z" />
    <glyph glyph-name="Z" unicode="Z" horiz-adv-x="579" 
d="M26 3v104l410 512h-390v90h499v-103l-410 -512h413v-91h-522z" />
    <glyph glyph-name="Zacute" unicode="&#x179;" horiz-adv-x="579" 
d="M26 3v104l410 512h-390v90h499v-103l-410 -512h413v-91h-522zM249 760l77 145h112l-98 -145h-91z" />
    <glyph glyph-name="Zcaron" unicode="&#x17d;" horiz-adv-x="579" 
d="M26 3v104l410 512h-390v90h499v-103l-410 -512h413v-91h-522zM244 760l-103 130h90l62 -64l63 64h90l-104 -130h-98z" />
    <glyph glyph-name="Zdotaccent" unicode="&#x17b;" horiz-adv-x="579" 
d="M26 3v104l410 512h-390v90h499v-103l-410 -512h413v-91h-522zM243 760v134h100v-134h-100z" />
    <glyph glyph-name="a" unicode="a" horiz-adv-x="599" 
d="M440 1l-12 68q-26 -38 -71.5 -59t-114.5 -21q-101 0 -143.5 40.5t-42.5 121.5q0 39 10 66.5t30 46.5q22 21 54.5 32t73.5 15.5t89.5 4.5h101.5q-1 51 -5.5 83.5t-23.5 50.5q-25 25 -89 25q-40 0 -65 -10t-39 -25t-19 -32.5t-5 -32.5h-90q0 23 6.5 53t28.5 57t64.5 45.5
t114.5 18.5q63 0 103 -11.5t65 -32.5q37 -32 45.5 -83.5t8.5 -117.5v-37v-127l9 -139h-84zM415 250q-61 0 -110 -1.5t-83 -10.5t-52.5 -29.5t-18.5 -59.5q0 -40 24.5 -65t86.5 -25q54 0 95.5 24t57.5 73v94z" />
    <glyph glyph-name="aacute" unicode="&#xe1;" horiz-adv-x="599" 
d="M440 1l-12 68q-26 -38 -71.5 -59t-114.5 -21q-101 0 -143.5 40.5t-42.5 121.5q0 39 10 66.5t30 46.5q22 21 54.5 32t73.5 15.5t89.5 4.5h101.5q-1 51 -5.5 83.5t-23.5 50.5q-25 25 -89 25q-40 0 -65 -10t-39 -25t-19 -32.5t-5 -32.5h-90q0 23 6.5 53t28.5 57t64.5 45.5
t114.5 18.5q63 0 103 -11.5t65 -32.5q37 -32 45.5 -83.5t8.5 -117.5v-37v-127l9 -139h-84zM415 250q-61 0 -110 -1.5t-83 -10.5t-52.5 -29.5t-18.5 -59.5q0 -40 24.5 -65t86.5 -25q54 0 95.5 24t57.5 73v94zM243 621l77 152h112l-98 -152h-91z" />
    <glyph glyph-name="abreve" unicode="&#x103;" horiz-adv-x="599" 
d="M440 1l-12 68q-26 -38 -71.5 -59t-114.5 -21q-101 0 -143.5 40.5t-42.5 121.5q0 39 10 66.5t30 46.5q22 21 54.5 32t73.5 15.5t89.5 4.5h101.5q-1 51 -5.5 83.5t-23.5 50.5q-25 25 -89 25q-40 0 -65 -10t-39 -25t-19 -32.5t-5 -32.5h-90q0 23 6.5 53t28.5 57t64.5 45.5
t114.5 18.5q63 0 103 -11.5t65 -32.5q37 -32 45.5 -83.5t8.5 -117.5v-37v-127l9 -139h-84zM415 250q-61 0 -110 -1.5t-83 -10.5t-52.5 -29.5t-18.5 -59.5q0 -40 24.5 -65t86.5 -25q54 0 95.5 24t57.5 73v94zM440 749q0 -27 -9.5 -50.5t-28 -41.5t-45 -28.5t-60.5 -10.5
t-60.5 10.5t-45 28.5t-28 41.5t-9.5 50.5h78q0 -19 17.5 -38t47.5 -19q31 0 48.5 19t17.5 38h77z" />
    <glyph glyph-name="acircumflex" unicode="&#xe2;" horiz-adv-x="599" 
d="M440 1l-12 68q-26 -38 -71.5 -59t-114.5 -21q-101 0 -143.5 40.5t-42.5 121.5q0 39 10 66.5t30 46.5q22 21 54.5 32t73.5 15.5t89.5 4.5h101.5q-1 51 -5.5 83.5t-23.5 50.5q-25 25 -89 25q-40 0 -65 -10t-39 -25t-19 -32.5t-5 -32.5h-90q0 23 6.5 53t28.5 57t64.5 45.5
t114.5 18.5q63 0 103 -11.5t65 -32.5q37 -32 45.5 -83.5t8.5 -117.5v-37v-127l9 -139h-84zM415 250q-61 0 -110 -1.5t-83 -10.5t-52.5 -29.5t-18.5 -59.5q0 -40 24.5 -65t86.5 -25q54 0 95.5 24t57.5 73v94zM362 621l-64 82l-63 -82h-96l116 152h85l117 -152h-95z" />
    <glyph glyph-name="adieresis" unicode="&#xe4;" horiz-adv-x="599" 
d="M440 1l-12 68q-26 -38 -71.5 -59t-114.5 -21q-101 0 -143.5 40.5t-42.5 121.5q0 39 10 66.5t30 46.5q22 21 54.5 32t73.5 15.5t89.5 4.5h101.5q-1 51 -5.5 83.5t-23.5 50.5q-25 25 -89 25q-40 0 -65 -10t-39 -25t-19 -32.5t-5 -32.5h-90q0 23 6.5 53t28.5 57t64.5 45.5
t114.5 18.5q63 0 103 -11.5t65 -32.5q37 -32 45.5 -83.5t8.5 -117.5v-37v-127l9 -139h-84zM415 250q-61 0 -110 -1.5t-83 -10.5t-52.5 -29.5t-18.5 -59.5q0 -40 24.5 -65t86.5 -25q54 0 95.5 24t57.5 73v94zM161 622v134h100v-134h-100zM333 622v134h100v-134h-100z" />
    <glyph glyph-name="uni1EA1" unicode="&#x1ea1;" horiz-adv-x="599" 
d="M440 1l-12 68q-26 -38 -71.5 -59t-114.5 -21q-101 0 -143.5 40.5t-42.5 121.5q0 39 10 66.5t30 46.5q22 21 54.5 32t73.5 15.5t89.5 4.5h101.5q-1 51 -5.5 83.5t-23.5 50.5q-25 25 -89 25q-40 0 -65 -10t-39 -25t-19 -32.5t-5 -32.5h-90q0 23 6.5 53t28.5 57t64.5 45.5
t114.5 18.5q63 0 103 -11.5t65 -32.5q37 -32 45.5 -83.5t8.5 -117.5v-37v-127l9 -139h-84zM415 250q-61 0 -110 -1.5t-83 -10.5t-52.5 -29.5t-18.5 -59.5q0 -40 24.5 -65t86.5 -25q54 0 95.5 24t57.5 73v94zM247 -188v127h100v-127h-100z" />
    <glyph glyph-name="agrave" unicode="&#xe0;" horiz-adv-x="599" 
d="M440 1l-12 68q-26 -38 -71.5 -59t-114.5 -21q-101 0 -143.5 40.5t-42.5 121.5q0 39 10 66.5t30 46.5q22 21 54.5 32t73.5 15.5t89.5 4.5h101.5q-1 51 -5.5 83.5t-23.5 50.5q-25 25 -89 25q-40 0 -65 -10t-39 -25t-19 -32.5t-5 -32.5h-90q0 23 6.5 53t28.5 57t64.5 45.5
t114.5 18.5q63 0 103 -11.5t65 -32.5q37 -32 45.5 -83.5t8.5 -117.5v-37v-127l9 -139h-84zM415 250q-61 0 -110 -1.5t-83 -10.5t-52.5 -29.5t-18.5 -59.5q0 -40 24.5 -65t86.5 -25q54 0 95.5 24t57.5 73v94zM249 621l-98 152h112l77 -152h-91z" />
    <glyph glyph-name="amacron" unicode="&#x101;" horiz-adv-x="599" 
d="M440 1l-12 68q-26 -38 -71.5 -59t-114.5 -21q-101 0 -143.5 40.5t-42.5 121.5q0 39 10 66.5t30 46.5q22 21 54.5 32t73.5 15.5t89.5 4.5h101.5q-1 51 -5.5 83.5t-23.5 50.5q-25 25 -89 25q-40 0 -65 -10t-39 -25t-19 -32.5t-5 -32.5h-90q0 23 6.5 53t28.5 57t64.5 45.5
t114.5 18.5q63 0 103 -11.5t65 -32.5q37 -32 45.5 -83.5t8.5 -117.5v-37v-127l9 -139h-84zM415 250q-61 0 -110 -1.5t-83 -10.5t-52.5 -29.5t-18.5 -59.5q0 -40 24.5 -65t86.5 -25q54 0 95.5 24t57.5 73v94zM167 644v78h261v-78h-261z" />
    <glyph glyph-name="aogonek" unicode="&#x105;" horiz-adv-x="599" 
d="M440 1l-12 68q-26 -38 -71.5 -59t-114.5 -21q-101 0 -143.5 40.5t-42.5 121.5q0 39 10 66.5t30 46.5q22 21 54.5 32t73.5 15.5t89.5 4.5h101.5q-1 51 -5.5 83.5t-23.5 50.5q-25 25 -89 25q-40 0 -65 -10t-39 -25t-19 -32.5t-5 -32.5h-90q0 23 6.5 53t28.5 57t64.5 45.5
t114.5 18.5q63 0 103 -11.5t65 -32.5q37 -32 45.5 -83.5t8.5 -117.5v-37v-127l9 -139h-84zM415 250q-61 0 -110 -1.5t-83 -10.5t-52.5 -29.5t-18.5 -59.5q0 -40 24.5 -65t86.5 -25q54 0 95.5 24t57.5 73v94zM528 -170l-6 -4t-18 -8.5t-29 -8.5t-38 -4q-42 0 -61.5 22.5
t-19.5 54.5q0 30 14.5 53.5t31.5 40.5q20 19 47 34l70 -8q-1 -1 -13 -7t-25.5 -18t-24.5 -29t-11 -39q0 -16 9 -26t26 -10q9 0 17.5 2t15.5 4q8 3 15 7v-56z" />
    <glyph glyph-name="aring" unicode="&#xe5;" horiz-adv-x="599" 
d="M440 1l-12 68q-26 -38 -71.5 -59t-114.5 -21q-101 0 -143.5 40.5t-42.5 121.5q0 39 10 66.5t30 46.5q22 21 54.5 32t73.5 15.5t89.5 4.5h101.5q-1 51 -5.5 83.5t-23.5 50.5q-25 25 -89 25q-40 0 -65 -10t-39 -25t-19 -32.5t-5 -32.5h-90q0 23 6.5 53t28.5 57t64.5 45.5
t114.5 18.5q63 0 103 -11.5t65 -32.5q37 -32 45.5 -83.5t8.5 -117.5v-37v-127l9 -139h-84zM415 250q-61 0 -110 -1.5t-83 -10.5t-52.5 -29.5t-18.5 -59.5q0 -40 24.5 -65t86.5 -25q54 0 95.5 24t57.5 73v94zM399 714q0 -19 -6 -37t-18.5 -31.5t-32 -22t-45.5 -8.5
q-27 0 -46 8.5t-32 22t-19 31.5t-6 37t6 36.5t19 31t32 22t46 8.5q26 0 45.5 -8.5t32 -22t18.5 -31t6 -36.5zM297 678q15 0 24.5 9.5t9.5 26.5q0 16 -9.5 25.5t-24.5 9.5q-16 0 -25.5 -9.5t-9.5 -25.5q0 -17 9.5 -26.5t25.5 -9.5z" />
    <glyph glyph-name="aringacute" unicode="&#x1fb;" horiz-adv-x="599" 
d="M440 1l-12 68q-26 -38 -71.5 -59t-114.5 -21q-101 0 -143.5 40.5t-42.5 121.5q0 39 10 66.5t30 46.5q22 21 54.5 32t73.5 15.5t89.5 4.5h101.5q-1 51 -5.5 83.5t-23.5 50.5q-25 25 -89 25q-40 0 -65 -10t-39 -25t-19 -32.5t-5 -32.5h-90q0 23 6.5 53t28.5 57t64.5 45.5
t114.5 18.5q63 0 103 -11.5t65 -32.5q37 -32 45.5 -83.5t8.5 -117.5v-37v-127l9 -139h-84zM415 250q-61 0 -110 -1.5t-83 -10.5t-52.5 -29.5t-18.5 -59.5q0 -40 24.5 -65t86.5 -25q54 0 95.5 24t57.5 73v94zM399 714q0 -19 -6 -37t-18.5 -31.5t-32 -22t-45.5 -8.5
q-27 0 -46 8.5t-32 22t-19 31.5t-6 37t6 36.5t19 31t32 22t46 8.5q26 0 45.5 -8.5t32 -22t18.5 -31t6 -36.5zM297 678q15 0 24.5 9.5t9.5 26.5q0 16 -9.5 25.5t-24.5 9.5q-16 0 -25.5 -9.5t-9.5 -25.5q0 -17 9.5 -26.5t25.5 -9.5zM246 859l77 152h112l-98 -152h-91z" />
    <glyph glyph-name="atilde" unicode="&#xe3;" horiz-adv-x="599" 
d="M440 1l-12 68q-26 -38 -71.5 -59t-114.5 -21q-101 0 -143.5 40.5t-42.5 121.5q0 39 10 66.5t30 46.5q22 21 54.5 32t73.5 15.5t89.5 4.5h101.5q-1 51 -5.5 83.5t-23.5 50.5q-25 25 -89 25q-40 0 -65 -10t-39 -25t-19 -32.5t-5 -32.5h-90q0 23 6.5 53t28.5 57t64.5 45.5
t114.5 18.5q63 0 103 -11.5t65 -32.5q37 -32 45.5 -83.5t8.5 -117.5v-37v-127l9 -139h-84zM415 250q-61 0 -110 -1.5t-83 -10.5t-52.5 -29.5t-18.5 -59.5q0 -40 24.5 -65t86.5 -25q54 0 95.5 24t57.5 73v94zM444 743q0 -56 -17 -87t-71 -31q-21 0 -35 6t-24.5 13.5t-20.5 14
t-25 6.5t-24 -5t-14.5 -12.5t-7.5 -15t-2 -11.5h-53q0 23 4 43.5t14 36.5t27.5 25t44.5 9q22 0 35 -5.5t23.5 -12.5t20 -12.5t24.5 -5.5t24 5t14.5 12.5t7.5 14.5t2 12h53z" />
    <glyph glyph-name="ae" unicode="&#xe6;" horiz-adv-x="944" 
d="M793 252l-285 1q1 -45 8 -80.5t23 -59.5t42.5 -36.5t66.5 -12.5t66.5 11t42.5 27t22.5 33.5t6.5 31.5h101q0 -25 -10.5 -56t-37.5 -58.5t-73 -46.5t-117 -19q-82 0 -133 26.5t-77 77.5q-23 -47 -70.5 -74.5t-126.5 -27.5q-101 0 -143.5 42t-42.5 123q0 63 26.5 97
t73.5 49.5t111.5 17.5t140.5 2q2 17 4 33t6 31q-8 48 -34 69.5t-87 21.5q-40 0 -65 -10t-39 -25t-19 -32.5t-5 -32.5h-90q0 23 6.5 53t28.5 57t64.5 45.5t114.5 18.5q74 0 111.5 -20t54.5 -53q29 37 75 56.5t115 19.5q128 0 184.5 -72.5t56.5 -227.5h-97zM415 163
q-9 40 -9 91q-59 0 -106.5 -1.5t-80.5 -11.5t-50.5 -30.5t-17.5 -58.5q0 -40 24.5 -66.5t86.5 -26.5q56 0 97.5 25.5t55.5 78.5zM789 325q-8 77 -41 114.5t-100 37.5q-70 0 -100.5 -40.5t-37.5 -111.5h279z" />
    <glyph glyph-name="aeacute" unicode="&#x1fd;" horiz-adv-x="944" 
d="M793 252l-285 1q1 -45 8 -80.5t23 -59.5t42.5 -36.5t66.5 -12.5t66.5 11t42.5 27t22.5 33.5t6.5 31.5h101q0 -25 -10.5 -56t-37.5 -58.5t-73 -46.5t-117 -19q-82 0 -133 26.5t-77 77.5q-23 -47 -70.5 -74.5t-126.5 -27.5q-101 0 -143.5 42t-42.5 123q0 63 26.5 97
t73.5 49.5t111.5 17.5t140.5 2q2 17 4 33t6 31q-8 48 -34 69.5t-87 21.5q-40 0 -65 -10t-39 -25t-19 -32.5t-5 -32.5h-90q0 23 6.5 53t28.5 57t64.5 45.5t114.5 18.5q74 0 111.5 -20t54.5 -53q29 37 75 56.5t115 19.5q128 0 184.5 -72.5t56.5 -227.5h-97zM415 163
q-9 40 -9 91q-59 0 -106.5 -1.5t-80.5 -11.5t-50.5 -30.5t-17.5 -58.5q0 -40 24.5 -66.5t86.5 -26.5q56 0 97.5 25.5t55.5 78.5zM789 325q-8 77 -41 114.5t-100 37.5q-70 0 -100.5 -40.5t-37.5 -111.5h279zM428 621l77 152h112l-98 -152h-91z" />
    <glyph glyph-name="b" unicode="b" horiz-adv-x="628" 
d="M79 0l8 146v614h100v-293q10 13 26 27.5t37.5 26.5t48.5 20t60 8q58 0 99.5 -19.5t67 -55.5t37.5 -88t12 -118q0 -65 -12 -116.5t-37.5 -87.5t-67 -55t-99.5 -19q-74 0 -117 24.5t-66 59.5l-13 -74h-84zM187 180q5 -18 15.5 -37.5t29 -35t45 -26t63.5 -10.5
q69 0 100.5 50t31.5 147t-31.5 148.5t-100.5 51.5q-33 0 -58.5 -10.5t-44 -26t-31 -33t-19.5 -31.5v-187z" />
    <glyph glyph-name="c" unicode="c" horiz-adv-x="577" 
d="M529 181q-4 -89 -59 -141.5t-172 -52.5q-70 0 -117 20t-75 57t-40 89t-12 116t12 116t40 89t75 57t117 20q60 0 102.5 -14.5t70.5 -41.5t41.5 -66t15.5 -88h-98q-2 63 -36 96t-96 33q-40 0 -67 -13t-43.5 -38t-24 -63t-7.5 -87q0 -50 7.5 -87.5t24 -62.5t43.5 -37.5
t67 -12.5q60 0 95 29.5t36 82.5h100z" />
    <glyph glyph-name="cacute" unicode="&#x107;" horiz-adv-x="577" 
d="M529 181q-4 -89 -59 -141.5t-172 -52.5q-70 0 -117 20t-75 57t-40 89t-12 116t12 116t40 89t75 57t117 20q60 0 102.5 -14.5t70.5 -41.5t41.5 -66t15.5 -88h-98q-2 63 -36 96t-96 33q-40 0 -67 -13t-43.5 -38t-24 -63t-7.5 -87q0 -50 7.5 -87.5t24 -62.5t43.5 -37.5
t67 -12.5q60 0 95 29.5t36 82.5h100zM242 621l77 152h112l-98 -152h-91z" />
    <glyph glyph-name="ccaron" unicode="&#x10d;" horiz-adv-x="577" 
d="M529 181q-4 -89 -59 -141.5t-172 -52.5q-70 0 -117 20t-75 57t-40 89t-12 116t12 116t40 89t75 57t117 20q60 0 102.5 -14.5t70.5 -41.5t41.5 -66t15.5 -88h-98q-2 63 -36 96t-96 33q-40 0 -67 -13t-43.5 -38t-24 -63t-7.5 -87q0 -50 7.5 -87.5t24 -62.5t43.5 -37.5
t67 -12.5q60 0 95 29.5t36 82.5h100zM254 621l-116 152h96l63 -82l63 82h96l-117 -152h-85z" />
    <glyph glyph-name="ccedilla" unicode="&#xe7;" horiz-adv-x="577" 
d="M529 181q-4 -89 -59 -141.5t-172 -52.5q-70 0 -117 20t-75 57t-40 89t-12 116t12 116t40 89t75 57t117 20q60 0 102.5 -14.5t70.5 -41.5t41.5 -66t15.5 -88h-98q-2 63 -36 96t-96 33q-40 0 -67 -13t-43.5 -38t-24 -63t-7.5 -87q0 -50 7.5 -87.5t24 -62.5t43.5 -37.5
t67 -12.5q60 0 95 29.5t36 82.5h100zM202 -167q6 -2 15 -3q15 -3 46 -3q29 0 44 9.5t15 32.5q0 15 -9.5 23t-24.5 12.5t-32.5 5.5t-32.5 1h-3l48 91h81l-32 -55q38 -3 64 -22t26 -62q0 -21 -6.5 -39t-21 -31t-38.5 -20.5t-59 -7.5q-45 0 -63 3q-11 1 -17 3v62z" />
    <glyph glyph-name="ccircumflex" unicode="&#x109;" horiz-adv-x="577" 
d="M529 181q-4 -89 -59 -141.5t-172 -52.5q-70 0 -117 20t-75 57t-40 89t-12 116t12 116t40 89t75 57t117 20q60 0 102.5 -14.5t70.5 -41.5t41.5 -66t15.5 -88h-98q-2 63 -36 96t-96 33q-40 0 -67 -13t-43.5 -38t-24 -63t-7.5 -87q0 -50 7.5 -87.5t24 -62.5t43.5 -37.5
t67 -12.5q60 0 95 29.5t36 82.5h100zM361 621l-64 82l-63 -82h-96l116 152h85l117 -152h-95z" />
    <glyph glyph-name="cdotaccent" unicode="&#x10b;" horiz-adv-x="577" 
d="M529 181q-4 -89 -59 -141.5t-172 -52.5q-70 0 -117 20t-75 57t-40 89t-12 116t12 116t40 89t75 57t117 20q60 0 102.5 -14.5t70.5 -41.5t41.5 -66t15.5 -88h-98q-2 63 -36 96t-96 33q-40 0 -67 -13t-43.5 -38t-24 -63t-7.5 -87q0 -50 7.5 -87.5t24 -62.5t43.5 -37.5
t67 -12.5q60 0 95 29.5t36 82.5h100zM246 622v134h100v-134h-100z" />
    <glyph glyph-name="d" unicode="d" horiz-adv-x="628" 
d="M466 0l-13 74q-23 -35 -66.5 -59.5t-116.5 -24.5q-59 0 -100 19t-66.5 55t-37.5 87.5t-12 116.5q0 66 12 118t37.5 88t66.5 55.5t100 19.5q33 0 60 -7.5t48.5 -18.5t37.5 -24t26 -25v286h100v-614l8 -146h-84zM442 365q-7 14 -19 32t-30.5 33.5t-44 26.5t-59.5 11
q-69 0 -101 -51.5t-32 -148.5t32 -147t101 -50q37 0 63.5 10.5t45 26.5t29 35.5t15.5 37.5v184z" />
    <glyph glyph-name="eth" unicode="&#xf0;" horiz-adv-x="599" 
d="M545 290q1 -5 1 -11v-11q0 -63 -12 -115t-40.5 -89t-76 -57t-117.5 -20q-71 0 -118 20t-75.5 57t-40.5 89t-12 115q0 58 12 108t40.5 86t75.5 56.5t118 20.5q23 0 44 -6.5t38 -16.5q-26 54 -57 100l-87 -46l-29 48l83 44q-18 23 -33.5 41t-27.5 31q-14 15 -26 26h126
q6 -6 13 -14q6 -7 14.5 -16.5t19.5 -22.5l80 42l29 -48l-75 -40q21 -31 43.5 -70.5t41 -86.5t31.5 -100.5t16 -113.5h1zM442 290q-1 20 -3.5 39t-6.5 38v-1q-4 15 -14.5 33.5t-27 34.5t-39 26.5t-52.5 10.5q-81 0 -112 -51.5t-31 -151.5q0 -101 31 -150.5t112 -49.5
q80 0 111.5 48.5t32.5 146.5v13t-1 13v1z" />
    <glyph glyph-name="dcaron" unicode="&#x10f;" horiz-adv-x="628" 
d="M466 0l-13 74q-23 -35 -66.5 -59.5t-116.5 -24.5q-59 0 -100 19t-66.5 55t-37.5 87.5t-12 116.5q0 66 12 118t37.5 88t66.5 55.5t100 19.5q33 0 60 -7.5t48.5 -18.5t37.5 -24t26 -25v286h100v-614l8 -146h-84zM442 365q-7 14 -19 32t-30.5 33.5t-44 26.5t-59.5 11
q-69 0 -101 -51.5t-32 -148.5t32 -147t101 -50q37 0 63.5 10.5t45 26.5t29 35.5t15.5 37.5v184zM559 583l64 177h98l-85 -177h-77z" />
    <glyph glyph-name="dcroat" unicode="&#x111;" horiz-adv-x="628" 
d="M466 0l-13 74q-23 -35 -66.5 -59.5t-116.5 -24.5q-59 0 -100 19t-66.5 55t-37.5 87.5t-12 116.5q0 66 12 118t37.5 88t66.5 55.5t100 19.5q33 0 60 -7.5t48.5 -18.5t37.5 -24t26 -25v286h100v-614l8 -146h-84zM442 365q-7 14 -19 32t-30.5 33.5t-44 26.5t-59.5 11
q-69 0 -101 -51.5t-32 -148.5t32 -147t101 -50q37 0 63.5 10.5t45 26.5t29 35.5t15.5 37.5v184zM304 587v67h304v-67h-304z" />
    <glyph glyph-name="e" unicode="e" horiz-adv-x="592" 
d="M441 256l-285 1q0 -46 7 -82t23 -60.5t42.5 -37.5t67.5 -13q40 0 66.5 11t42.5 27t22.5 33.5t6.5 31.5h101q0 -25 -10.5 -56t-37.5 -58.5t-73 -46.5t-117 -19q-68 0 -114.5 18.5t-75 54.5t-41 88t-12.5 119t12.5 119.5t41 89.5t75 56.5t114.5 19.5q128 0 184.5 -72
t56.5 -224h-97zM437 329q-9 74 -41.5 111t-99.5 37q-69 0 -99.5 -39.5t-37.5 -108.5h278z" />
    <glyph glyph-name="eacute" unicode="&#xe9;" horiz-adv-x="592" 
d="M441 256l-285 1q0 -46 7 -82t23 -60.5t42.5 -37.5t67.5 -13q40 0 66.5 11t42.5 27t22.5 33.5t6.5 31.5h101q0 -25 -10.5 -56t-37.5 -58.5t-73 -46.5t-117 -19q-68 0 -114.5 18.5t-75 54.5t-41 88t-12.5 119t12.5 119.5t41 89.5t75 56.5t114.5 19.5q128 0 184.5 -72
t56.5 -224h-97zM437 329q-9 74 -41.5 111t-99.5 37q-69 0 -99.5 -39.5t-37.5 -108.5h278zM243 621l77 152h112l-98 -152h-91z" />
    <glyph glyph-name="ebreve" unicode="&#x115;" horiz-adv-x="592" 
d="M441 256l-285 1q0 -46 7 -82t23 -60.5t42.5 -37.5t67.5 -13q40 0 66.5 11t42.5 27t22.5 33.5t6.5 31.5h101q0 -25 -10.5 -56t-37.5 -58.5t-73 -46.5t-117 -19q-68 0 -114.5 18.5t-75 54.5t-41 88t-12.5 119t12.5 119.5t41 89.5t75 56.5t114.5 19.5q128 0 184.5 -72
t56.5 -224h-97zM437 329q-9 74 -41.5 111t-99.5 37q-69 0 -99.5 -39.5t-37.5 -108.5h278zM440 749q0 -27 -9.5 -50.5t-28 -41.5t-45 -28.5t-60.5 -10.5t-60.5 10.5t-45 28.5t-28 41.5t-9.5 50.5h78q0 -19 17.5 -38t47.5 -19q31 0 48.5 19t17.5 38h77z" />
    <glyph glyph-name="ecaron" unicode="&#x11b;" horiz-adv-x="592" 
d="M441 256l-285 1q0 -46 7 -82t23 -60.5t42.5 -37.5t67.5 -13q40 0 66.5 11t42.5 27t22.5 33.5t6.5 31.5h101q0 -25 -10.5 -56t-37.5 -58.5t-73 -46.5t-117 -19q-68 0 -114.5 18.5t-75 54.5t-41 88t-12.5 119t12.5 119.5t41 89.5t75 56.5t114.5 19.5q128 0 184.5 -72
t56.5 -224h-97zM437 329q-9 74 -41.5 111t-99.5 37q-69 0 -99.5 -39.5t-37.5 -108.5h278zM255 621l-116 152h96l63 -82l63 82h96l-117 -152h-85z" />
    <glyph glyph-name="ecircumflex" unicode="&#xea;" horiz-adv-x="592" 
d="M441 256l-285 1q0 -46 7 -82t23 -60.5t42.5 -37.5t67.5 -13q40 0 66.5 11t42.5 27t22.5 33.5t6.5 31.5h101q0 -25 -10.5 -56t-37.5 -58.5t-73 -46.5t-117 -19q-68 0 -114.5 18.5t-75 54.5t-41 88t-12.5 119t12.5 119.5t41 89.5t75 56.5t114.5 19.5q128 0 184.5 -72
t56.5 -224h-97zM437 329q-9 74 -41.5 111t-99.5 37q-69 0 -99.5 -39.5t-37.5 -108.5h278zM362 621l-64 82l-63 -82h-96l116 152h85l117 -152h-95z" />
    <glyph glyph-name="edieresis" unicode="&#xeb;" horiz-adv-x="592" 
d="M441 256l-285 1q0 -46 7 -82t23 -60.5t42.5 -37.5t67.5 -13q40 0 66.5 11t42.5 27t22.5 33.5t6.5 31.5h101q0 -25 -10.5 -56t-37.5 -58.5t-73 -46.5t-117 -19q-68 0 -114.5 18.5t-75 54.5t-41 88t-12.5 119t12.5 119.5t41 89.5t75 56.5t114.5 19.5q128 0 184.5 -72
t56.5 -224h-97zM437 329q-9 74 -41.5 111t-99.5 37q-69 0 -99.5 -39.5t-37.5 -108.5h278zM161 622v134h100v-134h-100zM333 622v134h100v-134h-100z" />
    <glyph glyph-name="edotaccent" unicode="&#x117;" horiz-adv-x="592" 
d="M441 256l-285 1q0 -46 7 -82t23 -60.5t42.5 -37.5t67.5 -13q40 0 66.5 11t42.5 27t22.5 33.5t6.5 31.5h101q0 -25 -10.5 -56t-37.5 -58.5t-73 -46.5t-117 -19q-68 0 -114.5 18.5t-75 54.5t-41 88t-12.5 119t12.5 119.5t41 89.5t75 56.5t114.5 19.5q128 0 184.5 -72
t56.5 -224h-97zM437 329q-9 74 -41.5 111t-99.5 37q-69 0 -99.5 -39.5t-37.5 -108.5h278zM247 622v134h100v-134h-100z" />
    <glyph glyph-name="uni1EB9" unicode="&#x1eb9;" horiz-adv-x="592" 
d="M441 256l-285 1q0 -46 7 -82t23 -60.5t42.5 -37.5t67.5 -13q40 0 66.5 11t42.5 27t22.5 33.5t6.5 31.5h101q0 -25 -10.5 -56t-37.5 -58.5t-73 -46.5t-117 -19q-68 0 -114.5 18.5t-75 54.5t-41 88t-12.5 119t12.5 119.5t41 89.5t75 56.5t114.5 19.5q128 0 184.5 -72
t56.5 -224h-97zM437 329q-9 74 -41.5 111t-99.5 37q-69 0 -99.5 -39.5t-37.5 -108.5h278zM248 -188v127h100v-127h-100z" />
    <glyph glyph-name="egrave" unicode="&#xe8;" horiz-adv-x="592" 
d="M441 256l-285 1q0 -46 7 -82t23 -60.5t42.5 -37.5t67.5 -13q40 0 66.5 11t42.5 27t22.5 33.5t6.5 31.5h101q0 -25 -10.5 -56t-37.5 -58.5t-73 -46.5t-117 -19q-68 0 -114.5 18.5t-75 54.5t-41 88t-12.5 119t12.5 119.5t41 89.5t75 56.5t114.5 19.5q128 0 184.5 -72
t56.5 -224h-97zM437 329q-9 74 -41.5 111t-99.5 37q-69 0 -99.5 -39.5t-37.5 -108.5h278zM249 621l-98 152h112l77 -152h-91z" />
    <glyph glyph-name="emacron" unicode="&#x113;" horiz-adv-x="592" 
d="M441 256l-285 1q0 -46 7 -82t23 -60.5t42.5 -37.5t67.5 -13q40 0 66.5 11t42.5 27t22.5 33.5t6.5 31.5h101q0 -25 -10.5 -56t-37.5 -58.5t-73 -46.5t-117 -19q-68 0 -114.5 18.5t-75 54.5t-41 88t-12.5 119t12.5 119.5t41 89.5t75 56.5t114.5 19.5q128 0 184.5 -72
t56.5 -224h-97zM437 329q-9 74 -41.5 111t-99.5 37q-69 0 -99.5 -39.5t-37.5 -108.5h278zM167 644v78h261v-78h-261z" />
    <glyph glyph-name="eogonek" unicode="&#x119;" horiz-adv-x="592" 
d="M441 256l-285 1q0 -46 7 -82t23 -60.5t42.5 -37.5t67.5 -13q40 0 66.5 11t42.5 27t22.5 33.5t6.5 31.5h101q0 -25 -10.5 -56t-37.5 -58.5t-73 -46.5t-117 -19q-68 0 -114.5 18.5t-75 54.5t-41 88t-12.5 119t12.5 119.5t41 89.5t75 56.5t114.5 19.5q128 0 184.5 -72
t56.5 -224h-97zM437 329q-9 74 -41.5 111t-99.5 37q-69 0 -99.5 -39.5t-37.5 -108.5h278zM463 -146l-6 -4t-18 -8.5t-29 -8.5t-38 -4q-42 0 -61.5 22.5t-19.5 54.5q0 30 14.5 53.5t31.5 40.5q20 19 47 34l70 -8q-1 -1 -13 -7t-25.5 -18t-24.5 -29t-11 -39q0 -16 9 -26
t26 -10q9 0 17.5 2t15.5 4q8 3 15 7v-56z" />
    <glyph glyph-name="uni1EBD" unicode="&#x1ebd;" horiz-adv-x="592" 
d="M441 256l-285 1q0 -46 7 -82t23 -60.5t42.5 -37.5t67.5 -13q40 0 66.5 11t42.5 27t22.5 33.5t6.5 31.5h101q0 -25 -10.5 -56t-37.5 -58.5t-73 -46.5t-117 -19q-68 0 -114.5 18.5t-75 54.5t-41 88t-12.5 119t12.5 119.5t41 89.5t75 56.5t114.5 19.5q128 0 184.5 -72
t56.5 -224h-97zM437 329q-9 74 -41.5 111t-99.5 37q-69 0 -99.5 -39.5t-37.5 -108.5h278zM444 743q0 -56 -17 -87t-71 -31q-21 0 -35 6t-24.5 13.5t-20.5 14t-25 6.5t-24 -5t-14.5 -12.5t-7.5 -15t-2 -11.5h-53q0 23 4 43.5t14 36.5t27.5 25t44.5 9q22 0 35 -5.5t23.5 -12.5
t20 -12.5t24.5 -5.5t24 5t14.5 12.5t7.5 14.5t2 12h53z" />
    <glyph glyph-name="f" unicode="f" horiz-adv-x="334" 
d="M94 0v458h-74v81h74v14q0 45 5.5 83.5t23.5 67.5t52 45.5t92 16.5h56v-81h-43q-49 0 -67.5 -29.5t-18.5 -102.5v-14h127v-81h-127v-458h-100z" />
    <glyph glyph-name="g" unicode="g" horiz-adv-x="625" 
d="M443 60q-24 -30 -65.5 -50t-107.5 -20q-59 0 -100 19t-66.5 55t-37.5 87.5t-12 116.5q0 66 12 118t37.5 88t66.5 55.5t100 19.5q38 0 68 -10.5t53 -26t38 -32t23 -28.5l14 87h84l-7 -150v-390q0 -41 -4 -83t-27.5 -77t-73.5 -57t-142 -22q-77 0 -120.5 23.5t-64.5 55.5
q-20 31 -25 61t-5 46h93q0 -3 1 -20.5t12.5 -37t37.5 -35.5t77 -16q39 0 64.5 8t41.5 22q24 22 29.5 56t5.5 75v62zM443 365q-7 13 -19 31t-30.5 34t-44.5 27t-60 11q-69 0 -101 -51.5t-32 -148.5t32 -147t101 -50q38 0 65 11t45.5 28t28.5 37t15 39v179z" />
    <glyph glyph-name="gbreve" unicode="&#x11f;" horiz-adv-x="625" 
d="M443 60q-24 -30 -65.5 -50t-107.5 -20q-59 0 -100 19t-66.5 55t-37.5 87.5t-12 116.5q0 66 12 118t37.5 88t66.5 55.5t100 19.5q38 0 68 -10.5t53 -26t38 -32t23 -28.5l14 87h84l-7 -150v-390q0 -41 -4 -83t-27.5 -77t-73.5 -57t-142 -22q-77 0 -120.5 23.5t-64.5 55.5
q-20 31 -25 61t-5 46h93q0 -3 1 -20.5t12.5 -37t37.5 -35.5t77 -16q39 0 64.5 8t41.5 22q24 22 29.5 56t5.5 75v62zM443 365q-7 13 -19 31t-30.5 34t-44.5 27t-60 11q-69 0 -101 -51.5t-32 -148.5t32 -147t101 -50q38 0 65 11t45.5 28t28.5 37t15 39v179zM451 749
q0 -27 -9.5 -50.5t-28 -41.5t-45 -28.5t-60.5 -10.5t-60.5 10.5t-45 28.5t-28 41.5t-9.5 50.5h78q0 -19 17.5 -38t47.5 -19q31 0 48.5 19t17.5 38h77z" />
    <glyph glyph-name="gcaron" unicode="&#x1e7;" horiz-adv-x="625" 
d="M443 60q-24 -30 -65.5 -50t-107.5 -20q-59 0 -100 19t-66.5 55t-37.5 87.5t-12 116.5q0 66 12 118t37.5 88t66.5 55.5t100 19.5q38 0 68 -10.5t53 -26t38 -32t23 -28.5l14 87h84l-7 -150v-390q0 -41 -4 -83t-27.5 -77t-73.5 -57t-142 -22q-77 0 -120.5 23.5t-64.5 55.5
q-20 31 -25 61t-5 46h93q0 -3 1 -20.5t12.5 -37t37.5 -35.5t77 -16q39 0 64.5 8t41.5 22q24 22 29.5 56t5.5 75v62zM443 365q-7 13 -19 31t-30.5 34t-44.5 27t-60 11q-69 0 -101 -51.5t-32 -148.5t32 -147t101 -50q38 0 65 11t45.5 28t28.5 37t15 39v179zM266 621l-116 152
h96l63 -82l63 82h96l-117 -152h-85z" />
    <glyph glyph-name="gcircumflex" unicode="&#x11d;" horiz-adv-x="625" 
d="M443 60q-24 -30 -65.5 -50t-107.5 -20q-59 0 -100 19t-66.5 55t-37.5 87.5t-12 116.5q0 66 12 118t37.5 88t66.5 55.5t100 19.5q38 0 68 -10.5t53 -26t38 -32t23 -28.5l14 87h84l-7 -150v-390q0 -41 -4 -83t-27.5 -77t-73.5 -57t-142 -22q-77 0 -120.5 23.5t-64.5 55.5
q-20 31 -25 61t-5 46h93q0 -3 1 -20.5t12.5 -37t37.5 -35.5t77 -16q39 0 64.5 8t41.5 22q24 22 29.5 56t5.5 75v62zM443 365q-7 13 -19 31t-30.5 34t-44.5 27t-60 11q-69 0 -101 -51.5t-32 -148.5t32 -147t101 -50q38 0 65 11t45.5 28t28.5 37t15 39v179zM373 621l-64 82
l-63 -82h-96l116 152h85l117 -152h-95z" />
    <glyph glyph-name="gcommaaccent" unicode="&#x123;" horiz-adv-x="625" 
d="M443 60q-24 -30 -65.5 -50t-107.5 -20q-59 0 -100 19t-66.5 55t-37.5 87.5t-12 116.5q0 66 12 118t37.5 88t66.5 55.5t100 19.5q38 0 68 -10.5t53 -26t38 -32t23 -28.5l14 87h84l-7 -150v-390q0 -41 -4 -83t-27.5 -77t-73.5 -57t-142 -22q-77 0 -120.5 23.5t-64.5 55.5
q-20 31 -25 61t-5 46h93q0 -3 1 -20.5t12.5 -37t37.5 -35.5t77 -16q39 0 64.5 8t41.5 22q24 22 29.5 56t5.5 75v62zM443 365q-7 13 -19 31t-30.5 34t-44.5 27t-60 11q-69 0 -101 -51.5t-32 -148.5t32 -147t101 -50q38 0 65 11t45.5 28t28.5 37t15 39v179zM227 586q0 13 3 31
q2 15 6 37t12 51q8 30 18 53.5t18 40.5q10 19 20 35h89q-9 -18 -17 -39q-8 -18 -15.5 -43t-13.5 -53q-7 -29 -10 -50l-5 -35q-2 -17 -2 -28h-103z" />
    <glyph glyph-name="gdotaccent" unicode="&#x121;" horiz-adv-x="625" 
d="M443 60q-24 -30 -65.5 -50t-107.5 -20q-59 0 -100 19t-66.5 55t-37.5 87.5t-12 116.5q0 66 12 118t37.5 88t66.5 55.5t100 19.5q38 0 68 -10.5t53 -26t38 -32t23 -28.5l14 87h84l-7 -150v-390q0 -41 -4 -83t-27.5 -77t-73.5 -57t-142 -22q-77 0 -120.5 23.5t-64.5 55.5
q-20 31 -25 61t-5 46h93q0 -3 1 -20.5t12.5 -37t37.5 -35.5t77 -16q39 0 64.5 8t41.5 22q24 22 29.5 56t5.5 75v62zM443 365q-7 13 -19 31t-30.5 34t-44.5 27t-60 11q-69 0 -101 -51.5t-32 -148.5t32 -147t101 -50q38 0 65 11t45.5 28t28.5 37t15 39v179zM258 622v134h100
v-134h-100z" />
    <glyph glyph-name="h" unicode="h" horiz-adv-x="626" 
d="M446 0v148v56t0.5 50.5t0.5 38v19.5q0 34 -4.5 62t-17 48t-33.5 30.5t-54 10.5q-37 0 -64 -14t-46.5 -33.5t-31 -40.5t-17.5 -34v-90v-78.5v-79.5v-93h-100v760h98l1 -309q9 14 25 31.5t38 32.5t51 25.5t65 10.5q50 0 86 -11.5t59 -38.5t34 -71t11 -109v-21.5t-0.5 -39.5
t-0.5 -51.5v-57.5v-151h-100z" />
    <glyph glyph-name="hbar" unicode="&#x127;" horiz-adv-x="626" 
d="M446 0v148v56t0.5 50.5t0.5 38v19.5q0 34 -4.5 62t-17 48t-33.5 30.5t-54 10.5q-37 0 -64 -14t-46.5 -33.5t-31 -40.5t-17.5 -34v-90v-78.5v-79.5v-93h-100v760h98l1 -309q9 14 25 31.5t38 32.5t51 25.5t65 10.5q50 0 86 -11.5t59 -38.5t34 -71t11 -109v-21.5t-0.5 -39.5
t-0.5 -51.5v-57.5v-151h-100zM13 591v67h304v-67h-304z" />
    <glyph glyph-name="hcircumflex" unicode="&#x125;" horiz-adv-x="626" 
d="M446 0v148v56t0.5 50.5t0.5 38v19.5q0 34 -4.5 62t-17 48t-33.5 30.5t-54 10.5q-37 0 -64 -14t-46.5 -33.5t-31 -40.5t-17.5 -34v-90v-78.5v-79.5v-93h-100v760h98l1 -309q9 14 25 31.5t38 32.5t51 25.5t65 10.5q50 0 86 -11.5t59 -38.5t34 -71t11 -109v-21.5t-0.5 -39.5
t-0.5 -51.5v-57.5v-151h-100zM191 795l-63 64l-61 -64h-91l103 130h98l104 -130h-90z" />
    <glyph glyph-name="i" unicode="i" horiz-adv-x="242" 
d="M69 0v539h100v-539h-100zM71 622v134h100v-134h-100z" />
    <glyph glyph-name="dotlessi" unicode="&#x131;" horiz-adv-x="242" 
d="M69 0v539h100v-539h-100z" />
    <glyph glyph-name="iacute" unicode="&#xed;" horiz-adv-x="242" 
d="M69 0v539h100v-539h-100zM67 621l77 152h112l-98 -152h-91z" />
    <glyph glyph-name="ibreve" unicode="&#x12d;" horiz-adv-x="242" 
d="M69 0v539h100v-539h-100zM264 749q0 -27 -9.5 -50.5t-28 -41.5t-45 -28.5t-60.5 -10.5t-60.5 10.5t-45 28.5t-28 41.5t-9.5 50.5h78q0 -19 17.5 -38t47.5 -19q31 0 48.5 19t17.5 38h77z" />
    <glyph glyph-name="icircumflex" unicode="&#xee;" horiz-adv-x="242" 
d="M69 0v539h100v-539h-100zM186 621l-64 82l-63 -82h-96l116 152h85l117 -152h-95z" />
    <glyph glyph-name="idieresis" unicode="&#xef;" horiz-adv-x="242" 
d="M69 0v539h100v-539h-100zM-15 622v134h100v-134h-100zM157 622v134h100v-134h-100z" />
    <glyph glyph-name="i.loclTRK" horiz-adv-x="242" 
d="M69 0v539h100v-539h-100zM71 622v134h100v-134h-100z" />
    <glyph glyph-name="uni1ECB" unicode="&#x1ecb;" horiz-adv-x="242" 
d="M71 0v539h100v-539h-100zM71 622v134h100v-134h-100zM71 -200v127h100v-127h-100z" />
    <glyph glyph-name="igrave" unicode="&#xec;" horiz-adv-x="242" 
d="M69 0v539h100v-539h-100zM73 621l-98 152h112l77 -152h-91z" />
    <glyph glyph-name="ij" unicode="&#x133;" horiz-adv-x="509" 
d="M69 0v539h100v-539h-100zM71 622v134h100v-134h-100zM210 -120q44 0 68 8t35.5 26.5t13.5 49t2 75.5v500h100v-500q0 -72 -6.5 -119t-29.5 -74.5t-66.5 -39t-116.5 -11.5v85zM328 622v134h100v-134h-100z" />
    <glyph glyph-name="imacron" unicode="&#x12b;" horiz-adv-x="242" 
d="M69 0v539h100v-539h-100zM-9 644v78h261v-78h-261z" />
    <glyph glyph-name="iogonek" unicode="&#x12f;" horiz-adv-x="242" 
d="M69 0v539h100v-539h-100zM71 622v134h100v-134h-100zM158 -171l-6 -4t-18 -8.5t-29 -8.5t-38 -4q-42 0 -61.5 22.5t-19.5 54.5q0 30 14.5 53.5t31.5 40.5q20 19 47 34l70 -8q-1 -1 -13 -7t-25.5 -18t-24.5 -29t-11 -39q0 -16 9 -26t26 -10q9 0 17.5 2t15.5 4q8 3 15 7
v-56z" />
    <glyph glyph-name="itilde" unicode="&#x129;" horiz-adv-x="242" 
d="M69 0v539h100v-539h-100zM268 743q0 -56 -17 -87t-71 -31q-21 0 -35 6t-24.5 13.5t-20.5 14t-25 6.5t-24 -5t-14.5 -12.5t-7.5 -15t-2 -11.5h-53q0 23 4 43.5t14 36.5t27.5 25t44.5 9q22 0 35 -5.5t23.5 -12.5t20 -12.5t24.5 -5.5t24 5t14.5 12.5t7.5 14.5t2 12h53z" />
    <glyph glyph-name="j" unicode="j" horiz-adv-x="267" 
d="M-32 -120q44 0 68 8t35.5 26.5t13.5 49t2 75.5v500h100v-500q0 -72 -6.5 -119t-29.5 -74.5t-66.5 -39t-116.5 -11.5v85zM86 622v134h100v-134h-100z" />
    <glyph glyph-name="uni0237" unicode="&#x237;" horiz-adv-x="267" 
d="M-32 -120q44 0 68 8t35.5 26.5t13.5 49t2 75.5v500h100v-500q0 -72 -6.5 -119t-29.5 -74.5t-66.5 -39t-116.5 -11.5v85z" />
    <glyph glyph-name="jcircumflex" unicode="&#x135;" horiz-adv-x="267" 
d="M-32 -120q44 0 68 8t35.5 26.5t13.5 49t2 75.5v500h100v-500q0 -72 -6.5 -119t-29.5 -74.5t-66.5 -39t-116.5 -11.5v85zM201 621l-64 82l-63 -82h-96l116 152h85l117 -152h-95z" />
    <glyph glyph-name="k" unicode="k" horiz-adv-x="542" 
d="M427 0l-179 250l-67 -74v-176h-100v760h100v-476l214 255h118l-201 -220l229 -319h-114z" />
    <glyph glyph-name="kcommaaccent" unicode="&#x137;" horiz-adv-x="542" 
d="M427 0l-179 250l-67 -74v-176h-100v760h100v-476l214 255h118l-201 -220l229 -319h-114zM176 -264q7 15 15 33q7 16 14.5 37t14.5 45q6 21 9 38t5 30q2 14 2 26h99q-1 -14 -4 -30q-2 -14 -6 -32t-11 -39q-8 -26 -17 -46t-17 -34q-9 -17 -18 -28h-86z" />
    <glyph glyph-name="kgreenlandic" unicode="&#x138;" horiz-adv-x="542" 
d="M427 0l-179 250l-67 -74v-176h-100v539h100v-255l214 255h118l-201 -220l229 -319h-114z" />
    <glyph glyph-name="l" unicode="l" horiz-adv-x="263" 
d="M81 0v760h100v-760h-100z" />
    <glyph glyph-name="lacute" unicode="&#x13a;" horiz-adv-x="263" 
d="M81 0v760h100v-760h-100zM86 800l77 145h112l-98 -145h-91z" />
    <glyph glyph-name="lcaron" unicode="&#x13e;" horiz-adv-x="263" 
d="M81 0v760h100v-760h-100zM203 583l64 177h98l-85 -177h-77z" />
    <glyph glyph-name="lcommaaccent" unicode="&#x13c;" horiz-adv-x="263" 
d="M81 0v760h100v-760h-100zM13 -264q7 15 15 33q7 16 14.5 37t14.5 45q6 21 9 38t5 30q2 14 2 26h99q-1 -14 -4 -30q-2 -14 -6 -32t-11 -39q-8 -26 -17 -46t-17 -34q-9 -17 -18 -28h-86z" />
    <glyph glyph-name="ldot" unicode="&#x140;" horiz-adv-x="347" 
d="M81 0v760h100v-760h-100zM221 321v125h100v-125h-100z" />
    <glyph glyph-name="lslash" unicode="&#x142;" horiz-adv-x="263" 
d="M81 0v760h100v-760h-100zM1 270l-37 66l302 177l38 -66z" />
    <glyph glyph-name="m" unicode="m" horiz-adv-x="949" 
d="M772 0v148v56t0.5 50.5t0.5 38v19.5q0 34 -4 62t-14.5 48t-30 30.5t-50.5 10.5q-30 0 -53.5 -11.5t-41 -28t-30 -35t-19.5 -33.5q0 -8 0.5 -16.5t0.5 -17.5v-321h-96v148v56t0.5 50.5t0.5 38v19.5q0 34 -4 62t-14.5 48t-30.5 30.5t-51 10.5q-33 0 -58.5 -14t-43.5 -33
t-29.5 -40t-17.5 -34v-342h-100v390l-8 149h84l15 -100q7 13 22 32t37 37t51.5 30.5t66.5 12.5q63 0 103.5 -24.5t58.5 -84.5q7 13 22 31.5t37 35.5t51 29.5t65 12.5q44 0 77.5 -11.5t56 -38.5t33.5 -71t11 -109v-321h-98z" />
    <glyph glyph-name="n" unicode="n" horiz-adv-x="626" 
d="M446 0v148v56t0.5 50.5t0.5 38v19.5q0 34 -4.5 62t-17 48t-33.5 30.5t-54 10.5q-32 0 -56.5 -11t-43 -26.5t-31.5 -34t-20 -33.5v-358h-100v390l-8 149h84l14 -91q9 14 24 32t37.5 33.5t52 26.5t66.5 11q50 0 86 -11.5t59 -38.5t34 -71t11 -109v-21.5t-0.5 -39.5
t-0.5 -51.5v-57.5v-151h-100z" />
    <glyph glyph-name="nacute" unicode="&#x144;" horiz-adv-x="626" 
d="M446 0v148v56t0.5 50.5t0.5 38v19.5q0 34 -4.5 62t-17 48t-33.5 30.5t-54 10.5q-32 0 -56.5 -11t-43 -26.5t-31.5 -34t-20 -33.5v-358h-100v390l-8 149h84l14 -91q9 14 24 32t37.5 33.5t52 26.5t66.5 11q50 0 86 -11.5t59 -38.5t34 -71t11 -109v-21.5t-0.5 -39.5
t-0.5 -51.5v-57.5v-151h-100zM273 621l77 152h112l-98 -152h-91z" />
    <glyph glyph-name="ncaron" unicode="&#x148;" horiz-adv-x="626" 
d="M446 0v148v56t0.5 50.5t0.5 38v19.5q0 34 -4.5 62t-17 48t-33.5 30.5t-54 10.5q-32 0 -56.5 -11t-43 -26.5t-31.5 -34t-20 -33.5v-358h-100v390l-8 149h84l14 -91q9 14 24 32t37.5 33.5t52 26.5t66.5 11q50 0 86 -11.5t59 -38.5t34 -71t11 -109v-21.5t-0.5 -39.5
t-0.5 -51.5v-57.5v-151h-100zM285 621l-116 152h96l63 -82l63 82h96l-117 -152h-85z" />
    <glyph glyph-name="ncommaaccent" unicode="&#x146;" horiz-adv-x="626" 
d="M446 0v148v56t0.5 50.5t0.5 38v19.5q0 34 -4.5 62t-17 48t-33.5 30.5t-54 10.5q-32 0 -56.5 -11t-43 -26.5t-31.5 -34t-20 -33.5v-358h-100v390l-8 149h84l14 -91q9 14 24 32t37.5 33.5t52 26.5t66.5 11q50 0 86 -11.5t59 -38.5t34 -71t11 -109v-21.5t-0.5 -39.5
t-0.5 -51.5v-57.5v-151h-100zM204 -264q7 15 15 33q7 16 14.5 37t14.5 45q6 21 9 38t5 30q2 14 2 26h99q-1 -14 -4 -30q-2 -14 -6 -32t-11 -39q-8 -26 -17 -46t-17 -34q-9 -17 -18 -28h-86z" />
    <glyph glyph-name="eng" unicode="&#x14b;" horiz-adv-x="626" 
d="M328 -115q43 0 67 8t35.5 27t13.5 49.5t2 75.5v92q0 30 0.5 59.5t0.5 53.5v41v21q0 34 -4.5 62t-17 48t-33.5 30.5t-54 10.5q-32 0 -56.5 -11t-43 -26.5t-31.5 -34t-20 -33.5v-358h-100v390l-8 149h84l14 -91q9 14 24 32t37.5 33.5t52 26.5t66.5 11q50 0 86 -11.5
t59 -38.5t34 -71t11 -109h1l-1 -276q0 -72 -7 -119t-29.5 -74.5t-66 -39t-116.5 -11.5v84z" />
    <glyph glyph-name="uni0272" unicode="&#x272;" horiz-adv-x="627" 
d="M448 0v148v56t0.5 50.5t0.5 38v19.5q0 34 -4.5 62t-17 48t-33.5 30.5t-54 10.5q-32 0 -57 -11t-43.5 -27.5t-31.5 -35t-20 -33.5v-35v-59l-1 -217q0 -72 -6.5 -119t-29.5 -74.5t-66.5 -39t-116.5 -11.5v84q44 0 68 8t35 27t13.5 49.5t2.5 75.5l1 267v78l-8 149h84l14 -92
q9 14 24 32t37.5 34t52.5 27t67 11q50 0 86 -11.5t59 -38.5t34 -71t11 -109v-21.5t-0.5 -39.5t-0.5 -51.5v-57.5v-151h-100z" />
    <glyph glyph-name="ntilde" unicode="&#xf1;" horiz-adv-x="626" 
d="M446 0v148v56t0.5 50.5t0.5 38v19.5q0 34 -4.5 62t-17 48t-33.5 30.5t-54 10.5q-32 0 -56.5 -11t-43 -26.5t-31.5 -34t-20 -33.5v-358h-100v390l-8 149h84l14 -91q9 14 24 32t37.5 33.5t52 26.5t66.5 11q50 0 86 -11.5t59 -38.5t34 -71t11 -109v-21.5t-0.5 -39.5
t-0.5 -51.5v-57.5v-151h-100zM474 743q0 -56 -17 -87t-71 -31q-21 0 -35 6t-24.5 13.5t-20.5 14t-25 6.5t-24 -5t-14.5 -12.5t-7.5 -15t-2 -11.5h-53q0 23 4 43.5t14 36.5t27.5 25t44.5 9q22 0 35 -5.5t23.5 -12.5t20 -12.5t24.5 -5.5t24 5t14.5 12.5t7.5 14.5t2 12h53z" />
    <glyph glyph-name="o" unicode="o" horiz-adv-x="602" 
d="M301 -13q-71 0 -118.5 20t-76 57t-40.5 89t-12 115t12 115.5t40.5 90t76 58t118.5 20.5t118.5 -20.5t76.5 -58t41 -90t12 -115.5t-12 -115t-41 -89t-76.5 -57t-118.5 -20zM300 68q83 0 114.5 49.5t31.5 150.5q0 100 -31.5 151.5t-114.5 51.5q-41 0 -69 -13t-45 -38.5
t-24 -63.5t-7 -88t7 -87.5t24 -62.5t45 -37.5t69 -12.5z" />
    <glyph glyph-name="oacute" unicode="&#xf3;" horiz-adv-x="602" 
d="M301 -13q-71 0 -118.5 20t-76 57t-40.5 89t-12 115t12 115.5t40.5 90t76 58t118.5 20.5t118.5 -20.5t76.5 -58t41 -90t12 -115.5t-12 -115t-41 -89t-76.5 -57t-118.5 -20zM300 68q83 0 114.5 49.5t31.5 150.5q0 100 -31.5 151.5t-114.5 51.5q-41 0 -69 -13t-45 -38.5
t-24 -63.5t-7 -88t7 -87.5t24 -62.5t45 -37.5t69 -12.5zM246 618l77 152h112l-98 -152h-91z" />
    <glyph glyph-name="obreve" unicode="&#x14f;" horiz-adv-x="602" 
d="M301 -13q-71 0 -118.5 20t-76 57t-40.5 89t-12 115t12 115.5t40.5 90t76 58t118.5 20.5t118.5 -20.5t76.5 -58t41 -90t12 -115.5t-12 -115t-41 -89t-76.5 -57t-118.5 -20zM300 68q83 0 114.5 49.5t31.5 150.5q0 100 -31.5 151.5t-114.5 51.5q-41 0 -69 -13t-45 -38.5
t-24 -63.5t-7 -88t7 -87.5t24 -62.5t45 -37.5t69 -12.5zM443 746q0 -27 -9.5 -50.5t-28 -41.5t-45 -28.5t-60.5 -10.5t-60.5 10.5t-45 28.5t-28 41.5t-9.5 50.5h78q0 -19 17.5 -38t47.5 -19q31 0 48.5 19t17.5 38h77z" />
    <glyph glyph-name="ocircumflex" unicode="&#xf4;" horiz-adv-x="602" 
d="M301 -13q-71 0 -118.5 20t-76 57t-40.5 89t-12 115t12 115.5t40.5 90t76 58t118.5 20.5t118.5 -20.5t76.5 -58t41 -90t12 -115.5t-12 -115t-41 -89t-76.5 -57t-118.5 -20zM300 68q83 0 114.5 49.5t31.5 150.5q0 100 -31.5 151.5t-114.5 51.5q-41 0 -69 -13t-45 -38.5
t-24 -63.5t-7 -88t7 -87.5t24 -62.5t45 -37.5t69 -12.5zM365 618l-64 82l-63 -82h-96l116 152h85l117 -152h-95z" />
    <glyph glyph-name="odieresis" unicode="&#xf6;" horiz-adv-x="602" 
d="M301 -13q-71 0 -118.5 20t-76 57t-40.5 89t-12 115t12 115.5t40.5 90t76 58t118.5 20.5t118.5 -20.5t76.5 -58t41 -90t12 -115.5t-12 -115t-41 -89t-76.5 -57t-118.5 -20zM300 68q83 0 114.5 49.5t31.5 150.5q0 100 -31.5 151.5t-114.5 51.5q-41 0 -69 -13t-45 -38.5
t-24 -63.5t-7 -88t7 -87.5t24 -62.5t45 -37.5t69 -12.5zM164 619v134h100v-134h-100zM336 619v134h100v-134h-100z" />
    <glyph glyph-name="uni1ECD" unicode="&#x1ecd;" horiz-adv-x="602" 
d="M301 -13q-71 0 -118.5 20t-76 57t-40.5 89t-12 115t12 115.5t40.5 90t76 58t118.5 20.5t118.5 -20.5t76.5 -58t41 -90t12 -115.5t-12 -115t-41 -89t-76.5 -57t-118.5 -20zM300 68q83 0 114.5 49.5t31.5 150.5q0 100 -31.5 151.5t-114.5 51.5q-41 0 -69 -13t-45 -38.5
t-24 -63.5t-7 -88t7 -87.5t24 -62.5t45 -37.5t69 -12.5zM250 -188v127h100v-127h-100z" />
    <glyph glyph-name="ograve" unicode="&#xf2;" horiz-adv-x="602" 
d="M301 -13q-71 0 -118.5 20t-76 57t-40.5 89t-12 115t12 115.5t40.5 90t76 58t118.5 20.5t118.5 -20.5t76.5 -58t41 -90t12 -115.5t-12 -115t-41 -89t-76.5 -57t-118.5 -20zM300 68q83 0 114.5 49.5t31.5 150.5q0 100 -31.5 151.5t-114.5 51.5q-41 0 -69 -13t-45 -38.5
t-24 -63.5t-7 -88t7 -87.5t24 -62.5t45 -37.5t69 -12.5zM252 618l-98 152h112l77 -152h-91z" />
    <glyph glyph-name="ohungarumlaut" unicode="&#x151;" horiz-adv-x="602" 
d="M301 -13q-71 0 -118.5 20t-76 57t-40.5 89t-12 115t12 115.5t40.5 90t76 58t118.5 20.5t118.5 -20.5t76.5 -58t41 -90t12 -115.5t-12 -115t-41 -89t-76.5 -57t-118.5 -20zM300 68q83 0 114.5 49.5t31.5 150.5q0 100 -31.5 151.5t-114.5 51.5q-41 0 -69 -13t-45 -38.5
t-24 -63.5t-7 -88t7 -87.5t24 -62.5t45 -37.5t69 -12.5zM161 618l74 152h112l-95 -152h-91zM319 618l90 152h112l-111 -152h-91z" />
    <glyph glyph-name="omacron" unicode="&#x14d;" horiz-adv-x="602" 
d="M301 -13q-71 0 -118.5 20t-76 57t-40.5 89t-12 115t12 115.5t40.5 90t76 58t118.5 20.5t118.5 -20.5t76.5 -58t41 -90t12 -115.5t-12 -115t-41 -89t-76.5 -57t-118.5 -20zM300 68q83 0 114.5 49.5t31.5 150.5q0 100 -31.5 151.5t-114.5 51.5q-41 0 -69 -13t-45 -38.5
t-24 -63.5t-7 -88t7 -87.5t24 -62.5t45 -37.5t69 -12.5zM170 641v78h261v-78h-261z" />
    <glyph glyph-name="uni01EB" unicode="&#x1eb;" horiz-adv-x="602" 
d="M301 -13q-71 0 -118.5 20t-76 57t-40.5 89t-12 115t12 115.5t40.5 90t76 58t118.5 20.5t118.5 -20.5t76.5 -58t41 -90t12 -115.5t-12 -115t-41 -89t-76.5 -57t-118.5 -20zM300 68q83 0 114.5 49.5t31.5 150.5q0 100 -31.5 151.5t-114.5 51.5q-41 0 -69 -13t-45 -38.5
t-24 -63.5t-7 -88t7 -87.5t24 -62.5t45 -37.5t69 -12.5zM468 -143l-6 -4t-18 -8.5t-29 -8.5t-38 -4q-42 0 -61.5 22.5t-19.5 54.5q0 30 14.5 53.5t31.5 40.5q20 19 47 34l70 -8q-1 -1 -13 -7t-25.5 -18t-24.5 -29t-11 -39q0 -16 9 -26t26 -10q9 0 17.5 2t15.5 4q8 3 15 7
v-56z" />
    <glyph glyph-name="oslash" unicode="&#xf8;" horiz-adv-x="602" 
d="M301 -13q-71 0 -118.5 20t-76 57t-40.5 89t-12 115t12 115.5t40.5 90t76 58t118.5 20.5t118.5 -20.5t76.5 -58t41 -90t12 -115.5t-12 -115t-41 -89t-76.5 -57t-118.5 -20zM300 68q83 0 114.5 49.5t31.5 150.5q0 100 -31.5 151.5t-114.5 51.5q-41 0 -69 -13t-45 -38.5
t-24 -63.5t-7 -88t7 -87.5t24 -62.5t45 -37.5t69 -12.5zM59 -8l403 556h82l-404 -556h-81z" />
    <glyph glyph-name="oslashacute" unicode="&#x1ff;" horiz-adv-x="602" 
d="M301 -13q-71 0 -118.5 20t-76 57t-40.5 89t-12 115t12 115.5t40.5 90t76 58t118.5 20.5t118.5 -20.5t76.5 -58t41 -90t12 -115.5t-12 -115t-41 -89t-76.5 -57t-118.5 -20zM300 68q83 0 114.5 49.5t31.5 150.5q0 100 -31.5 151.5t-114.5 51.5q-41 0 -69 -13t-45 -38.5
t-24 -63.5t-7 -88t7 -87.5t24 -62.5t45 -37.5t69 -12.5zM59 -8l403 556h82l-404 -556h-81zM246 618l77 152h112l-98 -152h-91z" />
    <glyph glyph-name="otilde" unicode="&#xf5;" horiz-adv-x="602" 
d="M301 -13q-71 0 -118.5 20t-76 57t-40.5 89t-12 115t12 115.5t40.5 90t76 58t118.5 20.5t118.5 -20.5t76.5 -58t41 -90t12 -115.5t-12 -115t-41 -89t-76.5 -57t-118.5 -20zM300 68q83 0 114.5 49.5t31.5 150.5q0 100 -31.5 151.5t-114.5 51.5q-41 0 -69 -13t-45 -38.5
t-24 -63.5t-7 -88t7 -87.5t24 -62.5t45 -37.5t69 -12.5zM447 740q0 -56 -17 -87t-71 -31q-21 0 -35 6t-24.5 13.5t-20.5 14t-25 6.5t-24 -5t-14.5 -12.5t-7.5 -15t-2 -11.5h-53q0 23 4 43.5t14 36.5t27.5 25t44.5 9q22 0 35 -5.5t23.5 -12.5t20 -12.5t24.5 -5.5t24 5
t14.5 12.5t7.5 14.5t2 12h53z" />
    <glyph glyph-name="oe" unicode="&#x153;" horiz-adv-x="976" 
d="M824 249l-285 1q1 -45 8 -79.5t23 -58t42.5 -36t66.5 -12.5t66.5 11t42.5 27t22.5 33.5t6.5 31.5h101q0 -25 -10.5 -56t-37.5 -58.5t-73 -46.5t-117 -19q-72 0 -117 20.5t-71 60.5q-26 -39 -72 -60t-119 -21q-71 0 -118.5 20t-76 57t-40.5 89t-12 115t12 115.5t40.5 90
t76 58t118.5 20.5q73 0 119 -22t72 -62q26 41 71 62.5t117 21.5q127 0 184.5 -73t57.5 -230h-98zM300 68q42 0 69.5 12.5t44.5 37.5t24 62.5t7 87.5q0 100 -31 151.5t-114 51.5q-41 0 -69 -13t-45 -38.5t-24 -63.5t-7 -88t7 -87.5t24 -62.5t45 -37.5t69 -12.5zM820 322
q-8 78 -40.5 116.5t-100.5 38.5q-35 0 -60 -10.5t-41.5 -31t-25 -49t-11.5 -64.5h279z" />
    <glyph glyph-name="p" unicode="p" horiz-adv-x="628" 
d="M87 -240v631l-8 148h84l14 -87q9 12 24.5 29t38 32t52.5 25.5t67 10.5q58 0 99.5 -19.5t67 -55.5t37.5 -88t12 -118q0 -65 -12 -116.5t-37.5 -87.5t-67 -55t-99.5 -19q-66 0 -107 19.5t-65 49.5v-299h-100zM187 180q5 -18 15.5 -37.5t29 -35t45 -26t63.5 -10.5
q69 0 100.5 50t31.5 147t-31.5 148.5t-100.5 51.5q-33 0 -58.5 -11t-44 -26.5t-31 -33.5t-19.5 -32v-185z" />
    <glyph glyph-name="thorn" unicode="&#xfe;" horiz-adv-x="618" 
d="M79 -240v1000h98v-296q10 13 26 28t37.5 27.5t48.5 21t60 8.5q58 0 99.5 -19.5t67 -55.5t37.5 -88t12 -118q0 -65 -12 -116.5t-37.5 -87.5t-67 -55t-99.5 -19q-66 0 -107 19.5t-65 49.5v-299h-98zM177 180q5 -18 15.5 -37.5t29 -35t45 -26t63.5 -10.5q69 0 100.5 50
t31.5 147t-31.5 148.5t-100.5 51.5q-33 0 -58.5 -11t-44 -26.5t-31 -33.5t-19.5 -32v-185z" />
    <glyph glyph-name="q" unicode="q" horiz-adv-x="629" 
d="M442 -240v299q-25 -30 -66 -49.5t-106 -19.5q-59 0 -100 19t-66.5 55t-37.5 87.5t-12 116.5q0 66 12 118t37.5 88t66.5 55.5t100 19.5q37 0 66.5 -10t52 -25t38 -31t23.5 -28l16 84h84l-8 -136v-643h-100zM442 367q-7 13 -19 30.5t-30.5 33.5t-44 26.5t-59.5 10.5
q-69 0 -101 -51.5t-32 -148.5t32 -147t101 -50q37 0 63.5 10.5t45 26.5t29 35.5t15.5 37.5v186z" />
    <glyph glyph-name="r" unicode="r" horiz-adv-x="398" 
d="M87 0v384l-8 155h84l16 -106q5 15 17 35t34.5 39t57 32t84.5 13v-93q-53 0 -87.5 -18t-55 -42.5t-30 -49.5t-12.5 -39v-310h-100z" />
    <glyph glyph-name="racute" unicode="&#x155;" horiz-adv-x="398" 
d="M87 0v384l-8 155h84l16 -106q5 15 17 35t34.5 39t57 32t84.5 13v-93q-53 0 -87.5 -18t-55 -42.5t-30 -49.5t-12.5 -39v-310h-100zM156 621l77 152h112l-98 -152h-91z" />
    <glyph glyph-name="rcaron" unicode="&#x159;" horiz-adv-x="398" 
d="M87 0v384l-8 155h84l16 -106q5 15 17 35t34.5 39t57 32t84.5 13v-93q-53 0 -87.5 -18t-55 -42.5t-30 -49.5t-12.5 -39v-310h-100zM168 621l-116 152h96l63 -82l63 82h96l-117 -152h-85z" />
    <glyph glyph-name="rcommaaccent" unicode="&#x157;" horiz-adv-x="398" 
d="M87 0v384l-8 155h84l16 -106q5 15 17 35t34.5 39t57 32t84.5 13v-93q-53 0 -87.5 -18t-55 -42.5t-30 -49.5t-12.5 -39v-310h-100zM24 -264q7 15 15 33q7 16 14.5 37t14.5 45q6 21 9 38t5 30q2 14 2 26h99q-1 -14 -4 -30q-2 -14 -6 -32t-11 -39q-8 -26 -17 -46t-17 -34
q-9 -17 -18 -28h-86z" />
    <glyph glyph-name="s" unicode="s" horiz-adv-x="542" 
d="M398 382q0 20 -6 37t-20 29t-37.5 19.5t-58.5 7.5t-57.5 -6.5t-36 -17.5t-18.5 -24t-5 -26q0 -34 25.5 -51t63.5 -27t83 -18t83 -25t63.5 -48t25.5 -86q0 -78 -56 -118.5t-175 -40.5q-108 1 -166 45t-58 140h90q0 -57 35 -82.5t99 -25.5q69 -1 98.5 21t29.5 55
q0 36 -25 53.5t-63 27t-82 18t-82 25t-63.5 48t-25.5 88.5q0 70 53 111t161 40q111 -1 162.5 -43.5t51.5 -125.5h-89z" />
    <glyph glyph-name="sacute" unicode="&#x15b;" horiz-adv-x="542" 
d="M398 382q0 20 -6 37t-20 29t-37.5 19.5t-58.5 7.5t-57.5 -6.5t-36 -17.5t-18.5 -24t-5 -26q0 -34 25.5 -51t63.5 -27t83 -18t83 -25t63.5 -48t25.5 -86q0 -78 -56 -118.5t-175 -40.5q-108 1 -166 45t-58 140h90q0 -57 35 -82.5t99 -25.5q69 -1 98.5 21t29.5 55
q0 36 -25 53.5t-63 27t-82 18t-82 25t-63.5 48t-25.5 88.5q0 70 53 111t161 40q111 -1 162.5 -43.5t51.5 -125.5h-89zM220 621l77 152h112l-98 -152h-91z" />
    <glyph glyph-name="scaron" unicode="&#x161;" horiz-adv-x="542" 
d="M398 382q0 20 -6 37t-20 29t-37.5 19.5t-58.5 7.5t-57.5 -6.5t-36 -17.5t-18.5 -24t-5 -26q0 -34 25.5 -51t63.5 -27t83 -18t83 -25t63.5 -48t25.5 -86q0 -78 -56 -118.5t-175 -40.5q-108 1 -166 45t-58 140h90q0 -57 35 -82.5t99 -25.5q69 -1 98.5 21t29.5 55
q0 36 -25 53.5t-63 27t-82 18t-82 25t-63.5 48t-25.5 88.5q0 70 53 111t161 40q111 -1 162.5 -43.5t51.5 -125.5h-89zM232 621l-116 152h96l63 -82l63 82h96l-117 -152h-85z" />
    <glyph glyph-name="scedilla" unicode="&#x15f;" horiz-adv-x="542" 
d="M398 382q0 20 -6 37t-20 29t-37.5 19.5t-58.5 7.5t-57.5 -6.5t-36 -17.5t-18.5 -24t-5 -26q0 -34 25.5 -51t63.5 -27t83 -18t83 -25t63.5 -48t25.5 -86q0 -78 -56 -118.5t-175 -40.5q-108 1 -166 45t-58 140h90q0 -57 35 -82.5t99 -25.5q69 -1 98.5 21t29.5 55
q0 36 -25 53.5t-63 27t-82 18t-82 25t-63.5 48t-25.5 88.5q0 70 53 111t161 40q111 -1 162.5 -43.5t51.5 -125.5h-89zM175 -166q6 -2 15 -3q15 -3 46 -3q29 0 44 9.5t15 32.5q0 15 -9.5 23t-24.5 12.5t-32.5 5.5t-32.5 1h-3l48 91h81l-32 -55q38 -3 64 -22t26 -62
q0 -21 -6.5 -39t-21 -31t-38.5 -20.5t-59 -7.5q-45 0 -63 3q-11 1 -17 3v62z" />
    <glyph glyph-name="scircumflex" unicode="&#x15d;" horiz-adv-x="542" 
d="M398 382q0 20 -6 37t-20 29t-37.5 19.5t-58.5 7.5t-57.5 -6.5t-36 -17.5t-18.5 -24t-5 -26q0 -34 25.5 -51t63.5 -27t83 -18t83 -25t63.5 -48t25.5 -86q0 -78 -56 -118.5t-175 -40.5q-108 1 -166 45t-58 140h90q0 -57 35 -82.5t99 -25.5q69 -1 98.5 21t29.5 55
q0 36 -25 53.5t-63 27t-82 18t-82 25t-63.5 48t-25.5 88.5q0 70 53 111t161 40q111 -1 162.5 -43.5t51.5 -125.5h-89zM339 621l-64 82l-63 -82h-96l116 152h85l117 -152h-95z" />
    <glyph glyph-name="scommaaccent" unicode="&#x219;" horiz-adv-x="542" 
d="M398 382q0 20 -6 37t-20 29t-37.5 19.5t-58.5 7.5t-57.5 -6.5t-36 -17.5t-18.5 -24t-5 -26q0 -34 25.5 -51t63.5 -27t83 -18t83 -25t63.5 -48t25.5 -86q0 -78 -56 -118.5t-175 -40.5q-108 1 -166 45t-58 140h90q0 -57 35 -82.5t99 -25.5q69 -1 98.5 21t29.5 55
q0 36 -25 53.5t-63 27t-82 18t-82 25t-63.5 48t-25.5 88.5q0 70 53 111t161 40q111 -1 162.5 -43.5t51.5 -125.5h-89zM182 -264q7 15 15 33q7 16 14.5 37t14.5 45q6 21 9 38t5 30q2 14 2 26h99q-1 -14 -4 -30q-2 -14 -6 -32t-11 -39q-8 -26 -17 -46t-17 -34q-9 -17 -18 -28
h-86z" />
    <glyph glyph-name="germandbls" unicode="&#xdf;" horiz-adv-x="606" 
d="M233 81q55 0 95.5 5.5t67.5 21t40 42.5t13 69q0 48 -19 75.5t-49 41t-66.5 17.5t-70.5 6v83q30 0 62 5.5t58.5 19.5t43 37.5t16.5 59.5q0 57 -27.5 90t-92.5 33v81q67 0 110.5 -16.5t68 -45t34 -65.5t9.5 -77q0 -48 -21.5 -79.5t-48 -49.5t-50 -25.5t-28.5 -8.5
q1 0 14.5 -0.5t32.5 -5.5t41 -16t41 -31t31.5 -51.5t12.5 -77.5q0 -55 -16 -96t-53 -68.5t-98 -41t-151 -13.5v81zM181 0h-100v538q0 50 10 92t35.5 72.5t68.5 48t109 17.5v-81q-63 -1 -93 -33.5t-30 -89.5v-564z" />
    <glyph glyph-name="uni0259" unicode="&#x259;" horiz-adv-x="592" 
d="M437 289q-1 44 -8.5 78.5t-23.5 58.5t-42.5 36.5t-66.5 12.5t-66.5 -11t-42 -27t-22 -34t-7.5 -31h-100q0 25 10.5 56t37.5 58.5t73 46.5t117 19q68 0 114 -18.5t74.5 -54.5t41 -88t12.5 -119t-12.5 -120t-41 -89.5t-74.5 -56t-114 -19.5q-128 0 -185 73t-57 230h97z
M154 217q9 -79 41.5 -117t100.5 -38q70 0 101 41t38 114h-281z" />
    <glyph glyph-name="t" unicode="t" horiz-adv-x="368" 
d="M268 -3q-58 0 -91.5 17t-51 46t-22 67t-4.5 81v250h-69v81h69v148l100 19v-167h132v-81h-132v-250q0 -69 17 -99.5t65 -30.5h56v-81h-69z" />
    <glyph glyph-name="tbar" unicode="&#x167;" horiz-adv-x="368" 
d="M268 -3q-58 0 -91.5 17t-51 46t-22 67t-4.5 81v250h-69v81h69v148l100 19v-167h132v-81h-132v-250q0 -69 17 -99.5t65 -30.5h56v-81h-69zM26 252v67h304v-67h-304z" />
    <glyph glyph-name="tcaron" unicode="&#x165;" horiz-adv-x="368" 
d="M268 -3q-58 0 -91.5 17t-51 46t-22 67t-4.5 81v250h-69v81h69v148l100 19v-167h132v-81h-132v-250q0 -69 17 -99.5t65 -30.5h56v-81h-69zM239 591l64 177h98l-85 -177h-77z" />
    <glyph glyph-name="uni0163" unicode="&#x163;" horiz-adv-x="368" 
d="M268 -3q-58 0 -91.5 17t-51 46t-22 67t-4.5 81v250h-69v81h69v148l100 19v-167h132v-81h-132v-250q0 -69 17 -99.5t65 -30.5h56v-81h-69zM121 -156q6 -2 15 -3q15 -3 46 -3q29 0 44 9.5t15 32.5q0 15 -9.5 23t-24.5 12.5t-32.5 5.5t-32.5 1h-3l48 91h81l-32 -55
q38 -3 64 -22t26 -62q0 -21 -6.5 -39t-21 -31t-38.5 -20.5t-59 -7.5q-45 0 -63 3q-11 1 -17 3v62z" />
    <glyph glyph-name="uni021B" unicode="&#x21b;" horiz-adv-x="368" 
d="M268 -3q-58 0 -91.5 17t-51 46t-22 67t-4.5 81v250h-69v81h69v148l100 19v-167h132v-81h-132v-250q0 -69 17 -99.5t65 -30.5h56v-81h-69zM128 -254q7 15 15 33q7 16 14.5 37t14.5 45q6 21 9 38t5 30q2 14 2 26h99q-1 -14 -4 -30q-2 -14 -6 -32t-11 -39q-8 -26 -17 -46
t-17 -34q-9 -17 -18 -28h-86z" />
    <glyph glyph-name="u" unicode="u" horiz-adv-x="613" 
d="M453 0l-16 99q-7 -13 -21.5 -32t-37.5 -37t-54 -30.5t-70 -12.5q-48 0 -83.5 11.5t-59 38t-35 69.5t-11.5 105v174q0 70 1 154h100q-1 -83 -1 -149v-163q0 -35 4.5 -62.5t16 -47.5t32.5 -30.5t54 -10.5q36 0 62.5 14t46 33t31 39.5t17.5 33.5v343h100v-390l8 -149h-84z
" />
    <glyph glyph-name="uacute" unicode="&#xfa;" horiz-adv-x="613" 
d="M453 0l-16 99q-7 -13 -21.5 -32t-37.5 -37t-54 -30.5t-70 -12.5q-48 0 -83.5 11.5t-59 38t-35 69.5t-11.5 105v174q0 70 1 154h100q-1 -83 -1 -149v-163q0 -35 4.5 -62.5t16 -47.5t32.5 -30.5t54 -10.5q36 0 62.5 14t46 33t31 39.5t17.5 33.5v343h100v-390l8 -149h-84z
M248 621l77 152h112l-98 -152h-91z" />
    <glyph glyph-name="ubreve" unicode="&#x16d;" horiz-adv-x="613" 
d="M453 0l-16 99q-7 -13 -21.5 -32t-37.5 -37t-54 -30.5t-70 -12.5q-48 0 -83.5 11.5t-59 38t-35 69.5t-11.5 105v174q0 70 1 154h100q-1 -83 -1 -149v-163q0 -35 4.5 -62.5t16 -47.5t32.5 -30.5t54 -10.5q36 0 62.5 14t46 33t31 39.5t17.5 33.5v343h100v-390l8 -149h-84z
M445 749q0 -27 -9.5 -50.5t-28 -41.5t-45 -28.5t-60.5 -10.5t-60.5 10.5t-45 28.5t-28 41.5t-9.5 50.5h78q0 -19 17.5 -38t47.5 -19q31 0 48.5 19t17.5 38h77z" />
    <glyph glyph-name="ucircumflex" unicode="&#xfb;" horiz-adv-x="613" 
d="M453 0l-16 99q-7 -13 -21.5 -32t-37.5 -37t-54 -30.5t-70 -12.5q-48 0 -83.5 11.5t-59 38t-35 69.5t-11.5 105v174q0 70 1 154h100q-1 -83 -1 -149v-163q0 -35 4.5 -62.5t16 -47.5t32.5 -30.5t54 -10.5q36 0 62.5 14t46 33t31 39.5t17.5 33.5v343h100v-390l8 -149h-84z
M367 621l-64 82l-63 -82h-96l116 152h85l117 -152h-95z" />
    <glyph glyph-name="udieresis" unicode="&#xfc;" horiz-adv-x="613" 
d="M453 0l-16 99q-7 -13 -21.5 -32t-37.5 -37t-54 -30.5t-70 -12.5q-48 0 -83.5 11.5t-59 38t-35 69.5t-11.5 105v174q0 70 1 154h100q-1 -83 -1 -149v-163q0 -35 4.5 -62.5t16 -47.5t32.5 -30.5t54 -10.5q36 0 62.5 14t46 33t31 39.5t17.5 33.5v343h100v-390l8 -149h-84z
M166 622v134h100v-134h-100zM338 622v134h100v-134h-100z" />
    <glyph glyph-name="uni1EE5" unicode="&#x1ee5;" horiz-adv-x="613" 
d="M453 0l-16 99q-7 -13 -21.5 -32t-37.5 -37t-54 -30.5t-70 -12.5q-48 0 -83.5 11.5t-59 38t-35 69.5t-11.5 105v174q0 70 1 154h100q-1 -83 -1 -149v-163q0 -35 4.5 -62.5t16 -47.5t32.5 -30.5t54 -10.5q36 0 62.5 14t46 33t31 39.5t17.5 33.5v343h100v-390l8 -149h-84z
M252 -188v127h100v-127h-100z" />
    <glyph glyph-name="ugrave" unicode="&#xf9;" horiz-adv-x="613" 
d="M453 0l-16 99q-7 -13 -21.5 -32t-37.5 -37t-54 -30.5t-70 -12.5q-48 0 -83.5 11.5t-59 38t-35 69.5t-11.5 105v174q0 70 1 154h100q-1 -83 -1 -149v-163q0 -35 4.5 -62.5t16 -47.5t32.5 -30.5t54 -10.5q36 0 62.5 14t46 33t31 39.5t17.5 33.5v343h100v-390l8 -149h-84z
M254 621l-98 152h112l77 -152h-91z" />
    <glyph glyph-name="uhungarumlaut" unicode="&#x171;" horiz-adv-x="613" 
d="M453 0l-16 99q-7 -13 -21.5 -32t-37.5 -37t-54 -30.5t-70 -12.5q-48 0 -83.5 11.5t-59 38t-35 69.5t-11.5 105v174q0 70 1 154h100q-1 -83 -1 -149v-163q0 -35 4.5 -62.5t16 -47.5t32.5 -30.5t54 -10.5q36 0 62.5 14t46 33t31 39.5t17.5 33.5v343h100v-390l8 -149h-84z
M163 621l74 152h112l-95 -152h-91zM321 621l90 152h112l-111 -152h-91z" />
    <glyph glyph-name="umacron" unicode="&#x16b;" horiz-adv-x="613" 
d="M453 0l-16 99q-7 -13 -21.5 -32t-37.5 -37t-54 -30.5t-70 -12.5q-48 0 -83.5 11.5t-59 38t-35 69.5t-11.5 105v174q0 70 1 154h100q-1 -83 -1 -149v-163q0 -35 4.5 -62.5t16 -47.5t32.5 -30.5t54 -10.5q36 0 62.5 14t46 33t31 39.5t17.5 33.5v343h100v-390l8 -149h-84z
M172 644v78h261v-78h-261z" />
    <glyph glyph-name="uogonek" unicode="&#x173;" horiz-adv-x="613" 
d="M453 0l-16 99q-7 -13 -21.5 -32t-37.5 -37t-54 -30.5t-70 -12.5q-48 0 -83.5 11.5t-59 38t-35 69.5t-11.5 105v174q0 70 1 154h100q-1 -83 -1 -149v-163q0 -35 4.5 -62.5t16 -47.5t32.5 -30.5t54 -10.5q36 0 62.5 14t46 33t31 39.5t17.5 33.5v343h100v-390l8 -149h-84z
M542 -171l-6 -4t-18 -8.5t-29 -8.5t-38 -4q-42 0 -61.5 22.5t-19.5 54.5q0 30 14.5 53.5t31.5 40.5q20 19 47 34l70 -8q-1 -1 -13 -7t-25.5 -18t-24.5 -29t-11 -39q0 -16 9 -26t26 -10q9 0 17.5 2t15.5 4q8 3 15 7v-56z" />
    <glyph glyph-name="uring" unicode="&#x16f;" horiz-adv-x="613" 
d="M453 0l-16 99q-7 -13 -21.5 -32t-37.5 -37t-54 -30.5t-70 -12.5q-48 0 -83.5 11.5t-59 38t-35 69.5t-11.5 105v174q0 70 1 154h100q-1 -83 -1 -149v-163q0 -35 4.5 -62.5t16 -47.5t32.5 -30.5t54 -10.5q36 0 62.5 14t46 33t31 39.5t17.5 33.5v343h100v-390l8 -149h-84z
M404 714q0 -19 -6 -37t-18.5 -31.5t-32 -22t-45.5 -8.5q-27 0 -46 8.5t-32 22t-19 31.5t-6 37t6 36.5t19 31t32 22t46 8.5q26 0 45.5 -8.5t32 -22t18.5 -31t6 -36.5zM302 678q15 0 24.5 9.5t9.5 26.5q0 16 -9.5 25.5t-24.5 9.5q-16 0 -25.5 -9.5t-9.5 -25.5q0 -17 9.5 -26.5
t25.5 -9.5z" />
    <glyph glyph-name="utilde" unicode="&#x169;" horiz-adv-x="613" 
d="M453 0l-16 99q-7 -13 -21.5 -32t-37.5 -37t-54 -30.5t-70 -12.5q-48 0 -83.5 11.5t-59 38t-35 69.5t-11.5 105v174q0 70 1 154h100q-1 -83 -1 -149v-163q0 -35 4.5 -62.5t16 -47.5t32.5 -30.5t54 -10.5q36 0 62.5 14t46 33t31 39.5t17.5 33.5v343h100v-390l8 -149h-84z
M449 743q0 -56 -17 -87t-71 -31q-21 0 -35 6t-24.5 13.5t-20.5 14t-25 6.5t-24 -5t-14.5 -12.5t-7.5 -15t-2 -11.5h-53q0 23 4 43.5t14 36.5t27.5 25t44.5 9q22 0 35 -5.5t23.5 -12.5t20 -12.5t24.5 -5.5t24 5t14.5 12.5t7.5 14.5t2 12h53z" />
    <glyph glyph-name="v" unicode="v" horiz-adv-x="533" 
d="M217 0l-210 539h113l152 -437l146 437h108l-209 -539h-100z" />
    <glyph glyph-name="w" unicode="w" horiz-adv-x="764" 
d="M503 0l-120 415l-115 -415h-89l-175 539h104l118 -420l115 420h91l116 -417l116 417h96l-171 -539h-86z" />
    <glyph glyph-name="wacute" unicode="&#x1e83;" horiz-adv-x="764" 
d="M503 0l-120 415l-115 -415h-89l-175 539h104l118 -420l115 420h91l116 -417l116 417h96l-171 -539h-86zM329 621l77 152h112l-98 -152h-91z" />
    <glyph glyph-name="wcircumflex" unicode="&#x175;" horiz-adv-x="764" 
d="M503 0l-120 415l-115 -415h-89l-175 539h104l118 -420l115 420h91l116 -417l116 417h96l-171 -539h-86zM448 621l-64 82l-63 -82h-96l116 152h85l117 -152h-95z" />
    <glyph glyph-name="wdieresis" unicode="&#x1e85;" horiz-adv-x="764" 
d="M503 0l-120 415l-115 -415h-89l-175 539h104l118 -420l115 420h91l116 -417l116 417h96l-171 -539h-86zM247 622v134h100v-134h-100zM419 622v134h100v-134h-100z" />
    <glyph glyph-name="wgrave" unicode="&#x1e81;" horiz-adv-x="764" 
d="M503 0l-120 415l-115 -415h-89l-175 539h104l118 -420l115 420h91l116 -417l116 417h96l-171 -539h-86zM335 621l-98 152h112l77 -152h-91z" />
    <glyph glyph-name="x" unicode="x" horiz-adv-x="512" 
d="M389 0l-140 194l-138 -194h-107l193 267l-188 272h113l139 -203l141 203h106l-195 -278l189 -261h-113z" />
    <glyph glyph-name="y" unicode="y" horiz-adv-x="536" 
d="M161 -219l75 219h-27l-202 539h113l148 -445l154 445h107l-277 -758h-91z" />
    <glyph glyph-name="yacute" unicode="&#xfd;" horiz-adv-x="536" 
d="M161 -219l75 219h-27l-202 539h113l148 -445l154 445h107l-277 -758h-91zM208 621l77 152h112l-98 -152h-91z" />
    <glyph glyph-name="ycircumflex" unicode="&#x177;" horiz-adv-x="536" 
d="M161 -219l75 219h-27l-202 539h113l148 -445l154 445h107l-277 -758h-91zM327 621l-64 82l-63 -82h-96l116 152h85l117 -152h-95z" />
    <glyph glyph-name="ydieresis" unicode="&#xff;" horiz-adv-x="536" 
d="M161 -219l75 219h-27l-202 539h113l148 -445l154 445h107l-277 -758h-91zM126 622v134h100v-134h-100zM298 622v134h100v-134h-100z" />
    <glyph glyph-name="ygrave" unicode="&#x1ef3;" horiz-adv-x="536" 
d="M161 -219l75 219h-27l-202 539h113l148 -445l154 445h107l-277 -758h-91zM214 621l-98 152h112l77 -152h-91z" />
    <glyph glyph-name="uni0233" unicode="&#x233;" horiz-adv-x="536" 
d="M161 -219l75 219h-27l-202 539h113l148 -445l154 445h107l-277 -758h-91zM132 644v78h261v-78h-261z" />
    <glyph glyph-name="uni1EF9" unicode="&#x1ef9;" horiz-adv-x="536" 
d="M161 -219l75 219h-27l-202 539h113l148 -445l154 445h107l-277 -758h-91zM409 743q0 -56 -17 -87t-71 -31q-21 0 -35 6t-24.5 13.5t-20.5 14t-25 6.5t-24 -5t-14.5 -12.5t-7.5 -15t-2 -11.5h-53q0 23 4 43.5t14 36.5t27.5 25t44.5 9q22 0 35 -5.5t23.5 -12.5t20 -12.5
t24.5 -5.5t24 5t14.5 12.5t7.5 14.5t2 12h53z" />
    <glyph glyph-name="z" unicode="z" horiz-adv-x="479" 
d="M31 3v82v19l313 352l-303 -1v80h402v-79h-1l1 -21l-313 -350l313 1v-83h-412z" />
    <glyph glyph-name="zacute" unicode="&#x17a;" horiz-adv-x="479" 
d="M31 3v82v19l313 352l-303 -1v80h402v-79h-1l1 -21l-313 -350l313 1v-83h-412zM186 621l77 152h112l-98 -152h-91z" />
    <glyph glyph-name="zcaron" unicode="&#x17e;" horiz-adv-x="479" 
d="M31 3v82v19l313 352l-303 -1v80h402v-79h-1l1 -21l-313 -350l313 1v-83h-412zM198 621l-116 152h96l63 -82l63 82h96l-117 -152h-85z" />
    <glyph glyph-name="zdotaccent" unicode="&#x17c;" horiz-adv-x="479" 
d="M31 3v82v19l313 352l-303 -1v80h402v-79h-1l1 -21l-313 -350l313 1v-83h-412zM190 622v134h100v-134h-100z" />
    <glyph glyph-name="f_i" horiz-adv-x="551" 
d="M94 0v458h-74v81h74v14q0 45 5.5 83.5t23.5 67.5t52 45.5t92 16.5h56v-81h-43q-49 0 -67.5 -29.5t-18.5 -102.5v-14h120v-81h-120v-458h-100zM378 0v539h100v-539h-100zM380 622v141h100v-141h-100z" />
    <glyph glyph-name="f_l" horiz-adv-x="557" 
d="M94 0v458h-74v81h74v14q0 45 5.5 83.5t23.5 67.5t52 45.5t92 16.5h56v-81h-43q-49 0 -67.5 -29.5t-18.5 -102.5v-14h120v-81h-120v-458h-100zM375 0v760h100v-760h-100z" />
    <glyph glyph-name="ordfeminine" unicode="&#xaa;" horiz-adv-x="413" 
d="M301 360l-11 49q-14 -26 -42.5 -42t-79.5 -16q-77 0 -107.5 29t-30.5 89q0 42 17 64.5t49 32.5t78.5 11.5t105.5 1.5q0 28 -1.5 48.5t-8.5 33.5t-21.5 19t-39.5 6q-23 0 -37.5 -6t-23 -15.5t-12 -21t-3.5 -22.5h-85q0 16 4 38t19.5 41.5t47 33t86.5 13.5q64 0 98.5 -14.5
t50 -40.5t17.5 -62.5t2 -81.5v-87l6 -101h-78zM280 533q-37 0 -66 -1t-48.5 -7t-30 -19t-10.5 -38q0 -29 15.5 -45t50.5 -16q32 0 55.5 12t33.5 38v76z" />
    <glyph glyph-name="ordmasculine" unicode="&#xba;" horiz-adv-x="422" 
d="M211 350q-53 0 -88 13.5t-56 39.5t-29.5 62.5t-8.5 83.5q0 46 9 83.5t30 63.5t56 40t88 14q52 0 87 -14t56 -40t30 -63.5t9 -83.5q0 -47 -9 -83.5t-30 -62.5t-56.5 -39.5t-87.5 -13.5zM211 420q49 0 67.5 30t18.5 99t-18.5 100t-67.5 31q-50 0 -68.5 -31t-18.5 -100
t18.5 -99t68.5 -30z" />
    <glyph glyph-name="pi" unicode="&#x3c0;" horiz-adv-x="610" 
d="M539 0q-56 0 -87.5 14t-47 40.5t-19 65t-3.5 87.5v271h-168v-478h-87v478h-90v84h522v-84h-90v-271q0 -27 0.5 -51t6.5 -43t20.5 -30t42.5 -11h24v-72h-24z" />
    <glyph glyph-name="zero" unicode="0" horiz-adv-x="663" 
d="M64 347q0 95 12.5 165t43 116t82.5 68.5t130 22.5t130 -22.5t82.5 -68.5t43 -116t12.5 -165q0 -91 -12.5 -158t-43 -111.5t-82.5 -66.5t-130 -22t-130 22t-82.5 66.5t-43 111.5t-12.5 158zM496 347q0 78 -9 131.5t-29 86.5t-51.5 48t-75.5 15t-75 -15t-51 -48t-29 -86.5
t-9 -131.5q0 -74 9 -124.5t29 -82.5t51 -46t75 -14t75.5 14t51.5 46t29 82.5t9 124.5z" />
    <glyph glyph-name="one" unicode="1" horiz-adv-x="330" 
d="M139 0v608l-139 -67v96l158 74v1h84v-712h-103z" />
    <glyph glyph-name="two" unicode="2" horiz-adv-x="547" 
d="M34 2v92l17 14t44.5 38t63.5 56t74 68q33 31 62 59t51 56t35 57.5t13 63.5q0 65 -33 94.5t-93 29.5q-62 0 -97 -30t-35 -96h-105q0 110 61 163.5t176 53.5q111 0 170.5 -52.5t59.5 -161.5q0 -44 -12.5 -80.5t-34 -69.5t-49.5 -63t-59 -61q-32 -32 -63 -58.5t-56 -46.5
q-29 -23 -55 -41q84 0 153 1q29 0 58 0.5t52.5 1t40.5 0.5h22v-88h-461z" />
    <glyph glyph-name="three" unicode="3" horiz-adv-x="565" 
d="M293 456q113 -10 170.5 -68.5t57.5 -162.5q0 -113 -62.5 -173t-190.5 -60q-59 0 -103.5 16t-74.5 44.5t-45 67.5t-15 86h96q0 -22 8 -44t25.5 -39.5t44 -28.5t64.5 -11q79 0 113.5 40t34.5 102q0 31 -9 57t-29.5 45t-52 29.5t-76.5 10.5q-16 0 -31 -1t-27 -3l-28 -4v89
l210 165l-313 -5v88h442v-81h1z" />
    <glyph glyph-name="four" unicode="4" horiz-adv-x="589" 
d="M373 0l1 141h-341v91l337 468h106v-468h85v-91h-85v-141h-103zM377 562l-236 -330h233z" />
    <glyph glyph-name="five" unicode="5" horiz-adv-x="587" 
d="M203 608l-29 -184q20 16 54.5 30t88.5 14q109 0 168.5 -62.5t59.5 -178.5q0 -115 -61.5 -175t-192.5 -60q-63 0 -109 16t-76 43t-44.5 63.5t-14.5 78.5h96q0 -17 8.5 -36t26.5 -35.5t46 -27.5t67 -11q77 0 113 40t36 104q0 32 -9.5 59.5t-28 47.5t-46.5 31.5t-65 11.5
q-35 0 -59 -8t-40 -19t-24 -21.5t-11 -14.5v-3h-1l-91 1l46 296h-1l11 88h386v-88h-304z" />
    <glyph glyph-name="six" unicode="6" horiz-adv-x="640" 
d="M448 522q0 17 -7 36t-22.5 34.5t-39.5 26t-58 10.5q-33 0 -58 -10t-43.5 -36t-30 -71t-16.5 -115q27 27 70 48t108 21t108.5 -20t69.5 -53.5t37 -77t11 -91.5q0 -50 -13.5 -92.5t-44 -74.5t-79.5 -50t-119 -18t-119 20t-79.5 61t-44.5 101.5t-14 141.5q0 109 14.5 186.5
t46 126.5t80 71.5t116.5 22.5q67 0 111.5 -18.5t71.5 -47t38.5 -63.5t11.5 -69h-106zM169 293q1 -60 12 -101t30 -66t46.5 -35.5t63.5 -10.5q75 0 113 37.5t38 106.5q0 68 -33.5 109.5t-107.5 41.5q-63 0 -102 -25t-60 -57z" />
    <glyph glyph-name="seven" unicode="7" horiz-adv-x="499" 
d="M121 0q0 62 10.5 121.5t28 113.5t40 103t46.5 90q55 97 126 179h-362v91h476v-91q-74 -85 -131 -184q-25 -42 -48.5 -91t-42 -103t-29.5 -111.5t-11 -117.5h-103z" />
    <glyph glyph-name="eight" unicode="8" horiz-adv-x="647" 
d="M455 382q12 -1 33.5 -11.5t43 -32t37 -55.5t15.5 -82t-13.5 -87t-44 -66.5t-80.5 -42.5t-122 -15t-122 15t-80.5 42.5t-44 66.5t-13.5 87t15.5 82t36.5 55.5t42.5 32t33.5 11.5q-8 1 -25.5 9.5t-35 25.5t-31 44t-13.5 65q0 43 12.5 79t40.5 62t73 40.5t111 14.5
t111 -14.5t73 -40.5t40.5 -62t12.5 -79q0 -38 -13 -65t-31 -44t-35.5 -25.5t-26.5 -9.5zM478 207q0 60 -36 93.5t-119 33.5t-119 -33.5t-36 -93.5q0 -62 37 -94t118 -32t118 32t37 94zM455 517q0 115 -132 115t-132 -115q0 -47 31 -73t101 -26t101 26t31 73z" />
    <glyph glyph-name="nine" unicode="9" horiz-adv-x="640" 
d="M179 186q0 -17 7 -35.5t23.5 -34t43 -26t66.5 -10.5q34 0 60 8.5t44 32t29 65t16 106.5q-28 -28 -71 -49.5t-107 -21.5q-62 0 -105 20.5t-70 56t-39 82t-12 98.5t14.5 96t45.5 76.5t79 51t116 18.5q136 1 197 -81.5t61 -251.5q0 -109 -14 -184.5t-44.5 -123t-80 -69
t-119.5 -21.5q-72 0 -119.5 19t-75.5 48.5t-39 64t-11 65.5h105zM472 388q0 70 -10 116.5t-29.5 74t-48 39t-65.5 11.5q-75 0 -112.5 -38.5t-37.5 -112.5q0 -78 34 -122t106 -44q32 0 57.5 6.5t45 17t34.5 24t26 28.5z" />
    <glyph glyph-name="zero.subs" horiz-adv-x="396" 
d="M28 105q0 56 8 98t27.5 69.5t52.5 41.5t82 14t82 -14t53 -41.5t28 -69.5t8 -98q0 -54 -8 -94t-28 -67t-53 -40.5t-82 -13.5t-82 13.5t-52.5 40.5t-27.5 67t-8 94zM280 105q0 82 -18.5 115.5t-64.5 33.5q-45 0 -63 -33.5t-18 -115.5q0 -77 18 -108t63 -31q46 0 64.5 31
t18.5 108z" />
    <glyph glyph-name="one.subs" horiz-adv-x="207" 
d="M77 -102v348l-75 -34v67l105 44h57v-425h-87z" />
    <glyph glyph-name="two.subs" horiz-adv-x="351" 
d="M17 -100v69q17 12 36 27q17 13 38 29.5t45 36.5q19 16 38 30.5t33 30t23 32t9 35.5q0 29 -17.5 47.5t-50.5 18.5q-32 0 -49.5 -19.5t-17.5 -54.5h-89q0 68 36.5 107.5t119.5 39.5q41 0 70.5 -10t48 -28t27 -42t8.5 -52q0 -26 -8 -48.5t-21.5 -42t-30.5 -36.5t-34 -32
q-16 -14 -31.5 -26.5t-27.5 -22.5t-20 -16t-9 -7q1 0 27 1t58.5 2t61 2t34.5 1v-72h-307z" />
    <glyph glyph-name="three.subs" horiz-adv-x="357" 
d="M220 163q60 -12 86.5 -45.5t26.5 -87.5q0 -29 -9 -54.5t-28 -44t-50 -29.5t-74 -11t-73 11t-49 29.5t-28 43.5t-9 53h88q0 -25 17 -45.5t53 -20.5q38 0 55.5 20.5t17.5 52.5q0 36 -20 58.5t-65 22.5q-8 0 -17 -1t-17 -2q-9 -2 -18 -3v52h2l110 87l-188 -5v72h295v-63z
" />
    <glyph glyph-name="four.subs" horiz-adv-x="359" 
d="M215 -102v77h-210v66l205 278h93v-278h48v-66h-48v-77h-88zM215 226l-134 -185h134v185z" />
    <glyph glyph-name="five.subs" horiz-adv-x="363" 
d="M135 255l-15 -102q13 10 33.5 17.5t52.5 7.5q35 0 60.5 -11t42.5 -30t25 -44.5t8 -55.5t-9 -56t-28.5 -45.5t-50.5 -30.5t-74 -11q-44 0 -75 11t-50.5 28.5t-28 39.5t-8.5 44h88q0 -9 4.5 -19t13.5 -18.5t23 -14t33 -5.5q38 0 56 21t18 56q0 36 -18 58.5t-56 22.5
q-20 0 -33 -5t-21.5 -11.5t-12.5 -12t-4 -6.5l-81 2l26 172h1l9 62h254v-68z" />
    <glyph glyph-name="six.subs" horiz-adv-x="390" 
d="M264 206q0 10 -3.5 20t-11.5 18.5t-21 14t-31 5.5q-17 0 -30.5 -5.5t-23 -20t-15.5 -39t-9 -62.5q16 14 39 24.5t58 10.5q41 0 69 -11t45.5 -29.5t25 -44t7.5 -54.5t-8.5 -55t-28 -45.5t-51.5 -31t-78 -11.5q-92 -1 -130.5 48.5t-38.5 147.5q0 67 9.5 113.5t30 75.5
t52.5 41.5t77 12.5q43 0 72 -11.5t46.5 -29t25 -39.5t7.5 -43h-84zM117 71q2 -62 21.5 -88.5t58.5 -26.5q40 0 58.5 21.5t18.5 58.5q0 38 -19 58.5t-55 20.5q-33 0 -52.5 -14t-30.5 -30z" />
    <glyph glyph-name="seven.subs" horiz-adv-x="306" 
d="M62 -102q0 72 22.5 135.5t50.5 111.5q32 56 73 105l-204 -3v71h298v-71q-40 -52 -72 -109q-27 -49 -49 -111.5t-22 -128.5h-97z" />
    <glyph glyph-name="eight.subs" horiz-adv-x="388" 
d="M284 126q7 -1 20 -7.5t26 -20t22 -33.5t9 -48q0 -29 -8 -52t-27.5 -39.5t-51.5 -25.5t-79 -9q-48 0 -80 9t-51.5 25.5t-27.5 39.5t-8 52q0 28 9 48t21 33t25 20t21 8q-6 1 -16.5 6t-20 15.5t-17 26.5t-7.5 38q0 25 7.5 46.5t25 37.5t46.5 25t73 9q43 0 72 -9t46.5 -25
t24.5 -37.5t7 -46.5q0 -23 -7.5 -38.5t-17.5 -26t-20 -15.5t-16 -6zM270 27q0 31 -17 51t-59 20t-59 -20t-17 -51q0 -35 18 -53.5t58 -18.5t58 18.5t18 53.5zM262 204q0 68 -68 68t-68 -68q0 -26 16 -41.5t52 -15.5q37 0 52.5 15.5t15.5 41.5z" />
    <glyph glyph-name="nine.subs" horiz-adv-x="390" 
d="M117 13q0 -19 16.5 -38t58.5 -19q18 0 31.5 4.5t23 17.5t15.5 35t9 58q-16 -14 -39 -24t-58 -10q-41 0 -69 11t-45 30.5t-24.5 46.5t-7.5 59q0 30 9 56t28.5 45.5t51 31.5t76.5 12q92 1 131 -48t39 -154q0 -67 -9 -112.5t-29.5 -73t-53 -39.5t-79.5 -12t-77.5 11.5
t-49 29.5t-26 40t-7.5 42h85zM274 139q-2 69 -22 96.5t-59 27.5t-57.5 -22t-18.5 -59q0 -88 73 -88q33 0 53 14.5t31 30.5z" />
    <glyph glyph-name="zero.tf" horiz-adv-x="676" 
d="M74 347q0 95 12.5 165t43 116t82.5 68.5t130 22.5t130 -22.5t82.5 -68.5t43 -116t12.5 -165q0 -91 -12.5 -158t-43 -111.5t-82.5 -66.5t-130 -22t-130 22t-82.5 66.5t-43 111.5t-12.5 158zM506 347q0 78 -9 131.5t-29 86.5t-51.5 48t-75.5 15t-75 -15t-51 -48t-29 -86.5
t-9 -131.5q0 -74 9 -124.5t29 -82.5t51 -46t75 -14t75.5 14t51.5 46t29 82.5t9 124.5z" />
    <glyph glyph-name="one.tf" horiz-adv-x="676" 
d="M181 0v89h129v519l-139 -67v96l158 74v1h84v-623h126v-89h-358z" />
    <glyph glyph-name="two.tf" horiz-adv-x="676" 
d="M106 2v92l17 14t44.5 38t63.5 56t74 68q33 31 62 59t51 56t35 57.5t13 63.5q0 65 -33 94.5t-93 29.5q-62 0 -97 -30t-35 -96h-105q0 110 61 163.5t176 53.5q111 0 170.5 -52.5t59.5 -161.5q0 -44 -12.5 -80.5t-34 -69.5t-49.5 -63t-59 -61q-32 -32 -63 -58.5t-56 -46.5
q-29 -23 -55 -41q84 0 153 1q29 0 58 0.5t52.5 1t40.5 0.5h22v-88h-461z" />
    <glyph glyph-name="three.tf" horiz-adv-x="676" 
d="M352 456q113 -10 170.5 -68.5t57.5 -162.5q0 -113 -62.5 -173t-190.5 -60q-59 0 -103.5 16t-74.5 44.5t-45 67.5t-15 86h96q0 -22 8 -44t25.5 -39.5t44 -28.5t64.5 -11q79 0 113.5 40t34.5 102q0 31 -9 57t-29.5 45t-52 29.5t-76.5 10.5q-16 0 -31 -1t-27 -3l-28 -4v89
l210 165l-313 -5v88h442v-81h1z" />
    <glyph glyph-name="four.tf" horiz-adv-x="676" 
d="M404 0l1 141h-341v91l337 468h106v-468h85v-91h-85v-141h-103zM408 562l-236 -330h233z" />
    <glyph glyph-name="five.tf" horiz-adv-x="676" 
d="M245 608l-29 -184q20 16 54.5 30t88.5 14q109 0 168.5 -62.5t59.5 -178.5q0 -115 -61.5 -175t-192.5 -60q-63 0 -109 16t-76 43t-44.5 63.5t-14.5 78.5h96q0 -17 8.5 -36t26.5 -35.5t46 -27.5t67 -11q77 0 113 40t36 104q0 32 -9.5 59.5t-28 47.5t-46.5 31.5t-65 11.5
q-35 0 -59 -8t-40 -19t-24 -21.5t-11 -14.5v-3h-1l-91 1l46 296h-1l11 88h386v-88h-304z" />
    <glyph glyph-name="six.tf" horiz-adv-x="676" 
d="M470 522q0 17 -7 36t-22.5 34.5t-39.5 26t-58 10.5q-33 0 -58 -10t-43.5 -36t-30 -71t-16.5 -115q27 27 70 48t108 21t108.5 -20t69.5 -53.5t37 -77t11 -91.5q0 -50 -13.5 -92.5t-44 -74.5t-79.5 -50t-119 -18t-119 20t-79.5 61t-44.5 101.5t-14 141.5q0 109 14.5 186.5
t46 126.5t80 71.5t116.5 22.5q67 0 111.5 -18.5t71.5 -47t38.5 -63.5t11.5 -69h-106zM191 293q1 -60 12 -101t30 -66t46.5 -35.5t63.5 -10.5q75 0 113 37.5t38 106.5q0 68 -33.5 109.5t-107.5 41.5q-63 0 -102 -25t-60 -57z" />
    <glyph glyph-name="seven.tf" horiz-adv-x="676" 
d="M217 0q0 62 10.5 121.5t28 113.5t40 103t46.5 90q55 97 126 179h-362v91h476v-91q-74 -85 -131 -184q-25 -42 -48.5 -91t-42 -103t-29.5 -111.5t-11 -117.5h-103z" />
    <glyph glyph-name="eight.tf" horiz-adv-x="676" 
d="M473 382q12 -1 33.5 -11.5t43 -32t37 -55.5t15.5 -82t-13.5 -87t-44 -66.5t-80.5 -42.5t-122 -15t-122 15t-80.5 42.5t-44 66.5t-13.5 87t15.5 82t36.5 55.5t42.5 32t33.5 11.5q-8 1 -25.5 9.5t-35 25.5t-31 44t-13.5 65q0 43 12.5 79t40.5 62t73 40.5t111 14.5
t111 -14.5t73 -40.5t40.5 -62t12.5 -79q0 -38 -13 -65t-31 -44t-35.5 -25.5t-26.5 -9.5zM496 207q0 60 -36 93.5t-119 33.5t-119 -33.5t-36 -93.5q0 -62 37 -94t118 -32t118 32t37 94zM473 517q0 115 -132 115t-132 -115q0 -47 31 -73t101 -26t101 26t31 73z" />
    <glyph glyph-name="nine.tf" horiz-adv-x="676" 
d="M201 186q0 -17 7 -35.5t23.5 -34t43 -26t66.5 -10.5q34 0 60 8.5t44 32t29 65t16 106.5q-28 -28 -71 -49.5t-107 -21.5q-62 0 -105 20.5t-70 56t-39 82t-12 98.5t14.5 96t45.5 76.5t79 51t116 18.5q136 1 197 -81.5t61 -251.5q0 -109 -14 -184.5t-44.5 -123t-80 -69
t-119.5 -21.5q-72 0 -119.5 19t-75.5 48.5t-39 64t-11 65.5h105zM494 388q0 70 -10 116.5t-29.5 74t-48 39t-65.5 11.5q-75 0 -112.5 -38.5t-37.5 -112.5q0 -78 34 -122t106 -44q32 0 57.5 6.5t45 17t34.5 24t26 28.5z" />
    <glyph glyph-name="fraction" unicode="&#x2044;" horiz-adv-x="238" 
d="M-163 -40l476 814h92l-476 -814h-92z" />
    <glyph glyph-name="onehalf" unicode="&#xbd;" horiz-adv-x="796" 
d="M77 325v348l-75 -34v67l105 44h57v-425h-87zM44 -40l476 814h92l-476 -814h-92zM462 2v69q17 12 36 27q17 13 38.5 29.5t45.5 35.5q19 16 38 30.5t33 30t23 32t9 36.5q0 29 -18 47t-51 18t-50.5 -19t-17.5 -54h-88q0 68 36.5 107.5t119.5 39.5q41 0 70 -10t47.5 -28
t27 -42.5t8.5 -52.5q0 -26 -8 -48t-21.5 -41t-30.5 -36t-34 -32q-33 -29 -59.5 -50t-29.5 -23q1 0 13.5 0.5t31.5 1t41 1.5t42 1.5t35 1t19 0.5v-72h-306z" />
    <glyph glyph-name="onequarter" unicode="&#xbc;" horiz-adv-x="776" 
d="M77 325v348l-75 -34v67l105 44h57v-425h-87zM44 -40l476 814h92l-476 -814h-92zM633 0v77h-211v66l205 278h92v-278h48v-66h-48v-77h-86zM633 330l-136 -187h136v187z" />
    <glyph glyph-name="threequarters" unicode="&#xbe;" horiz-adv-x="926" 
d="M220 590q60 -12 86.5 -45.5t26.5 -87.5q0 -29 -9 -54.5t-28 -44t-50 -29.5t-74 -11t-73 11t-49 29.5t-28 43.5t-9 53h88q0 -25 17 -45.5t53 -20.5q38 0 55.5 20.5t17.5 52.5q0 36 -20 58.5t-65 22.5q-8 0 -17 -1t-17 -2q-9 -2 -18 -3v52h2l110 87l-188 -5v72h295v-63z
M194 -40l476 814h92l-476 -814h-92zM783 0v77h-211v66l205 278h92v-278h48v-66h-48v-77h-86zM783 330l-136 -187h136v187z" />
    <glyph glyph-name="oneeighth" unicode="&#x215b;" horiz-adv-x="820" 
d="M77 325v348l-75 -34v67l105 44h57v-425h-87zM44 -40l476 814h92l-476 -814h-92zM713 228q8 -1 21.5 -7.5t26 -19.5t21.5 -33.5t9 -48.5q0 -29 -8 -52t-27.5 -39.5t-51 -25.5t-78.5 -9t-79 9t-51.5 25.5t-28 39.5t-8.5 52q0 28 9 48t21.5 33.5t25.5 20t21 7.5
q-6 1 -16.5 6t-20.5 15.5t-17.5 26t-7.5 37.5q0 25 7.5 47t25 37.5t46.5 24.5t73 9q43 0 72 -9t46 -24.5t24.5 -37.5t7.5 -47q0 -22 -7.5 -38t-18 -26.5t-21 -15.5t-16.5 -5zM704 129q0 31 -18 51t-60 20t-60 -20t-18 -51q0 -35 18.5 -53.5t59.5 -18.5t59.5 18.5t18.5 53.5z
M695 306q0 68 -69 68q-70 0 -70 -68q0 -26 16 -41.5t54 -15.5q37 0 53 15.5t16 41.5z" />
    <glyph glyph-name="threeeighths" unicode="&#x215c;" horiz-adv-x="970" 
d="M220 590q60 -12 86.5 -45.5t26.5 -87.5q0 -29 -9 -54.5t-28 -44t-50 -29.5t-74 -11t-73 11t-49 29.5t-28 43.5t-9 53h88q0 -25 17 -45.5t53 -20.5q38 0 55.5 20.5t17.5 52.5q0 36 -20 58.5t-65 22.5q-8 0 -17 -1t-17 -2q-9 -2 -18 -3v52h2l110 87l-188 -5v72h295v-63z
M194 -40l476 814h92l-476 -814h-92zM863 228q8 -1 21.5 -7.5t26 -19.5t21.5 -33.5t9 -48.5q0 -29 -8 -52t-27.5 -39.5t-51 -25.5t-78.5 -9t-79 9t-51.5 25.5t-28 39.5t-8.5 52q0 28 9 48t21.5 33.5t25.5 20t21 7.5q-6 1 -16.5 6t-20.5 15.5t-17.5 26t-7.5 37.5q0 25 7.5 47
t25 37.5t46.5 24.5t73 9q43 0 72 -9t46 -24.5t24.5 -37.5t7.5 -47q0 -22 -7.5 -38t-18 -26.5t-21 -15.5t-16.5 -5zM854 129q0 31 -18 51t-60 20t-60 -20t-18 -51q0 -35 18.5 -53.5t59.5 -18.5t59.5 18.5t18.5 53.5zM845 306q0 68 -69 68q-70 0 -70 -68q0 -26 16 -41.5
t54 -15.5q37 0 53 15.5t16 41.5z" />
    <glyph glyph-name="fiveeighths" unicode="&#x215d;" horiz-adv-x="976" 
d="M135 682l-15 -102q13 10 33.5 17.5t52.5 7.5q35 0 60.5 -11t42.5 -30t25 -44.5t8 -55.5t-9 -56t-28.5 -45.5t-50.5 -30.5t-74 -11q-44 0 -75 11t-50.5 28.5t-28 39.5t-8.5 44h88q0 -9 4.5 -19t13.5 -18.5t23 -14t33 -5.5q38 0 56 21t18 56q0 36 -18 58.5t-56 22.5
q-20 0 -33 -5t-21.5 -11.5t-12.5 -12t-4 -6.5l-81 2l26 172h1l9 62h254v-68zM200 -40l476 814h92l-476 -814h-92zM869 228q8 -1 21.5 -7.5t26 -19.5t21.5 -33.5t9 -48.5q0 -29 -8 -52t-27.5 -39.5t-51 -25.5t-78.5 -9t-79 9t-51.5 25.5t-28 39.5t-8.5 52q0 28 9 48
t21.5 33.5t25.5 20t21 7.5q-6 1 -16.5 6t-20.5 15.5t-17.5 26t-7.5 37.5q0 25 7.5 47t25 37.5t46.5 24.5t73 9q43 0 72 -9t46 -24.5t24.5 -37.5t7.5 -47q0 -22 -7.5 -38t-18 -26.5t-21 -15.5t-16.5 -5zM860 129q0 31 -18 51t-60 20t-60 -20t-18 -51q0 -35 18.5 -53.5
t59.5 -18.5t59.5 18.5t18.5 53.5zM851 306q0 68 -69 68q-70 0 -70 -68q0 -26 16 -41.5t54 -15.5q37 0 53 15.5t16 41.5z" />
    <glyph glyph-name="seveneighths" unicode="&#x215e;" horiz-adv-x="894" 
d="M62 325q0 72 22.5 135.5t50.5 111.5q32 56 73 105l-204 -3v71h298v-71q-40 -52 -72 -109q-27 -49 -49 -111.5t-22 -128.5h-97zM118 -40l476 814h92l-476 -814h-92zM787 228q8 -1 21.5 -7.5t26 -19.5t21.5 -33.5t9 -48.5q0 -29 -8 -52t-27.5 -39.5t-51 -25.5t-78.5 -9
t-79 9t-51.5 25.5t-28 39.5t-8.5 52q0 28 9 48t21.5 33.5t25.5 20t21 7.5q-6 1 -16.5 6t-20.5 15.5t-17.5 26t-7.5 37.5q0 25 7.5 47t25 37.5t46.5 24.5t73 9q43 0 72 -9t46 -24.5t24.5 -37.5t7.5 -47q0 -22 -7.5 -38t-18 -26.5t-21 -15.5t-16.5 -5zM778 129q0 31 -18 51
t-60 20t-60 -20t-18 -51q0 -35 18.5 -53.5t59.5 -18.5t59.5 18.5t18.5 53.5zM769 306q0 68 -69 68q-70 0 -70 -68q0 -26 16 -41.5t54 -15.5q37 0 53 15.5t16 41.5z" />
    <glyph glyph-name="zero.dnom" horiz-adv-x="396" 
d="M28 207q0 56 8 98t27.5 69.5t52.5 41.5t82 14t82 -14t52.5 -41.5t27.5 -69.5t8 -98q0 -54 -8 -94t-27.5 -67t-52.5 -40.5t-82 -13.5t-82 13.5t-52.5 40.5t-27.5 67t-8 94zM282 207q0 82 -18.5 115t-65.5 33q-45 0 -63.5 -33t-18.5 -115q0 -76 18.5 -107.5t63.5 -31.5
q47 0 65.5 31.5t18.5 107.5z" />
    <glyph glyph-name="one.dnom" horiz-adv-x="206" 
d="M77 0v348l-75 -33v65l105 45h56v-425h-86z" />
    <glyph glyph-name="two.dnom" horiz-adv-x="351" 
d="M17 2v69q17 12 36 27q17 13 38.5 29.5t45.5 35.5q19 16 38 30.5t33 30t23 32t9 36.5q0 29 -18 47t-51 18t-50.5 -19t-17.5 -54h-88q0 68 36.5 107.5t119.5 39.5q41 0 70 -10t47.5 -28t27 -42.5t8.5 -52.5q0 -26 -8 -48t-21.5 -41t-30.5 -36t-34 -32q-33 -29 -59.5 -50
t-29.5 -23q1 0 13.5 0.5t31.5 1t41 1.5t42 1.5t35 1t19 0.5v-72h-306z" />
    <glyph glyph-name="three.dnom" horiz-adv-x="357" 
d="M218 264q61 -11 88 -44.5t27 -87.5q0 -29 -9 -54.5t-28 -44t-50 -29.5t-74 -11t-73 11t-49 29.5t-28 43.5t-9 53h86q0 -25 17.5 -46t54.5 -21q39 0 56 20.5t17 53.5q0 36 -20 58.5t-65 22.5q-8 0 -17 -1t-17 -2l-18 -2v51h2l111 88l-189 -6v72h294v-62z" />
    <glyph glyph-name="four.dnom" horiz-adv-x="359" 
d="M216 0v77h-211v66l205 278h92v-278h48v-66h-48v-77h-86zM216 330l-136 -187h136v187z" />
    <glyph glyph-name="five.dnom" horiz-adv-x="363" 
d="M135 353l-16 -102q13 10 33.5 17.5t52.5 7.5q35 0 61 -11t43 -30t25 -44.5t8 -55.5t-9 -56t-28.5 -45t-50.5 -30t-74 -11q-44 0 -75 10.5t-50.5 28t-28 39t-8.5 43.5h87q0 -9 4.5 -18.5t13.5 -18t23 -14t34 -5.5q39 0 57.5 21t18.5 56q0 36 -19 59t-57 23q-20 0 -33.5 -5
t-22 -11.5t-12.5 -12.5t-4 -7l-79 2l26 172l8 63h255v-68z" />
    <glyph glyph-name="six.dnom" horiz-adv-x="391" 
d="M265 308q0 19 -15.5 38.5t-52.5 19.5q-17 0 -30.5 -5.5t-23.5 -20t-16 -39t-9 -62.5q16 14 39.5 24.5t58.5 10.5q40 0 68 -11t45.5 -29.5t25 -44t7.5 -54.5t-8.5 -55t-28 -45.5t-51.5 -31t-78 -11.5q-92 -1 -130 48.5t-38 148.5q0 67 9.5 113t30 74.5t52.5 41.5t77 13
q43 0 71.5 -11.5t46 -29t25 -39.5t7.5 -43h-82zM116 172q2 -63 21.5 -88.5t59.5 -25.5t59 22t19 58q0 38 -19.5 58.5t-55.5 20.5q-33 0 -53 -14.5t-31 -30.5z" />
    <glyph glyph-name="seven.dnom" horiz-adv-x="305" 
d="M63 0q0 72 22.5 136t50.5 112q32 56 73 104l-205 -3v70h297v-70q-40 -51 -72 -108q-27 -49 -49 -112t-22 -129h-95z" />
    <glyph glyph-name="eight.dnom" horiz-adv-x="389" 
d="M282 228q8 -1 21.5 -7.5t26 -19.5t21.5 -33.5t9 -48.5q0 -29 -8 -52t-27.5 -39.5t-51 -25.5t-78.5 -9t-79 9t-51.5 25.5t-28 39.5t-8.5 52q0 28 9 48t21.5 33.5t25.5 20t21 7.5q-6 1 -16.5 6t-20.5 15.5t-17.5 26t-7.5 37.5q0 25 7.5 47t25 37.5t46.5 24.5t73 9
q43 0 72 -9t46 -24.5t24.5 -37.5t7.5 -47q0 -22 -7.5 -38t-18 -26.5t-21 -15.5t-16.5 -5zM273 129q0 31 -18 51t-60 20t-60 -20t-18 -51q0 -35 18.5 -53.5t59.5 -18.5t59.5 18.5t18.5 53.5zM264 306q0 68 -69 68q-70 0 -70 -68q0 -26 16 -41.5t54 -15.5q37 0 53 15.5
t16 41.5z" />
    <glyph glyph-name="nine.dnom" horiz-adv-x="391" 
d="M115 115q0 -20 17.5 -38.5t58.5 -18.5q18 0 32 4.5t23.5 17.5t16 35t9.5 58q-16 -14 -39.5 -24.5t-58.5 -10.5q-41 0 -69 11t-45 31t-24.5 47t-7.5 60q0 29 9 55t28.5 45.5t51 31.5t76.5 12q91 0 130 -48.5t39 -153.5q0 -67 -9 -112.5t-29.5 -73t-53 -39.5t-79.5 -12
q-46 0 -76.5 11.5t-49 29.5t-26 39.5t-7.5 42.5h83zM275 241q-2 69 -22.5 97t-59.5 28q-40 0 -58.5 -22t-18.5 -60q0 -88 74 -88q34 0 54 14.5t31 30.5z" />
    <glyph glyph-name="zero.numr" horiz-adv-x="396" 
d="M28 532q0 56 8 98t27.5 69.5t52.5 41.5t82 14t82 -14t53 -41.5t28 -69.5t8 -98q0 -54 -8 -94t-28 -67t-53 -40.5t-82 -13.5t-82 13.5t-52.5 40.5t-27.5 67t-8 94zM280 532q0 82 -18.5 115.5t-64.5 33.5q-45 0 -63 -33.5t-18 -115.5q0 -77 18 -108t63 -31q46 0 64.5 31
t18.5 108z" />
    <glyph glyph-name="one.numr" horiz-adv-x="207" 
d="M77 325v348l-75 -34v67l105 44h57v-425h-87z" />
    <glyph glyph-name="two.numr" horiz-adv-x="351" 
d="M17 327v69q17 12 36 27q17 13 38 29.5t45 36.5q19 16 38 30.5t33 30t23 32t9 35.5q0 29 -17.5 47.5t-50.5 18.5q-32 0 -49.5 -19.5t-17.5 -54.5h-89q0 68 36.5 107.5t119.5 39.5q41 0 70.5 -10t48 -28t27 -42t8.5 -52q0 -26 -8 -48.5t-21.5 -42t-30.5 -36.5t-34 -32
q-16 -14 -31.5 -26.5t-27.5 -22.5t-20 -16t-9 -7q1 0 27 1t58.5 2t61 2t34.5 1v-72h-307z" />
    <glyph glyph-name="three.numr" horiz-adv-x="357" 
d="M220 590q60 -12 86.5 -45.5t26.5 -87.5q0 -29 -9 -54.5t-28 -44t-50 -29.5t-74 -11t-73 11t-49 29.5t-28 43.5t-9 53h88q0 -25 17 -45.5t53 -20.5q38 0 55.5 20.5t17.5 52.5q0 36 -20 58.5t-65 22.5q-8 0 -17 -1t-17 -2q-9 -2 -18 -3v52h2l110 87l-188 -5v72h295v-63z
" />
    <glyph glyph-name="four.numr" horiz-adv-x="359" 
d="M215 325v77h-210v66l205 278h93v-278h48v-66h-48v-77h-88zM215 653l-134 -185h134v185z" />
    <glyph glyph-name="five.numr" horiz-adv-x="363" 
d="M135 682l-15 -102q13 10 33.5 17.5t52.5 7.5q35 0 60.5 -11t42.5 -30t25 -44.5t8 -55.5t-9 -56t-28.5 -45.5t-50.5 -30.5t-74 -11q-44 0 -75 11t-50.5 28.5t-28 39.5t-8.5 44h88q0 -9 4.5 -19t13.5 -18.5t23 -14t33 -5.5q38 0 56 21t18 56q0 36 -18 58.5t-56 22.5
q-20 0 -33 -5t-21.5 -11.5t-12.5 -12t-4 -6.5l-81 2l26 172h1l9 62h254v-68z" />
    <glyph glyph-name="six.numr" horiz-adv-x="390" 
d="M264 633q0 10 -3.5 20t-11.5 18.5t-21 14t-31 5.5q-17 0 -30.5 -5.5t-23 -20t-15.5 -39t-9 -62.5q16 14 39 24.5t58 10.5q41 0 69 -11t45.5 -29.5t25 -44t7.5 -54.5t-8.5 -55t-28 -45.5t-51.5 -31t-78 -11.5q-92 -1 -130.5 48.5t-38.5 147.5q0 67 9.5 113.5t30 75.5
t52.5 41.5t77 12.5q43 0 72 -11.5t46.5 -29t25 -39.5t7.5 -43h-84zM117 498q2 -62 21.5 -88.5t58.5 -26.5q40 0 58.5 21.5t18.5 58.5q0 38 -19 58.5t-55 20.5q-33 0 -52.5 -14t-30.5 -30z" />
    <glyph glyph-name="seven.numr" horiz-adv-x="306" 
d="M62 325q0 72 22.5 135.5t50.5 111.5q32 56 73 105l-204 -3v71h298v-71q-40 -52 -72 -109q-27 -49 -49 -111.5t-22 -128.5h-97z" />
    <glyph glyph-name="eight.numr" horiz-adv-x="388" 
d="M284 553q7 -1 20 -7.5t26 -20t22 -33.5t9 -48q0 -29 -8 -52t-27.5 -39.5t-51.5 -25.5t-79 -9q-48 0 -80 9t-51.5 25.5t-27.5 39.5t-8 52q0 28 9 48t21 33t25 20t21 8q-6 1 -16.5 6t-20 15.5t-17 26.5t-7.5 38q0 25 7.5 46.5t25 37.5t46.5 25t73 9q43 0 72 -9t46.5 -25
t24.5 -37.5t7 -46.5q0 -23 -7.5 -38.5t-17.5 -26t-20 -15.5t-16 -6zM270 454q0 31 -17 51t-59 20t-59 -20t-17 -51q0 -35 18 -53.5t58 -18.5t58 18.5t18 53.5zM262 631q0 68 -68 68t-68 -68q0 -26 16 -41.5t52 -15.5q37 0 52.5 15.5t15.5 41.5z" />
    <glyph glyph-name="nine.numr" horiz-adv-x="390" 
d="M117 440q0 -19 16.5 -38t58.5 -19q18 0 31.5 4.5t23 17.5t15.5 35t9 58q-16 -14 -39 -24t-58 -10q-41 0 -69 11t-45 30.5t-24.5 46.5t-7.5 59q0 30 9 56t28.5 45.5t51 31.5t76.5 12q92 1 131 -48t39 -154q0 -67 -9 -112.5t-29.5 -73t-53 -39.5t-79.5 -12t-77.5 11.5
t-49 29.5t-26 40t-7.5 42h85zM274 566q-2 69 -22 96.5t-59 27.5t-57.5 -22t-18.5 -59q0 -88 73 -88q33 0 53 14.5t31 30.5z" />
    <glyph glyph-name="uni2070" unicode="&#x2070;" horiz-adv-x="435" 
d="M31 575q0 62 9 108.5t31 77t57.5 46t89.5 15.5t89.5 -15.5t57 -46t30.5 -77t9 -108.5q0 -59 -9 -103.5t-30.5 -74t-57 -44.5t-89.5 -15t-89.5 15t-57.5 44.5t-31 74t-9 103.5zM311 575q0 92 -21 130t-73 38q-50 0 -71.5 -38t-21.5 -130q0 -86 21.5 -121.5t71.5 -35.5
q52 0 73 35.5t21 121.5z" />
    <glyph glyph-name="uni00B9" unicode="&#xb9;" horiz-adv-x="226" 
d="M85 346v389l-83 -38v70l115 49h60v-470h-92z" />
    <glyph glyph-name="uni00B2" unicode="&#xb2;" horiz-adv-x="385" 
d="M19 349v73q19 14 40 31q18 14 42 33t50 40q22 18 42.5 34.5t36.5 34t25.5 36t9.5 40.5q0 33 -19.5 53t-57.5 20t-57.5 -21.5t-19.5 -60.5h-94q0 74 40.5 117t130.5 43q44 0 75.5 -11t52 -30.5t30 -46t9.5 -57.5q0 -29 -9 -53.5t-24 -46t-33.5 -40t-37.5 -35.5
q-20 -18 -37.5 -33.5t-31.5 -26.5q-17 -13 -31 -24q52 1 95 3q37 2 69 3t39 1v-76h-335z" />
    <glyph glyph-name="uni00B3" unicode="&#xb3;" horiz-adv-x="391" 
d="M237 639q67 -12 97.5 -49.5t30.5 -97.5q0 -32 -10 -60t-31 -48.5t-54.5 -32.5t-80.5 -12t-80 12t-54 32.5t-30.5 47.5t-9.5 57h92q0 -28 19.5 -51.5t60.5 -23.5q45 0 65 23.5t20 61.5q0 41 -23 66t-74 25q-9 0 -19.5 -1t-18.5 -2q-10 -2 -19 -3v56l125 99l-208 -6v76h321
v-66z" />
    <glyph glyph-name="uni2074" unicode="&#x2074;" horiz-adv-x="393" 
d="M238 346v87h-232v70l227 308h97v-308h54v-70h-54v-87h-92zM238 712l-152 -209h152v209z" />
    <glyph glyph-name="uni2075" unicode="&#x2075;" horiz-adv-x="398" 
d="M146 744l-17 -115q14 11 37 19t58 8q38 0 66.5 -12t47 -33t28 -49t9.5 -61t-10 -62t-31.5 -50.5t-55 -33.5t-80.5 -12q-48 0 -82 12t-55.5 31t-31 43t-9.5 48h92q0 -10 5 -21.5t15.5 -21t27 -16t38.5 -6.5q44 0 64.5 23.5t20.5 65.5q0 41 -21.5 66t-63.5 25
q-20 0 -34 -4.5t-24 -10.5t-15.5 -12.5t-7.5 -9.5v-2h-1l-84 1l30 192h-1l9 66h278v-72z" />
    <glyph glyph-name="uni2076" unicode="&#x2076;" horiz-adv-x="428" 
d="M293 687q0 11 -4 23t-13.5 21.5t-24 16t-35.5 6.5q-20 0 -35 -6.5t-26 -23t-18 -44.5t-10 -71q18 17 44 29t66 12q44 0 74.5 -12t49.5 -33t27.5 -49t8.5 -60t-9.5 -61t-31 -50.5t-56.5 -34t-85 -12.5q-99 -1 -141.5 53t-42.5 163q0 74 10.5 125t33 83t57.5 46t84 14
q46 0 78 -12.5t51 -32t27.5 -43.5t8.5 -47h-88zM125 538q2 -71 24 -101t67 -30t66.5 24.5t21.5 66.5q0 44 -21.5 67.5t-62.5 23.5q-38 0 -60.5 -16.5t-34.5 -34.5z" />
    <glyph glyph-name="uni2077" unicode="&#x2077;" horiz-adv-x="335" 
d="M69 346q0 80 25 151t56 125q36 62 82 116l-228 -3v75h326v-75q-45 -57 -80 -120q-30 -55 -54.5 -124.5t-24.5 -144.5h-102z" />
    <glyph glyph-name="uni2078" unicode="&#x2078;" horiz-adv-x="426" 
d="M309 598q9 -1 23.5 -8.5t28.5 -21.5t24 -36.5t10 -53.5q0 -32 -9 -57.5t-30 -43.5t-56 -28t-86 -10q-52 0 -87 10t-56.5 28t-30.5 43.5t-9 57.5q0 31 10 53.5t24 36.5t28 21.5t23 8.5q-6 0 -17.5 6t-22.5 17t-19.5 29t-8.5 42q0 28 8 52t27.5 41.5t51 27.5t79.5 10
q47 0 78.5 -10t50.5 -27.5t27 -41.5t8 -52q0 -24 -8.5 -42t-19.5 -29t-22.5 -17t-18.5 -6zM301 487q0 36 -20 59t-68 23t-67.5 -23t-19.5 -59q0 -39 21 -59.5t66 -20.5q88 0 88 80zM291 685q0 77 -78 77t-78 -77q0 -29 18 -46.5t60 -17.5t60 17.5t18 46.5z" />
    <glyph glyph-name="uni2079" unicode="&#x2079;" horiz-adv-x="428" 
d="M125 472q0 -11 4.5 -22t14.5 -21t26.5 -16t40.5 -6q20 0 35.5 5.5t26.5 20t18 40t10 66.5q-17 -17 -43.5 -28.5t-65.5 -11.5q-45 0 -75.5 12t-49.5 34t-27.5 52t-8.5 66q0 33 9.5 61.5t31.5 50.5t56 34.5t84 12.5q99 1 142 -53.5t43 -169.5q0 -74 -10 -124t-32 -80.5
t-57.5 -43.5t-86.5 -13t-84.5 12.5t-53.5 32t-28.5 43.5t-8.5 46h89zM304 611q-2 79 -24.5 110.5t-67.5 31.5t-66 -25t-21 -68q0 -100 83 -100q38 0 61 16.5t35 34.5z" />
    <glyph glyph-name="asterisk" unicode="*" horiz-adv-x="376" 
d="M241 443l-53 84l-53 -84l-72 50l74 79l-97 13l19 84l96 -36l-10 95h86l-9 -95l96 36l18 -84l-96 -13l73 -79z" />
    <glyph glyph-name="backslash" unicode="\" horiz-adv-x="491" 
d="M350 -40l-310 840h101l310 -840h-101z" />
    <glyph glyph-name="periodcentered" unicode="&#xb7;" horiz-adv-x="201" 
d="M50 234v126h101v-126h-101z" />
    <glyph glyph-name="bullet" unicode="&#x2022;" horiz-adv-x="409" 
d="M134 220v155h141v-155h-141z" />
    <glyph glyph-name="colon" unicode=":" horiz-adv-x="221" 
d="M60 0v125h101v-125h-101zM60 353v125h101v-125h-101z" />
    <glyph glyph-name="comma" unicode="," horiz-adv-x="227" 
d="M6 -122q8 18 17 40q8 19 15.5 43t14.5 53q6 28 9 49l5 35q2 17 2 28h103q0 -13 -3 -31q-2 -15 -6 -37.5t-12 -50.5q-8 -30 -18 -54t-18 -41q-10 -19 -20 -34h-89z" />
    <glyph glyph-name="uni2016" unicode="&#x2016;" horiz-adv-x="435" 
d="M81 -180v1000h87v-1000h-87zM266 -180v1000h87v-1000h-87z" />
    <glyph glyph-name="ellipsis" unicode="&#x2026;" horiz-adv-x="609" 
d="M66 0v125h101v-125h-101zM254 0v125h101v-125h-101zM441 0v125h101v-125h-101z" />
    <glyph glyph-name="exclam" unicode="!" horiz-adv-x="262" 
d="M81 0v116h99v-116h-99zM87 176l-6 536h99l-6 -536h-87z" />
    <glyph glyph-name="exclamdown" unicode="&#xa1;" horiz-adv-x="262" 
d="M81 -173l6 536h87l6 -536h-99zM81 423v116h99v-116h-99z" />
    <glyph glyph-name="numbersign" unicode="#" horiz-adv-x="723" 
d="M357 0l39 197h-148l-39 -197h-92l39 197h-101v72h116l37 188h-106v72h121l34 173h92l-34 -173h148l34 173h92l-34 -173h99v-72h-114l-37 -188h104v-72h-119l-39 -197h-92zM448 457h-148l-37 -188h148z" />
    <glyph glyph-name="period" unicode="." horiz-adv-x="207" 
d="M53 0v125h101v-125h-101z" />
    <glyph glyph-name="question" unicode="?" horiz-adv-x="481" 
d="M173 0v116h100v-116h-100zM176 176l1 26q0 48 11.5 81t28 57.5t36.5 44t36.5 40t28 45t11.5 59.5q0 51 -23 83t-82 32q-60 0 -83 -36.5t-23 -104.5h-101q0 116 50 174.5t159 58.5q57 0 96 -14.5t63 -40.5t34.5 -61.5t10.5 -77.5q0 -47 -12 -80t-29.5 -58t-38.5 -45.5
t-38.5 -43t-29.5 -49t-12 -64.5v-26h-94z" />
    <glyph glyph-name="questiondown" unicode="&#xbf;" horiz-adv-x="481" 
d="M208 405v116h100v-116h-100zM464 18q0 -116 -50 -174.5t-159 -58.5q-57 0 -96 14.5t-63 40.5t-34.5 61.5t-10.5 77.5q0 47 12 80t29.5 58t38.5 45.5t38.5 43t29.5 49t12 64.5v26h94l-1 -26q0 -48 -11.5 -81t-28 -57.5t-36.5 -44t-36.5 -40t-28 -45t-11.5 -59.5
q0 -51 23 -83t83 -32q59 0 82 36.5t23 104.5h101z" />
    <glyph glyph-name="quotedbl" unicode="&#x22;" horiz-adv-x="311" 
d="M28 546l-11 208h109l-11 -208h-87zM197 546l-11 208h109l-11 -208h-87z" />
    <glyph glyph-name="quotesingle" unicode="'" horiz-adv-x="130" 
d="M22 546l-11 208h109l-11 -208h-87z" />
    <glyph glyph-name="semicolon" unicode=";" horiz-adv-x="242" 
d="M8 -122q8 18 17 40q8 19 15.5 43t14.5 53q6 28 9 49l5 35q2 17 2 28h103q0 -13 -3 -31q-2 -15 -6 -37.5t-12 -50.5q-8 -30 -18 -54t-18 -41q-10 -19 -20 -34h-89zM78 353v122h101v-122h-101z" />
    <glyph glyph-name="slash" unicode="/" horiz-adv-x="464" 
d="M40 -40l310 840h101l-310 -840h-101z" />
    <glyph glyph-name="underscore" unicode="_" horiz-adv-x="539" 
d="M61 0v78h416v-78h-416z" />
    <glyph glyph-name="exclamdown.case" horiz-adv-x="262" 
d="M81 0l6 537h87l6 -537h-99zM81 597v115h99v-115h-99z" />
    <glyph glyph-name="questiondown.case" horiz-adv-x="474" 
d="M208 597v115h100v-115h-100zM464 210q0 -116 -50 -174.5t-159 -58.5q-57 0 -96 14.5t-63 40.5t-34.5 61.5t-10.5 77.5q0 47 12 79.5t29.5 58t38.5 46t38.5 42.5t29.5 48.5t12 64.5v27h94l-1 -27q0 -48 -11.5 -81t-28 -57.5t-36.5 -43.5t-36.5 -39.5t-28 -45t-11.5 -59.5
q0 -52 23 -84t83 -32q59 0 82 37t23 105h101z" />
    <glyph glyph-name="braceleft" unicode="{" horiz-adv-x="382" 
d="M372 -190q-78 0 -125 9t-71.5 31t-32 58.5t-7.5 90.5q0 23 -0.5 68.5t-0.5 119.5q0 15 -3 25.5t-12.5 17.5t-26.5 10t-45 3v84q28 0 45 3t26.5 9.5t12.5 17t3 25.5v194q0 54 7.5 89.5t32.5 56.5t72 29t125 8v-91q-45 0 -72 -4.5t-41.5 -16.5t-19 -34t-4.5 -56v-27.5
t-0.5 -36t-0.5 -47.5v-64q0 -29 -8.5 -47.5t-19 -29.5t-20 -15.5t-11.5 -5.5q1 0 10.5 -4.5t20.5 -15t20 -29.5t9 -48v-29t0.5 -47.5t0.5 -53.5v-45q0 -35 4.5 -56.5t19 -33.5t41 -16.5t71.5 -4.5v-91z" />
    <glyph glyph-name="braceright" unicode="}" horiz-adv-x="382" 
d="M10 -99q45 0 71.5 4.5t41 16.5t19 33.5t4.5 56.5v45t0.5 53.5t0.5 47.5v29q0 28 8.5 46.5t19 29.5t20 15.5t11.5 5.5q-1 0 -10.5 4.5t-20 15.5t-19 30t-8.5 48v48t-0.5 50t-0.5 44.5v32.5q0 34 -4.5 56t-19 34t-41.5 16.5t-72 4.5v91q78 0 125 -8t72 -29t32.5 -56.5
t7.5 -89.5v-194q0 -15 3 -25.5t12.5 -17t26.5 -9.5t45 -3v-84q-28 0 -45 -3t-26.5 -10t-12.5 -17.5t-3 -25.5q0 -64 -0.5 -114.5t-0.5 -73.5q0 -54 -7.5 -90.5t-32 -58.5t-71.5 -31t-125 -9v91z" />
    <glyph glyph-name="bracketleft" unicode="[" horiz-adv-x="345" 
d="M80 -199v959h255v-91h-155v-777h155v-91h-255z" />
    <glyph glyph-name="bracketright" unicode="]" horiz-adv-x="345" 
d="M10 -199v91h155v777h-155v91h255v-959h-255z" />
    <glyph glyph-name="parenleft" unicode="(" horiz-adv-x="290" 
d="M184 -195q-35 56 -62 128q-23 62 -42.5 149.5t-19.5 198.5t16 199t36 151q23 73 52 129h100q-29 -59 -52 -133q-20 -63 -36 -151.5t-16 -194.5q0 -107 19.5 -194t42.5 -150q27 -74 62 -132h-100z" />
    <glyph glyph-name="parenright" unicode=")" horiz-adv-x="290" 
d="M6 -195q35 58 62 132q23 63 42.5 150t19.5 194q0 106 -16 194.5t-36 151.5q-23 74 -52 133h100q29 -56 52 -129q20 -63 36 -151t16 -199t-19.5 -198.5t-42.5 -149.5q-27 -72 -62 -128h-100z" />
    <glyph glyph-name="braceleft.case" horiz-adv-x="382" 
d="M372 -96q-78 0 -125 9t-71.5 31t-32 58.5t-7.5 91.5q0 23 -0.5 54.5t-0.5 85.5q0 15 -3 25.5t-12.5 17.5t-26.5 10t-45 3v84q28 0 45 3t26.5 9.5t12.5 17t3 25.5v147q0 54 7.5 89.5t32.5 56.5t72 29t125 8v-91q-45 0 -72 -4.5t-41.5 -16.5t-19 -34t-4.5 -56v-23.5
t-0.5 -25.5t-0.5 -33v-46q0 -29 -8.5 -47.5t-19 -29.5t-20 -15.5t-11.5 -4.5q1 0 10.5 -4.5t20.5 -15.5t20 -30t9 -48v-22t0.5 -31.5t0.5 -37v-37.5q0 -35 4.5 -56.5t19 -33.5t41 -16.5t71.5 -4.5v-91z" />
    <glyph glyph-name="braceright.case" horiz-adv-x="382" 
d="M10 -5q45 0 71.5 4.5t41 16.5t19 33.5t4.5 56.5v37.5t0.5 37t0.5 31.5v22q0 28 8.5 47t19 30t20 15.5t11.5 5.5q-1 0 -10.5 4.5t-20 15t-19 29.5t-8.5 48q0 45 -0.5 74t-0.5 54q0 34 -4.5 56t-19 34t-41.5 16.5t-72 4.5v91q78 0 125 -8t72 -29t32.5 -56.5t7.5 -89.5v-147
q0 -15 3 -25.5t12.5 -17t26.5 -9.5t45 -3v-84q-28 0 -45 -3t-26.5 -10t-12.5 -17.5t-3 -25.5q0 -45 -0.5 -81t-0.5 -59q0 -55 -7.5 -91.5t-32 -58.5t-71.5 -31t-125 -9v91z" />
    <glyph glyph-name="bracketleft.case" horiz-adv-x="345" 
d="M80 -86v846h255v-91h-155v-664h155v-91h-255z" />
    <glyph glyph-name="bracketright.case" horiz-adv-x="345" 
d="M10 -86v91h155v664h-155v91h255v-846h-255z" />
    <glyph glyph-name="parenleft.case" horiz-adv-x="290" 
d="M184 -107q-30 44 -54 106q-20 54 -36.5 134.5t-16.5 191.5t13 192.5t30 135.5q19 63 44 107h100l-13 -28t-29.5 -83t-30 -136.5t-13.5 -187.5q0 -107 16.5 -187t36.5 -135q24 -64 54 -110h-101z" />
    <glyph glyph-name="parenright.case" horiz-adv-x="290" 
d="M6 -107l16.5 27.5t36.5 82t36.5 135.5t16.5 187t-13.5 187.5t-30.5 136.5q-19 64 -43 111h101q24 -44 43 -107q17 -54 30.5 -135.5t13.5 -192.5t-17 -191.5t-37 -134.5q-24 -62 -53 -106h-100z" />
    <glyph glyph-name="emdash" unicode="&#x2014;" horiz-adv-x="898" 
d="M61 281v78h776v-78h-776z" />
    <glyph glyph-name="endash" unicode="&#x2013;" horiz-adv-x="539" 
d="M61 281v78h416v-78h-416z" />
    <glyph glyph-name="hyphen" unicode="-" horiz-adv-x="349" 
d="M61 281v78h226v-78h-226z" />
    <glyph glyph-name="guillemotleft" unicode="&#xab;" horiz-adv-x="498" 
d="M346 91l-117 158v26l117 165h108l-130 -179l130 -170h-108zM162 91l-117 158v26l117 165h108l-130 -179l130 -170h-108z" />
    <glyph glyph-name="guillemotright" unicode="&#xbb;" horiz-adv-x="498" 
d="M228 91l128 170l-128 179h108l117 -165v-26l-117 -158h-108zM45 91l128 170l-128 179h108l117 -165v-26l-117 -158h-108z" />
    <glyph glyph-name="guilsinglleft" unicode="&#x2039;" horiz-adv-x="318" 
d="M164 91l-117 158v26l117 165h108l-130 -179l130 -170h-108z" />
    <glyph glyph-name="guilsinglright" unicode="&#x203a;" horiz-adv-x="318" 
d="M46 91l128 170l-128 179h108l117 -165v-26l-117 -158h-108z" />
    <glyph glyph-name="quotedblbase" unicode="&#x201e;" horiz-adv-x="360" 
d="M176 -129q8 18 17 39q8 18 15.5 42.5t14.5 53.5q6 28 9 49l5 35q2 17 2 28h103q0 -13 -3 -31q-2 -15 -6 -37.5t-12 -50.5q-8 -30 -18 -53.5t-18 -40.5q-10 -19 -20 -34h-89zM4 -129q8 18 17 39q8 18 15.5 42.5t14.5 53.5q6 28 9 49l5 35q2 17 2 28h103q0 -13 -3 -31
q-2 -15 -6 -37.5t-12 -50.5q-8 -30 -18 -53.5t-18 -40.5q-10 -19 -20 -34h-89z" />
    <glyph glyph-name="quotedblleft" unicode="&#x201c;" horiz-adv-x="364" 
d="M194 512q0 13 3 31q2 15 6 37t12 51q8 30 18 53.5t18 40.5q10 19 20 35h89q-9 -19 -17 -40q-8 -19 -15.5 -43t-13.5 -52q-7 -29 -10 -50l-5 -35q-2 -17 -2 -28h-103zM20 512q0 13 3 31q2 15 6 37t12 51q8 30 18 53.5t18 40.5q10 19 20 35h89q-9 -19 -17 -40
q-8 -19 -15.5 -43t-13.5 -52q-7 -29 -10 -50l-5 -35q-2 -17 -2 -28h-103z" />
    <glyph glyph-name="quotedblright" unicode="&#x201d;" horiz-adv-x="360" 
d="M177 512q8 18 17 40q8 18 15.5 42.5t14.5 52.5q6 29 9 50l5 35q2 17 2 28h103q0 -13 -3 -31q-2 -15 -6 -37.5t-12 -50.5q-8 -30 -18 -54t-18 -41q-10 -19 -20 -34h-89zM4 512q8 18 17 40q8 18 15.5 42.5t14.5 52.5q6 29 9 50l5 35q2 17 2 28h103q0 -13 -3 -31
q-2 -15 -6 -37.5t-12 -50.5q-8 -30 -18 -54t-18 -41q-10 -19 -20 -34h-89z" />
    <glyph glyph-name="quoteleft" unicode="&#x2018;" horiz-adv-x="190" 
d="M17 512q0 13 3 31q2 15 6 37t12 51q8 30 18 53.5t18 40.5q10 19 20 35h89q-9 -19 -17 -40q-8 -19 -15.5 -43t-13.5 -52q-7 -29 -10 -50l-5 -35q-2 -17 -2 -28h-103z" />
    <glyph glyph-name="quoteright" unicode="&#x2019;" horiz-adv-x="181" 
d="M7 512q8 18 17 40q8 18 15.5 42.5t14.5 52.5q6 29 9 50l5 35q2 17 2 28h103q0 -13 -3 -31q-2 -15 -6 -37.5t-12 -50.5q-8 -30 -18 -54t-18 -41q-10 -19 -20 -34h-89z" />
    <glyph glyph-name="quotesinglbase" unicode="&#x201a;" horiz-adv-x="217" 
d="M12 -122q8 18 17 40q8 19 15.5 43t14.5 53q6 28 9 49l5 35q2 17 2 28h103q0 -13 -3 -31q-2 -15 -6 -37.5t-12 -50.5q-8 -30 -18 -54t-18 -41q-10 -19 -20 -34h-89z" />
    <glyph glyph-name="guillemotleft.case" horiz-adv-x="498" 
d="M346 155l-117 157v27l117 164h108l-130 -178l130 -170h-108zM162 155l-117 157v27l117 164h108l-130 -178l130 -170h-108z" />
    <glyph glyph-name="guillemotright.case" horiz-adv-x="498" 
d="M228 151l128 170l-128 179h108l117 -165v-26l-117 -158h-108zM45 151l128 170l-128 179h108l117 -165v-26l-117 -158h-108z" />
    <glyph glyph-name="guilsinglleft.case" horiz-adv-x="318" 
d="M164 151l-117 158v26l117 165h108l-130 -179l130 -170h-108z" />
    <glyph glyph-name="guilsinglright.case" horiz-adv-x="318" 
d="M46 151l128 170l-128 179h108l117 -165v-26l-117 -158h-108z" />
    <glyph glyph-name="space" unicode=" " horiz-adv-x="207" 
 />
    <glyph glyph-name="uni2009" unicode="&#x2009;" horiz-adv-x="64" 
 />
    <glyph glyph-name="A" unicode="A" horiz-adv-x="649" 
d="M535 0l-62 171h-304l-61 -171h-103l270 712h99l269 -712h-108zM321 593l-117 -324h234z" />
    <glyph glyph-name="cent" unicode="&#xa2;" horiz-adv-x="577" 
d="M257 -26v89q-58 6 -97 28t-62.5 58.5t-33.5 85.5t-10 108q0 58 10 107t33.5 85t62.5 58.5t97 28.5v82h78v-82q99 -9 144.5 -63.5t48.5 -144.5h-98q-2 54 -26 85.5t-69 40.5v-395q44 8 68.5 36t25.5 73h100q-4 -81 -50 -132t-144 -60v-88h-78zM257 540q-57 -13 -79 -62.5
t-22 -134.5q0 -87 22 -136t79 -61v394z" />
    <glyph glyph-name="currency" unicode="&#xa4;" horiz-adv-x="695" 
d="M514 98q-29 -22 -69.5 -34t-94.5 -12q-55 0 -95 12t-69 34l-72 -71l-60 60l78 77q-17 33 -23.5 73.5t-6.5 85.5q0 44 6.5 83t21.5 72l-73 73l60 60l64 -65q29 24 70.5 37.5t98.5 14.5q53 0 92 -11.5t67 -32.5l66 66l60 -60l-71 -71q18 -35 26 -76.5t8 -89.5
q0 -45 -7 -85.5t-24 -73.5l74 -72l-60 -60zM349 142q42 0 70 13.5t44.5 37.5t23.5 57t7 73t-7 73.5t-23.5 58.5t-44.5 39t-70 14t-69.5 -14t-44 -39t-23.5 -58.5t-7 -73.5t7 -73t23.5 -57t44 -37.5t69.5 -13.5z" />
    <glyph glyph-name="dollar" unicode="$" horiz-adv-x="565" 
d="M252 -58v93q-103 6 -155 56.5t-52 156.5h93q0 -57 28.5 -90.5t85.5 -40.5v220q-36 9 -71.5 20.5t-63.5 32.5t-45.5 55t-17.5 87q0 76 48.5 123t149.5 53v62h65v-62q103 -8 147.5 -59.5t44.5 -136.5h-92q0 18 -5 36.5t-16.5 34t-30.5 26.5t-48 15v-211q37 -9 74.5 -20
t67 -32t48 -55t18.5 -87q0 -85 -53 -131.5t-155 -52.5v-93h-65zM317 118q53 7 80 33.5t27 63.5q0 24 -8.5 41.5t-22.5 29.5t-34 20.5t-42 14.5v-203zM252 624q-55 -8 -77.5 -35t-22.5 -59q0 -44 28.5 -66t71.5 -35v195z" />
    <glyph glyph-name="Euro" unicode="&#x20ac;" horiz-adv-x="622" 
d="M564 186q-2 -38 -15.5 -72.5t-40.5 -61t-67.5 -42t-97.5 -15.5q-61 0 -105 17t-74 48.5t-47.5 75.5t-25.5 98h-61v64h55q-1 13 -1 25.5v26.5v22t1 22h-55v64h60q7 55 24.5 101t47.5 79t74.5 51t106.5 18q58 0 100 -17t69 -45t40 -65t15 -77h-93q-4 48 -39 80.5t-92 32.5
q-67 0 -104 -41t-50 -117h179v-64h-185q0 -11 -0.5 -22t-0.5 -22v-27t1 -25h185v-64h-177q14 -72 50 -110t102 -38q53 0 88.5 29t40.5 71h92z" />
    <glyph glyph-name="uni20BD" unicode="&#x20bd;" horiz-adv-x="629" 
d="M217 144v-145h-103v145h-84v77h84v74h-84v85l84 -1v336h194q74 0 127.5 -10t88.5 -35t51.5 -66t16.5 -103q0 -59 -16.5 -98.5t-51.5 -63.5t-89 -34t-129 -10h-89v-74h163v-77h-163zM306 379q40 0 74 4t58 17t37.5 37t13.5 65q0 40 -13.5 64.5t-37.5 37t-58 16.5t-74 4
h-89v-245h89z" />
    <glyph glyph-name="sterling" unicode="&#xa3;" horiz-adv-x="516" 
d="M30 -4v86q26 11 47 29q18 16 33 42t15 65q0 14 -1 26t-3 24h-91v77h71q-14 38 -26.5 77t-12.5 92q0 40 13.5 75t40 61.5t66 42t92.5 15.5q57 0 97.5 -16t65.5 -43.5t36.5 -64.5t11.5 -80h-105q0 56 -25.5 91t-80.5 35q-53 0 -80 -33.5t-27 -83.5q0 -45 13.5 -84t27.5 -84
h162v-77h-145q2 -12 3 -24.5t1 -25.5q0 -27 -7.5 -48.5t-19.5 -38t-26 -29t-27 -20.5h327v-86h-446z" />
    <glyph glyph-name="yen" unicode="&#xa5;" horiz-adv-x="581" 
d="M244 0v156h-116v58h116v54l-1 1h-115v57h84l-210 386h119l177 -340l168 340h114l-202 -386h85v-57h-115v-1h-1v-54h116v-58h-116v-156h-103z" />
    <glyph glyph-name="approxequal" unicode="&#x2248;" horiz-adv-x="503" 
d="M469 293q0 -22 -4.5 -46t-18 -44.5t-38.5 -33.5t-65 -13q-34 0 -55.5 8.5t-40 19t-38 19t-48.5 8.5q-17 0 -29 -6.5t-19.5 -15.5t-11 -18t-3.5 -15h-64q0 22 4.5 46t18 44.5t38.5 33.5t66 13q34 0 55.5 -8.5t40 -19t38 -19t48.5 -8.5q17 0 28.5 6.5t19 15.5t11 18t3.5 15
h64zM469 465q0 -22 -4.5 -46.5t-18 -44.5t-38.5 -33.5t-65 -13.5q-34 0 -55.5 8.5t-40 19t-38 19t-48.5 8.5q-17 0 -29 -6.5t-19.5 -15.5t-11 -18t-3.5 -15h-64q0 22 4.5 46.5t18 44.5t38.5 33.5t66 13.5q34 0 55.5 -8.5t40 -19t38 -19t48.5 -8.5q17 0 28.5 6.5t19 15.5
t11 18t3.5 15h64z" />
    <glyph glyph-name="asciitilde" unicode="~" horiz-adv-x="495" 
d="M465 373q0 -24 -4.5 -49t-18 -45.5t-38.5 -34t-65 -13.5q-34 0 -55.5 8.5t-40 19t-38 19t-48.5 8.5q-17 0 -29 -6.5t-19.5 -15.5t-11 -18t-3.5 -15h-64q0 24 4.5 49t18 45.5t38.5 34t66 13.5q34 0 55.5 -8.5t40 -19t38 -19t48.5 -8.5q17 0 28.5 6.5t19 15.5t11 18t3.5 15
h64z" />
    <glyph glyph-name="divide" unicode="&#xf7;" horiz-adv-x="482" 
d="M30 282v85h422v-85h-422zM194 111v118h94v-118h-94zM194 420v118h94v-118h-94z" />
    <glyph glyph-name="equal" unicode="=" horiz-adv-x="476" 
d="M37 352v84h402v-84h-402zM37 183v85h402v-85h-402z" />
    <glyph glyph-name="greater" unicode="&#x3e;" horiz-adv-x="473" 
d="M34 125v91l325 96l-325 96v91l412 -145v-84z" />
    <glyph glyph-name="greaterequal" unicode="&#x2265;" horiz-adv-x="513" 
d="M54 196v91l326 100l-326 93v91l412 -141v-85zM57 78v85h402v-85h-402z" />
    <glyph glyph-name="infinity" unicode="&#x221e;" horiz-adv-x="765" 
d="M382 247q-15 -21 -32 -40t-38 -33.5t-47 -23t-59 -8.5q-47 0 -79.5 12t-53 33t-30 51t-9.5 66t9.5 66t30 51t53 33t79.5 12q33 0 59 -8.5t47 -23t38 -33.5t32 -40q15 21 32.5 40t38.5 33.5t47 23t59 8.5q46 0 79 -12t53.5 -33t30 -51t9.5 -66t-9.5 -66t-30 -51t-53.5 -33
t-79 -12q-33 0 -59 8.5t-47 23t-38.5 33.5t-32.5 40zM422 304q13 -19 27.5 -36t30.5 -29.5t35.5 -20t43.5 -7.5q52 0 72.5 26t20.5 67q0 20 -4.5 37t-15.5 29.5t-29 19.5t-44 7q-24 0 -43.5 -7.5t-35.5 -20.5t-30.5 -29.5t-27.5 -35.5zM343 304q-14 19 -28 35.5t-30.5 29.5
t-35.5 20.5t-43 7.5q-53 0 -73 -26.5t-20 -66.5q0 -20 4.5 -37t15.5 -29.5t29 -19.5t44 -7q24 0 43 7.5t35.5 20t30.5 29.5t28 36z" />
    <glyph glyph-name="less" unicode="&#x3c;" horiz-adv-x="473" 
d="M27 270v84l412 145v-91l-326 -96l326 -96v-91z" />
    <glyph glyph-name="lessequal" unicode="&#x2264;" horiz-adv-x="513" 
d="M47 345v85l412 141v-91l-326 -93l326 -100v-91zM54 78v85h402v-85h-402z" />
    <glyph glyph-name="minus" unicode="&#x2212;" horiz-adv-x="438" 
d="M34 282v85h371v-85h-371z" />
    <glyph glyph-name="multiply" unicode="&#xd7;" horiz-adv-x="444" 
d="M355 112l-133 137l-132 -137l-59 58l133 139l-133 138l59 58l132 -136l131 136l60 -58l-133 -138l134 -139z" />
    <glyph glyph-name="notequal" unicode="&#x2260;" horiz-adv-x="476" 
d="M199 183l-52 -90h-76l52 90h-86v85h135l48 84h-183v84h232l48 83h76l-48 -83h94v-84h-143l-48 -84h191v-85h-240z" />
    <glyph glyph-name="percent" unicode="%" horiz-adv-x="794" 
d="M120 0l460 702h88l-460 -702h-88zM200 362q-47 0 -78.5 12t-51 34.5t-28 54.5t-8.5 73t8.5 73.5t28 55.5t51 35.5t78.5 12.5q46 0 78 -12.5t51 -35.5t27.5 -55.5t8.5 -73.5t-8.5 -73t-27.5 -54.5t-51 -34.5t-78 -12zM200 425q50 0 67.5 28t17.5 83t-17.5 84.5t-67.5 29.5
t-68.5 -29.5t-18.5 -84.5t18.5 -83t68.5 -28zM586 -12q-47 0 -78.5 12t-51 34.5t-28 54.5t-8.5 73t8.5 74t28 56t51 35.5t78.5 12.5q46 0 78 -12.5t51 -35.5t27.5 -56t8.5 -74t-8.5 -73t-27.5 -54.5t-51 -34.5t-78 -12zM586 51q50 0 67.5 28t17.5 83t-17.5 85t-67.5 30
t-68.5 -30t-18.5 -85t18.5 -83t68.5 -28z" />
    <glyph glyph-name="perthousand" unicode="&#x2030;" horiz-adv-x="1159" 
d="M120 0l460 702h88l-460 -702h-88zM200 362q-47 0 -78.5 12t-51 34.5t-28 54.5t-8.5 73t8.5 73.5t28 55.5t51 35.5t78.5 12.5q46 0 78 -12.5t51 -35.5t27.5 -55.5t8.5 -73.5t-8.5 -73t-27.5 -54.5t-51 -34.5t-78 -12zM200 425q50 0 67.5 28t17.5 83t-17.5 84.5t-67.5 29.5
t-68.5 -29.5t-18.5 -84.5t18.5 -83t68.5 -28zM586 -12q-47 0 -78.5 12t-51 34.5t-28 54.5t-8.5 73t8.5 74t28 56t51 35.5t78.5 12.5q46 0 78 -12.5t51 -35.5t27.5 -56t8.5 -74t-8.5 -73t-27.5 -54.5t-51 -34.5t-78 -12zM586 51q50 0 67.5 28t17.5 83t-17.5 85t-67.5 30
t-68.5 -30t-18.5 -85t18.5 -83t68.5 -28zM957 -12q-47 0 -78.5 12t-51 34.5t-28 54.5t-8.5 73t8.5 74t28 56t51 35.5t78.5 12.5q46 0 78 -12.5t51 -35.5t27.5 -56t8.5 -74t-8.5 -73t-27.5 -54.5t-51 -34.5t-78 -12zM957 51q50 0 67.5 28t17.5 83t-17.5 85t-67.5 30
t-68.5 -30t-18.5 -85t18.5 -83t68.5 -28z" />
    <glyph glyph-name="plus" unicode="+" horiz-adv-x="456" 
d="M184 127v157h-154v81h154v157h87v-157h155v-81h-155v-157h-87z" />
    <glyph glyph-name="plusminus" unicode="&#xb1;" horiz-adv-x="463" 
d="M275 331v-112h-87v112h-151v81h151v110h87v-110h151v-81h-151zM37 93v85h389v-85h-389z" />
    <glyph glyph-name="arrowup" unicode="&#x2191;" horiz-adv-x="586" 
d="M242 -18l4 467l-145 -188l-64 53l254 320l258 -320l-64 -53l-146 189l4 -468h-101z" />
    <glyph glyph-name="uni2197" unicode="&#x2197;" horiz-adv-x="570" 
d="M396 119l30 236l-327 -334l-72 72l334 327l-236 -30l-8 82l406 48l-44 -410z" />
    <glyph glyph-name="arrowright" unicode="&#x2192;" horiz-adv-x="727" 
d="M369 53l-52 64l188 145l-468 -4v102l469 -5l-189 146l52 64l321 -254z" />
    <glyph glyph-name="uni2198" unicode="&#x2198;" horiz-adv-x="573" 
d="M116 78l8 82l237 -31l-334 329l71 71l328 -333l-30 235l82 9l48 -407z" />
    <glyph glyph-name="arrowdown" unicode="&#x2193;" horiz-adv-x="587" 
d="M37 297l64 52l146 -190l-4 469l102 1l-5 -468l145 188l65 -52l-254 -322z" />
    <glyph glyph-name="uni2199" unicode="&#x2199;" horiz-adv-x="570" 
d="M47 30l44 410l82 -8l-31 -237l329 334l72 -72l-334 -327l236 30l8 -82z" />
    <glyph glyph-name="arrowleft" unicode="&#x2190;" horiz-adv-x="728" 
d="M223 246l188 -144l-53 -65l-321 253l322 259l52 -63l-190 -146l469 4l1 -103z" />
    <glyph glyph-name="uni2196" unicode="&#x2196;" horiz-adv-x="574" 
d="M147 354l31 -234l-83 -8l-48 406l410 -45l-8 -81l-237 31l334 -329l-72 -72z" />
    <glyph glyph-name="arrowboth" unicode="&#x2194;" horiz-adv-x="1022" 
d="M664 22l-53 65l186 143l-575 1l189 -144l-53 -65l-321 253l322 259l52 -63l-191 -147l580 1l-189 146l52 63l322 -259z" />
    <glyph glyph-name="arrowupdn" unicode="&#x2195;" horiz-adv-x="586" 
d="M290 -184v-9l-253 321l65 52l143 -186l2 576l-145 -189l-65 52l253 321v-9l1 9l258 -321l-63 -53l-147 190l2 -577l145 188l63 -53l-258 -321z" />
    <glyph glyph-name="bar" unicode="|" horiz-adv-x="250" 
d="M81 -199v1019h87v-1019h-87z" />
    <glyph glyph-name="brokenbar" unicode="&#xa6;" horiz-adv-x="250" 
d="M81 -180v425h87v-425h-87zM81 395v425h87v-425h-87z" />
    <glyph glyph-name="at" unicode="@" horiz-adv-x="893" 
d="M643 -97q-35 -13 -82 -20.5t-113 -7.5q-107 0 -181 30.5t-120 84t-66.5 127t-20.5 160.5t20.5 162t66 130.5t119.5 87t182 31.5q107 0 180.5 -31.5t119 -87t65.5 -130.5t20 -162q0 -135 -37.5 -197.5t-113.5 -62.5q-54 0 -82 26t-40 68q-19 -27 -53.5 -45.5t-89.5 -18.5
q-48 0 -81 16t-54 45.5t-30.5 72t-9.5 96.5t9.5 97t30.5 73t54 46t81 16q50 0 82.5 -22t50.5 -47v2l13 62h78v-304q0 -65 12 -92.5t41 -27.5q15 0 28 6.5t23 27.5t16 60t6 103q0 72 -16 136t-53 112t-98.5 76t-151.5 28q-89 0 -149.5 -28t-97.5 -76t-52.5 -112t-15.5 -136
q0 -71 14 -133.5t50 -109t97 -73t155 -26.5q25 0 52.5 2t53 6t48.5 10t40 14v-64zM550 362q-6 13 -16 27t-23.5 25.5t-31.5 19t-41 7.5q-52 0 -77.5 -42.5t-25.5 -121.5t25.5 -120t77.5 -41q48 0 74.5 22.5t37.5 48.5v175z" />
    <glyph glyph-name="ampersand" unicode="&#x26;" horiz-adv-x="706" 
d="M578 0l-15 15q-8 7 -18 17l-23 23q-37 -39 -89 -56t-118 -17q-131 0 -192 55.5t-61 164.5q0 48 12.5 83t31 60t41 40t43.5 24q-26 32 -38.5 63t-12.5 76q0 38 10 70.5t33.5 56.5t62 37.5t96.5 13.5q57 0 94 -14.5t59 -41t30.5 -62.5t8.5 -78h-104q0 47 -18.5 76.5
t-69.5 29.5q-27 0 -44.5 -6.5t-28 -18.5t-15 -28t-4.5 -35q0 -34 12 -62t34.5 -56.5t54.5 -61t72 -75.5l77 -84q17 63 17 152h91q0 -74 -9.5 -130.5t-26.5 -99.5q26 -29 48.5 -53t39.5 -41q19 -20 35 -37h-116zM455 124q-35 36 -74 77.5t-78 85.5q-17 17 -31 32.5t-28 29.5
q-14 -8 -28 -19.5t-25 -28t-18 -39.5t-7 -53q0 -28 7 -53t24.5 -43.5t46 -29t71.5 -10.5q92 0 140 51z" />
    <glyph glyph-name="paragraph" unicode="&#xb6;" horiz-adv-x="630" 
d="M462 0v670h-75v-670h-87v286q-70 2 -119.5 13.5t-80.5 38.5t-45.5 72t-14.5 113q0 67 14.5 112t46 72t80.5 38.5t119 13.5v1h249v-760h-87zM300 668q-35 -1 -64 -7t-49.5 -21.5t-31.5 -43.5t-11 -73t11 -73.5t31.5 -44t49.5 -21.5t64 -7v291z" />
    <glyph glyph-name="copyright" unicode="&#xa9;" horiz-adv-x="817" 
d="M408 -20q-97 0 -163.5 29.5t-107.5 79.5t-59 117t-18 142t18 143t59 119t107.5 81t163.5 30q98 0 165 -30t108 -81t58.5 -119t17.5 -143t-17.5 -142t-58.5 -117t-108 -79.5t-165 -29.5zM408 36q81 0 135.5 26.5t87 70t46 99.5t13.5 116t-13.5 117t-46 101.5t-87 71.5
t-135.5 27t-135 -27t-86.5 -71.5t-46.5 -101.5t-14 -117t14 -116t46.5 -99.5t86.5 -70t135 -26.5zM579 290q-1 -85 -44 -122t-124 -37q-99 0 -142 54t-43 167t43 167.5t142 54.5q82 0 125 -38.5t45 -123.5h-91q-2 46 -23 67.5t-56 21.5q-49 0 -70.5 -33.5t-21.5 -115.5
q0 -78 21.5 -113t70.5 -35q35 0 55.5 20.5t22.5 65.5h90z" />
    <glyph glyph-name="registered" unicode="&#xae;" horiz-adv-x="817" 
d="M408 -20q-97 0 -163.5 29.5t-107.5 79.5t-59 117t-18 142t18 143t59 119t107.5 81t163.5 30q98 0 165 -30t108 -81t58.5 -119t17.5 -143t-17.5 -142t-58.5 -117t-108 -79.5t-165 -29.5zM408 36q81 0 135.5 26.5t87 70t46 99.5t13.5 116t-13.5 117t-46 101.5t-87 71.5
t-135.5 27t-135 -27t-86.5 -71.5t-46.5 -101.5t-14 -117t14 -116t46.5 -99.5t86.5 -70t135 -26.5zM499 143l-73 138h-20h-65v-138h-91v415h158q48 0 82 -6.5t56.5 -22.5t33 -43t10.5 -67q0 -54 -20 -84t-63 -43l80 -149h-88zM406 354q18 0 34.5 1.5t29 8.5t19.5 19.5t7 35.5
t-7 36t-19.5 20t-29 8.5t-34.5 1.5h-65v-131h65z" />
    <glyph glyph-name="uni2117" unicode="&#x2117;" horiz-adv-x="817" 
d="M408 -20q-97 0 -163.5 29.5t-107.5 79.5t-59 117t-18 142t18 143t59 119t107.5 81t163.5 30q98 0 165 -30t108 -81t58.5 -119t17.5 -143t-17.5 -142t-58.5 -117t-108 -79.5t-165 -29.5zM408 36q81 0 135.5 26.5t87 70t46 99.5t13.5 116t-13.5 117t-46 101.5t-87 71.5
t-135.5 27t-135 -27t-86.5 -71.5t-46.5 -101.5t-14 -117t14 -116t46.5 -99.5t86.5 -70t135 -26.5zM255 140v414h158q48 0 82 -7t56.5 -24t33 -45.5t10.5 -72.5t-11 -72.5t-33.5 -45t-57 -23.5t-82.5 -7h-65v-117h-91zM411 330q18 0 34.5 2t29 9.5t19.5 22.5t7 41q0 27 -7 42
t-19.5 22.5t-29 9.5t-34.5 2h-65v-151h65z" />
    <glyph glyph-name="section" unicode="&#xa7;" horiz-adv-x="553" 
d="M138 151q0 -56 33.5 -81.5t105.5 -25.5q70 0 102 22t32 54q0 37 -26.5 54.5t-66 27.5t-85.5 18t-85.5 24.5t-66 48t-26.5 88.5q0 22 6 41t15.5 34.5t21.5 28.5t23 22q-29 18 -47 47t-18 76q0 70 53.5 110.5t167.5 40.5q60 0 102.5 -11t68.5 -32t38 -52t12 -72h-89
q0 19 -5.5 35.5t-19.5 29t-39 19.5t-65 7q-37 0 -61 -7t-38 -17.5t-19.5 -23.5t-5.5 -26q0 -36 26.5 -52.5t66 -26t85.5 -17t85.5 -24t66 -47.5t26.5 -88q0 -24 -6.5 -44t-16.5 -35.5t-22 -27.5t-23 -20q29 -17 48 -46t19 -76q0 -78 -57 -118.5t-177 -40.5q-119 0 -174 43.5
t-55 139.5h90zM200 477q-17 -15 -31 -38t-14 -58q0 -30 18.5 -46t48 -25.5t66 -15.5t73.5 -14q18 14 34.5 36t16.5 54q0 31 -19 48t-49.5 27t-68.5 16.5t-75 15.5z" />
    <glyph glyph-name="trademark" unicode="&#x2122;" horiz-adv-x="684" 
d="M589 375l3 273l-101 -274h-55l-96 273l3 -272h-50v340h81l94 -278l98 278h78l-1 -340h-54zM98 375l1 296h-99v49h252v-49h-100l-1 -296h-53z" />
    <glyph glyph-name="degree" unicode="&#xb0;" horiz-adv-x="309" 
d="M154 488q-57 0 -85.5 31t-28.5 90q0 60 28.5 91.5t85.5 31.5t86 -31.5t29 -91.5q0 -59 -29 -90t-86 -31zM154 545q15 0 24.5 6t14.5 15t7 20.5t2 22.5t-2 23t-7 21.5t-14.5 15.5t-24.5 6t-24 -6t-14.5 -15.5t-7.5 -21.5t-2 -23t2 -22.5t7.5 -20.5t14.5 -15t24 -6z" />
    <glyph glyph-name="uni2116" unicode="&#x2116;" horiz-adv-x="1228" 
d="M560 -1v1l-29 -1l-354 576l9 -575h-98l2 712h85v-2l28 2l354 -575l-10 575h98v-713h-85zM936 134q-59 0 -98 16t-62 45.5t-32 71.5t-9 95q0 52 9 94.5t32 72.5t62 46.5t98 16.5t98 -16.5t62 -46.5t32 -72.5t9 -94.5q0 -53 -9 -95t-32 -71.5t-62 -45.5t-98 -16zM935 212
q61 0 84.5 38t23.5 112q0 73 -24 112.5t-84 39.5q-59 0 -82.5 -39.5t-23.5 -112.5q0 -74 23.5 -112t82.5 -38zM738 0v78h407v-78h-407z" />
    <glyph glyph-name="asciicircum" unicode="^" horiz-adv-x="412" 
d="M282 466l-79 177l-80 -177h-83l125 272h75l125 -272h-83z" />
    <glyph glyph-name="dagger" unicode="&#x2020;" horiz-adv-x="516" 
d="M214 0v504h-154v84h154v191h87v-191h155v-84h-155v-504h-87z" />
    <glyph glyph-name="daggerdbl" unicode="&#x2021;" horiz-adv-x="516" 
d="M214 0v192h-154v84h154v228h-154v84h154v191h87v-191h155v-84h-155v-228h155v-84h-155v-192h-87z" />
    <glyph glyph-name="uni2120" unicode="&#x2120;" horiz-adv-x="725" 
d="M629 375l3 273l-101 -274h-55l-95 275l3 -274h-51v340h79l96 -277l98 277h79l-1 -340h-55zM223 624q0 10 -3.5 20t-11.5 18.5t-22.5 14t-35.5 5.5q-39 0 -55 -16t-16 -33q0 -24 15 -35.5t38 -18t49 -11t49 -15t38 -31t15 -57.5q0 -48 -33 -73.5t-100 -25.5q-68 0 -99 27
t-31 88h52q0 -32 19.5 -50t57.5 -18t58 15t20 35q0 26 -15 38.5t-37.5 19t-48.5 11t-48.5 15t-37.5 30.5t-15 58q0 44 29 69t95 25q70 0 97.5 -28t27.5 -77h-51z" />
    <glyph glyph-name="paragraph.alt" horiz-adv-x="630" 
d="M462 0v670h-75v-670h-87v286q-70 2 -119.5 13.5t-80.5 38.5t-45.5 72t-14.5 113q0 67 14.5 112t46 72t80.5 38.5t119 13.5v1h8h16h225v-760h-87z" />
    <glyph glyph-name="registered.alt" horiz-adv-x="441" 
d="M220 324q-56 0 -94.5 16t-62 44t-34 66t-10.5 81t10.5 81.5t34 67.5t62 45.5t94.5 16.5q57 0 95.5 -16.5t62.5 -45.5t34 -67.5t10 -81.5t-10 -81t-34 -66t-62.5 -44t-95.5 -16zM220 358q47 0 78 13t50 36.5t26.5 55t7.5 68.5t-7.5 69.5t-26.5 56.5t-50 37.5t-78 13.5
t-78 -13.5t-49.5 -37.5t-26.5 -56.5t-8 -69.5t8 -68.5t26.5 -55t49.5 -36.5t78 -13zM261 415l-32 87h-20h-26v-87h-53v236h80q31 0 51.5 -2.5t32.5 -10t17 -22t5 -39.5q0 -32 -8 -47.5t-29 -21.5l44 -94zM208 540q30 0 43.5 5t13.5 32t-13 32.5t-43 5.5h-26v-75h25z" />
    <glyph glyph-name="at.case" horiz-adv-x="893" 
d="M681 107q-53 0 -81 26.5t-40 67.5q-19 -27 -53.5 -45.5t-89.5 -18.5q-48 0 -81 16t-54 45.5t-30.5 72t-9.5 96.5t9.5 97t30.5 73t54 46t81 16q50 0 82.5 -22t50.5 -47v2l13 62h78v-304q0 -65 12 -92.5t41 -27.5zM643 -7q-35 -13 -82 -20.5t-113 -7.5q-107 0 -181 30.5
t-120 84t-66.5 127t-20.5 160.5t20.5 162t66 130.5t119.5 87t182 31.5q107 0 180.5 -31.5t119 -87t65.5 -130.5t20 -162q0 -135 -37.5 -197.5t-113.5 -62.5l13 63q14 0 27 6.5t23 27.5t16 60t6 103q0 72 -16 136t-53 112t-98.5 76t-151.5 28q-89 0 -149.5 -28t-97.5 -76
t-52.5 -112t-15.5 -136q0 -71 14 -133.5t50 -109t97 -73t155 -26.5q25 0 52.5 2t53 6t48.5 10t40 14v-64zM550 290v162q-6 13 -16 27t-23.5 25.5t-31.5 19t-41 7.5q-52 0 -77.5 -42.5t-25.5 -121.5t25.5 -120t77.5 -41q48 0 74.5 22.5t37.5 48.5v13z" />
    <glyph glyph-name="section.sups" horiz-adv-x="298" 
d="M86 446q0 -47 61 -47q30 0 44.5 9t14.5 23q0 17 -12 25t-30 12.5t-39.5 8t-39.5 12t-30 23t-12 41.5q0 20 9.5 35t20.5 24q-14 8 -21.5 22t-7.5 36q0 32 25 51.5t79 19.5q57 0 80.5 -20.5t23.5 -58.5h-47q0 17 -10.5 28t-45.5 11q-32 0 -43 -9.5t-11 -20.5
q0 -16 12 -23.5t30 -12t39.5 -8t39.5 -11.5t30 -23t12 -42q0 -22 -10 -36.5t-21 -22.5q14 -8 22.5 -22t8.5 -36q0 -74 -110 -74q-57 0 -82.5 20.5t-25.5 65.5h46zM114 596q-8 -7 -13.5 -17.5t-5.5 -25.5q0 -13 8 -20t21 -11.5t29 -7t32 -6.5q8 6 15 16t7 24q0 13 -8.5 20.5
t-21.5 12t-30 7.5t-33 8z" />
    <glyph glyph-name="dagger.sups" horiz-adv-x="268" 
d="M111 371v239h-71v43h71v89h45v-89h72v-43h-72v-239h-45z" />
    <glyph glyph-name="daggerdbl.sups" horiz-adv-x="268" 
d="M111 371v88h-71v44h71v107h-71v43h71v89h45v-89h72v-43h-72v-107h72v-44h-72v-88h-45z" />
    <glyph glyph-name="uni0308" unicode="&#x308;" horiz-adv-x="437" 
d="M82 622v134h100v-134h-100zM254 622v134h100v-134h-100z" />
    <glyph glyph-name="uni0307" unicode="&#x307;" horiz-adv-x="239" 
d="M70 622v134h100v-134h-100z" />
    <glyph glyph-name="gravecomb" unicode="&#x300;" horiz-adv-x="289" 
d="M145 621l-98 152h112l77 -152h-91z" />
    <glyph glyph-name="acutecomb" unicode="&#x301;" horiz-adv-x="289" 
d="M54 621l77 152h112l-98 -152h-91z" />
    <glyph glyph-name="uni030B" unicode="&#x30b;" horiz-adv-x="461" 
d="M54 621l74 152h112l-95 -152h-91zM212 621l90 152h112l-111 -152h-91z" />
    <glyph glyph-name="caroncomb.alt" horiz-adv-x="295" 
d="M66 583l64 177h98l-85 -177h-77z" />
    <glyph glyph-name="uni0302" unicode="&#x302;" horiz-adv-x="399" 
d="M264 621l-64 82l-63 -82h-96l116 152h85l117 -152h-95z" />
    <glyph glyph-name="uni030C" unicode="&#x30c;" horiz-adv-x="399" 
d="M157 621l-116 152h96l63 -82l63 82h96l-117 -152h-85z" />
    <glyph glyph-name="uni0306" unicode="&#x306;" horiz-adv-x="342" 
d="M314 749q0 -27 -9.5 -50.5t-28 -41.5t-45 -28.5t-60.5 -10.5t-60.5 10.5t-45 28.5t-28 41.5t-9.5 50.5h78q0 -19 17.5 -38t47.5 -19q31 0 48.5 19t17.5 38h77z" />
    <glyph glyph-name="uni030A" unicode="&#x30a;" horiz-adv-x="289" 
d="M247 714q0 -19 -6 -37t-18.5 -31.5t-32 -22t-45.5 -8.5q-27 0 -46 8.5t-32 22t-19 31.5t-6 37t6 36.5t19 31t32 22t46 8.5q26 0 45.5 -8.5t32 -22t18.5 -31t6 -36.5zM145 678q15 0 24.5 9.5t9.5 26.5q0 16 -9.5 25.5t-24.5 9.5q-16 0 -25.5 -9.5t-9.5 -25.5
q0 -17 9.5 -26.5t25.5 -9.5z" />
    <glyph glyph-name="tildecomb" unicode="&#x303;" horiz-adv-x="419" 
d="M357 743q0 -56 -17 -87t-71 -31q-21 0 -35 6t-24.5 13.5t-20.5 14t-25 6.5t-24 -5t-14.5 -12.5t-7.5 -15t-2 -11.5h-53q0 23 4 43.5t14 36.5t27.5 25t44.5 9q22 0 35 -5.5t23.5 -12.5t20 -12.5t24.5 -5.5t24 5t14.5 12.5t7.5 14.5t2 12h53z" />
    <glyph glyph-name="uni0304" unicode="&#x304;" horiz-adv-x="381" 
d="M60 644v78h261v-78h-261z" />
    <glyph glyph-name="uni0312" unicode="&#x312;" horiz-adv-x="261" 
d="M47 586q0 13 3 31q2 15 6 37t12 51q8 30 18 53.5t18 40.5q10 19 20 35h89q-9 -18 -17 -39q-8 -18 -15.5 -43t-13.5 -53q-7 -29 -10 -50l-5 -35q-2 -17 -2 -28h-103z" />
    <glyph glyph-name="dotbelowcomb" unicode="&#x323;" horiz-adv-x="239" 
d="M70 -188v127h100v-127h-100z" />
    <glyph glyph-name="uni0326" unicode="&#x326;" horiz-adv-x="275" 
d="M31 -264q7 15 15 33q7 16 14.5 37t14.5 45q6 21 9 38t5 30q2 14 2 26h99q-1 -14 -4 -30q-2 -14 -6 -32t-11 -39q-8 -26 -17 -46t-17 -34q-9 -17 -18 -28h-86z" />
    <glyph glyph-name="uni0327" unicode="&#x327;" horiz-adv-x="327" 
d="M66 -166q6 -2 15 -3q15 -3 46 -3q29 0 44 9.5t15 32.5q0 15 -9.5 23t-24.5 12.5t-32.5 5.5t-32.5 1h-3l48 91h81l-32 -55q38 -3 64 -22t26 -62q0 -21 -6.5 -39t-21 -31t-38.5 -20.5t-59 -7.5q-45 0 -63 3q-11 1 -17 3v62z" />
    <glyph glyph-name="uni0328" unicode="&#x328;" horiz-adv-x="226" 
d="M192 -170l-6 -4t-18 -8.5t-29 -8.5t-38 -4q-42 0 -61.5 22.5t-19.5 54.5q0 30 14.5 53.5t31.5 40.5q20 19 47 34l70 -8q-1 -1 -13 -7t-25.5 -18t-24.5 -29t-11 -39q0 -16 9 -26t26 -10q9 0 17.5 2t15.5 4q8 3 15 7v-56z" />
    <glyph glyph-name="uni0335" unicode="&#x335;" horiz-adv-x="394" 
d="M45 298v67h304v-67h-304z" />
    <glyph glyph-name="uni0336" unicode="&#x336;" horiz-adv-x="849" 
d="M87 294v78h675v-78h-675z" />
    <glyph glyph-name="uni0337" unicode="&#x337;" horiz-adv-x="423" 
d="M91 189l-37 66l302 177l38 -66z" />
    <glyph glyph-name="uni0338" unicode="&#x338;" horiz-adv-x="378" 
d="M-48 103l403 556h82l-404 -556h-81z" />
    <glyph glyph-name="uni0308.case" horiz-adv-x="437" 
d="M83 760v134h100v-134h-100zM254 760v134h100v-134h-100z" />
    <glyph glyph-name="uni0307.case" horiz-adv-x="239" 
d="M70 760v134h100v-134h-100z" />
    <glyph glyph-name="gravecomb.case" horiz-adv-x="289" 
d="M145 760l-98 145h112l77 -145h-91z" />
    <glyph glyph-name="acutecomb.case" horiz-adv-x="289" 
d="M53 760l77 145h112l-98 -145h-91z" />
    <glyph glyph-name="uni030B.case" horiz-adv-x="461" 
d="M53 760l74 145h112l-95 -145h-91zM212 760l90 145h112l-111 -145h-91z" />
    <glyph glyph-name="caroncomb.alt.case" horiz-adv-x="295" 
d="M66 760l73 174h112l-94 -174h-91z" />
    <glyph glyph-name="uni0302.case" horiz-adv-x="399" 
d="M262 760l-63 64l-61 -64h-91l103 130h98l104 -130h-90z" />
    <glyph glyph-name="uni030C.case" horiz-adv-x="399" 
d="M150 760l-103 130h90l62 -64l63 64h90l-104 -130h-98z" />
    <glyph glyph-name="uni0306.case" horiz-adv-x="342" 
d="M314 885q0 -24 -8.5 -47t-26.5 -40t-45 -27.5t-63 -10.5t-63 10.5t-45 27.5t-26.5 40t-8.5 47h78q0 -19 17.5 -36t47.5 -17q31 0 48.5 17t17.5 36h77z" />
    <glyph glyph-name="uni030A.case" horiz-adv-x="289" 
d="M234 846q0 -38 -23 -62t-66 -24q-44 0 -67 24t-23 62t23 62t67 24q43 0 66 -24t23 -62zM145 810q15 0 24.5 9.5t9.5 26.5q0 16 -9.5 25.5t-24.5 9.5q-16 0 -25.5 -9.5t-9.5 -25.5q0 -17 9.5 -26.5t25.5 -9.5z" />
    <glyph glyph-name="tildecomb.case" horiz-adv-x="419" 
d="M357 889q0 -28 -3.5 -51t-13.5 -39.5t-27 -25.5t-44 -9q-21 0 -35 6t-24.5 13.5t-20.5 14t-25 6.5t-24 -5t-14.5 -12.5t-7.5 -15t-2 -11.5h-53q0 23 4 44.5t14 38.5t27.5 27.5t44.5 10.5q22 0 35 -5.5t23.5 -12t20 -12t24.5 -5.5t24 5t14.5 12t7.5 14t2 12h53z" />
    <glyph glyph-name="uni0304.case" horiz-adv-x="381" 
d="M60 783v78h261v-78h-261z" />
    <glyph glyph-name="uni0338.case" horiz-adv-x="337" 
d="M-113 13l503 737h91l-503 -737h-91z" />
    <glyph glyph-name="acute" unicode="&#xb4;" horiz-adv-x="462" 
d="M54 621l77 152h112l-98 -152h-91z" />
    <glyph glyph-name="breve" unicode="&#x2d8;" horiz-adv-x="499" 
d="M314 749q0 -27 -9.5 -50.5t-28 -41.5t-45 -28.5t-60.5 -10.5t-60.5 10.5t-45 28.5t-28 41.5t-9.5 50.5h78q0 -19 17.5 -38t47.5 -19q31 0 48.5 19t17.5 38h77z" />
    <glyph glyph-name="caron" unicode="&#x2c7;" horiz-adv-x="503" 
d="M157 621l-116 152h96l63 -82l63 82h96l-117 -152h-85z" />
    <glyph glyph-name="cedilla" unicode="&#xb8;" horiz-adv-x="474" 
d="M66 -166q6 -2 15 -3q15 -3 46 -3q29 0 44 9.5t15 32.5q0 15 -9.5 23t-24.5 12.5t-32.5 5.5t-32.5 1h-3l48 91h81l-32 -55q38 -3 64 -22t26 -62q0 -21 -6.5 -39t-21 -31t-38.5 -20.5t-59 -7.5q-45 0 -63 3q-11 1 -17 3v62z" />
    <glyph glyph-name="circumflex" unicode="&#x2c6;" horiz-adv-x="503" 
d="M264 621l-64 82l-63 -82h-96l116 152h85l117 -152h-95z" />
    <glyph glyph-name="dieresis" unicode="&#xa8;" horiz-adv-x="494" 
d="M82 622v134h100v-134h-100zM254 622v134h100v-134h-100z" />
    <glyph glyph-name="dotaccent" unicode="&#x2d9;" horiz-adv-x="437" 
d="M70 622v134h100v-134h-100z" />
    <glyph glyph-name="grave" unicode="`" horiz-adv-x="462" 
d="M145 621l-98 152h112l77 -152h-91z" />
    <glyph glyph-name="hungarumlaut" unicode="&#x2dd;" horiz-adv-x="499" 
d="M54 621l74 152h112l-95 -152h-91zM212 621l90 152h112l-111 -152h-91z" />
    <glyph glyph-name="macron" unicode="&#xaf;" horiz-adv-x="499" 
d="M60 644v78h261v-78h-261z" />
    <glyph glyph-name="ogonek" unicode="&#x2db;" horiz-adv-x="475" 
d="M192 -170l-6 -4t-18 -8.5t-29 -8.5t-38 -4q-42 0 -61.5 22.5t-19.5 54.5q0 30 14.5 53.5t31.5 40.5q20 19 47 34l70 -8q-1 -1 -13 -7t-25.5 -18t-24.5 -29t-11 -39q0 -16 9 -26t26 -10q9 0 17.5 2t15.5 4q8 3 15 7v-56z" />
    <glyph glyph-name="ring" unicode="&#x2da;" horiz-adv-x="477" 
d="M247 714q0 -19 -6 -37t-18.5 -31.5t-32 -22t-45.5 -8.5q-27 0 -46 8.5t-32 22t-19 31.5t-6 37t6 36.5t19 31t32 22t46 8.5q26 0 45.5 -8.5t32 -22t18.5 -31t6 -36.5zM145 678q15 0 24.5 9.5t9.5 26.5q0 16 -9.5 25.5t-24.5 9.5q-16 0 -25.5 -9.5t-9.5 -25.5
q0 -17 9.5 -26.5t25.5 -9.5z" />
    <glyph glyph-name="tilde" unicode="&#x2dc;" horiz-adv-x="503" 
d="M357 743q0 -56 -17 -87t-71 -31q-21 0 -35 6t-24.5 13.5t-20.5 14t-25 6.5t-24 -5t-14.5 -12.5t-7.5 -15t-2 -11.5h-53q0 23 4 43.5t14 36.5t27.5 25t44.5 9q22 0 35 -5.5t23.5 -12.5t20 -12.5t24.5 -5.5t24 5t14.5 12.5t7.5 14.5t2 12h53z" />
    <glyph glyph-name="bitcoin" horiz-adv-x="593" 
d="M309 -45v98h-13h-40v-98h-64v98h-104v648h104v84h64v-84h43h10v84h64v-89q43 -6 71 -19.5t44.5 -34.5t23 -48.5t6.5 -61.5q0 -50 -14 -86t-56 -56q28 -11 45.5 -26.5t27.5 -35.5t13.5 -44t3.5 -52q0 -39 -6 -69t-23.5 -52t-50 -36t-85.5 -19v-101h-64zM297 135
q42 0 69 5.5t42.5 18t21 33t5.5 50.5q0 29 -6.5 49.5t-22 33t-42.5 18.5t-67 6h-105v-214h105zM297 425q36 0 59 5t36.5 16.5t19 30t5.5 44.5q0 54 -26.5 75.5t-93.5 21.5h-105v-193h105z" />
    <glyph glyph-name="nonmarkingreturn" unicode="&#xd;" horiz-adv-x="207" 
 />
    <glyph glyph-name="uni00A0" unicode="&#xa0;" horiz-adv-x="207" 
 />
    <glyph glyph-name="NULL" horiz-adv-x="0" 
 />
    <glyph glyph-name="NULL" horiz-adv-x="0" 
 />
    </font>
</defs>
</svg>
