<svg xmlns="http://www.w3.org/2000/svg" viewBox="0 0 438 438"><title>keycap-loose-knit</title><path d="M586.5,459a7.62,7.62,0,0,1,6.69-6.68,8.19,8.19,0,0,1-6.65-4.91,8.81,8.81,0,0,1-5,5A8.19,8.19,0,0,1,586.5,459Z" transform="translate(-303 -269)" style="fill:#fff"/><path d="M606.55,420.92a8.81,8.81,0,0,1-4.22-3.51,9.53,9.53,0,0,1-3.59,3.59,8.81,8.81,0,0,1,3.51,4.22A8.21,8.21,0,0,1,606.55,420.92Z" transform="translate(-303 -269)" style="fill:#fff"/><path d="M590.84,436.62a8.81,8.81,0,0,1-4.22-3.51A9.52,9.52,0,0,1,583,436.7a8.81,8.81,0,0,1,3.51,4.22A8.21,8.21,0,0,1,590.84,436.62Z" transform="translate(-303 -269)" style="fill:#fff"/><path d="M602.21,443.26a7.62,7.62,0,0,1,6.69-6.68,8.19,8.19,0,0,1-6.65-4.91,8.81,8.81,0,0,1-5,5A8.19,8.19,0,0,1,602.21,443.26Z" transform="translate(-303 -269)" style="fill:#fff"/><path d="M622.25,405.23a8.81,8.81,0,0,1-4.22-3.51,9.53,9.53,0,0,1-3.59,3.59,8.81,8.81,0,0,1,3.51,4.22A8.21,8.21,0,0,1,622.25,405.23Z" transform="translate(-303 -269)" style="fill:#fff"/><path d="M638,389.53a8.81,8.81,0,0,1-4.22-3.51,9.53,9.53,0,0,1-3.59,3.59,8.81,8.81,0,0,1,3.51,4.22A8.21,8.21,0,0,1,638,389.53Z" transform="translate(-303 -269)" style="fill:#fff"/><path d="M617.91,427.57a7.62,7.62,0,0,1,6.69-6.68,8.19,8.19,0,0,1-6.65-4.91,8.81,8.81,0,0,1-5,5A8.19,8.19,0,0,1,617.91,427.57Z" transform="translate(-303 -269)" style="fill:#fff"/><path d="M633.61,411.87a7.62,7.62,0,0,1,6.69-6.68,8.19,8.19,0,0,1-6.65-4.91,8.81,8.81,0,0,1-5,5A8.19,8.19,0,0,1,633.61,411.87Z" transform="translate(-303 -269)" style="fill:#fff"/><path d="M559.44,468a8.81,8.81,0,0,1-4.22-3.51,9.53,9.53,0,0,1-3.59,3.59,8.81,8.81,0,0,1,3.51,4.22A8.21,8.21,0,0,1,559.44,468Z" transform="translate(-303 -269)" style="fill:#fff"/><path d="M539.39,506a7.62,7.62,0,0,1,6.69-6.68,8.19,8.19,0,0,1-6.65-4.91,8.81,8.81,0,0,1-5,5A8.19,8.19,0,0,1,539.39,506Z" transform="translate(-303 -269)" style="fill:#fff"/><path d="M543.73,483.71a8.81,8.81,0,0,1-4.22-3.51,9.53,9.53,0,0,1-3.59,3.59,8.81,8.81,0,0,1,3.51,4.22A8.21,8.21,0,0,1,543.73,483.71Z" transform="translate(-303 -269)" style="fill:#fff"/><path d="M570.8,474.66a7.62,7.62,0,0,1,6.69-6.68,8.19,8.19,0,0,1-6.65-4.91,8.81,8.81,0,0,1-5,5A8.19,8.19,0,0,1,570.8,474.66Z" transform="translate(-303 -269)" style="fill:#fff"/><path d="M555.1,490.35a7.62,7.62,0,0,1,6.69-6.68,8.19,8.19,0,0,1-6.65-4.91,8.81,8.81,0,0,1-5,5A8.19,8.19,0,0,1,555.1,490.35Z" transform="translate(-303 -269)" style="fill:#fff"/><path d="M575.14,452.32a8.81,8.81,0,0,1-4.22-3.51,9.53,9.53,0,0,1-3.59,3.59,8.81,8.81,0,0,1,3.51,4.22A8.21,8.21,0,0,1,575.14,452.32Z" transform="translate(-303 -269)" style="fill:#fff"/><path d="M669.36,358.14a8.81,8.81,0,0,1-4.22-3.51,9.53,9.53,0,0,1-3.59,3.59,8.81,8.81,0,0,1,3.51,4.22A8.21,8.21,0,0,1,669.36,358.14Z" transform="translate(-303 -269)" style="fill:#fff"/><path d="M712.13,333.39a7.62,7.62,0,0,1,6.69-6.68,8.19,8.19,0,0,1-6.65-4.91,8.81,8.81,0,0,1-5,5A8.19,8.19,0,0,1,712.13,333.39Z" transform="translate(-303 -269)" style="fill:#fff"/><polygon points="32.33 406.24 35.21 403.11 48.03 390.3 50.93 387.41 63.73 374.61 66.64 371.7 79.43 358.93 82.35 356 95.12 343.24 98.06 340.3 110.82 327.55 113.78 324.6 126.52 311.86 129.49 308.89 142.22 296.18 145.2 293.19 157.91 280.49 160.91 277.49 173.61 264.8 176.63 261.79 189.31 249.12 192.34 246.09 205.01 233.43 208.05 230.38 220.7 217.74 223.76 214.68 236.4 202.05 239.48 198.98 252.1 186.37 255.19 183.28 267.8 170.68 270.9 167.57 283.49 154.99 286.61 151.87 299.19 139.3 302.33 136.17 314.89 123.62 318.04 120.47 330.59 107.93 333.75 104.77 346.28 92.24 349.46 89.06 361.98 76.55 365.18 73.36 377.68 60.87 380.89 57.66 393.38 45.18 396.6 41.96 409.07 29.49 412.31 26.25 418 20.57 418 20 20 20 20 418 20.79 418 32.33 406.24" style="fill:#fff"/><path d="M716.47,311a8.81,8.81,0,0,1-4.22-3.51,9.53,9.53,0,0,1-3.59,3.59,8.81,8.81,0,0,1,3.51,4.22A8.21,8.21,0,0,1,716.47,311Z" transform="translate(-303 -269)" style="fill:#fff"/><path d="M696.42,349.08a7.62,7.62,0,0,1,6.69-6.68,8.19,8.19,0,0,1-6.65-4.91,8.81,8.81,0,0,1-5,5A8.19,8.19,0,0,1,696.42,349.08Z" transform="translate(-303 -269)" style="fill:#fff"/><path d="M653.66,373.83a8.81,8.81,0,0,1-4.22-3.51,9.53,9.53,0,0,1-3.59,3.59,8.81,8.81,0,0,1,3.51,4.22A8.21,8.21,0,0,1,653.66,373.83Z" transform="translate(-303 -269)" style="fill:#fff"/><path d="M721,326.78v-.16c-.14,0-.28.06-.43.08C720.72,326.72,720.86,326.76,721,326.78Z" transform="translate(-303 -269)" style="fill:#fff"/><path d="M333.52,687h4.06a8.33,8.33,0,0,1-2.2-2.24A9.19,9.19,0,0,1,333.52,687Z" transform="translate(-303 -269)" style="fill:#fff"/><path d="M523.69,521.75a7.62,7.62,0,0,1,6.69-6.68,8.19,8.19,0,0,1-6.65-4.91,8.81,8.81,0,0,1-5,5A8.19,8.19,0,0,1,523.69,521.75Z" transform="translate(-303 -269)" style="fill:#fff"/><path d="M649.32,396.17a7.62,7.62,0,0,1,6.69-6.68,8.19,8.19,0,0,1-6.65-4.91,8.81,8.81,0,0,1-5,5A8.19,8.19,0,0,1,649.32,396.17Z" transform="translate(-303 -269)" style="fill:#fff"/><path d="M665,380.48a7.62,7.62,0,0,1,6.69-6.68,8.19,8.19,0,0,1-6.65-4.91,8.81,8.81,0,0,1-5,5A8.19,8.19,0,0,1,665,380.48Z" transform="translate(-303 -269)" style="fill:#fff"/><path d="M680.72,364.78a7.62,7.62,0,0,1,6.69-6.68,8.19,8.19,0,0,1-6.65-4.91,8.81,8.81,0,0,1-5,5A8.19,8.19,0,0,1,680.72,364.78Z" transform="translate(-303 -269)" style="fill:#fff"/><path d="M685.06,342.44a8.81,8.81,0,0,1-4.22-3.51,9.53,9.53,0,0,1-3.59,3.59,8.81,8.81,0,0,1,3.51,4.22A8.21,8.21,0,0,1,685.06,342.44Z" transform="translate(-303 -269)" style="fill:#fff"/><path d="M700.77,326.74a8.81,8.81,0,0,1-4.22-3.51,9.53,9.53,0,0,1-3.59,3.59,8.81,8.81,0,0,1,3.51,4.22A8.21,8.21,0,0,1,700.77,326.74Z" transform="translate(-303 -269)" style="fill:#fff"/><path d="M528,499.41a8.81,8.81,0,0,1-4.22-3.51,9.53,9.53,0,0,1-3.59,3.59,8.81,8.81,0,0,1,3.51,4.22A8.21,8.21,0,0,1,528,499.41Z" transform="translate(-303 -269)" style="fill:#fff"/><path d="M402.41,625a8.81,8.81,0,0,1-4.22-3.51,9.52,9.52,0,0,1-3.59,3.59,8.81,8.81,0,0,1,3.51,4.22A8.21,8.21,0,0,1,402.41,625Z" transform="translate(-303 -269)" style="fill:#fff"/><path d="M382.36,663a7.62,7.62,0,0,1,6.69-6.68,8.19,8.19,0,0,1-6.65-4.91,8.81,8.81,0,0,1-5,5A8.19,8.19,0,0,1,382.36,663Z" transform="translate(-303 -269)" style="fill:#fff"/><path d="M386.7,640.68a8.81,8.81,0,0,1-4.22-3.51,9.53,9.53,0,0,1-3.59,3.59A8.81,8.81,0,0,1,382.4,645,8.21,8.21,0,0,1,386.7,640.68Z" transform="translate(-303 -269)" style="fill:#fff"/><path d="M413.77,631.62a7.62,7.62,0,0,1,6.69-6.68,8.19,8.19,0,0,1-6.65-4.91,8.81,8.81,0,0,1-5,5A8.19,8.19,0,0,1,413.77,631.62Z" transform="translate(-303 -269)" style="fill:#fff"/><path d="M398.06,647.32a7.62,7.62,0,0,1,6.69-6.68,8.19,8.19,0,0,1-6.65-4.91,8.81,8.81,0,0,1-5,5A8.19,8.19,0,0,1,398.06,647.32Z" transform="translate(-303 -269)" style="fill:#fff"/><path d="M351,683.31a8.76,8.76,0,0,1-2.79,3.69h6.22A7.93,7.93,0,0,1,351,683.31Z" transform="translate(-303 -269)" style="fill:#fff"/><path d="M418.11,609.28a8.81,8.81,0,0,1-4.22-3.51,9.53,9.53,0,0,1-3.59,3.59,8.81,8.81,0,0,1,3.51,4.22A8.21,8.21,0,0,1,418.11,609.28Z" transform="translate(-303 -269)" style="fill:#fff"/><path d="M371,656.37a8.81,8.81,0,0,1-4.22-3.51,9.53,9.53,0,0,1-3.59,3.59,8.81,8.81,0,0,1,3.51,4.22A8.21,8.21,0,0,1,371,656.37Z" transform="translate(-303 -269)" style="fill:#fff"/><path d="M355.3,672.07a8.81,8.81,0,0,1-4.22-3.51,9.53,9.53,0,0,1-3.59,3.59,8.81,8.81,0,0,1,3.51,4.22A8.21,8.21,0,0,1,355.3,672.07Z" transform="translate(-303 -269)" style="fill:#fff"/><path d="M719.69,555.54a1.52,1.52,0,1,1,1.31-2.3V539.6a1.83,1.83,0,1,1,0-2.55V524.54a3,3,0,0,1-1.07.22,2.26,2.26,0,0,1-2.27-2.13,2.21,2.21,0,0,1,2.23-2.13,3.16,3.16,0,0,1,1.12.23V509.19a3.84,3.84,0,0,1-1.07.18,2.56,2.56,0,0,1-2.58-2.44,2.52,2.52,0,0,1,2.53-2.44,4,4,0,0,1,1.12.19V493.79a2.28,2.28,0,0,1-1.08.27,3,3,0,0,1-3-2.83,2.92,2.92,0,0,1,2.94-2.83,2.43,2.43,0,0,1,1.12.28V478.46a3.13,3.13,0,0,1-1.31.3,3.22,3.22,0,1,1,0-6.44,3.13,3.13,0,0,1,1.31.29v-9.42a3.52,3.52,0,0,1-1.31.26,3.61,3.61,0,1,1,0-7.23,3.52,3.52,0,0,1,1.31.26v-8.58a3.82,3.82,0,0,1-1.31.24,4,4,0,1,1,0-8,3.82,3.82,0,0,1,1.31.24v-7.66a4.31,4.31,0,0,1-1.31.21,4.48,4.48,0,1,1,0-9,4.31,4.31,0,0,1,1.31.21v-6.7a4.87,4.87,0,0,1-1.31.2,4.92,4.92,0,1,1,0-9.84,4.86,4.86,0,0,1,1.31.2v-5.77a5.11,5.11,0,0,1-1.31.19,5.4,5.4,0,1,1,0-10.79,5.11,5.11,0,0,1,1.31.19v-4.74a5.78,5.78,0,0,1-1.31.17,5.92,5.92,0,1,1,0-11.84,5.79,5.79,0,0,1,1.31.17V372a6.49,6.49,0,1,1,0-12.67v-2.45a6.85,6.85,0,0,1-1.31.14,7.05,7.05,0,1,1,0-14.1,6.85,6.85,0,0,1,1.31.14v-1.3a7.34,7.34,0,0,1-1.31.13,7.62,7.62,0,0,1-7.57-6.74,8.19,8.19,0,0,1-7.26,7.26,7.62,7.62,0,1,1-8.45,8.44,8.19,8.19,0,0,1-7.26,7.26,7.62,7.62,0,1,1-8.45,8.44,8.19,8.19,0,0,1-7.26,7.26,7.62,7.62,0,1,1-8.45,8.44,8.19,8.19,0,0,1-7.26,7.26,7.62,7.62,0,1,1-8.45,8.44,8.19,8.19,0,0,1-7.26,7.26,7.62,7.62,0,1,1-8.45,8.44,8.19,8.19,0,0,1-7.26,7.26,7.62,7.62,0,1,1-8.45,8.44,8.19,8.19,0,0,1-7.26,7.26,7.62,7.62,0,1,1-8.45,8.44,8.19,8.19,0,0,1-7.26,7.26,7.62,7.62,0,1,1-8.45,8.44,8.19,8.19,0,0,1-7.26,7.26,7.62,7.62,0,1,1-8.45,8.44,8.19,8.19,0,0,1-7.26,7.26,7.62,7.62,0,1,1-8.45,8.44,8.19,8.19,0,0,1-7.26,7.26,7.62,7.62,0,1,1-8.45,8.44,8.19,8.19,0,0,1-7.26,7.26,7.62,7.62,0,1,1-8.45,8.44,8.19,8.19,0,0,1-7.26,7.26A7.62,7.62,0,1,1,508,539.2a8.19,8.19,0,0,1-7.26,7.26,7.62,7.62,0,1,1-8.45,8.44,8.19,8.19,0,0,1-7.26,7.26,7.62,7.62,0,1,1-8.45,8.44,8.19,8.19,0,0,1-7.26,7.26,7.62,7.62,0,1,1-8.45,8.44,8.19,8.19,0,0,1-7.26,7.26,7.62,7.62,0,1,1-8.45,8.44,8.19,8.19,0,0,1-7.26,7.26,7.62,7.62,0,1,1-8.45,8.44,8.19,8.19,0,0,1-7.26,7.26,7.62,7.62,0,1,1-8.45,8.44,8.19,8.19,0,0,1-7.26,7.26,7.62,7.62,0,1,1-8.45,8.44,8.19,8.19,0,0,1-7.26,7.26,7.62,7.62,0,1,1-8.45,8.46,8.2,8.2,0,0,1-7.26,7.27A7.67,7.67,0,0,1,376.43,687H721V554.79A1.52,1.52,0,0,1,719.69,555.54ZM389.93,686.64a7.05,7.05,0,1,1,7.05-7.05A7.05,7.05,0,0,1,389.93,686.64Zm15.7-.57a6.49,6.49,0,1,1,6.49-6.49A6.49,6.49,0,0,1,405.63,686.08Zm0-15.13a7.05,7.05,0,1,1,7.05-7.05A7.05,7.05,0,0,1,405.63,670.95Zm15.7,14.57a5.92,5.92,0,1,1,5.92-5.92A5.92,5.92,0,0,1,421.33,685.51Zm0-15.13a6.49,6.49,0,1,1,6.49-6.49A6.49,6.49,0,0,1,421.33,670.38Zm0-15.13a7.05,7.05,0,1,1,7.05-7.05A7.05,7.05,0,0,1,421.33,655.25ZM437,685a5.4,5.4,0,1,1,5.4-5.4A5.4,5.4,0,0,1,437,685Zm0-15.17a5.92,5.92,0,1,1,5.92-5.92A5.92,5.92,0,0,1,437,669.81Zm0-15.13a6.49,6.49,0,1,1,6.49-6.49A6.49,6.49,0,0,1,437,654.68Zm0-15.13a7.05,7.05,0,1,1,7.05-7.05A7.05,7.05,0,0,1,437,639.55Zm15.7,45a4.92,4.92,0,1,1,4.92-4.92A4.92,4.92,0,0,1,452.74,684.51Zm0-15.22a5.4,5.4,0,1,1,5.4-5.4A5.4,5.4,0,0,1,452.74,669.29Zm0-15.17a5.92,5.92,0,1,1,5.92-5.92A5.92,5.92,0,0,1,452.74,654.12Zm0-15.13a6.49,6.49,0,1,1,6.49-6.49A6.49,6.49,0,0,1,452.74,639Zm0-15.13a7.05,7.05,0,1,1,7.05-7.05A7.05,7.05,0,0,1,452.74,623.86Zm15.7,60.22a4.48,4.48,0,1,1,4.49-4.48A4.48,4.48,0,0,1,468.44,684.07Zm0-15.26a4.92,4.92,0,1,1,4.92-4.92A4.92,4.92,0,0,1,468.44,668.81Zm0-15.22a5.4,5.4,0,1,1,5.4-5.4A5.4,5.4,0,0,1,468.44,653.59Zm0-15.17a5.92,5.92,0,1,1,5.92-5.92A5.92,5.92,0,0,1,468.44,638.42Zm0-15.13a6.49,6.49,0,1,1,6.49-6.49A6.49,6.49,0,0,1,468.44,623.29Zm0-15.13a7.05,7.05,0,1,1,7.05-7.05A7.05,7.05,0,0,1,468.44,608.16Zm15.7,75.44a4,4,0,1,1,4-4A4,4,0,0,1,484.15,683.6Zm0-15.22a4.48,4.48,0,1,1,4.49-4.48A4.48,4.48,0,0,1,484.15,668.38Zm0-15.26a4.92,4.92,0,1,1,4.92-4.92A4.92,4.92,0,0,1,484.15,653.12Zm0-15.22a5.4,5.4,0,1,1,5.4-5.4A5.4,5.4,0,0,1,484.15,637.9Zm0-15.17a5.92,5.92,0,1,1,5.92-5.92A5.92,5.92,0,0,1,484.15,622.72Zm0-15.13a6.49,6.49,0,1,1,6.49-6.49A6.49,6.49,0,0,1,484.15,607.59Zm0-15.13a7.05,7.05,0,1,1,7.05-7.05A7.05,7.05,0,0,1,484.15,592.46Zm15.7,90.74a3.61,3.61,0,1,1,3.61-3.61A3.61,3.61,0,0,1,499.85,683.2Zm0-15.3a4,4,0,1,1,4-4A4,4,0,0,1,499.85,667.9Zm0-15.22a4.48,4.48,0,1,1,4.49-4.48A4.48,4.48,0,0,1,499.85,652.68Zm0-15.26a4.92,4.92,0,1,1,4.92-4.92A4.92,4.92,0,0,1,499.85,637.42Zm0-15.22a5.4,5.4,0,1,1,5.4-5.4A5.4,5.4,0,0,1,499.85,622.2Zm0-15.17a5.92,5.92,0,1,1,5.92-5.92A5.92,5.92,0,0,1,499.85,607Zm0-15.13a6.49,6.49,0,1,1,6.49-6.49A6.49,6.49,0,0,1,499.85,591.9Zm0-15.13a7.05,7.05,0,1,1,7.05-7.05A7.05,7.05,0,0,1,499.85,576.77Zm15.7,106a3.22,3.22,0,1,1,3.22-3.22A3.22,3.22,0,0,1,515.55,682.81Zm0-15.3a3.61,3.61,0,1,1,3.61-3.61A3.61,3.61,0,0,1,515.55,667.51Zm0-15.3a4,4,0,1,1,4-4A4,4,0,0,1,515.55,652.2Zm0-15.22A4.48,4.48,0,1,1,520,632.5,4.48,4.48,0,0,1,515.55,637Zm0-15.26a4.92,4.92,0,1,1,4.92-4.92A4.92,4.92,0,0,1,515.55,621.72Zm0-15.22a5.4,5.4,0,1,1,5.4-5.4A5.4,5.4,0,0,1,515.55,606.51Zm0-15.17a5.92,5.92,0,1,1,5.92-5.92A5.92,5.92,0,0,1,515.55,591.33Zm0-15.13a6.49,6.49,0,1,1,6.49-6.49A6.49,6.49,0,0,1,515.55,576.2Zm0-15.13a7.05,7.05,0,1,1,7.05-7.05A7.05,7.05,0,0,1,515.55,561.07Zm15.7,121.35a2.83,2.83,0,1,1,2.83-2.83A2.83,2.83,0,0,1,531.26,682.42Zm0-15.3a3.22,3.22,0,1,1,3.22-3.22A3.22,3.22,0,0,1,531.26,667.12Zm0-15.3a3.61,3.61,0,1,1,3.61-3.61A3.61,3.61,0,0,1,531.26,651.81Zm0-15.3a4,4,0,1,1,4-4A4,4,0,0,1,531.26,636.51Zm0-15.22a4.48,4.48,0,1,1,4.49-4.48A4.48,4.48,0,0,1,531.26,621.29Zm0-15.26a4.92,4.92,0,1,1,4.92-4.92A4.92,4.92,0,0,1,531.26,606Zm0-15.22a5.4,5.4,0,1,1,5.4-5.4A5.4,5.4,0,0,1,531.26,590.81Zm0-15.17a5.92,5.92,0,1,1,5.92-5.92A5.92,5.92,0,0,1,531.26,575.63Zm0-15.13a6.49,6.49,0,1,1,6.49-6.49A6.49,6.49,0,0,1,531.26,560.5Zm0-15.13a7.05,7.05,0,1,1,7.05-7.05A7.05,7.05,0,0,1,531.26,545.37ZM547,682a2.44,2.44,0,1,1,2.44-2.44A2.44,2.44,0,0,1,547,682Zm0-15.3a2.83,2.83,0,1,1,2.83-2.83A2.83,2.83,0,0,1,547,666.72Zm0-15.3a3.22,3.22,0,1,1,3.22-3.22A3.22,3.22,0,0,1,547,651.42Zm0-15.3a3.61,3.61,0,1,1,3.61-3.61A3.61,3.61,0,0,1,547,636.11Zm0-15.3a4,4,0,1,1,4-4A4,4,0,0,1,547,620.81Zm0-15.22a4.48,4.48,0,1,1,4.49-4.48A4.48,4.48,0,0,1,547,605.59Zm0-15.26a4.92,4.92,0,1,1,4.92-4.92A4.92,4.92,0,0,1,547,590.33Zm0-15.22a5.4,5.4,0,1,1,5.4-5.4A5.4,5.4,0,0,1,547,575.11Zm0-15.17a5.92,5.92,0,1,1,5.92-5.92A5.92,5.92,0,0,1,547,559.94Zm0-15.13a6.49,6.49,0,1,1,6.49-6.49A6.49,6.49,0,0,1,547,544.81Zm0-15.13a7.05,7.05,0,1,1,7.05-7.05A7.05,7.05,0,0,1,547,529.68Zm15.7,152a2.13,2.13,0,1,1,2.13-2.13A2.13,2.13,0,0,1,562.66,681.72Zm0-15.39a2.44,2.44,0,1,1,2.44-2.44A2.44,2.44,0,0,1,562.66,666.33Zm0-15.3a2.83,2.83,0,1,1,2.83-2.83A2.83,2.83,0,0,1,562.66,651Zm0-15.3a3.22,3.22,0,1,1,3.22-3.22A3.22,3.22,0,0,1,562.66,635.72Zm0-15.3a3.61,3.61,0,1,1,3.61-3.61A3.61,3.61,0,0,1,562.66,620.42Zm0-15.3a4,4,0,1,1,4-4A4,4,0,0,1,562.66,605.11Zm0-15.22a4.48,4.48,0,1,1,4.49-4.48A4.48,4.48,0,0,1,562.66,589.89Zm0-15.26a4.92,4.92,0,1,1,4.92-4.92A4.92,4.92,0,0,1,562.66,574.63Zm0-15.22a5.4,5.4,0,1,1,5.4-5.4A5.4,5.4,0,0,1,562.66,559.42Zm0-15.17a5.92,5.92,0,1,1,5.92-5.92A5.92,5.92,0,0,1,562.66,544.24Zm0-15.13a6.49,6.49,0,1,1,6.49-6.49A6.49,6.49,0,0,1,562.66,529.11Zm0-15.13a7.05,7.05,0,1,1,7.05-7.05A7.05,7.05,0,0,1,562.66,514Zm15.7,167.44a1.83,1.83,0,1,1,1.83-1.83A1.83,1.83,0,0,1,578.36,681.42Zm0-15.39a2.13,2.13,0,1,1,2.13-2.13A2.13,2.13,0,0,1,578.36,666Zm0-15.39a2.44,2.44,0,1,1,2.44-2.44A2.44,2.44,0,0,1,578.36,650.64Zm0-15.3a2.83,2.83,0,1,1,2.83-2.83A2.83,2.83,0,0,1,578.36,635.33Zm0-15.3a3.22,3.22,0,1,1,3.22-3.22A3.22,3.22,0,0,1,578.36,620Zm0-15.3a3.61,3.61,0,1,1,3.61-3.61A3.61,3.61,0,0,1,578.36,604.72Zm0-15.3a4,4,0,1,1,4-4A4,4,0,0,1,578.36,589.42Zm0-15.22a4.48,4.48,0,1,1,4.49-4.48A4.48,4.48,0,0,1,578.36,574.2Zm0-15.26a4.92,4.92,0,1,1,4.92-4.92A4.92,4.92,0,0,1,578.36,558.94Zm0-15.22a5.4,5.4,0,1,1,5.4-5.4A5.4,5.4,0,0,1,578.36,543.72Zm0-15.17a5.92,5.92,0,1,1,5.92-5.92A5.92,5.92,0,0,1,578.36,528.54Zm0-15.13a6.49,6.49,0,1,1,6.49-6.49A6.49,6.49,0,0,1,578.36,513.41Zm0-15.13a7.05,7.05,0,1,1,7.05-7.05A7.05,7.05,0,0,1,578.36,498.28Zm15.7,182.83a1.52,1.52,0,1,1,1.52-1.52A1.52,1.52,0,0,1,594.07,681.11Zm0-15.39a1.83,1.83,0,1,1,1.83-1.83A1.83,1.83,0,0,1,594.07,665.72Zm0-15.39a2.13,2.13,0,1,1,2.13-2.13A2.13,2.13,0,0,1,594.07,650.33Zm0-15.39a2.44,2.44,0,1,1,2.44-2.44A2.44,2.44,0,0,1,594.07,634.94Zm0-15.3a2.83,2.83,0,1,1,2.83-2.83A2.83,2.83,0,0,1,594.07,619.63Zm0-15.3a3.22,3.22,0,1,1,3.22-3.22A3.22,3.22,0,0,1,594.07,604.33Zm0-15.3a3.61,3.61,0,1,1,3.61-3.61A3.61,3.61,0,0,1,594.07,589Zm0-15.3a4,4,0,1,1,4-4A4,4,0,0,1,594.07,573.72Zm0-15.22a4.48,4.48,0,1,1,4.49-4.48A4.48,4.48,0,0,1,594.07,558.5Zm0-15.26a4.92,4.92,0,1,1,4.92-4.92A4.92,4.92,0,0,1,594.07,543.24Zm0-15.22a5.4,5.4,0,1,1,5.4-5.4A5.4,5.4,0,0,1,594.07,528Zm0-15.17a5.92,5.92,0,1,1,5.92-5.92A5.92,5.92,0,0,1,594.07,512.85Zm0-15.13a6.49,6.49,0,1,1,6.49-6.49A6.49,6.49,0,0,1,594.07,497.72Zm0-15.13a7.05,7.05,0,1,1,7.05-7.05A7.05,7.05,0,0,1,594.07,482.59Zm15.7,198.27a1.26,1.26,0,1,1,1.26-1.26A1.26,1.26,0,0,1,609.77,680.85Zm0-15.44a1.52,1.52,0,1,1,1.52-1.52A1.52,1.52,0,0,1,609.77,665.42Zm0-15.39a1.83,1.83,0,1,1,1.83-1.83A1.83,1.83,0,0,1,609.77,650Zm0-15.39a2.13,2.13,0,1,1,2.13-2.13A2.13,2.13,0,0,1,609.77,634.63Zm0-15.39a2.44,2.44,0,1,1,2.44-2.44A2.44,2.44,0,0,1,609.77,619.24Zm0-15.3a2.83,2.83,0,1,1,2.83-2.83A2.83,2.83,0,0,1,609.77,603.94Zm0-15.3a3.22,3.22,0,1,1,3.22-3.22A3.22,3.22,0,0,1,609.77,588.63Zm0-15.3a3.61,3.61,0,1,1,3.61-3.61A3.61,3.61,0,0,1,609.77,573.33Zm0-15.3a4,4,0,1,1,4-4A4,4,0,0,1,609.77,558Zm0-15.22a4.48,4.48,0,1,1,4.49-4.48A4.48,4.48,0,0,1,609.77,542.8Zm0-15.26a4.92,4.92,0,1,1,4.92-4.92A4.92,4.92,0,0,1,609.77,527.54Zm0-15.22a5.4,5.4,0,1,1,5.4-5.4A5.4,5.4,0,0,1,609.77,512.33Zm0-15.17a5.92,5.92,0,1,1,5.92-5.92A5.92,5.92,0,0,1,609.77,497.15Zm0-15.13a6.49,6.49,0,1,1,6.49-6.49A6.49,6.49,0,0,1,609.77,482Zm0-15.13a7.05,7.05,0,1,1,7.05-7.05A7.05,7.05,0,0,1,609.77,466.89Zm15.7,213.7a1,1,0,1,1,1-1A1,1,0,0,1,625.47,680.59Zm0-15.44a1.26,1.26,0,1,1,1.26-1.26A1.26,1.26,0,0,1,625.47,665.16Zm0-15.44A1.52,1.52,0,1,1,627,648.2,1.52,1.52,0,0,1,625.47,649.72Zm0-15.39a1.83,1.83,0,1,1,1.83-1.83A1.83,1.83,0,0,1,625.47,634.33Zm0-15.39a2.13,2.13,0,1,1,2.13-2.13A2.13,2.13,0,0,1,625.47,618.94Zm0-15.39a2.44,2.44,0,1,1,2.44-2.44A2.44,2.44,0,0,1,625.47,603.55Zm0-15.3a2.83,2.83,0,1,1,2.83-2.83A2.83,2.83,0,0,1,625.47,588.24Zm0-15.3a3.22,3.22,0,1,1,3.22-3.22A3.22,3.22,0,0,1,625.47,572.94Zm0-15.3a3.61,3.61,0,1,1,3.61-3.61A3.61,3.61,0,0,1,625.47,557.63Zm0-15.3a4,4,0,1,1,4-4A4,4,0,0,1,625.47,542.33Zm0-15.22a4.48,4.48,0,1,1,4.49-4.48A4.48,4.48,0,0,1,625.47,527.11Zm0-15.26a4.92,4.92,0,1,1,4.92-4.92A4.92,4.92,0,0,1,625.47,511.85Zm0-15.22a5.4,5.4,0,1,1,5.4-5.4A5.4,5.4,0,0,1,625.47,496.63Zm0-15.17a5.92,5.92,0,1,1,5.92-5.92A5.92,5.92,0,0,1,625.47,481.45Zm0-15.13a6.49,6.49,0,1,1,6.49-6.49A6.49,6.49,0,0,1,625.47,466.32Zm0-15.13a7.05,7.05,0,1,1,7.05-7.05A7.05,7.05,0,0,1,625.47,451.19Zm15.7,229.18a.78.78,0,1,1,.78-.78A.78.78,0,0,1,641.18,680.37Zm0-15.48a1,1,0,1,1,1-1A1,1,0,0,1,641.18,664.9Zm0-15.44a1.26,1.26,0,1,1,1.26-1.26A1.26,1.26,0,0,1,641.18,649.46Zm0-15.44a1.52,1.52,0,1,1,1.52-1.52A1.52,1.52,0,0,1,641.18,634Zm0-15.39A1.83,1.83,0,1,1,643,616.8,1.83,1.83,0,0,1,641.18,618.63Zm0-15.39a2.13,2.13,0,1,1,2.13-2.13A2.13,2.13,0,0,1,641.18,603.24Zm0-15.39a2.44,2.44,0,1,1,2.44-2.44A2.44,2.44,0,0,1,641.18,587.85Zm0-15.3a2.83,2.83,0,1,1,2.83-2.83A2.83,2.83,0,0,1,641.18,572.54Zm0-15.3A3.22,3.22,0,1,1,644.4,554,3.22,3.22,0,0,1,641.18,557.24Zm0-15.3a3.61,3.61,0,1,1,3.61-3.61A3.61,3.61,0,0,1,641.18,541.93Zm0-15.3a4,4,0,1,1,4-4A4,4,0,0,1,641.18,526.63Zm0-15.22a4.48,4.48,0,1,1,4.49-4.48A4.48,4.48,0,0,1,641.18,511.41Zm0-15.26a4.92,4.92,0,1,1,4.92-4.92A4.92,4.92,0,0,1,641.18,496.15Zm0-15.22a5.4,5.4,0,1,1,5.4-5.4A5.4,5.4,0,0,1,641.18,480.93Zm0-15.17a5.92,5.92,0,1,1,5.92-5.92A5.92,5.92,0,0,1,641.18,465.76Zm0-15.13a6.49,6.49,0,1,1,6.49-6.49A6.49,6.49,0,0,1,641.18,450.63Zm0-15.13a7.05,7.05,0,1,1,7.05-7.05A7.05,7.05,0,0,1,641.18,435.5Zm15.7,244.7a.61.61,0,1,1,.61-.61A.61.61,0,0,1,656.88,680.2Zm0-15.52a.78.78,0,1,1,.78-.78A.78.78,0,0,1,656.88,664.68Zm0-15.48a1,1,0,1,1,1-1A1,1,0,0,1,656.88,649.2Zm0-15.44a1.26,1.26,0,1,1,1.26-1.26A1.26,1.26,0,0,1,656.88,633.76Zm0-15.44a1.52,1.52,0,1,1,1.52-1.52A1.52,1.52,0,0,1,656.88,618.33Zm0-15.39a1.83,1.83,0,1,1,1.83-1.83A1.83,1.83,0,0,1,656.88,602.94Zm0-15.39a2.13,2.13,0,1,1,2.13-2.13A2.13,2.13,0,0,1,656.88,587.54Zm0-15.39a2.44,2.44,0,1,1,2.44-2.44A2.44,2.44,0,0,1,656.88,572.15Zm0-15.3a2.83,2.83,0,1,1,2.83-2.83A2.83,2.83,0,0,1,656.88,556.85Zm0-15.3a3.22,3.22,0,1,1,3.22-3.22A3.22,3.22,0,0,1,656.88,541.54Zm0-15.3a3.61,3.61,0,1,1,3.61-3.61A3.61,3.61,0,0,1,656.88,526.24Zm0-15.3a4,4,0,1,1,4-4A4,4,0,0,1,656.88,510.93Zm0-15.22a4.48,4.48,0,1,1,4.49-4.48A4.48,4.48,0,0,1,656.88,495.71Zm0-15.26a4.92,4.92,0,1,1,4.92-4.92A4.92,4.92,0,0,1,656.88,480.45Zm0-15.22a5.4,5.4,0,1,1,5.4-5.4A5.4,5.4,0,0,1,656.88,465.24Zm0-15.17a5.92,5.92,0,1,1,5.92-5.92A5.92,5.92,0,0,1,656.88,450.06Zm0-15.13a6.49,6.49,0,1,1,6.49-6.49A6.49,6.49,0,0,1,656.88,434.93Zm0-15.13a7.05,7.05,0,1,1,7.05-7.05A7.05,7.05,0,0,1,656.88,419.8ZM672.58,680a.44.44,0,1,1,.44-.44A.44.44,0,0,1,672.58,680Zm0-15.52a.61.61,0,1,1,.61-.61A.61.61,0,0,1,672.58,664.5Zm0-15.52a.78.78,0,1,1,.78-.78A.78.78,0,0,1,672.58,649Zm0-15.48a1,1,0,1,1,1-1A1,1,0,0,1,672.58,633.5Zm0-15.44a1.26,1.26,0,1,1,1.26-1.26A1.26,1.26,0,0,1,672.58,618.07Zm0-15.44a1.52,1.52,0,1,1,1.52-1.52A1.52,1.52,0,0,1,672.58,602.63Zm0-15.39a1.83,1.83,0,1,1,1.83-1.83A1.83,1.83,0,0,1,672.58,587.24Zm0-15.39a2.13,2.13,0,1,1,2.13-2.13A2.13,2.13,0,0,1,672.58,571.85Zm0-15.39A2.44,2.44,0,1,1,675,554,2.44,2.44,0,0,1,672.58,556.46Zm0-15.3a2.83,2.83,0,1,1,2.83-2.83A2.83,2.83,0,0,1,672.58,541.15Zm0-15.3a3.22,3.22,0,1,1,3.22-3.22A3.22,3.22,0,0,1,672.58,525.85Zm0-15.3a3.61,3.61,0,1,1,3.61-3.61A3.61,3.61,0,0,1,672.58,510.54Zm0-15.3a4,4,0,1,1,4-4A4,4,0,0,1,672.58,495.24Zm0-15.22a4.48,4.48,0,1,1,4.49-4.48A4.48,4.48,0,0,1,672.58,480Zm0-15.26a4.92,4.92,0,1,1,4.92-4.92A4.92,4.92,0,0,1,672.58,464.76Zm0-15.22a5.4,5.4,0,1,1,5.4-5.4A5.4,5.4,0,0,1,672.58,449.54Zm0-15.17a5.92,5.92,0,1,1,5.92-5.92A5.92,5.92,0,0,1,672.58,434.36Zm0-15.13a6.49,6.49,0,1,1,6.49-6.49A6.49,6.49,0,0,1,672.58,419.23Zm0-15.13a7.05,7.05,0,1,1,7.05-7.05A7.05,7.05,0,0,1,672.58,404.1Zm15.7,275.79a.3.3,0,1,1,.3-.3A.3.3,0,0,1,688.29,679.9Zm0-15.57a.44.44,0,1,1,.44-.44A.44.44,0,0,1,688.29,664.33Zm0-15.52a.61.61,0,1,1,.61-.61A.61.61,0,0,1,688.29,648.81Zm0-15.52a.78.78,0,1,1,.78-.78A.78.78,0,0,1,688.29,633.28Zm0-15.48a1,1,0,1,1,1-1A1,1,0,0,1,688.29,617.81Zm0-15.44a1.26,1.26,0,1,1,1.26-1.26A1.26,1.26,0,0,1,688.29,602.37Zm0-15.44a1.52,1.52,0,1,1,1.52-1.52A1.52,1.52,0,0,1,688.29,586.93Zm0-15.39a1.83,1.83,0,1,1,1.83-1.83A1.83,1.83,0,0,1,688.29,571.54Zm0-15.39a2.13,2.13,0,1,1,2.13-2.13A2.13,2.13,0,0,1,688.29,556.15Zm0-15.39a2.44,2.44,0,1,1,2.44-2.44A2.44,2.44,0,0,1,688.29,540.76Zm0-15.3a2.83,2.83,0,1,1,2.83-2.83A2.83,2.83,0,0,1,688.29,525.45Zm0-15.3a3.22,3.22,0,1,1,3.22-3.22A3.22,3.22,0,0,1,688.29,510.15Zm0-15.3a3.61,3.61,0,1,1,3.61-3.61A3.61,3.61,0,0,1,688.29,494.84Zm0-15.3a4,4,0,1,1,4-4A4,4,0,0,1,688.29,479.54Zm0-15.22a4.48,4.48,0,1,1,4.48-4.48A4.48,4.48,0,0,1,688.29,464.32Zm0-15.26a4.92,4.92,0,1,1,4.92-4.92A4.92,4.92,0,0,1,688.29,449.06Zm0-15.22a5.4,5.4,0,1,1,5.4-5.4A5.4,5.4,0,0,1,688.29,433.84Zm0-15.17a5.92,5.92,0,1,1,5.92-5.92A5.92,5.92,0,0,1,688.29,418.67Zm0-15.13a6.49,6.49,0,1,1,6.49-6.49A6.49,6.49,0,0,1,688.29,403.54Zm0-15.13a7.05,7.05,0,1,1,7.05-7.05A7.05,7.05,0,0,1,688.29,388.41ZM704,679.77a.17.17,0,1,1,.17-.17A.17.17,0,0,1,704,679.77Zm0-15.57a.3.3,0,1,1,.3-.3A.3.3,0,0,1,704,664.2Zm0-15.57a.44.44,0,1,1,.44-.44A.44.44,0,0,1,704,648.63Zm0-15.52a.61.61,0,1,1,.61-.61A.61.61,0,0,1,704,633.11Zm0-15.52a.78.78,0,1,1,.78-.78A.78.78,0,0,1,704,617.59Zm0-15.48a1,1,0,1,1,1-1A1,1,0,0,1,704,602.11Zm0-15.44a1.26,1.26,0,1,1,1.26-1.26A1.26,1.26,0,0,1,704,586.67Zm0-15.44a1.52,1.52,0,1,1,1.52-1.52A1.52,1.52,0,0,1,704,571.24Zm0-15.39a1.83,1.83,0,1,1,1.83-1.83A1.83,1.83,0,0,1,704,555.85Zm0-15.39a2.13,2.13,0,1,1,2.13-2.13A2.13,2.13,0,0,1,704,540.45Zm0-15.39a2.44,2.44,0,1,1,2.44-2.44A2.44,2.44,0,0,1,704,525.06Zm0-15.3a2.83,2.83,0,1,1,2.83-2.83A2.83,2.83,0,0,1,704,509.76Zm0-15.3a3.22,3.22,0,1,1,3.22-3.22A3.22,3.22,0,0,1,704,494.45Zm0-15.3a3.61,3.61,0,1,1,3.61-3.61A3.61,3.61,0,0,1,704,479.15Zm0-15.3a4,4,0,1,1,4-4A4,4,0,0,1,704,463.84Zm0-15.22a4.48,4.48,0,1,1,4.48-4.48A4.48,4.48,0,0,1,704,448.62Zm0-15.26a4.92,4.92,0,1,1,4.92-4.92A4.92,4.92,0,0,1,704,433.36Zm0-15.22a5.4,5.4,0,1,1,5.4-5.4A5.4,5.4,0,0,1,704,418.15ZM704,403a5.92,5.92,0,1,1,5.92-5.92A5.92,5.92,0,0,1,704,403Zm0-15.13a6.49,6.49,0,1,1,6.49-6.49A6.49,6.49,0,0,1,704,387.84Zm0-15.13a7.05,7.05,0,1,1,7.05-7.05A7.05,7.05,0,0,1,704,372.71Zm15.7,307a.09.09,0,1,1,.09-.09A.09.09,0,0,1,719.69,679.68Zm0-15.61a.17.17,0,1,1,.17-.17A.17.17,0,0,1,719.69,664.07Zm0-15.57a.3.3,0,1,1,.3-.3A.3.3,0,0,1,719.69,648.5Zm0-15.57a.44.44,0,1,1,.44-.44A.44.44,0,0,1,719.69,632.94Zm0-15.52a.61.61,0,1,1,.61-.61A.61.61,0,0,1,719.69,617.41Zm0-15.52a.78.78,0,1,1,.78-.78A.78.78,0,0,1,719.69,601.89Zm0-15.48a1,1,0,1,1,1-1A1,1,0,0,1,719.69,586.41Zm0-15.44a1.26,1.26,0,1,1,1.26-1.26A1.26,1.26,0,0,1,719.69,571Z" transform="translate(-303 -269)" style="fill:#fff"/><path d="M366.7,667.12a8.81,8.81,0,0,1-5,5,8.19,8.19,0,0,1,4.91,6.64,7.62,7.62,0,0,1,6.69-6.68A8.19,8.19,0,0,1,366.7,667.12Z" transform="translate(-303 -269)" style="fill:#fff"/><path d="M366.66,680.72a8.61,8.61,0,0,1-3.94,6.28H372A7.44,7.44,0,0,1,366.66,680.72Z" transform="translate(-303 -269)" style="fill:#fff"/><path d="M512.33,515.1a8.81,8.81,0,0,1-4.22-3.51,9.53,9.53,0,0,1-3.59,3.59A8.81,8.81,0,0,1,508,519.4,8.21,8.21,0,0,1,512.33,515.1Z" transform="translate(-303 -269)" style="fill:#fff"/><path d="M476.58,568.84a7.62,7.62,0,0,1,6.69-6.68,8.19,8.19,0,0,1-6.65-4.91,8.81,8.81,0,0,1-5,5A8.19,8.19,0,0,1,476.58,568.84Z" transform="translate(-303 -269)" style="fill:#fff"/><path d="M496.63,530.8a8.81,8.81,0,0,1-4.22-3.51,9.52,9.52,0,0,1-3.59,3.59,8.81,8.81,0,0,1,3.51,4.22A8.21,8.21,0,0,1,496.63,530.8Z" transform="translate(-303 -269)" style="fill:#fff"/><path d="M492.28,553.14a7.62,7.62,0,0,1,6.69-6.68,8.19,8.19,0,0,1-6.65-4.91,8.81,8.81,0,0,1-5,5A8.19,8.19,0,0,1,492.28,553.14Z" transform="translate(-303 -269)" style="fill:#fff"/><path d="M508,537.44a7.62,7.62,0,0,1,6.69-6.68,8.19,8.19,0,0,1-6.65-4.91,8.81,8.81,0,0,1-5,5A8.19,8.19,0,0,1,508,537.44Z" transform="translate(-303 -269)" style="fill:#fff"/><path d="M433.81,593.59a8.81,8.81,0,0,1-4.22-3.51,9.53,9.53,0,0,1-3.59,3.59,8.81,8.81,0,0,1,3.51,4.22A8.21,8.21,0,0,1,433.81,593.59Z" transform="translate(-303 -269)" style="fill:#fff"/><path d="M480.92,546.5A8.81,8.81,0,0,1,476.7,543a9.53,9.53,0,0,1-3.59,3.59,8.81,8.81,0,0,1,3.51,4.22A8.21,8.21,0,0,1,480.92,546.5Z" transform="translate(-303 -269)" style="fill:#fff"/><path d="M449.52,577.89a8.81,8.81,0,0,1-4.22-3.51,9.53,9.53,0,0,1-3.59,3.59,8.81,8.81,0,0,1,3.51,4.22A8.21,8.21,0,0,1,449.52,577.89Z" transform="translate(-303 -269)" style="fill:#fff"/><path d="M429.47,615.93a7.62,7.62,0,0,1,6.69-6.68,8.19,8.19,0,0,1-6.65-4.91,8.81,8.81,0,0,1-5,5A8.19,8.19,0,0,1,429.47,615.93Z" transform="translate(-303 -269)" style="fill:#fff"/><path d="M445.17,600.23a7.62,7.62,0,0,1,6.69-6.68,8.19,8.19,0,0,1-6.65-4.91,8.81,8.81,0,0,1-5,5A8.19,8.19,0,0,1,445.17,600.23Z" transform="translate(-303 -269)" style="fill:#fff"/><path d="M460.88,584.53a7.62,7.62,0,0,1,6.69-6.68,8.19,8.19,0,0,1-6.65-4.91,8.81,8.81,0,0,1-5,5A8.19,8.19,0,0,1,460.88,584.53Z" transform="translate(-303 -269)" style="fill:#fff"/><path d="M465.22,562.19a8.81,8.81,0,0,1-4.22-3.51,9.53,9.53,0,0,1-3.59,3.59,8.81,8.81,0,0,1,3.51,4.22A8.21,8.21,0,0,1,465.22,562.19Z" transform="translate(-303 -269)" style="fill:#fff"/><path d="M721,269H323a20,20,0,0,0-20,20V687a20,20,0,0,0,20,20H721a20,20,0,0,0,20-20V289A20,20,0,0,0,721,269Zm0,57.78c-.14,0-.28-.06-.43-.08.15,0,.28-.05.43-.08ZM323,289H721v.57l-5.69,5.68-3.24,3.24L699.6,311l-3.22,3.22-12.49,12.48-3.21,3.21-12.5,12.49L665,345.55l-12.52,12.51-3.18,3.18-12.53,12.52-3.16,3.16L621,389.47l-3.15,3.15-12.56,12.55-3.14,3.13-12.58,12.57L586.49,424,573.9,436.57l-3.11,3.1-12.61,12.6-3.09,3.09L542.48,468l-3.08,3.07-12.64,12.63-3.06,3.06-12.65,12.64-3,3-12.67,12.66-3,3-12.68,12.67-3,3-12.7,12.69-3,3-12.71,12.7-3,3L432.49,577.9l-3,3L416.78,593.6l-3,3L401.06,609.3l-2.94,2.94L385.35,625l-2.93,2.92L369.64,640.7l-2.91,2.91-12.8,12.79L351,659.3l-12.82,12.81-2.88,3.13L323.79,687H323Zm389.17,32.79a8.19,8.19,0,0,0,6.65,4.91,7.62,7.62,0,0,0-6.69,6.68,8.19,8.19,0,0,0-4.91-6.64A8.81,8.81,0,0,0,712.17,321.79Zm-3.51-10.66a9.53,9.53,0,0,0,3.59-3.59,8.81,8.81,0,0,0,4.22,3.51,8.21,8.21,0,0,0-4.3,4.3A8.81,8.81,0,0,0,708.66,311.13Zm-12.2,26.36a8.19,8.19,0,0,0,6.65,4.91,7.62,7.62,0,0,0-6.69,6.68,8.19,8.19,0,0,0-4.91-6.64A8.81,8.81,0,0,0,696.47,337.49ZM693,326.82a9.53,9.53,0,0,0,3.59-3.59,8.81,8.81,0,0,0,4.22,3.51,8.21,8.21,0,0,0-4.3,4.3A8.81,8.81,0,0,0,693,326.82Zm-12.2,26.36a8.19,8.19,0,0,0,6.65,4.91,7.62,7.62,0,0,0-6.69,6.68,8.19,8.19,0,0,0-4.91-6.64A8.81,8.81,0,0,0,680.76,353.18Zm-3.51-10.66a9.53,9.53,0,0,0,3.59-3.59,8.81,8.81,0,0,0,4.22,3.51,8.21,8.21,0,0,0-4.3,4.3A8.81,8.81,0,0,0,677.25,342.52Zm-12.2,26.36a8.19,8.19,0,0,0,6.65,4.91,7.62,7.62,0,0,0-6.69,6.68,8.19,8.19,0,0,0-4.91-6.64A8.81,8.81,0,0,0,665.06,368.88Zm-3.51-10.66a9.53,9.53,0,0,0,3.59-3.59,8.81,8.81,0,0,0,4.22,3.51,8.21,8.21,0,0,0-4.3,4.3A8.81,8.81,0,0,0,661.55,358.22Zm-12.2,26.36a8.19,8.19,0,0,0,6.65,4.91,7.62,7.62,0,0,0-6.69,6.68,8.19,8.19,0,0,0-4.91-6.64A8.81,8.81,0,0,0,649.36,384.58Zm-3.51-10.66a9.53,9.53,0,0,0,3.59-3.59,8.81,8.81,0,0,0,4.22,3.51,8.21,8.21,0,0,0-4.3,4.3A8.81,8.81,0,0,0,645.85,373.91Zm-12.2,26.36a8.19,8.19,0,0,0,6.65,4.91,7.62,7.62,0,0,0-6.69,6.68,8.19,8.19,0,0,0-4.91-6.64A8.81,8.81,0,0,0,633.65,400.27Zm-3.51-10.66a9.53,9.53,0,0,0,3.59-3.59,8.81,8.81,0,0,0,4.22,3.51,8.21,8.21,0,0,0-4.3,4.3A8.81,8.81,0,0,0,630.14,389.61ZM617.95,416a8.19,8.19,0,0,0,6.65,4.91,7.62,7.62,0,0,0-6.69,6.68,8.19,8.19,0,0,0-4.91-6.64A8.81,8.81,0,0,0,617.95,416Zm-3.51-10.66a9.53,9.53,0,0,0,3.59-3.59,8.81,8.81,0,0,0,4.22,3.51,8.21,8.21,0,0,0-4.3,4.3A8.81,8.81,0,0,0,614.44,405.31Zm-12.2,26.36a8.19,8.19,0,0,0,6.65,4.91,7.62,7.62,0,0,0-6.69,6.68,8.19,8.19,0,0,0-4.91-6.64A8.81,8.81,0,0,0,602.25,431.67ZM598.74,421a9.53,9.53,0,0,0,3.59-3.59,8.81,8.81,0,0,0,4.22,3.51,8.21,8.21,0,0,0-4.3,4.3A8.81,8.81,0,0,0,598.74,421Zm-12.2,26.36a8.19,8.19,0,0,0,6.65,4.91A7.62,7.62,0,0,0,586.5,459a8.19,8.19,0,0,0-4.91-6.64A8.81,8.81,0,0,0,586.54,447.36ZM583,436.7a9.52,9.52,0,0,0,3.59-3.59,8.81,8.81,0,0,0,4.22,3.51,8.21,8.21,0,0,0-4.3,4.3A8.81,8.81,0,0,0,583,436.7Zm-12.2,26.36a8.19,8.19,0,0,0,6.65,4.91,7.62,7.62,0,0,0-6.69,6.68,8.19,8.19,0,0,0-4.91-6.64A8.81,8.81,0,0,0,570.84,463.06Zm-3.51-10.66a9.53,9.53,0,0,0,3.59-3.59,8.81,8.81,0,0,0,4.22,3.51,8.21,8.21,0,0,0-4.3,4.3A8.81,8.81,0,0,0,567.33,452.4Zm-12.2,26.36a8.19,8.19,0,0,0,6.65,4.91,7.62,7.62,0,0,0-6.69,6.68,8.19,8.19,0,0,0-4.91-6.64A8.81,8.81,0,0,0,555.14,478.76Zm-3.51-10.66a9.53,9.53,0,0,0,3.59-3.59,8.81,8.81,0,0,0,4.22,3.51,8.21,8.21,0,0,0-4.3,4.3A8.81,8.81,0,0,0,551.63,468.09Zm-12.2,26.36a8.19,8.19,0,0,0,6.65,4.91,7.62,7.62,0,0,0-6.69,6.68,8.19,8.19,0,0,0-4.91-6.64A8.81,8.81,0,0,0,539.43,494.45Zm-3.51-10.66a9.53,9.53,0,0,0,3.59-3.59,8.81,8.81,0,0,0,4.22,3.51,8.21,8.21,0,0,0-4.3,4.3A8.81,8.81,0,0,0,535.93,483.79Zm-12.2,26.36a8.19,8.19,0,0,0,6.65,4.91,7.62,7.62,0,0,0-6.69,6.68,8.19,8.19,0,0,0-4.91-6.64A8.81,8.81,0,0,0,523.73,510.15Zm-3.51-10.66a9.53,9.53,0,0,0,3.59-3.59,8.81,8.81,0,0,0,4.22,3.51,8.21,8.21,0,0,0-4.3,4.3A8.81,8.81,0,0,0,520.22,499.49ZM508,525.85a8.19,8.19,0,0,0,6.65,4.91,7.62,7.62,0,0,0-6.69,6.68,8.19,8.19,0,0,0-4.91-6.64A8.81,8.81,0,0,0,508,525.85Zm-3.51-10.66a9.53,9.53,0,0,0,3.59-3.59,8.81,8.81,0,0,0,4.22,3.51,8.21,8.21,0,0,0-4.3,4.3A8.81,8.81,0,0,0,504.52,515.18Zm-12.2,26.36a8.19,8.19,0,0,0,6.65,4.91,7.62,7.62,0,0,0-6.69,6.68,8.19,8.19,0,0,0-4.91-6.64A8.81,8.81,0,0,0,492.32,541.54Zm-3.51-10.66a9.52,9.52,0,0,0,3.59-3.59,8.81,8.81,0,0,0,4.22,3.51,8.21,8.21,0,0,0-4.3,4.3A8.81,8.81,0,0,0,488.82,530.88Zm-12.2,26.36a8.19,8.19,0,0,0,6.65,4.91,7.62,7.62,0,0,0-6.69,6.68,8.19,8.19,0,0,0-4.91-6.64A8.81,8.81,0,0,0,476.62,557.24Zm-3.51-10.66A9.53,9.53,0,0,0,476.7,543a8.81,8.81,0,0,0,4.22,3.51,8.21,8.21,0,0,0-4.3,4.3A8.81,8.81,0,0,0,473.11,546.58Zm-12.2,26.36a8.19,8.19,0,0,0,6.65,4.91,7.62,7.62,0,0,0-6.69,6.68,8.19,8.19,0,0,0-4.91-6.64A8.81,8.81,0,0,0,460.92,572.94Zm-3.51-10.66a9.53,9.53,0,0,0,3.59-3.59,8.81,8.81,0,0,0,4.22,3.51,8.21,8.21,0,0,0-4.3,4.3A8.81,8.81,0,0,0,457.41,562.27Zm-12.2,26.36a8.19,8.19,0,0,0,6.65,4.91,7.62,7.62,0,0,0-6.69,6.68,8.19,8.19,0,0,0-4.91-6.64A8.81,8.81,0,0,0,445.21,588.63ZM441.71,578a9.53,9.53,0,0,0,3.59-3.59,8.81,8.81,0,0,0,4.22,3.51,8.21,8.21,0,0,0-4.3,4.3A8.81,8.81,0,0,0,441.71,578Zm-12.2,26.36a8.19,8.19,0,0,0,6.65,4.91,7.62,7.62,0,0,0-6.69,6.68,8.19,8.19,0,0,0-4.91-6.64A8.81,8.81,0,0,0,429.51,604.33ZM426,593.67a9.53,9.53,0,0,0,3.59-3.59,8.81,8.81,0,0,0,4.22,3.51,8.21,8.21,0,0,0-4.3,4.3A8.81,8.81,0,0,0,426,593.67ZM413.81,620a8.19,8.19,0,0,0,6.65,4.91,7.62,7.62,0,0,0-6.69,6.68,8.19,8.19,0,0,0-4.91-6.64A8.81,8.81,0,0,0,413.81,620Zm-3.51-10.66a9.53,9.53,0,0,0,3.59-3.59,8.81,8.81,0,0,0,4.22,3.51,8.21,8.21,0,0,0-4.3,4.3A8.81,8.81,0,0,0,410.3,609.36Zm-12.2,26.36a8.19,8.19,0,0,0,6.65,4.91,7.62,7.62,0,0,0-6.69,6.68,8.19,8.19,0,0,0-4.91-6.64A8.81,8.81,0,0,0,398.1,635.72Zm-3.51-10.66a9.52,9.52,0,0,0,3.59-3.59,8.81,8.81,0,0,0,4.22,3.51,8.21,8.21,0,0,0-4.3,4.3A8.81,8.81,0,0,0,394.6,625.06Zm-12.2,26.36a8.19,8.19,0,0,0,6.65,4.91,7.62,7.62,0,0,0-6.69,6.68,8.19,8.19,0,0,0-4.91-6.64A8.81,8.81,0,0,0,382.4,651.42Zm-3.51-10.66a9.53,9.53,0,0,0,3.59-3.59,8.81,8.81,0,0,0,4.22,3.51,8.21,8.21,0,0,0-4.3,4.3A8.81,8.81,0,0,0,378.89,640.76ZM351,683.31a7.93,7.93,0,0,0,3.43,3.69h-6.22A8.76,8.76,0,0,0,351,683.31Zm-3.51-11.16a9.53,9.53,0,0,0,3.59-3.59,8.81,8.81,0,0,0,4.22,3.51,8.21,8.21,0,0,0-4.3,4.3A8.81,8.81,0,0,0,347.49,672.15Zm19.17,6.56a8.19,8.19,0,0,0-4.91-6.64,8.81,8.81,0,0,0,5-5,8.19,8.19,0,0,0,6.65,4.91A7.62,7.62,0,0,0,366.66,678.71ZM372,687h-9.25a8.61,8.61,0,0,0,3.94-6.28A7.44,7.44,0,0,0,372,687Zm-8.77-30.55a9.53,9.53,0,0,0,3.59-3.59,8.81,8.81,0,0,0,4.22,3.51,8.21,8.21,0,0,0-4.3,4.3A8.81,8.81,0,0,0,363.19,656.45ZM337.57,687h-4.06a9.19,9.19,0,0,0,1.86-2.24A8.33,8.33,0,0,0,337.57,687Zm38.86,0a7.67,7.67,0,0,0-1.33-14.94,8.2,8.2,0,0,0,7.26-7.27,7.62,7.62,0,1,0,8.45-8.46,8.19,8.19,0,0,0,7.26-7.26,7.62,7.62,0,1,0,8.45-8.44,8.19,8.19,0,0,0,7.26-7.26,7.62,7.62,0,1,0,8.45-8.44,8.19,8.19,0,0,0,7.26-7.26,7.62,7.62,0,1,0,8.45-8.44,8.19,8.19,0,0,0,7.26-7.26,7.62,7.62,0,1,0,8.45-8.44,8.19,8.19,0,0,0,7.26-7.26,7.62,7.62,0,1,0,8.45-8.44,8.19,8.19,0,0,0,7.26-7.26,7.62,7.62,0,1,0,8.45-8.44,8.19,8.19,0,0,0,7.26-7.26,7.62,7.62,0,1,0,8.45-8.44A8.19,8.19,0,0,0,508,539.2a7.62,7.62,0,1,0,8.45-8.44,8.19,8.19,0,0,0,7.26-7.26,7.62,7.62,0,1,0,8.45-8.44,8.19,8.19,0,0,0,7.26-7.26,7.62,7.62,0,1,0,8.45-8.44,8.19,8.19,0,0,0,7.26-7.26,7.62,7.62,0,1,0,8.45-8.44,8.19,8.19,0,0,0,7.26-7.26,7.62,7.62,0,1,0,8.45-8.44,8.19,8.19,0,0,0,7.26-7.26,7.62,7.62,0,1,0,8.45-8.44,8.19,8.19,0,0,0,7.26-7.26,7.62,7.62,0,1,0,8.45-8.44,8.19,8.19,0,0,0,7.26-7.26,7.62,7.62,0,1,0,8.45-8.44,8.19,8.19,0,0,0,7.26-7.26,7.62,7.62,0,1,0,8.45-8.44,8.19,8.19,0,0,0,7.26-7.26,7.62,7.62,0,1,0,8.45-8.44,8.19,8.19,0,0,0,7.26-7.26,7.62,7.62,0,1,0,8.45-8.44,8.19,8.19,0,0,0,7.26-7.26,7.62,7.62,0,1,0,8.45-8.44,8.19,8.19,0,0,0,7.26-7.26,7.62,7.62,0,1,0,8.45-8.44,8.19,8.19,0,0,0,7.26-7.26,7.62,7.62,0,0,0,7.57,6.74,7.34,7.34,0,0,0,1.31-.13v1.3a6.85,6.85,0,0,0-1.31-.14,7.05,7.05,0,1,0,0,14.1,6.85,6.85,0,0,0,1.31-.14v2.45A6.49,6.49,0,1,0,721,372v3.61a5.79,5.79,0,0,0-1.31-.17,5.92,5.92,0,1,0,0,11.84,5.78,5.78,0,0,0,1.31-.17v4.74a5.11,5.11,0,0,0-1.31-.19,5.4,5.4,0,1,0,0,10.79,5.11,5.11,0,0,0,1.31-.19V408a4.86,4.86,0,0,0-1.31-.2,4.92,4.92,0,1,0,0,9.84,4.87,4.87,0,0,0,1.31-.2v6.7a4.31,4.31,0,0,0-1.31-.21,4.48,4.48,0,1,0,0,9,4.31,4.31,0,0,0,1.31-.21v7.66a3.82,3.82,0,0,0-1.31-.24,4,4,0,1,0,0,8,3.82,3.82,0,0,0,1.31-.24v8.58a3.52,3.52,0,0,0-1.31-.26,3.61,3.61,0,1,0,0,7.23,3.52,3.52,0,0,0,1.31-.26v9.42a3.13,3.13,0,0,0-1.31-.29,3.22,3.22,0,1,0,0,6.44,3.13,3.13,0,0,0,1.31-.3v10.22a2.43,2.43,0,0,0-1.12-.28,2.92,2.92,0,0,0-2.94,2.83,3,3,0,0,0,3,2.83,2.28,2.28,0,0,0,1.08-.27v10.88a4,4,0,0,0-1.12-.19,2.52,2.52,0,0,0-2.53,2.44,2.56,2.56,0,0,0,2.58,2.44,3.84,3.84,0,0,0,1.07-.18v11.53a3.16,3.16,0,0,0-1.12-.23,2.21,2.21,0,0,0-2.23,2.13,2.26,2.26,0,0,0,2.27,2.13,3,3,0,0,0,1.07-.22V537a1.83,1.83,0,1,0,0,2.55v13.65a1.52,1.52,0,1,0,0,1.55V687Z" transform="translate(-303 -269)" style="fill:#2b2b2b"/><circle cx="400.99" cy="96.66" r="7.05" style="fill:#2b2b2b"/><circle cx="385.29" cy="112.35" r="7.05" style="fill:#2b2b2b"/><circle cx="400.99" cy="112.35" r="6.49" style="fill:#2b2b2b"/><circle cx="369.58" cy="128.05" r="7.05" style="fill:#2b2b2b"/><circle cx="385.29" cy="128.05" r="6.49" style="fill:#2b2b2b"/><circle cx="400.99" cy="128.05" r="5.92" style="fill:#2b2b2b"/><circle cx="353.88" cy="143.75" r="7.05" style="fill:#2b2b2b"/><circle cx="369.58" cy="143.75" r="6.49" style="fill:#2b2b2b"/><circle cx="385.29" cy="143.75" r="5.92" style="fill:#2b2b2b"/><circle cx="400.99" cy="143.75" r="5.4" style="fill:#2b2b2b"/><circle cx="338.18" cy="159.44" r="7.05" style="fill:#2b2b2b"/><circle cx="353.88" cy="159.44" r="6.49" style="fill:#2b2b2b"/><circle cx="369.58" cy="159.44" r="5.92" style="fill:#2b2b2b"/><circle cx="385.29" cy="159.44" r="5.4" style="fill:#2b2b2b"/><circle cx="400.99" cy="159.44" r="4.92" style="fill:#2b2b2b"/><circle cx="322.47" cy="175.14" r="7.05" style="fill:#2b2b2b"/><circle cx="338.18" cy="175.14" r="6.49" style="fill:#2b2b2b"/><circle cx="353.88" cy="175.14" r="5.92" style="fill:#2b2b2b"/><circle cx="369.58" cy="175.14" r="5.4" style="fill:#2b2b2b"/><circle cx="385.29" cy="175.14" r="4.92" style="fill:#2b2b2b"/><circle cx="400.99" cy="175.14" r="4.48" style="fill:#2b2b2b"/><circle cx="306.77" cy="190.84" r="7.05" style="fill:#2b2b2b"/><circle cx="322.47" cy="190.84" r="6.49" style="fill:#2b2b2b"/><circle cx="338.18" cy="190.84" r="5.92" style="fill:#2b2b2b"/><circle cx="353.88" cy="190.84" r="5.4" style="fill:#2b2b2b"/><circle cx="369.58" cy="190.84" r="4.92" style="fill:#2b2b2b"/><circle cx="385.29" cy="190.84" r="4.48" style="fill:#2b2b2b"/><circle cx="400.99" cy="190.84" r="4.01" style="fill:#2b2b2b"/><circle cx="291.07" cy="206.53" r="7.05" style="fill:#2b2b2b"/><circle cx="306.77" cy="206.53" r="6.49" style="fill:#2b2b2b"/><circle cx="322.47" cy="206.53" r="5.92" style="fill:#2b2b2b"/><circle cx="338.18" cy="206.53" r="5.4" style="fill:#2b2b2b"/><circle cx="353.88" cy="206.53" r="4.92" style="fill:#2b2b2b"/><circle cx="369.58" cy="206.53" r="4.48" style="fill:#2b2b2b"/><circle cx="385.29" cy="206.53" r="4.01" style="fill:#2b2b2b"/><circle cx="400.99" cy="206.53" r="3.61" style="fill:#2b2b2b"/><circle cx="275.36" cy="222.23" r="7.05" style="fill:#2b2b2b"/><circle cx="291.07" cy="222.23" r="6.49" style="fill:#2b2b2b"/><circle cx="306.77" cy="222.23" r="5.92" style="fill:#2b2b2b"/><circle cx="322.47" cy="222.23" r="5.4" style="fill:#2b2b2b"/><circle cx="338.18" cy="222.23" r="4.92" style="fill:#2b2b2b"/><circle cx="353.88" cy="222.23" r="4.48" style="fill:#2b2b2b"/><circle cx="369.58" cy="222.23" r="4.01" style="fill:#2b2b2b"/><circle cx="385.29" cy="222.23" r="3.61" style="fill:#2b2b2b"/><circle cx="400.99" cy="222.23" r="3.22" style="fill:#2b2b2b"/><circle cx="259.66" cy="237.93" r="7.05" style="fill:#2b2b2b"/><circle cx="275.36" cy="237.93" r="6.49" style="fill:#2b2b2b"/><circle cx="291.07" cy="237.93" r="5.92" style="fill:#2b2b2b"/><circle cx="306.77" cy="237.93" r="5.4" style="fill:#2b2b2b"/><circle cx="322.47" cy="237.93" r="4.92" style="fill:#2b2b2b"/><circle cx="338.18" cy="237.93" r="4.48" style="fill:#2b2b2b"/><circle cx="353.88" cy="237.93" r="4.01" style="fill:#2b2b2b"/><circle cx="369.58" cy="237.93" r="3.61" style="fill:#2b2b2b"/><circle cx="385.29" cy="237.93" r="3.22" style="fill:#2b2b2b"/><circle cx="400.99" cy="237.93" r="2.83" style="fill:#2b2b2b"/><circle cx="243.96" cy="253.62" r="7.05" style="fill:#2b2b2b"/><circle cx="259.66" cy="253.62" r="6.49" style="fill:#2b2b2b"/><circle cx="275.36" cy="253.62" r="5.92" style="fill:#2b2b2b"/><circle cx="291.07" cy="253.62" r="5.4" style="fill:#2b2b2b"/><circle cx="306.77" cy="253.62" r="4.92" style="fill:#2b2b2b"/><circle cx="322.47" cy="253.62" r="4.48" style="fill:#2b2b2b"/><circle cx="338.18" cy="253.62" r="4.01" style="fill:#2b2b2b"/><circle cx="353.88" cy="253.62" r="3.61" style="fill:#2b2b2b"/><circle cx="369.58" cy="253.62" r="3.22" style="fill:#2b2b2b"/><circle cx="385.29" cy="253.62" r="2.83" style="fill:#2b2b2b"/><circle cx="400.99" cy="253.62" r="2.44" style="fill:#2b2b2b"/><circle cx="228.26" cy="269.32" r="7.05" style="fill:#2b2b2b"/><circle cx="243.96" cy="269.32" r="6.49" style="fill:#2b2b2b"/><circle cx="259.66" cy="269.32" r="5.92" style="fill:#2b2b2b"/><circle cx="275.36" cy="269.32" r="5.4" style="fill:#2b2b2b"/><circle cx="291.07" cy="269.32" r="4.92" style="fill:#2b2b2b"/><circle cx="306.77" cy="269.32" r="4.48" style="fill:#2b2b2b"/><circle cx="322.47" cy="269.32" r="4.01" style="fill:#2b2b2b"/><circle cx="338.18" cy="269.32" r="3.61" style="fill:#2b2b2b"/><circle cx="353.88" cy="269.32" r="3.22" style="fill:#2b2b2b"/><circle cx="369.58" cy="269.32" r="2.83" style="fill:#2b2b2b"/><circle cx="385.29" cy="269.32" r="2.44" style="fill:#2b2b2b"/><circle cx="400.99" cy="269.32" r="2.13" style="fill:#2b2b2b"/><circle cx="212.55" cy="285.02" r="7.05" style="fill:#2b2b2b"/><circle cx="228.26" cy="285.02" r="6.49" style="fill:#2b2b2b"/><circle cx="243.96" cy="285.02" r="5.92" style="fill:#2b2b2b"/><circle cx="259.66" cy="285.02" r="5.4" style="fill:#2b2b2b"/><circle cx="275.36" cy="285.02" r="4.92" style="fill:#2b2b2b"/><circle cx="291.07" cy="285.02" r="4.48" style="fill:#2b2b2b"/><circle cx="306.77" cy="285.02" r="4.01" style="fill:#2b2b2b"/><circle cx="322.47" cy="285.02" r="3.61" style="fill:#2b2b2b"/><circle cx="338.18" cy="285.02" r="3.22" style="fill:#2b2b2b"/><circle cx="353.88" cy="285.02" r="2.83" style="fill:#2b2b2b"/><circle cx="369.58" cy="285.02" r="2.44" style="fill:#2b2b2b"/><circle cx="385.29" cy="285.02" r="2.13" style="fill:#2b2b2b"/><circle cx="400.99" cy="285.02" r="1.83" style="fill:#2b2b2b"/><circle cx="196.85" cy="300.71" r="7.05" style="fill:#2b2b2b"/><circle cx="212.55" cy="300.71" r="6.49" style="fill:#2b2b2b"/><circle cx="228.26" cy="300.71" r="5.92" style="fill:#2b2b2b"/><circle cx="243.96" cy="300.71" r="5.4" style="fill:#2b2b2b"/><circle cx="259.66" cy="300.71" r="4.92" style="fill:#2b2b2b"/><circle cx="275.36" cy="300.71" r="4.48" style="fill:#2b2b2b"/><circle cx="291.07" cy="300.71" r="4.01" style="fill:#2b2b2b"/><circle cx="306.77" cy="300.71" r="3.61" style="fill:#2b2b2b"/><circle cx="322.47" cy="300.71" r="3.22" style="fill:#2b2b2b"/><circle cx="338.18" cy="300.71" r="2.83" style="fill:#2b2b2b"/><circle cx="353.88" cy="300.71" r="2.44" style="fill:#2b2b2b"/><circle cx="369.58" cy="300.71" r="2.13" style="fill:#2b2b2b"/><circle cx="385.29" cy="300.71" r="1.83" style="fill:#2b2b2b"/><circle cx="400.99" cy="300.71" r="1.52" style="fill:#2b2b2b"/><circle cx="416.69" cy="300.71" r="1.26" style="fill:#2b2b2b"/><circle cx="181.15" cy="316.41" r="7.05" style="fill:#2b2b2b"/><circle cx="196.85" cy="316.41" r="6.49" style="fill:#2b2b2b"/><circle cx="212.55" cy="316.41" r="5.92" style="fill:#2b2b2b"/><circle cx="228.26" cy="316.41" r="5.4" style="fill:#2b2b2b"/><circle cx="243.96" cy="316.41" r="4.92" style="fill:#2b2b2b"/><circle cx="259.66" cy="316.41" r="4.48" style="fill:#2b2b2b"/><circle cx="275.36" cy="316.41" r="4.01" style="fill:#2b2b2b"/><circle cx="291.07" cy="316.41" r="3.61" style="fill:#2b2b2b"/><circle cx="306.77" cy="316.41" r="3.22" style="fill:#2b2b2b"/><circle cx="322.47" cy="316.41" r="2.83" style="fill:#2b2b2b"/><circle cx="338.18" cy="316.41" r="2.44" style="fill:#2b2b2b"/><circle cx="353.88" cy="316.41" r="2.13" style="fill:#2b2b2b"/><circle cx="369.58" cy="316.41" r="1.83" style="fill:#2b2b2b"/><circle cx="385.29" cy="316.41" r="1.52" style="fill:#2b2b2b"/><circle cx="400.99" cy="316.41" r="1.26" style="fill:#2b2b2b"/><circle cx="416.69" cy="316.41" r="1" style="fill:#2b2b2b"/><circle cx="165.44" cy="332.11" r="7.05" style="fill:#2b2b2b"/><circle cx="181.15" cy="332.11" r="6.49" style="fill:#2b2b2b"/><circle cx="196.85" cy="332.11" r="5.92" style="fill:#2b2b2b"/><circle cx="212.55" cy="332.11" r="5.4" style="fill:#2b2b2b"/><circle cx="228.26" cy="332.11" r="4.92" style="fill:#2b2b2b"/><circle cx="243.96" cy="332.11" r="4.48" style="fill:#2b2b2b"/><circle cx="259.66" cy="332.11" r="4.01" style="fill:#2b2b2b"/><circle cx="275.36" cy="332.11" r="3.61" style="fill:#2b2b2b"/><circle cx="291.07" cy="332.11" r="3.22" style="fill:#2b2b2b"/><circle cx="306.77" cy="332.11" r="2.83" style="fill:#2b2b2b"/><circle cx="322.47" cy="332.11" r="2.44" style="fill:#2b2b2b"/><circle cx="338.18" cy="332.11" r="2.13" style="fill:#2b2b2b"/><circle cx="353.88" cy="332.11" r="1.83" style="fill:#2b2b2b"/><circle cx="369.58" cy="332.11" r="1.52" style="fill:#2b2b2b"/><circle cx="385.29" cy="332.11" r="1.26" style="fill:#2b2b2b"/><circle cx="400.99" cy="332.11" r="1" style="fill:#2b2b2b"/><circle cx="416.69" cy="332.11" r="0.78" style="fill:#2b2b2b"/><circle cx="149.74" cy="347.8" r="7.05" style="fill:#2b2b2b"/><circle cx="165.44" cy="347.8" r="6.49" style="fill:#2b2b2b"/><circle cx="181.15" cy="347.8" r="5.92" style="fill:#2b2b2b"/><circle cx="196.85" cy="347.8" r="5.4" style="fill:#2b2b2b"/><circle cx="212.55" cy="347.8" r="4.92" style="fill:#2b2b2b"/><circle cx="228.26" cy="347.8" r="4.48" style="fill:#2b2b2b"/><circle cx="243.96" cy="347.8" r="4.01" style="fill:#2b2b2b"/><circle cx="259.66" cy="347.8" r="3.61" style="fill:#2b2b2b"/><circle cx="275.36" cy="347.8" r="3.22" style="fill:#2b2b2b"/><circle cx="291.07" cy="347.8" r="2.83" style="fill:#2b2b2b"/><circle cx="306.77" cy="347.8" r="2.44" style="fill:#2b2b2b"/><circle cx="322.47" cy="347.8" r="2.13" style="fill:#2b2b2b"/><circle cx="338.18" cy="347.8" r="1.83" style="fill:#2b2b2b"/><circle cx="353.88" cy="347.8" r="1.52" style="fill:#2b2b2b"/><circle cx="369.58" cy="347.8" r="1.26" style="fill:#2b2b2b"/><circle cx="385.29" cy="347.8" r="1" style="fill:#2b2b2b"/><circle cx="400.99" cy="347.8" r="0.78" style="fill:#2b2b2b"/><circle cx="416.69" cy="347.8" r="0.61" style="fill:#2b2b2b"/><circle cx="134.04" cy="363.5" r="7.05" style="fill:#2b2b2b"/><circle cx="149.74" cy="363.5" r="6.49" style="fill:#2b2b2b"/><circle cx="165.44" cy="363.5" r="5.92" style="fill:#2b2b2b"/><circle cx="181.15" cy="363.5" r="5.4" style="fill:#2b2b2b"/><circle cx="196.85" cy="363.5" r="4.92" style="fill:#2b2b2b"/><circle cx="212.55" cy="363.5" r="4.48" style="fill:#2b2b2b"/><circle cx="228.26" cy="363.5" r="4.01" style="fill:#2b2b2b"/><circle cx="243.96" cy="363.5" r="3.61" style="fill:#2b2b2b"/><circle cx="259.66" cy="363.5" r="3.22" style="fill:#2b2b2b"/><circle cx="275.36" cy="363.5" r="2.83" style="fill:#2b2b2b"/><circle cx="291.07" cy="363.5" r="2.44" style="fill:#2b2b2b"/><circle cx="306.77" cy="363.5" r="2.13" style="fill:#2b2b2b"/><circle cx="322.47" cy="363.5" r="1.83" style="fill:#2b2b2b"/><circle cx="338.18" cy="363.5" r="1.52" style="fill:#2b2b2b"/><circle cx="353.88" cy="363.5" r="1.26" style="fill:#2b2b2b"/><circle cx="369.58" cy="363.5" r="1" style="fill:#2b2b2b"/><circle cx="385.29" cy="363.5" r="0.78" style="fill:#2b2b2b"/><circle cx="400.99" cy="363.5" r="0.61" style="fill:#2b2b2b"/><circle cx="416.69" cy="363.5" r="0.44" style="fill:#2b2b2b"/><circle cx="118.33" cy="379.2" r="7.05" style="fill:#2b2b2b"/><circle cx="134.04" cy="379.2" r="6.49" style="fill:#2b2b2b"/><circle cx="149.74" cy="379.2" r="5.92" style="fill:#2b2b2b"/><circle cx="165.44" cy="379.2" r="5.4" style="fill:#2b2b2b"/><circle cx="181.15" cy="379.2" r="4.92" style="fill:#2b2b2b"/><circle cx="196.85" cy="379.2" r="4.48" style="fill:#2b2b2b"/><circle cx="212.55" cy="379.2" r="4.01" style="fill:#2b2b2b"/><circle cx="228.26" cy="379.2" r="3.61" style="fill:#2b2b2b"/><circle cx="243.96" cy="379.2" r="3.22" style="fill:#2b2b2b"/><circle cx="259.66" cy="379.2" r="2.83" style="fill:#2b2b2b"/><circle cx="275.36" cy="379.2" r="2.44" style="fill:#2b2b2b"/><circle cx="291.07" cy="379.2" r="2.13" style="fill:#2b2b2b"/><circle cx="306.77" cy="379.2" r="1.83" style="fill:#2b2b2b"/><circle cx="322.47" cy="379.2" r="1.52" style="fill:#2b2b2b"/><circle cx="338.18" cy="379.2" r="1.26" style="fill:#2b2b2b"/><circle cx="353.88" cy="379.2" r="1" style="fill:#2b2b2b"/><circle cx="369.58" cy="379.2" r="0.78" style="fill:#2b2b2b"/><circle cx="385.29" cy="379.2" r="0.61" style="fill:#2b2b2b"/><circle cx="400.99" cy="379.2" r="0.44" style="fill:#2b2b2b"/><circle cx="416.69" cy="379.2" r="0.3" style="fill:#2b2b2b"/><circle cx="102.63" cy="394.89" r="7.05" style="fill:#2b2b2b"/><circle cx="118.33" cy="394.89" r="6.49" style="fill:#2b2b2b"/><circle cx="134.04" cy="394.89" r="5.92" style="fill:#2b2b2b"/><circle cx="149.74" cy="394.89" r="5.4" style="fill:#2b2b2b"/><circle cx="165.44" cy="394.89" r="4.92" style="fill:#2b2b2b"/><circle cx="181.15" cy="394.89" r="4.48" style="fill:#2b2b2b"/><circle cx="196.85" cy="394.89" r="4.01" style="fill:#2b2b2b"/><circle cx="212.55" cy="394.89" r="3.61" style="fill:#2b2b2b"/><circle cx="228.26" cy="394.89" r="3.22" style="fill:#2b2b2b"/><circle cx="243.96" cy="394.89" r="2.83" style="fill:#2b2b2b"/><circle cx="259.66" cy="394.89" r="2.44" style="fill:#2b2b2b"/><circle cx="275.36" cy="394.89" r="2.13" style="fill:#2b2b2b"/><circle cx="291.07" cy="394.89" r="1.83" style="fill:#2b2b2b"/><circle cx="306.77" cy="394.89" r="1.52" style="fill:#2b2b2b"/><circle cx="322.47" cy="394.89" r="1.26" style="fill:#2b2b2b"/><circle cx="338.18" cy="394.89" r="1" style="fill:#2b2b2b"/><circle cx="353.88" cy="394.89" r="0.78" style="fill:#2b2b2b"/><circle cx="369.58" cy="394.89" r="0.61" style="fill:#2b2b2b"/><circle cx="385.29" cy="394.89" r="0.44" style="fill:#2b2b2b"/><circle cx="400.99" cy="394.89" r="0.3" style="fill:#2b2b2b"/><circle cx="416.69" cy="394.89" r="0.17" style="fill:#2b2b2b"/><circle cx="86.93" cy="410.59" r="7.05" style="fill:#2b2b2b"/><circle cx="102.63" cy="410.59" r="6.49" style="fill:#2b2b2b"/><circle cx="118.33" cy="410.59" r="5.92" style="fill:#2b2b2b"/><circle cx="134.04" cy="410.59" r="5.4" style="fill:#2b2b2b"/><circle cx="149.74" cy="410.59" r="4.92" style="fill:#2b2b2b"/><circle cx="165.44" cy="410.59" r="4.48" style="fill:#2b2b2b"/><circle cx="181.15" cy="410.59" r="4.01" style="fill:#2b2b2b"/><circle cx="196.85" cy="410.59" r="3.61" style="fill:#2b2b2b"/><circle cx="212.55" cy="410.59" r="3.22" style="fill:#2b2b2b"/><circle cx="228.26" cy="410.59" r="2.83" style="fill:#2b2b2b"/><circle cx="243.96" cy="410.59" r="2.44" style="fill:#2b2b2b"/><circle cx="259.66" cy="410.59" r="2.13" style="fill:#2b2b2b"/><circle cx="275.36" cy="410.59" r="1.83" style="fill:#2b2b2b"/><circle cx="291.07" cy="410.59" r="1.52" style="fill:#2b2b2b"/><circle cx="306.77" cy="410.59" r="1.26" style="fill:#2b2b2b"/><circle cx="322.47" cy="410.59" r="1" style="fill:#2b2b2b"/><circle cx="338.18" cy="410.59" r="0.78" style="fill:#2b2b2b"/><circle cx="353.88" cy="410.59" r="0.61" style="fill:#2b2b2b"/><circle cx="369.58" cy="410.59" r="0.44" style="fill:#2b2b2b"/><circle cx="385.29" cy="410.59" r="0.3" style="fill:#2b2b2b"/><circle cx="400.99" cy="410.59" r="0.17" style="fill:#2b2b2b"/><circle cx="416.69" cy="410.59" r="0.09" style="fill:#2b2b2b"/><rect x="105" y="105" width="228" height="228" style="fill:#fff"/><path d="M637,354H408a20,20,0,0,0-20,20V603a20,20,0,0,0,20,20H637a20,20,0,0,0,20-20V374A20,20,0,0,0,637,354Zm-1,248H408V374H636Z" transform="translate(-303 -269)" style="fill:#2b2b2b"/><polygon points="192.62 272 166.8 272 158.75 247.24 150.7 272 124.89 272 145.75 287.19 137.61 312.14 158.75 296.56 179.89 312.09 171.76 287.2 192.62 272" style="fill:#222"/></svg>