<?xml version="1.0" encoding="utf-8"?>
<!-- Generator: Adobe Illustrator 20.0.0, SVG Export Plug-In . SVG Version: 6.00 Build 0)  -->
<svg version="1.1" id="Layer_1" xmlns="http://www.w3.org/2000/svg" xmlns:xlink="http://www.w3.org/1999/xlink" x="0px" y="0px"
	 viewBox="0 0 1800.3 438" enable-background="new 0 0 1800.3 438" xml:space="preserve">
<path fill="#FFFFFF" d="M283.5,190c0.4-3.5,3.2-6.3,6.7-6.7c-2.9-0.3-5.5-2.2-6.7-4.9c-0.9,2.3-2.7,4.1-5,5
	C281.3,184.6,283.2,187.1,283.5,190z"/>
<path fill="#FFFFFF" d="M303.5,151.9c-1.7-0.7-3.2-1.9-4.2-3.5c-0.9,1.5-2.1,2.7-3.6,3.6c1.6,1,2.8,2.5,3.5,4.2
	C300.1,154.3,301.6,152.8,303.5,151.9z"/>
<path fill="#FFFFFF" d="M287.8,167.6c-1.7-0.7-3.2-1.9-4.2-3.5c-0.9,1.5-2.1,2.7-3.6,3.6c1.6,1,2.8,2.5,3.5,4.2
	C284.3,170,285.9,168.4,287.8,167.6z"/>
<path fill="#FFFFFF" d="M299.2,174.3c0.4-3.5,3.2-6.3,6.7-6.7c-2.9-0.3-5.5-2.2-6.7-4.9c-0.9,2.3-2.7,4.1-5,5
	C297,168.8,298.9,171.3,299.2,174.3z"/>
<path fill="#FFFFFF" d="M319.2,136.2c-1.7-0.7-3.2-1.9-4.2-3.5c-0.9,1.5-2.1,2.7-3.6,3.6c1.6,1,2.8,2.5,3.5,4.2
	C315.8,138.6,317.3,137.1,319.2,136.2z"/>
<path fill="#FFFFFF" d="M335,120.5c-1.7-0.7-3.2-1.9-4.2-3.5c-0.9,1.5-2.1,2.7-3.6,3.6c1.6,1,2.8,2.5,3.5,4.2
	C331.5,122.9,333.1,121.4,335,120.5z"/>
<path fill="#FFFFFF" d="M314.9,158.6c0.4-3.5,3.2-6.3,6.7-6.7c-2.9-0.3-5.5-2.2-6.7-4.9c-0.9,2.3-2.7,4.1-5,5
	C312.7,153.1,314.6,155.6,314.9,158.6z"/>
<path fill="#FFFFFF" d="M330.6,142.9c0.4-3.5,3.2-6.3,6.7-6.7c-2.9-0.3-5.5-2.2-6.7-4.9c-0.9,2.3-2.7,4.1-5,5
	C328.4,137.4,330.3,139.9,330.6,142.9z"/>
<path fill="#FFFFFF" d="M256.4,199c-1.7-0.7-3.2-1.9-4.2-3.5c-0.9,1.5-2.1,2.7-3.6,3.6c1.6,1,2.8,2.5,3.5,4.2
	C253,201.4,254.5,199.8,256.4,199z"/>
<path fill="#FFFFFF" d="M236.4,237c0.4-3.5,3.2-6.3,6.7-6.7c-2.9-0.3-5.5-2.2-6.7-4.9c-0.9,2.3-2.7,4.1-5,5
	C234.1,231.6,236,234.1,236.4,237z"/>
<path fill="#FFFFFF" d="M240.7,214.7c-1.7-0.7-3.2-1.9-4.2-3.5c-0.9,1.5-2.1,2.7-3.6,3.6c1.6,1,2.8,2.5,3.5,4.2
	C237.3,217.1,238.8,215.5,240.7,214.7z"/>
<path fill="#FFFFFF" d="M267.8,205.7c0.4-3.5,3.2-6.3,6.7-6.7c-2.9-0.3-5.5-2.2-6.7-4.9c-0.9,2.3-2.7,4.1-5,5
	C265.6,200.2,267.5,202.7,267.8,205.7z"/>
<path fill="#FFFFFF" d="M252.1,221.4c0.4-3.5,3.2-6.3,6.7-6.7c-2.9-0.3-5.5-2.2-6.7-4.9c-0.9,2.3-2.7,4.1-5,5
	C249.9,215.9,251.8,218.4,252.1,221.4z"/>
<path fill="#FFFFFF" d="M272.1,183.3c-1.7-0.7-3.2-1.9-4.2-3.5c-0.9,1.5-2.1,2.7-3.6,3.6c1.6,1,2.8,2.5,3.5,4.2
	C268.7,185.7,270.2,184.2,272.1,183.3z"/>
<path fill="#FFFFFF" d="M366.4,89.1c-1.7-0.7-3.2-1.9-4.2-3.5c-0.9,1.5-2.1,2.7-3.6,3.6c1.6,1,2.8,2.5,3.5,4.2
	C362.9,91.5,364.4,90,366.4,89.1z"/>
<path fill="#FFFFFF" d="M409.1,64.4c0.4-3.5,3.2-6.3,6.7-6.7c-2.9-0.3-5.5-2.2-6.7-4.9c-0.9,2.3-2.7,4.1-5,5
	C406.9,58.9,408.8,61.5,409.1,64.4z"/>
<polygon fill="#FFFFFF" points="32.3,406.2 35.2,403.1 48,390.3 50.9,387.4 63.7,374.6 66.6,371.7 79.4,358.9 82.3,356 95.1,343.2 
	98.1,340.3 110.8,327.5 113.8,324.6 126.5,311.9 129.5,308.9 142.2,296.2 145.2,293.2 157.9,280.5 160.9,277.5 173.6,264.8 
	176.6,261.8 189.3,249.1 192.3,246.1 205,233.4 208.1,230.4 220.7,217.7 223.8,214.7 236.4,202.1 239.5,199 252.1,186.4 
	255.2,183.3 267.8,170.7 270.9,167.6 283.5,155 286.6,151.9 299.2,139.3 302.3,136.2 314.9,123.6 318,120.5 330.6,107.9 
	333.8,104.8 346.3,92.2 349.5,89.1 362,76.6 365.2,73.4 377.7,60.9 380.9,57.7 393.4,45.2 396.6,42 409.1,29.5 412.3,26.2 418,20.6 
	418,20 20,20 20,418 20.8,418 "/>
<path fill="#FFFFFF" d="M413.5,42c-1.7-0.7-3.2-1.9-4.2-3.5c-0.9,1.5-2.1,2.7-3.6,3.6c1.6,1,2.8,2.5,3.5,4.2
	C410,44.4,411.5,42.8,413.5,42z"/>
<path fill="#FFFFFF" d="M393.4,80.1c0.4-3.5,3.2-6.3,6.7-6.7c-2.9-0.3-5.5-2.2-6.7-4.9c-0.9,2.3-2.7,4.1-5,5
	C391.2,74.6,393.1,77.2,393.4,80.1z"/>
<path fill="#FFFFFF" d="M350.7,104.8c-1.7-0.7-3.2-1.9-4.2-3.5c-0.9,1.5-2.1,2.7-3.6,3.6c1.6,1,2.8,2.5,3.5,4.2
	C347.2,107.2,348.7,105.7,350.7,104.8z"/>
<path fill="#FFFFFF" d="M418,57.8v-0.2c-0.1,0-0.3,0.1-0.4,0.1C417.7,57.7,417.9,57.8,418,57.8z"/>
<path fill="#FFFFFF" d="M30.5,418h4.1c-0.9-0.6-1.6-1.4-2.2-2.2C31.9,416.6,31.3,417.4,30.5,418z"/>
<path fill="#FFFFFF" d="M220.7,252.8c0.4-3.5,3.2-6.3,6.7-6.7c-2.9-0.3-5.5-2.2-6.7-4.9c-0.9,2.3-2.7,4.1-5,5
	C218.4,247.3,220.3,249.8,220.7,252.8z"/>
<path fill="#FFFFFF" d="M346.3,127.2c0.4-3.5,3.2-6.3,6.7-6.7c-2.9-0.3-5.5-2.2-6.7-4.9c-0.9,2.3-2.7,4.1-5,5
	C344.1,121.7,346,124.2,346.3,127.2z"/>
<path fill="#FFFFFF" d="M362,111.5c0.4-3.5,3.2-6.3,6.7-6.7c-2.9-0.3-5.5-2.2-6.7-4.9c-0.9,2.3-2.7,4.1-5,5
	C359.8,106,361.7,108.6,362,111.5z"/>
<path fill="#FFFFFF" d="M377.7,95.8c0.4-3.5,3.2-6.3,6.7-6.7c-2.9-0.3-5.5-2.2-6.7-4.9c-0.9,2.3-2.7,4.1-5,5
	C375.5,90.3,377.4,92.9,377.7,95.8z"/>
<path fill="#FFFFFF" d="M382.1,73.4c-1.7-0.7-3.2-1.9-4.2-3.5c-0.9,1.5-2.1,2.7-3.6,3.6c1.6,1,2.8,2.5,3.5,4.2
	C378.6,75.8,380.1,74.3,382.1,73.4z"/>
<path fill="#FFFFFF" d="M397.8,57.7c-1.7-0.7-3.2-1.9-4.2-3.5c-0.9,1.5-2.1,2.7-3.6,3.6c1.6,1,2.8,2.5,3.5,4.2
	C394.3,60.1,395.8,58.6,397.8,57.7z"/>
<path fill="#FFFFFF" d="M225,230.4c-1.7-0.7-3.2-1.9-4.2-3.5c-0.9,1.5-2.1,2.7-3.6,3.6c1.6,1,2.8,2.5,3.5,4.2
	C221.5,232.8,223.1,231.2,225,230.4z"/>
<path fill="#FFFFFF" d="M99.4,356c-1.7-0.7-3.2-1.9-4.2-3.5c-0.8,1.5-2.1,2.7-3.6,3.6c1.6,1,2.8,2.5,3.5,4.2
	C95.9,358.4,97.5,356.8,99.4,356z"/>
<path fill="#FFFFFF" d="M79.4,394c0.4-3.5,3.2-6.3,6.7-6.7c-2.9-0.3-5.5-2.2-6.6-4.9c-0.9,2.3-2.7,4.1-5,5
	C77.1,388.6,79,391.1,79.4,394z"/>
<path fill="#FFFFFF" d="M83.7,371.7c-1.7-0.7-3.2-1.9-4.2-3.5c-0.9,1.5-2.1,2.7-3.6,3.6c1.6,1,2.8,2.5,3.5,4.2
	C80.2,374.1,81.8,372.5,83.7,371.7z"/>
<path fill="#FFFFFF" d="M110.8,362.6c0.4-3.5,3.2-6.3,6.7-6.7c-2.9-0.3-5.5-2.2-6.6-4.9c-0.9,2.3-2.7,4.1-5,5
	C108.5,357.2,110.4,359.7,110.8,362.6z"/>
<path fill="#FFFFFF" d="M95.1,378.3c0.4-3.5,3.2-6.3,6.7-6.7c-2.9-0.3-5.5-2.2-6.6-4.9c-0.9,2.3-2.7,4.1-5,5
	C92.8,372.9,94.7,375.4,95.1,378.3z"/>
<path fill="#FFFFFF" d="M48,414.3c-0.6,1.5-1.5,2.7-2.8,3.7h6.2C49.9,417.2,48.7,415.9,48,414.3z"/>
<path fill="#FFFFFF" d="M115.1,340.3c-1.7-0.7-3.2-1.9-4.2-3.5c-0.9,1.5-2.1,2.7-3.6,3.6c1.6,1,2.8,2.5,3.5,4.2
	C111.6,342.6,113.2,341.1,115.1,340.3z"/>
<path fill="#FFFFFF" d="M68,387.4c-1.7-0.7-3.2-1.9-4.2-3.5c-0.9,1.5-2.1,2.7-3.6,3.6c1.6,1,2.8,2.5,3.5,4.2
	C64.5,389.7,66.1,388.2,68,387.4z"/>
<path fill="#FFFFFF" d="M52.3,403.1c-1.7-0.7-3.2-1.9-4.2-3.5c-0.9,1.5-2.1,2.7-3.6,3.6c1.6,1,2.8,2.5,3.5,4.2
	C48.8,405.4,50.4,403.9,52.3,403.1z"/>
<path fill="#FFFFFF" d="M416.7,286.5c-0.8,0-1.5-0.7-1.5-1.5s0.7-1.5,1.5-1.5c0.5,0,1,0.3,1.3,0.7v-13.6c-0.7,0.7-1.9,0.7-2.6,0
	c-0.7-0.7-0.7-1.9,0-2.6s1.9-0.7,2.6,0c0,0,0,0,0,0v-12.5c-0.3,0.1-0.7,0.2-1.1,0.2c-1.2,0-2.2-0.9-2.3-2.1c0-1.2,1-2.1,2.2-2.1
	c0.4,0,0.8,0.1,1.1,0.2v-11.5c-0.3,0.1-0.7,0.2-1.1,0.2c-1.4,0-2.5-1.1-2.6-2.4c0-1.4,1.2-2.4,2.5-2.4c0.4,0,0.8,0.1,1.1,0.2v-10.9
	c-0.3,0.2-0.7,0.3-1.1,0.3c-1.6,0-2.9-1.2-3-2.8c0-1.6,1.4-2.8,2.9-2.8c0.4,0,0.8,0.1,1.1,0.3v-10.2c-0.4,0.2-0.9,0.3-1.3,0.3
	c-1.8,0-3.2-1.4-3.2-3.2s1.4-3.2,3.2-3.2c0.5,0,0.9,0.1,1.3,0.3v-9.4c-0.4,0.2-0.9,0.3-1.3,0.3c-2,0-3.6-1.6-3.6-3.6
	c0-2,1.6-3.6,3.6-3.6l0,0c0.4,0,0.9,0.1,1.3,0.3v-8.6c-0.4,0.2-0.9,0.2-1.3,0.2c-2.2,0-4-1.8-4-4s1.8-4,4-4c0.4,0,0.9,0.1,1.3,0.2
	v-7.7c-0.4,0.1-0.9,0.2-1.3,0.2c-2.5,0-4.5-2-4.5-4.5s2-4.5,4.5-4.5c0.4,0,0.9,0.1,1.3,0.2v-6.7c-0.4,0.1-0.9,0.2-1.3,0.2
	c-2.7,0-4.9-2.2-4.9-4.9c0-2.7,2.2-4.9,4.9-4.9c0,0,0,0,0,0c0.4,0,0.9,0.1,1.3,0.2v-5.8c-0.4,0.1-0.9,0.2-1.3,0.2
	c-3,0.1-5.5-2.2-5.6-5.2c-0.1-3,2.2-5.5,5.2-5.6c0.2,0,0.3,0,0.5,0c0.4,0,0.9,0.1,1.3,0.2v-4.7c-0.4,0.1-0.9,0.2-1.3,0.2
	c-3.3,0-5.9-2.6-5.9-5.9s2.6-5.9,5.9-5.9c0,0,0,0,0,0c0.4,0,0.9,0.1,1.3,0.2V103c-3.5,0.8-7-1.4-7.7-4.9c-0.8-3.5,1.4-7,4.9-7.7
	c0.9-0.2,1.9-0.2,2.8,0v-2.5c-0.4,0.1-0.9,0.1-1.3,0.1c-3.9,0-7-3.2-7-7.1c0-3.9,3.2-7,7-7c0.4,0,0.9,0.1,1.3,0.1v-1.3
	c-0.4,0.1-0.9,0.1-1.3,0.1c-3.9,0-7.1-2.9-7.6-6.7c-0.4,3.8-3.4,6.8-7.3,7.3c4.2,0.5,7.2,4.3,6.7,8.4c-0.5,4.2-4.3,7.2-8.4,6.7
	c-3.5-0.4-6.3-3.2-6.7-6.7c-0.4,3.8-3.4,6.8-7.3,7.3c4.2,0.5,7.2,4.3,6.7,8.4c-0.5,4.2-4.3,7.2-8.4,6.7c-3.5-0.4-6.3-3.2-6.7-6.7
	c-0.4,3.8-3.4,6.8-7.3,7.3c4.2,0.5,7.2,4.3,6.7,8.4c-0.5,4.2-4.3,7.2-8.4,6.7c-3.5-0.4-6.3-3.2-6.7-6.7c-0.4,3.8-3.4,6.8-7.3,7.3
	c4.2,0.5,7.2,4.3,6.7,8.4c-0.5,4.2-4.3,7.2-8.4,6.7c-3.5-0.4-6.3-3.2-6.7-6.7c-0.4,3.8-3.4,6.8-7.3,7.3c4.2,0.5,7.2,4.3,6.7,8.4
	c-0.5,4.2-4.3,7.2-8.4,6.7c-3.5-0.4-6.3-3.2-6.7-6.7c-0.4,3.8-3.4,6.8-7.3,7.3c4.2,0.5,7.2,4.3,6.7,8.4c-0.5,4.2-4.3,7.2-8.4,6.7
	c-3.5-0.4-6.3-3.2-6.7-6.7c-0.4,3.8-3.4,6.8-7.3,7.3c4.2,0.5,7.2,4.3,6.7,8.4c-0.5,4.2-4.3,7.2-8.4,6.7c-3.5-0.4-6.3-3.2-6.7-6.7
	c-0.4,3.8-3.4,6.8-7.3,7.3c4.2,0.5,7.2,4.3,6.7,8.4c-0.5,4.2-4.3,7.2-8.4,6.7c-3.5-0.4-6.3-3.2-6.7-6.7c-0.4,3.8-3.4,6.8-7.3,7.3
	c4.2,0.5,7.2,4.3,6.7,8.4c-0.5,4.2-4.3,7.2-8.4,6.7c-3.5-0.4-6.3-3.2-6.7-6.7c-0.4,3.8-3.4,6.8-7.3,7.3c4.2,0.5,7.2,4.3,6.7,8.4
	c-0.5,4.2-4.3,7.2-8.4,6.7c-3.5-0.4-6.3-3.2-6.7-6.7c-0.4,3.8-3.4,6.8-7.3,7.3c4.2,0.5,7.2,4.3,6.7,8.4c-0.5,4.2-4.3,7.2-8.4,6.7
	c-3.5-0.4-6.3-3.2-6.7-6.7c-0.4,3.8-3.4,6.8-7.3,7.3c4.2,0.5,7.2,4.3,6.7,8.4c-0.5,4.2-4.3,7.2-8.4,6.7c-3.5-0.4-6.3-3.2-6.7-6.7
	c-0.4,3.8-3.4,6.8-7.3,7.3c4.2,0.4,7.2,4.1,6.8,8.3c-0.4,4.2-4.1,7.2-8.3,6.8c-3.6-0.4-6.4-3.2-6.8-6.8c-0.4,3.8-3.4,6.8-7.3,7.3
	c4.2,0.5,7.2,4.3,6.7,8.4c-0.5,4.2-4.3,7.2-8.4,6.7c-3.5-0.4-6.3-3.2-6.7-6.7c-0.4,3.8-3.4,6.8-7.3,7.3c4.2,0.5,7.2,4.3,6.7,8.4
	c-0.5,4.2-4.3,7.2-8.4,6.7c-3.5-0.4-6.3-3.2-6.7-6.7c-0.4,3.8-3.4,6.8-7.3,7.3c4.2,0.5,7.2,4.3,6.7,8.4c-0.5,4.2-4.3,7.2-8.4,6.7
	c-3.5-0.4-6.3-3.2-6.7-6.7c-0.4,3.8-3.4,6.8-7.3,7.3c4.2,0.5,7.2,4.3,6.7,8.4c-0.5,4.2-4.3,7.2-8.4,6.7c-3.5-0.4-6.3-3.2-6.7-6.7
	c-0.4,3.8-3.4,6.8-7.3,7.3c4.2,0.5,7.2,4.3,6.7,8.4c-0.5,4.2-4.3,7.2-8.4,6.7c-3.5-0.4-6.3-3.2-6.7-6.7c-0.4,3.8-3.4,6.8-7.3,7.3
	c4.2,0.5,7.2,4.3,6.7,8.4c-0.5,4.2-4.3,7.2-8.4,6.7c-3.5-0.4-6.3-3.2-6.7-6.7c-0.4,3.8-3.4,6.8-7.3,7.3c4.2,0.5,7.2,4.3,6.7,8.4
	c-0.5,4.2-4.3,7.2-8.4,6.7c-3.5-0.4-6.3-3.2-6.7-6.7c-0.4,3.8-3.4,6.8-7.3,7.3c4.2,0.5,7.2,4.3,6.7,8.5c-0.5,4.2-4.3,7.2-8.5,6.7
	c-3.5-0.4-6.3-3.2-6.7-6.7c-0.4,3.8-3.4,6.9-7.3,7.3c4.2,0.5,7.2,4.4,6.6,8.6c-0.4,3-2.4,5.4-5.3,6.3H418V285.8
	C417.7,286.3,417.2,286.5,416.7,286.5z M86.9,417.6c-3.9,0-7.1-3.2-7.1-7s3.2-7,7-7c3.9,0,7.1,3.2,7.1,7l0,0
	C94,414.5,90.8,417.6,86.9,417.6z M102.6,417.1c-3.6,0-6.5-2.9-6.5-6.5c0-3.6,2.9-6.5,6.5-6.5c3.6,0,6.5,2.9,6.5,6.5l0,0
	C109.1,414.2,106.2,417.1,102.6,417.1C102.6,417.1,102.6,417.1,102.6,417.1L102.6,417.1z M102.6,401.9c-3.9,0-7.1-3.2-7.1-7
	s3.2-7,7-7c3.9,0,7.1,3.2,7.1,7l0,0C109.7,398.8,106.5,401.9,102.6,401.9C102.6,402,102.6,402,102.6,401.9L102.6,401.9z
	 M118.3,416.5c-3.3,0-5.9-2.7-5.9-5.9c0-3.3,2.7-5.9,5.9-5.9c3.3,0,5.9,2.7,5.9,5.9l0,0C124.3,413.9,121.6,416.5,118.3,416.5
	L118.3,416.5L118.3,416.5z M118.3,401.4c-3.6,0-6.5-2.9-6.5-6.5c0-3.6,2.9-6.5,6.5-6.5c3.6,0,6.5,2.9,6.5,6.5l0,0
	C124.8,398.5,121.9,401.4,118.3,401.4L118.3,401.4L118.3,401.4z M118.3,386.2c-3.9,0-7.1-3.2-7.1-7s3.2-7,7-7c3.9,0,7.1,3.2,7.1,7
	l0,0C125.4,383.1,122.2,386.2,118.3,386.2L118.3,386.2L118.3,386.2z M134,416c-3,0-5.4-2.4-5.4-5.4c0-3,2.4-5.4,5.4-5.4
	c3,0,5.4,2.4,5.4,5.4S137,416,134,416C134,416,134,416,134,416z M134,400.8c-3.3,0-5.9-2.7-5.9-5.9c0-3.3,2.7-5.9,5.9-5.9
	c3.3,0,5.9,2.7,5.9,5.9l0,0C139.9,398.2,137.3,400.8,134,400.8L134,400.8z M134,385.7c-3.6,0-6.5-2.9-6.5-6.5c0-3.6,2.9-6.5,6.5-6.5
	c3.6,0,6.5,2.9,6.5,6.5l0,0C140.5,382.8,137.6,385.7,134,385.7L134,385.7z M134,370.6c-3.9,0-7.1-3.2-7.1-7s3.2-7,7-7
	c3.9,0,7.1,3.2,7.1,7l0,0C141,367.4,137.9,370.5,134,370.6L134,370.6z M149.7,415.6c-2.7,0-4.9-2.2-4.9-4.9c0-2.7,2.2-4.9,4.9-4.9
	c2.7,0,4.9,2.2,4.9,4.9l0,0C154.6,413.3,152.4,415.5,149.7,415.6L149.7,415.6z M149.7,400.4c-3,0-5.4-2.4-5.4-5.4
	c0-3,2.4-5.4,5.4-5.4c3,0,5.4,2.4,5.4,5.4C155.1,397.9,152.7,400.3,149.7,400.4L149.7,400.4z M149.7,385.2c-3.3,0-5.9-2.7-5.9-5.9
	c0-3.3,2.7-5.9,5.9-5.9c3.3,0,5.9,2.7,5.9,5.9l0,0C155.6,382.5,153,385.1,149.7,385.2L149.7,385.2z M149.7,370.1
	c-3.6,0-6.5-2.9-6.5-6.5c0-3.6,2.9-6.5,6.5-6.5c3.6,0,6.5,2.9,6.5,6.5l0,0C156.2,367.1,153.3,370,149.7,370.1L149.7,370.1z
	 M149.7,354.9c-3.9,0-7.1-3.2-7.1-7s3.2-7,7-7c3.9,0,7.1,3.2,7.1,7l0,0C156.7,351.7,153.6,354.8,149.7,354.9L149.7,354.9z
	 M165.4,415.1c-2.5,0-4.5-2-4.5-4.5s2-4.5,4.5-4.5c2.5,0,4.5,2,4.5,4.5C169.9,413.1,167.9,415.1,165.4,415.1L165.4,415.1z
	 M165.4,399.9c-2.7,0-4.9-2.2-4.9-4.9c0-2.7,2.2-4.9,4.9-4.9c2.7,0,4.9,2.2,4.9,4.9l0,0C170.3,397.6,168.1,399.8,165.4,399.9
	L165.4,399.9z M165.4,384.7c-3,0-5.4-2.4-5.4-5.4c0-3,2.4-5.4,5.4-5.4c3,0,5.4,2.4,5.4,5.4C170.8,382.2,168.4,384.6,165.4,384.7
	L165.4,384.7z M165.4,369.5c-3.3,0-5.9-2.7-5.9-5.9c0-3.3,2.7-5.9,5.9-5.9c3.3,0,5.9,2.7,5.9,5.9l0,0
	C171.3,366.8,168.7,369.4,165.4,369.5L165.4,369.5z M165.4,354.4c-3.6,0-6.5-2.9-6.5-6.5c0-3.6,2.9-6.5,6.5-6.5
	c3.6,0,6.5,2.9,6.5,6.5l0,0C171.9,351.4,169,354.3,165.4,354.4L165.4,354.4z M165.4,339.2c-3.9,0-7.1-3.2-7.1-7s3.2-7,7-7
	c3.9,0,7.1,3.2,7.1,7l0,0C172.4,336,169.3,339.1,165.4,339.2L165.4,339.2z M181.1,414.7c-2.2,0-4-1.8-4-4s1.8-4,4-4s4,1.8,4,4
	C185.1,412.8,183.3,414.6,181.1,414.7L181.1,414.7z M181.1,399.5c-2.5,0-4.5-2-4.5-4.5s2-4.5,4.5-4.5c2.5,0,4.5,2,4.5,4.5
	C185.6,397.4,183.6,399.4,181.1,399.5L181.1,399.5z M181.1,384.2c-2.7,0-4.9-2.2-4.9-4.9c0-2.7,2.2-4.9,4.9-4.9
	c2.7,0,4.9,2.2,4.9,4.9l0,0C186,381.9,183.8,384.1,181.1,384.2L181.1,384.2z M181.1,369c-3,0-5.4-2.4-5.4-5.4c0-3,2.4-5.4,5.4-5.4
	c3,0,5.4,2.4,5.4,5.4C186.5,366.5,184.1,368.9,181.1,369L181.1,369z M181.1,353.8c-3.3,0-5.9-2.7-5.9-5.9c0-3.3,2.7-5.9,5.9-5.9
	c3.3,0,5.9,2.7,5.9,5.9l0,0C187,351.1,184.4,353.7,181.1,353.8L181.1,353.8z M181.1,338.7c-3.6,0-6.5-2.9-6.5-6.5
	c0-3.6,2.9-6.5,6.5-6.5c3.6,0,6.5,2.9,6.5,6.5l0,0C187.5,335.7,184.7,338.6,181.1,338.7L181.1,338.7z M181.1,323.5
	c-3.9,0-7.1-3.2-7.1-7s3.2-7,7-7c3.9,0,7.1,3.2,7.1,7l0,0C188.1,320.3,185,323.4,181.1,323.5L181.1,323.5z M196.8,414.3
	c-2,0-3.6-1.6-3.6-3.6s1.6-3.6,3.6-3.6c2,0,3.6,1.6,3.6,3.6l0,0C200.4,412.6,198.8,414.2,196.8,414.3L196.8,414.3z M196.8,399
	c-2.2,0-4-1.8-4-4s1.8-4,4-4s4,1.8,4,4C200.8,397.1,199,398.9,196.8,399L196.8,399z M196.8,383.8c-2.5,0-4.5-2-4.5-4.5
	s2-4.5,4.5-4.5c2.5,0,4.5,2,4.5,4.5C201.2,381.7,199.3,383.7,196.8,383.8L196.8,383.8z M196.8,368.5c-2.7,0-4.9-2.2-4.9-4.9
	c0-2.7,2.2-4.9,4.9-4.9c2.7,0,4.9,2.2,4.9,4.9l0,0C201.7,366.2,199.5,368.4,196.8,368.5L196.8,368.5z M196.8,353.3
	c-3,0-5.4-2.4-5.4-5.4c0-3,2.4-5.4,5.4-5.4c3,0,5.4,2.4,5.4,5.4C202.2,350.8,199.8,353.2,196.8,353.3L196.8,353.3z M196.8,338.1
	c-3.3,0-5.9-2.7-5.9-5.9c0-3.3,2.7-5.9,5.9-5.9c3.3,0,5.9,2.7,5.9,5.9l0,0c-0.1,3.2-2.7,5.8-5.9,5.8L196.8,338.1z M196.8,323
	c-3.6,0-6.5-2.9-6.5-6.5c0-3.6,2.9-6.5,6.5-6.5c3.6,0,6.5,2.9,6.5,6.5l0,0C203.2,320,200.4,322.9,196.8,323L196.8,323z M196.8,307.9
	c-3.9,0-7.1-3.2-7.1-7s3.2-7,7-7c3.9,0,7.1,3.2,7.1,7l0,0C203.8,304.6,200.7,307.7,196.8,307.9L196.8,307.9z M212.5,413.9
	c-1.8,0-3.2-1.4-3.2-3.2s1.4-3.2,3.2-3.2s3.2,1.4,3.2,3.2v0C215.7,412.4,214.3,413.8,212.5,413.9L212.5,413.9z M212.5,398.6
	c-2,0-3.6-1.6-3.6-3.6s1.6-3.6,3.6-3.6c2,0,3.6,1.6,3.6,3.6l0,0C216.1,396.9,214.5,398.5,212.5,398.6L212.5,398.6z M212.5,383.3
	c-2.2,0-4-1.8-4-4s1.8-4,4-4s4,1.8,4,4C216.5,381.4,214.7,383.2,212.5,383.3L212.5,383.3z M212.5,368c-2.5,0-4.5-2-4.5-4.5
	c0-2.5,2-4.5,4.5-4.5c2.4,0,4.4,2,4.5,4.4C217,366,215,368,212.5,368L212.5,368z M212.5,352.8c-2.7,0-4.9-2.2-4.9-4.9
	s2.2-4.9,4.9-4.9c2.7,0,4.9,2.2,4.9,4.9c0,0,0,0,0,0C217.4,350.5,215.2,352.7,212.5,352.8L212.5,352.8z M212.5,337.6
	c-3,0-5.4-2.4-5.4-5.4c0-3,2.4-5.4,5.4-5.4c3,0,5.4,2.4,5.4,5.4C217.9,335.1,215.5,337.5,212.5,337.6L212.5,337.6z M212.5,322.4
	c-3.3,0-5.9-2.7-5.9-5.9s2.7-5.9,5.9-5.9c3.3,0,5.9,2.7,5.9,5.9c0,0,0,0,0,0C218.4,319.7,215.8,322.3,212.5,322.4L212.5,322.4z
	 M212.5,307.3c-3.6,0-6.5-2.9-6.5-6.5c0-3.6,2.9-6.5,6.5-6.5c3.6,0,6.5,2.9,6.5,6.5l0,0C219,304.3,216.1,307.2,212.5,307.3
	L212.5,307.3z M212.5,292.1c-3.9,0-7.1-3.2-7.1-7s3.2-7,7.1-7c3.9,0,7,3.2,7,7l0,0C219.5,288.9,216.4,292,212.5,292.1L212.5,292.1z
	 M228.2,413.5c-1.6,0-2.8-1.3-2.8-2.8c0-1.6,1.3-2.8,2.8-2.8c1.6,0,2.8,1.3,2.8,2.8C231,412.2,229.8,413.4,228.2,413.5L228.2,413.5z
	 M228.2,398.2c-1.8,0-3.2-1.4-3.2-3.2s1.4-3.2,3.2-3.2s3.2,1.4,3.2,3.2v0C231.4,396.7,230,398.1,228.2,398.2L228.2,398.2z
	 M228.2,382.9c-2,0-3.6-1.6-3.6-3.6c0-2,1.6-3.6,3.6-3.6c2,0,3.6,1.6,3.6,3.6l0,0C231.8,381.2,230.2,382.8,228.2,382.9L228.2,382.9z
	 M228.2,367.6c-2.2,0-4-1.8-4-4s1.8-4,4-4s4,1.8,4,4C232.2,365.7,230.4,367.5,228.2,367.6L228.2,367.6z M228.2,352.4
	c-2.5,0-4.5-2-4.5-4.5c0-2.5,2-4.5,4.5-4.5c2.5,0,4.5,2,4.5,4.5C232.7,350.3,230.7,352.3,228.2,352.4L228.2,352.4z M228.2,337.1
	c-2.7,0-4.9-2.2-4.9-4.9c0-2.7,2.2-4.9,4.9-4.9c2.7,0,4.9,2.2,4.9,4.9c0,0,0,0,0,0C233.1,334.8,230.9,337,228.2,337.1L228.2,337.1z
	 M228.2,321.9c-3,0-5.4-2.4-5.4-5.4s2.4-5.4,5.4-5.4c3,0,5.4,2.4,5.4,5.4C233.6,319.4,231.2,321.8,228.2,321.9L228.2,321.9z
	 M228.2,306.7c-3.3,0-5.9-2.7-5.9-5.9c0-3.3,2.7-5.9,5.9-5.9c3.3,0,5.9,2.7,5.9,5.9c0,0,0,0,0,0C234.1,304,231.5,306.6,228.2,306.7
	L228.2,306.7z M228.2,291.6c-3.6,0-6.5-2.9-6.5-6.5s2.9-6.5,6.5-6.5c3.6,0,6.5,2.9,6.5,6.5l0,0C234.7,288.6,231.8,291.5,228.2,291.6
	L228.2,291.6z M228.2,276.4c-3.9,0-7-3.2-7-7c0-3.9,3.2-7,7-7c3.9,0,7,3.2,7,7l0,0C235.2,273.2,232.1,276.3,228.2,276.4L228.2,276.4
	z M244,413c-1.3,0-2.4-1.1-2.4-2.4s1.1-2.4,2.4-2.4s2.4,1.1,2.4,2.4S245.3,413,244,413L244,413z M244,397.7c-1.6,0-2.8-1.3-2.8-2.8
	c0-1.6,1.3-2.8,2.8-2.8c1.6,0,2.8,1.3,2.8,2.8C246.8,396.4,245.6,397.7,244,397.7C244,397.7,244,397.7,244,397.7L244,397.7z
	 M244,382.4c-1.8,0-3.2-1.4-3.2-3.2s1.4-3.2,3.2-3.2s3.2,1.4,3.2,3.2v0C247.2,381,245.8,382.4,244,382.4
	C244,382.4,244,382.4,244,382.4L244,382.4z M244,367.1c-2,0-3.6-1.6-3.6-3.6c0-2,1.6-3.6,3.6-3.6c2,0,3.6,1.6,3.6,3.6l0,0
	C247.6,365.5,246,367.1,244,367.1C244,367.1,244,367.1,244,367.1L244,367.1z M244,351.8c-2.2,0-4-1.8-4-4s1.8-4,4-4s4,1.8,4,4
	C248,350,246.2,351.8,244,351.8C244,351.8,244,351.8,244,351.8L244,351.8z M244,336.6c-2.5,0-4.5-2-4.5-4.5c0-2.5,2-4.5,4.5-4.5
	c2.5,0,4.5,2,4.5,4.5C248.5,334.6,246.5,336.6,244,336.6C244,336.6,244,336.6,244,336.6L244,336.6z M244,321.3
	c-2.7,0-4.9-2.2-4.9-4.9c0-2.7,2.2-4.9,4.9-4.9c2.7,0,4.9,2.2,4.9,4.9c0,0,0,0,0,0C248.9,319.1,246.7,321.3,244,321.3
	C244,321.3,244,321.3,244,321.3L244,321.3z M244,306.1c-3,0-5.4-2.4-5.4-5.4s2.4-5.4,5.4-5.4c3,0,5.4,2.4,5.4,5.4
	C249.4,303.7,247,306.1,244,306.1C244,306.1,244,306.1,244,306.1L244,306.1z M244,290.9c-3.3,0-5.9-2.7-5.9-5.9
	c0-3.3,2.7-5.9,5.9-5.9c3.3,0,5.9,2.7,5.9,5.9c0,0,0,0,0,0C249.9,288.3,247.3,290.9,244,290.9C244,290.9,244,290.9,244,290.9
	L244,290.9z M244,275.8c-3.6,0-6.5-2.9-6.5-6.5s2.9-6.5,6.5-6.5c3.6,0,6.5,2.9,6.5,6.5l0,0C250.5,272.9,247.6,275.8,244,275.8
	C244,275.8,244,275.8,244,275.8L244,275.8z M244,260.7c-3.9,0-7-3.2-7-7c0-3.9,3.2-7,7-7c3.9,0,7,3.2,7,7l0,0
	C251.1,257.5,247.9,260.7,244,260.7C244,260.7,244,260.7,244,260.7L244,260.7z M259.7,412.7c-1.2,0-2.1-1-2.1-2.1s1-2.1,2.1-2.1
	c1.2,0,2.1,1,2.1,2.1C261.9,411.7,260.9,412.7,259.7,412.7C259.7,412.7,259.7,412.7,259.7,412.7L259.7,412.7z M259.7,397.3
	c-1.3,0-2.4-1.1-2.4-2.4s1.1-2.4,2.4-2.4s2.4,1.1,2.4,2.4C262.2,396.2,261.1,397.3,259.7,397.3C259.7,397.3,259.7,397.3,259.7,397.3
	L259.7,397.3z M259.7,382c-1.6,0-2.8-1.3-2.8-2.8c0-1.6,1.3-2.8,2.8-2.8c1.6,0,2.8,1.3,2.8,2.8C262.5,380.7,261.3,382,259.7,382
	C259.7,382,259.7,382,259.7,382L259.7,382z M259.7,366.7c-1.8,0-3.2-1.4-3.2-3.2s1.4-3.2,3.2-3.2s3.2,1.4,3.2,3.2v0
	C262.9,365.2,261.5,366.7,259.7,366.7C259.7,366.7,259.7,366.7,259.7,366.7L259.7,366.7z M259.7,351.4c-2,0-3.6-1.6-3.6-3.6
	c0-2,1.6-3.6,3.6-3.6c2,0,3.6,1.6,3.6,3.6l0,0C263.3,349.8,261.7,351.4,259.7,351.4C259.7,351.4,259.7,351.4,259.7,351.4
	L259.7,351.4z M259.7,336.1c-2.2,0-4-1.8-4-4s1.8-4,4-4s4,1.8,4,4C263.7,334.3,261.9,336.1,259.7,336.1
	C259.7,336.1,259.7,336.1,259.7,336.1L259.7,336.1z M259.7,320.9c-2.5,0-4.5-2-4.5-4.5c0-2.5,2-4.5,4.5-4.5c2.5,0,4.5,2,4.5,4.5
	C264.2,318.9,262.2,320.9,259.7,320.9C259.7,320.9,259.7,320.9,259.7,320.9L259.7,320.9z M259.7,305.6c-2.7,0-4.9-2.2-4.9-4.9
	c0-2.7,2.2-4.9,4.9-4.9c2.7,0,4.9,2.2,4.9,4.9c0,0,0,0,0,0C264.6,303.4,262.4,305.6,259.7,305.6
	C259.7,305.6,259.7,305.6,259.7,305.6L259.7,305.6z M259.7,290.4c-3,0-5.4-2.4-5.4-5.4s2.4-5.4,5.4-5.4c3,0,5.4,2.4,5.4,5.4
	C265.1,288,262.7,290.4,259.7,290.4C259.7,290.4,259.7,290.4,259.7,290.4L259.7,290.4z M259.7,275.2c-3.3,0-5.9-2.7-5.9-5.9
	c0-3.3,2.7-5.9,5.9-5.9c3.3,0,5.9,2.7,5.9,5.9c0,0,0,0,0,0C265.6,272.6,263,275.2,259.7,275.2C259.7,275.2,259.7,275.2,259.7,275.2
	L259.7,275.2z M259.7,260.1c-3.6,0-6.5-2.9-6.5-6.5s2.9-6.5,6.5-6.5c3.6,0,6.5,2.9,6.5,6.5l0,0C266.2,257.2,263.3,260.1,259.7,260.1
	C259.7,260.1,259.7,260.1,259.7,260.1L259.7,260.1z M259.7,245c-3.9,0-7-3.2-7-7c0-3.9,3.2-7.1,7-7.1c3.9,0,7,3.2,7,7v0
	C266.8,241.8,263.6,245,259.7,245C259.7,245,259.7,245,259.7,245L259.7,245z M275.4,412.4c-1,0-1.8-0.8-1.8-1.8c0-1,0.8-1.8,1.8-1.8
	c1,0,1.8,0.8,1.8,1.8C277.2,411.6,276.4,412.4,275.4,412.4C275.4,412.4,275.4,412.4,275.4,412.4L275.4,412.4z M275.4,397
	c-1.2,0-2.1-1-2.1-2.1s1-2.1,2.1-2.1c1.2,0,2.1,1,2.1,2.1C277.5,396,276.6,397,275.4,397C275.4,397,275.4,397,275.4,397L275.4,397z
	 M275.4,381.6c-1.3,0-2.4-1.1-2.4-2.4s1.1-2.4,2.4-2.4s2.4,1.1,2.4,2.4C277.9,380.5,276.8,381.6,275.4,381.6
	C275.4,381.6,275.4,381.6,275.4,381.6L275.4,381.6z M275.4,366.3c-1.6,0-2.8-1.3-2.8-2.8c0-1.6,1.3-2.8,2.8-2.8
	c1.6,0,2.8,1.3,2.8,2.8C278.2,365,277,366.3,275.4,366.3C275.4,366.3,275.4,366.3,275.4,366.3L275.4,366.3z M275.4,351
	c-1.8,0-3.2-1.4-3.2-3.2s1.4-3.2,3.2-3.2s3.2,1.4,3.2,3.2v0C278.6,349.6,277.2,351,275.4,351C275.4,351,275.4,351,275.4,351
	L275.4,351z M275.4,335.7c-2,0-3.6-1.6-3.6-3.6c0-2,1.6-3.6,3.6-3.6c2,0,3.6,1.6,3.6,3.6l0,0C279,334.1,277.4,335.7,275.4,335.7
	C275.4,335.7,275.4,335.7,275.4,335.7L275.4,335.7z M275.4,320.4c-2.2,0-4-1.8-4-4s1.8-4,4-4s4,1.8,4,4
	C279.4,318.6,277.6,320.4,275.4,320.4C275.4,320.4,275.4,320.4,275.4,320.4L275.4,320.4z M275.4,305.2c-2.5,0-4.5-2-4.5-4.5
	c0-2.5,2-4.5,4.5-4.5c2.5,0,4.5,2,4.5,4.5C279.9,303.2,277.9,305.2,275.4,305.2C275.4,305.2,275.4,305.2,275.4,305.2L275.4,305.2z
	 M275.4,289.9c-2.7,0-4.9-2.2-4.9-4.9c0-2.7,2.2-4.9,4.9-4.9c2.7,0,4.9,2.2,4.9,4.9c0,0,0,0,0,0
	C280.3,287.7,278.1,289.9,275.4,289.9C275.4,289.9,275.4,289.9,275.4,289.9L275.4,289.9z M275.4,274.7c-3,0-5.4-2.4-5.4-5.4
	s2.4-5.4,5.4-5.4c3,0,5.4,2.4,5.4,5.4C280.8,272.3,278.4,274.7,275.4,274.7C275.4,274.7,275.4,274.7,275.4,274.7L275.4,274.7z
	 M275.4,259.5c-3.3,0-5.9-2.7-5.9-5.9c0-3.3,2.7-5.9,5.9-5.9c3.3,0,5.9,2.7,5.9,5.9c0,0,0,0,0,0
	C281.3,256.9,278.7,259.5,275.4,259.5C275.4,259.5,275.4,259.5,275.4,259.5L275.4,259.5z M275.4,244.4c-3.6,0-6.5-2.9-6.5-6.5
	s2.9-6.5,6.5-6.5c3.6,0,6.5,2.9,6.5,6.5c0,0,0,0,0,0C281.9,241.5,279,244.4,275.4,244.4C275.4,244.4,275.4,244.4,275.4,244.4
	L275.4,244.4z M275.4,229.3c-3.9,0-7-3.2-7-7c0-3.9,3.2-7.1,7-7.1c3.9,0,7,3.2,7,7v0C282.4,226.1,279.3,229.3,275.4,229.3
	C275.4,229.3,275.4,229.3,275.4,229.3L275.4,229.3z M291.1,412.1c-0.8,0-1.5-0.7-1.5-1.5c0-0.8,0.7-1.5,1.5-1.5
	c0.8,0,1.5,0.7,1.5,1.5S291.9,412.1,291.1,412.1C291.1,412.1,291.1,412.1,291.1,412.1L291.1,412.1z M291.1,396.7
	c-1,0-1.8-0.8-1.8-1.8c0-1,0.8-1.8,1.8-1.8c1,0,1.8,0.8,1.8,1.8S292.1,396.7,291.1,396.7C291.1,396.7,291.1,396.7,291.1,396.7
	L291.1,396.7z M291.1,381.3c-1.2,0-2.1-1-2.1-2.1s1-2.1,2.1-2.1c1.2,0,2.1,1,2.1,2.1S292.3,381.3,291.1,381.3
	C291.1,381.3,291.1,381.3,291.1,381.3L291.1,381.3z M291.1,365.9c-1.3,0-2.4-1.1-2.4-2.4s1.1-2.4,2.4-2.4s2.4,1.1,2.4,2.4
	C293.5,364.8,292.4,365.9,291.1,365.9C291.1,365.9,291.1,365.9,291.1,365.9L291.1,365.9z M291.1,350.6c-1.6,0-2.8-1.3-2.8-2.8
	c0-1.6,1.3-2.8,2.8-2.8c1.6,0,2.8,1.3,2.8,2.8C293.9,349.4,292.7,350.6,291.1,350.6C291.1,350.6,291.1,350.6,291.1,350.6
	L291.1,350.6z M291.1,335.3c-1.8,0-3.2-1.4-3.2-3.2s1.4-3.2,3.2-3.2s3.2,1.4,3.2,3.2v0C294.3,333.9,292.9,335.3,291.1,335.3
	C291.1,335.3,291.1,335.3,291.1,335.3L291.1,335.3z M291.1,320c-2,0-3.6-1.6-3.6-3.6c0-2,1.6-3.6,3.6-3.6c2,0,3.6,1.6,3.6,3.6l0,0
	C294.7,318.4,293.1,320,291.1,320L291.1,320z M291.1,304.7c-2.2,0-4-1.8-4-4s1.8-4,4-4s4,1.8,4,4
	C295.1,302.9,293.3,304.7,291.1,304.7C291.1,304.7,291.1,304.7,291.1,304.7L291.1,304.7z M291.1,289.5c-2.5,0-4.5-2-4.5-4.5
	c0-2.5,2-4.5,4.5-4.5c2.5,0,4.5,2,4.5,4.5C295.6,287.5,293.6,289.5,291.1,289.5C291.1,289.5,291.1,289.5,291.1,289.5L291.1,289.5z
	 M291.1,274.3c-2.7,0-4.9-2.2-4.9-4.9c0-2.7,2.2-4.9,4.9-4.9c2.7,0,4.9,2.2,4.9,4.9c0,0,0,0,0,0C296,272.1,293.8,274.3,291.1,274.3
	C291.1,274.2,291.1,274.2,291.1,274.3L291.1,274.3z M291.1,259c-3,0-5.4-2.4-5.4-5.4s2.4-5.4,5.4-5.4c3,0,5.4,2.4,5.4,5.4
	C296.5,256.6,294,259,291.1,259L291.1,259z M291.1,243.9c-3.3,0-5.9-2.7-5.9-5.9c0-3.3,2.7-5.9,5.9-5.9c3.3,0,5.9,2.7,5.9,5.9l0,0
	C297,241.2,294.3,243.9,291.1,243.9C291.1,243.8,291.1,243.8,291.1,243.9L291.1,243.9z M291.1,228.7c-3.6,0-6.5-2.9-6.5-6.5
	s2.9-6.5,6.5-6.5c3.6,0,6.5,2.9,6.5,6.5c0,0,0,0,0,0C297.6,225.8,294.7,228.7,291.1,228.7C291.1,228.7,291.1,228.7,291.1,228.7
	L291.1,228.7z M291.1,213.6c-3.9,0-7-3.2-7-7c0-3.9,3.2-7.1,7-7.1c3.9,0,7,3.2,7,7v0C298.1,210.5,295,213.6,291.1,213.6
	C291.1,213.6,291.1,213.6,291.1,213.6L291.1,213.6z M306.8,411.9c-0.7,0-1.3-0.6-1.3-1.3s0.6-1.3,1.3-1.3s1.3,0.6,1.3,1.3
	C308,411.3,307.5,411.9,306.8,411.9C306.8,411.8,306.8,411.8,306.8,411.9L306.8,411.9z M306.8,396.4c-0.8,0-1.5-0.7-1.5-1.5
	c0-0.8,0.7-1.5,1.5-1.5c0.8,0,1.5,0.7,1.5,1.5C308.3,395.8,307.6,396.4,306.8,396.4C306.8,396.4,306.8,396.4,306.8,396.4
	L306.8,396.4z M306.8,381.1c-1,0-1.8-0.8-1.8-1.8c0-1,0.8-1.8,1.8-1.8c1,0,1.8,0.8,1.8,1.8C308.6,380.2,307.8,381,306.8,381.1
	L306.8,381.1z M306.8,365.7c-1.2,0-2.1-1-2.1-2.1s1-2.1,2.1-2.1c1.2,0,2.1,1,2.1,2.1C308.9,364.7,307.9,365.6,306.8,365.7
	C306.8,365.6,306.8,365.6,306.8,365.7L306.8,365.7z M306.8,350.3c-1.3,0-2.4-1.1-2.4-2.4s1.1-2.4,2.4-2.4s2.4,1.1,2.4,2.4
	C309.2,349.2,308.1,350.3,306.8,350.3L306.8,350.3L306.8,350.3z M306.8,335c-1.6,0-2.8-1.3-2.8-2.8c0-1.6,1.3-2.8,2.8-2.8
	c1.6,0,2.8,1.3,2.8,2.8C309.6,333.7,308.3,335,306.8,335L306.8,335L306.8,335z M306.8,319.7c-1.8,0-3.2-1.4-3.2-3.2s1.4-3.2,3.2-3.2
	s3.2,1.4,3.2,3.2v0C310,318.2,308.5,319.6,306.8,319.7L306.8,319.7z M306.8,304.4c-2,0-3.6-1.6-3.6-3.6c0-2,1.6-3.6,3.6-3.6
	c2,0,3.6,1.6,3.6,3.6l0,0C310.4,302.8,308.8,304.3,306.8,304.4L306.8,304.4z M306.8,289.1c-2.2,0-4-1.8-4-4s1.8-4,4-4s4,1.8,4,4
	C310.8,287.3,309,289,306.8,289.1L306.8,289.1z M306.8,273.9c-2.5,0-4.5-2-4.5-4.5c0-2.5,2-4.5,4.5-4.5c2.5,0,4.5,2,4.5,4.5
	C311.3,271.8,309.2,273.8,306.8,273.9L306.8,273.9z M306.8,258.6c-2.7,0-4.9-2.2-4.9-4.9c0-2.7,2.2-4.9,4.9-4.9
	c2.7,0,4.9,2.2,4.9,4.9c0,0,0,0,0,0C311.7,256.4,309.5,258.6,306.8,258.6L306.8,258.6z M306.8,243.4c-3,0-5.4-2.4-5.4-5.4
	s2.4-5.4,5.4-5.4c3,0,5.4,2.4,5.4,5.4C312.2,240.9,309.7,243.3,306.8,243.4L306.8,243.4z M306.8,228.2c-3.3,0-5.9-2.7-5.9-5.9
	c0-3.3,2.7-5.9,5.9-5.9c3.3,0,5.9,2.7,5.9,5.9l0,0C312.7,225.5,310,228.2,306.8,228.2L306.8,228.2z M306.8,213.1
	c-3.6,0-6.5-2.9-6.5-6.5s2.9-6.5,6.5-6.5c3.6,0,6.5,2.9,6.5,6.5c0,0,0,0,0,0C313.3,210.1,310.3,213,306.8,213.1L306.8,213.1z
	 M306.8,197.9c-3.9,0-7-3.2-7-7c0-3.9,3.2-7.1,7-7.1c3.9,0,7,3.2,7,7v0C313.8,194.8,310.7,197.9,306.8,197.9L306.8,197.9z
	 M322.5,411.6c-0.6,0-1-0.4-1-1s0.4-1,1-1s1,0.4,1,1C323.5,411.2,323,411.6,322.5,411.6L322.5,411.6z M322.5,396.2
	c-0.7,0-1.3-0.6-1.3-1.3s0.6-1.3,1.3-1.3s1.3,0.6,1.3,1.3C323.7,395.6,323.2,396.2,322.5,396.2L322.5,396.2z M322.5,380.8
	c-0.8,0-1.5-0.7-1.5-1.5c0-0.8,0.7-1.5,1.5-1.5c0.8,0,1.5,0.6,1.5,1.5C324,380,323.3,380.7,322.5,380.8
	C322.5,380.7,322.5,380.7,322.5,380.8L322.5,380.8z M322.5,365.4c-1,0-1.8-0.8-1.8-1.8c0-1,0.8-1.8,1.8-1.8c1,0,1.8,0.8,1.8,1.8
	C324.3,364.5,323.5,365.3,322.5,365.4L322.5,365.4z M322.5,350c-1.2,0-2.1-1-2.1-2.1s1-2.1,2.1-2.1c1.2,0,2.1,1,2.1,2.1
	C324.6,349,323.6,350,322.5,350L322.5,350z M322.5,334.6c-1.3,0-2.4-1.1-2.4-2.4s1.1-2.4,2.4-2.4s2.4,1.1,2.4,2.4
	C324.9,333.5,323.8,334.6,322.5,334.6L322.5,334.6z M322.5,319.3c-1.6,0-2.8-1.3-2.8-2.8c0-1.6,1.3-2.8,2.8-2.8
	c1.6,0,2.8,1.3,2.8,2.8C325.3,318,324,319.3,322.5,319.3L322.5,319.3z M322.5,304c-1.8,0-3.2-1.4-3.2-3.2s1.4-3.2,3.2-3.2
	s3.2,1.4,3.2,3.2v0C325.7,302.5,324.2,304,322.5,304L322.5,304z M322.5,288.7c-2,0-3.6-1.6-3.6-3.6c0-2,1.6-3.6,3.6-3.6
	c2,0,3.6,1.6,3.6,3.6l0,0C326.1,287.1,324.5,288.6,322.5,288.7L322.5,288.7z M322.5,273.4c-2.2,0-4-1.8-4-4s1.8-4,4-4s4,1.8,4,4
	C326.5,271.6,324.7,273.3,322.5,273.4L322.5,273.4z M322.5,258.2c-2.5,0-4.5-2-4.5-4.5c0-2.5,2-4.5,4.5-4.5c2.5,0,4.5,2,4.5,4.5
	C327,256.2,324.9,258.1,322.5,258.2L322.5,258.2z M322.5,242.9c-2.7,0-4.9-2.2-4.9-4.9c0-2.7,2.2-4.9,4.9-4.9c2.7,0,4.9,2.2,4.9,4.9
	l0,0C327.4,240.7,325.2,242.9,322.5,242.9L322.5,242.9z M322.5,227.7c-3,0-5.4-2.4-5.4-5.4s2.4-5.4,5.4-5.4c3,0,5.4,2.4,5.4,5.4
	C327.9,225.3,325.4,227.6,322.5,227.7L322.5,227.7z M322.5,212.5c-3.3,0-5.9-2.7-5.9-5.9c0-3.3,2.7-5.9,5.9-5.9
	c3.3,0,5.9,2.7,5.9,5.9l0,0C328.4,209.9,325.7,212.5,322.5,212.5L322.5,212.5z M322.5,197.4c-3.6,0-6.5-2.9-6.5-6.5s2.9-6.5,6.5-6.5
	c3.6,0,6.5,2.9,6.5,6.5c0,0,0,0,0,0C329,194.5,326,197.3,322.5,197.4L322.5,197.4z M322.5,182.3c-3.9,0-7-3.2-7-7
	c0-3.9,3.2-7.1,7-7.1c3.9,0,7,3.2,7,7v0C329.5,179.1,326.3,182.2,322.5,182.3L322.5,182.3z M338.2,411.4c-0.4,0-0.8-0.3-0.8-0.8
	s0.3-0.8,0.8-0.8s0.8,0.3,0.8,0.8C338.9,411.1,338.6,411.4,338.2,411.4L338.2,411.4z M338.2,396c-0.6,0-1-0.4-1-1s0.4-1,1-1
	s1,0.4,1,1C339.2,395.5,338.7,395.9,338.2,396L338.2,396z M338.2,380.5c-0.7,0-1.3-0.6-1.3-1.3s0.6-1.3,1.3-1.3s1.3,0.6,1.3,1.3
	C339.4,379.9,338.9,380.5,338.2,380.5L338.2,380.5z M338.2,365.1c-0.8,0-1.5-0.7-1.5-1.5c0-0.8,0.7-1.5,1.5-1.5
	c0.8,0,1.5,0.7,1.5,1.5C339.7,364.4,339,365,338.2,365.1L338.2,365.1z M338.2,349.7c-1,0-1.8-0.8-1.9-1.8s0.8-1.8,1.8-1.9
	c1,0,1.8,0.8,1.9,1.8C340,348.8,339.2,349.6,338.2,349.7L338.2,349.7z M338.2,334.3c-1.2,0-2.1-1-2.1-2.1s1-2.1,2.1-2.1
	c1.2,0,2.1,1,2.1,2.1C340.3,333.3,339.3,334.3,338.2,334.3L338.2,334.3z M338.2,318.9c-1.3,0-2.4-1.1-2.4-2.4s1.1-2.4,2.4-2.4
	s2.4,1.1,2.4,2.4C340.6,317.8,339.5,318.9,338.2,318.9L338.2,318.9z M338.2,303.6c-1.6,0-2.8-1.3-2.8-2.8c0-1.6,1.3-2.8,2.8-2.8
	c1.6,0,2.8,1.3,2.8,2.8C341,302.3,339.7,303.6,338.2,303.6L338.2,303.6z M338.2,288.3c-1.8,0-3.2-1.4-3.2-3.2s1.4-3.2,3.2-3.2
	c1.8,0,3.2,1.4,3.2,3.1C341.4,286.8,340,288.2,338.2,288.3C338.2,288.2,338.2,288.2,338.2,288.3L338.2,288.3z M338.2,273
	c-2,0-3.6-1.6-3.6-3.6c0-2,1.6-3.6,3.6-3.6c2,0,3.6,1.6,3.6,3.6l0,0C341.8,271.4,340.2,272.9,338.2,273L338.2,273z M338.2,257.7
	c-2.2,0-4-1.8-4-4s1.8-4,4-4s4,1.8,4,4C342.2,255.9,340.4,257.6,338.2,257.7L338.2,257.7z M338.2,242.5c-2.5,0-4.5-2-4.5-4.5
	c0-2.5,2-4.5,4.5-4.5c2.5,0,4.5,2,4.5,4.5C342.6,240.5,340.6,242.4,338.2,242.5L338.2,242.5z M338.2,227.2c-2.7,0-4.9-2.2-4.9-4.9
	c0-2.7,2.2-4.9,4.9-4.9c2.7,0,4.9,2.2,4.9,4.9l0,0C343.1,225,340.9,227.2,338.2,227.2L338.2,227.2z M338.2,212c-3,0-5.4-2.4-5.4-5.4
	s2.4-5.4,5.4-5.4c3,0,5.4,2.4,5.4,5.4C343.6,209.6,341.1,211.9,338.2,212L338.2,212z M338.2,196.8c-3.3,0-5.9-2.7-5.9-5.9
	c0-3.3,2.7-5.9,5.9-5.9c3.3,0,5.9,2.7,5.9,5.9l0,0C344.1,194.2,341.4,196.8,338.2,196.8L338.2,196.8z M338.2,181.7
	c-3.6,0-6.5-2.9-6.5-6.5s2.9-6.5,6.5-6.5c3.6,0,6.5,2.9,6.5,6.5c0,0,0,0,0,0C344.6,178.8,341.7,181.6,338.2,181.7L338.2,181.7z
	 M338.2,166.6c-3.9,0-7-3.2-7-7c0-3.9,3.2-7.1,7-7.1c3.9,0,7,3.2,7,7v0C345.2,163.4,342.1,166.5,338.2,166.6L338.2,166.6z
	 M353.9,411.3c-0.3,0-0.6-0.3-0.6-0.6c0-0.3,0.3-0.6,0.6-0.6c0.3,0,0.6,0.3,0.6,0.6l0,0C354.5,411,354.2,411.2,353.9,411.3
	L353.9,411.3z M353.9,395.8c-0.4,0-0.8-0.3-0.8-0.8s0.3-0.8,0.8-0.8s0.8,0.3,0.8,0.8C354.6,395.4,354.3,395.7,353.9,395.8
	L353.9,395.8z M353.9,380.3c-0.6,0-1-0.4-1-1s0.4-1,1-1s1,0.4,1,1C354.9,379.8,354.4,380.2,353.9,380.3L353.9,380.3z M353.9,364.8
	c-0.7,0-1.3-0.6-1.3-1.3s0.6-1.3,1.3-1.3s1.3,0.6,1.3,1.3C355.1,364.3,354.6,364.8,353.9,364.8L353.9,364.8z M353.9,349.4
	c-0.8,0-1.5-0.7-1.5-1.5c0-0.8,0.7-1.5,1.5-1.5c0.8,0,1.5,0.7,1.5,1.5C355.4,348.7,354.7,349.3,353.9,349.4L353.9,349.4z M353.9,334
	c-1,0-1.8-0.8-1.8-1.8c0-1,0.8-1.8,1.8-1.8c1,0,1.8,0.8,1.8,1.8C355.7,333.2,354.9,334,353.9,334L353.9,334z M353.9,318.6
	c-1.2,0-2.1-1-2.1-2.1s1-2.1,2.1-2.1c1.2,0,2.1,1,2.1,2.1C356,317.6,355,318.6,353.9,318.6L353.9,318.6z M353.9,303.2
	c-1.3,0-2.4-1.1-2.4-2.4s1.1-2.4,2.4-2.4s2.4,1.1,2.4,2.4C356.3,302.1,355.2,303.2,353.9,303.2L353.9,303.2z M353.9,287.9
	c-1.6,0-2.8-1.3-2.8-2.8c0-1.6,1.3-2.8,2.8-2.8c1.6,0,2.8,1.3,2.8,2.8C356.7,286.6,355.4,287.9,353.9,287.9L353.9,287.9z
	 M353.9,272.6c-1.8,0-3.2-1.4-3.2-3.2s1.4-3.2,3.2-3.2s3.2,1.4,3.2,3.2v0C357.1,271.2,355.6,272.6,353.9,272.6L353.9,272.6z
	 M353.9,257.3c-2,0-3.6-1.6-3.6-3.6c0-2,1.6-3.6,3.6-3.6c2,0,3.6,1.6,3.6,3.6l0,0C357.5,255.7,355.8,257.3,353.9,257.3L353.9,257.3z
	 M353.9,242c-2.2,0-4-1.8-4-4s1.8-4,4-4s4,1.8,4,4c-0.1,2.2-1.8,3.9-4,3.9L353.9,242z M353.9,226.8c-2.5,0-4.5-2-4.5-4.5
	c0-2.5,2-4.5,4.5-4.5c2.5,0,4.5,2,4.5,4.5c-0.1,2.4-2.1,4.4-4.5,4.4L353.9,226.8z M353.9,211.6c-2.7,0-4.9-2.2-4.9-4.9
	c0-2.7,2.2-4.9,4.9-4.9c2.7,0,4.9,2.2,4.9,4.9l0,0c-0.1,2.7-2.3,4.8-4.9,4.8L353.9,211.6z M353.9,196.3c-3,0-5.4-2.4-5.4-5.4
	s2.4-5.4,5.4-5.4c3,0,5.4,2.4,5.4,5.4C359.3,193.9,356.8,196.3,353.9,196.3L353.9,196.3z M353.9,181.2c-3.3,0-5.9-2.7-5.9-5.9
	c0-3.3,2.7-5.9,5.9-5.9c3.3,0,5.9,2.7,5.9,5.9l0,0c-0.1,3.2-2.7,5.8-5.9,5.8L353.9,181.2z M353.9,166c-3.6,0-6.5-2.9-6.5-6.5
	s2.9-6.5,6.5-6.5c3.6,0,6.5,2.9,6.5,6.5c0,0,0,0,0,0c-0.1,3.6-3,6.4-6.5,6.4L353.9,166z M353.9,150.9c-3.9,0-7-3.2-7-7
	c0-3.9,3.2-7.1,7-7.1c3.9,0,7,3.2,7,7v0c-0.1,3.9-3.2,7-7.1,6.9L353.9,150.9z M369.6,411c-0.2,0-0.4-0.2-0.4-0.4s0.2-0.4,0.4-0.4
	s0.4,0.2,0.4,0.4S369.8,411,369.6,411L369.6,411z M369.6,395.5c-0.3,0-0.6-0.3-0.6-0.6c0-0.3,0.3-0.6,0.6-0.6c0.3,0,0.6,0.3,0.6,0.6
	l0,0C370.2,395.2,369.9,395.5,369.6,395.5C369.6,395.5,369.6,395.5,369.6,395.5L369.6,395.5z M369.6,380c-0.4,0-0.8-0.3-0.8-0.8
	s0.3-0.8,0.8-0.8s0.8,0.3,0.8,0.8C370.4,379.6,370.1,380,369.6,380C369.6,380,369.6,380,369.6,380L369.6,380z M369.6,364.5
	c-0.6,0-1-0.4-1-1s0.4-1,1-1s1,0.4,1,1C370.6,364,370.2,364.5,369.6,364.5C369.6,364.5,369.6,364.5,369.6,364.5L369.6,364.5z
	 M369.6,349c-0.7,0-1.3-0.6-1.3-1.3s0.6-1.3,1.3-1.3s1.3,0.6,1.3,1.3C370.9,348.5,370.3,349.1,369.6,349
	C369.6,349.1,369.6,349.1,369.6,349L369.6,349z M369.6,333.6c-0.8,0-1.5-0.7-1.5-1.5c0-0.8,0.7-1.5,1.5-1.5c0.8,0,1.5,0.7,1.5,1.5
	C371.1,332.9,370.4,333.6,369.6,333.6C369.6,333.6,369.6,333.6,369.6,333.6L369.6,333.6z M369.6,318.2c-1,0-1.8-0.8-1.8-1.8
	c0-1,0.8-1.8,1.8-1.8c1,0,1.8,0.8,1.8,1.8C371.4,317.4,370.6,318.2,369.6,318.2C369.6,318.2,369.6,318.2,369.6,318.2L369.6,318.2z
	 M369.6,302.8c-1.2,0-2.1-1-2.1-2.1s1-2.1,2.1-2.1c1.2,0,2.1,1,2.1,2.1C371.7,301.9,370.8,302.8,369.6,302.8
	C369.6,302.8,369.6,302.8,369.6,302.8L369.6,302.8z M369.6,287.4c-1.3,0-2.4-1.1-2.5-2.4s1.1-2.4,2.4-2.5s2.4,1.1,2.5,2.4
	c0,0,0,0,0,0C372,286.3,370.9,287.4,369.6,287.4C369.6,287.5,369.6,287.5,369.6,287.4L369.6,287.4z M369.6,272.1
	c-1.6,0-2.8-1.3-2.8-2.8c0-1.6,1.3-2.8,2.8-2.8c1.6,0,2.8,1.3,2.8,2.8C372.4,270.9,371.2,272.1,369.6,272.1
	C369.6,272.2,369.6,272.2,369.6,272.1L369.6,272.1z M369.6,256.8c-1.8,0-3.2-1.4-3.2-3.2s1.4-3.2,3.2-3.2s3.2,1.4,3.2,3.2v0
	C372.8,255.4,371.4,256.8,369.6,256.8C369.6,256.8,369.6,256.8,369.6,256.8L369.6,256.8z M369.6,241.5c-2,0-3.6-1.6-3.6-3.6
	c0-2,1.6-3.6,3.6-3.6c2,0,3.6,1.6,3.6,3.6v0C373.2,239.9,371.6,241.5,369.6,241.5C369.6,241.5,369.6,241.5,369.6,241.5L369.6,241.5z
	 M369.6,226.2c-2.2,0-4-1.8-4-4s1.8-4,4-4s4,1.8,4,4C373.6,224.4,371.8,226.2,369.6,226.2C369.6,226.2,369.6,226.2,369.6,226.2
	L369.6,226.2z M369.6,211c-2.5,0-4.5-2-4.5-4.5c0-2.5,2-4.5,4.5-4.5c2.5,0,4.5,2,4.5,4.5C374.1,209,372.1,211,369.6,211
	C369.6,211,369.6,211,369.6,211L369.6,211z M369.6,195.7c-2.7,0-4.9-2.2-4.9-4.9c0-2.7,2.2-4.9,4.9-4.9c2.7,0,4.9,2.2,4.9,4.9l0,0
	C374.5,193.5,372.3,195.8,369.6,195.7C369.6,195.8,369.6,195.8,369.6,195.7L369.6,195.7z M369.6,180.5c-3,0-5.4-2.4-5.4-5.4
	s2.4-5.4,5.4-5.4c3,0,5.4,2.4,5.4,5.4C375,178.1,372.6,180.5,369.6,180.5C369.6,180.5,369.6,180.5,369.6,180.5L369.6,180.5z
	 M369.6,165.4c-3.3,0-5.9-2.7-5.9-5.9c0-3.3,2.7-5.9,5.9-5.9c3.3,0,5.9,2.7,5.9,5.9l0,0C375.5,162.7,372.8,165.4,369.6,165.4
	L369.6,165.4L369.6,165.4z M369.6,150.2c-3.6,0-6.5-2.9-6.5-6.5s2.9-6.5,6.5-6.5c3.6,0,6.5,2.9,6.5,6.5c0,0,0,0,0,0
	C376.1,147.3,373.2,150.2,369.6,150.2C369.6,150.2,369.6,150.2,369.6,150.2L369.6,150.2z M369.6,135.1c-3.9,0-7-3.2-7-7
	c0-3.9,3.2-7.1,7-7.1c3.9,0,7,3.2,7,7v0C376.6,131.9,373.5,135.1,369.6,135.1C369.6,135.1,369.6,135.1,369.6,135.1L369.6,135.1z
	 M385.3,410.9c-0.2,0-0.3-0.1-0.3-0.3c0-0.2,0.1-0.3,0.3-0.3c0.2,0,0.3,0.1,0.3,0.3l0,0C385.6,410.8,385.5,410.9,385.3,410.9
	C385.3,410.9,385.3,410.9,385.3,410.9L385.3,410.9z M385.3,395.3c-0.2,0-0.4-0.2-0.4-0.4s0.2-0.4,0.4-0.4s0.4,0.2,0.4,0.4
	C385.7,395.1,385.5,395.3,385.3,395.3C385.3,395.3,385.3,395.3,385.3,395.3L385.3,395.3z M385.3,379.8c-0.3,0-0.6-0.3-0.6-0.6
	c0-0.3,0.3-0.6,0.6-0.6c0.3,0,0.6,0.3,0.6,0.6l0,0C385.9,379.5,385.6,379.8,385.3,379.8C385.3,379.8,385.3,379.8,385.3,379.8
	L385.3,379.8z M385.3,364.3c-0.4,0-0.8-0.3-0.8-0.8s0.3-0.8,0.8-0.8s0.8,0.3,0.8,0.8C386.1,363.9,385.7,364.3,385.3,364.3
	L385.3,364.3z M385.3,348.8c-0.6,0-1-0.4-1-1s0.4-1,1-1s1,0.4,1,1C386.3,348.4,385.8,348.8,385.3,348.8
	C385.3,348.8,385.3,348.8,385.3,348.8L385.3,348.8z M385.3,333.4c-0.7,0-1.3-0.6-1.3-1.3s0.6-1.3,1.3-1.3s1.3,0.6,1.3,1.3
	C386.5,332.8,386,333.4,385.3,333.4C385.3,333.4,385.3,333.4,385.3,333.4L385.3,333.4z M385.3,317.9c-0.8,0-1.5-0.7-1.5-1.5
	c0-0.8,0.7-1.5,1.5-1.5c0.8,0,1.5,0.7,1.5,1.5C386.8,317.2,386.1,317.9,385.3,317.9C385.3,317.9,385.3,317.9,385.3,317.9
	L385.3,317.9z M385.3,302.5c-1,0-1.8-0.8-1.8-1.8c0-1,0.8-1.8,1.8-1.8c1,0,1.8,0.8,1.8,1.8C387.1,301.7,386.3,302.5,385.3,302.5
	C385.3,302.5,385.3,302.5,385.3,302.5L385.3,302.5z M385.3,287.1c-1.2,0-2.1-1-2.1-2.1s1-2.1,2.1-2.1c1.2,0,2.1,1,2.1,2.1
	C387.4,286.2,386.5,287.1,385.3,287.1C385.3,287.2,385.3,287.2,385.3,287.1L385.3,287.1z M385.3,271.7c-1.3,0-2.4-1.1-2.4-2.4
	s1.1-2.4,2.4-2.4s2.4,1.1,2.4,2.4C387.7,270.7,386.6,271.8,385.3,271.7C385.3,271.8,385.3,271.8,385.3,271.7L385.3,271.7z
	 M385.3,256.4c-1.6,0-2.8-1.3-2.8-2.8c0-1.6,1.3-2.8,2.8-2.8c1.6,0,2.8,1.3,2.8,2.8C388.1,255.2,386.8,256.4,385.3,256.4
	L385.3,256.4z M385.3,241.1c-1.8,0-3.2-1.4-3.2-3.2s1.4-3.2,3.2-3.2c1.8,0,3.2,1.4,3.2,3.2v0C388.5,239.7,387.1,241.1,385.3,241.1
	L385.3,241.1z M385.3,225.8c-2,0-3.6-1.6-3.6-3.6c0-2,1.6-3.6,3.6-3.6c2,0,3.6,1.6,3.6,3.6v0C388.9,224.2,387.3,225.8,385.3,225.8
	L385.3,225.8z M385.3,210.5c-2.2,0-4-1.8-4-4s1.8-4,4-4s4,1.8,4,4C389.3,208.8,387.5,210.5,385.3,210.5L385.3,210.5z M385.3,195.3
	c-2.5,0-4.5-2-4.5-4.5c0-2.5,2-4.5,4.5-4.5c2.5,0,4.5,2,4.5,4.5l0,0C389.8,193.3,387.8,195.3,385.3,195.3L385.3,195.3z M385.3,180.1
	c-2.7,0-4.9-2.2-4.9-4.9c0-2.7,2.2-4.9,4.9-4.9c2.7,0,4.9,2.2,4.9,4.9l0,0C390.2,177.9,388,180.1,385.3,180.1L385.3,180.1z
	 M385.3,164.8c-3,0-5.4-2.4-5.4-5.4s2.4-5.4,5.4-5.4c3,0,5.4,2.4,5.4,5.4C390.7,162.4,388.3,164.8,385.3,164.8L385.3,164.8z
	 M385.3,149.7c-3.3,0-5.9-2.7-5.9-5.9c0-3.3,2.7-5.9,5.9-5.9c3.3,0,5.9,2.7,5.9,5.9l0,0C391.2,147,388.6,149.7,385.3,149.7
	L385.3,149.7z M385.3,134.5c-3.6,0-6.5-2.9-6.5-6.5s2.9-6.5,6.5-6.5c3.6,0,6.5,2.9,6.5,6.5c0,0,0,0,0,0
	C391.8,131.6,388.9,134.5,385.3,134.5L385.3,134.5z M385.3,119.4c-3.9,0-7-3.2-7-7c0-3.9,3.2-7.1,7-7.1c3.9,0,7,3.2,7,7v0
	C392.3,116.3,389.2,119.4,385.3,119.4L385.3,119.4z M401,410.8c-0.1,0-0.2-0.1-0.2-0.2c0-0.1,0.1-0.2,0.2-0.2c0.1,0,0.2,0.1,0.2,0.2
	c0,0,0,0,0,0C401.2,410.7,401.1,410.8,401,410.8z M401,395.2c-0.2,0-0.3-0.1-0.3-0.3c0-0.2,0.1-0.3,0.3-0.3c0.2,0,0.3,0.1,0.3,0.3
	l0,0C401.3,395.1,401.2,395.2,401,395.2z M401,379.6c-0.2,0-0.4-0.2-0.4-0.4s0.2-0.4,0.4-0.4s0.4,0.2,0.4,0.4S401.2,379.6,401,379.6
	L401,379.6z M401,364.1c-0.3,0-0.6-0.3-0.6-0.6c0-0.3,0.3-0.6,0.6-0.6c0.3,0,0.6,0.3,0.6,0.6l0,0C401.6,363.8,401.3,364.1,401,364.1
	z M401,348.6c-0.4,0-0.8-0.3-0.8-0.8s0.3-0.8,0.8-0.8s0.8,0.3,0.8,0.8C401.8,348.2,401.4,348.6,401,348.6
	C401,348.6,401,348.6,401,348.6L401,348.6z M401,333.1c-0.6,0-1-0.4-1-1s0.4-1,1-1s1,0.4,1,1S401.6,333.1,401,333.1z M401,317.7
	c-0.7,0-1.3-0.6-1.3-1.3s0.6-1.3,1.3-1.3s1.3,0.6,1.3,1.3S401.7,317.7,401,317.7L401,317.7z M401,302.2c-0.8,0-1.5-0.7-1.5-1.5
	c0-0.8,0.7-1.5,1.5-1.5c0.8,0,1.5,0.7,1.5,1.5C402.5,301.5,401.8,302.2,401,302.2C401,302.2,401,302.2,401,302.2L401,302.2z
	 M401,286.8c-1,0-1.8-0.8-1.8-1.8c0-1,0.8-1.8,1.8-1.8c1,0,1.8,0.8,1.8,1.8C402.8,286,402,286.8,401,286.8
	C401,286.8,401,286.8,401,286.8L401,286.8z M401,271.4c-1.2,0-2.1-1-2.1-2.1s1-2.1,2.1-2.1c1.2,0,2.1,1,2.1,2.1
	C403.1,270.5,402.2,271.4,401,271.4L401,271.4L401,271.4z M401,256.1c-1.3,0-2.4-1.1-2.4-2.4s1.1-2.4,2.4-2.4s2.4,1.1,2.4,2.4
	C403.4,255,402.3,256.1,401,256.1L401,256.1L401,256.1z M401,240.8c-1.6,0-2.8-1.3-2.8-2.8c0-1.6,1.3-2.8,2.8-2.8
	c1.6,0,2.8,1.3,2.8,2.8S402.6,240.8,401,240.8L401,240.8L401,240.8z M401,225.5c-1.8,0-3.2-1.4-3.2-3.2s1.4-3.2,3.2-3.2
	c1.8,0,3.2,1.4,3.2,3.2v0C404.2,224,402.8,225.5,401,225.5L401,225.5z M401,210.2c-2,0-3.6-1.6-3.6-3.6c0-2,1.6-3.6,3.6-3.6
	c2,0,3.6,1.6,3.6,3.6v0C404.6,208.5,403,210.1,401,210.2L401,210.2z M401,194.9c-2.2,0-4-1.8-4-4s1.8-4,4-4s4,1.8,4,4
	C405,193.1,403.2,194.8,401,194.9L401,194.9z M401,179.6c-2.5,0-4.5-2-4.5-4.5c0-2.5,2-4.5,4.5-4.5c2.5,0,4.5,2,4.5,4.5l0,0
	C405.5,177.6,403.5,179.6,401,179.6L401,179.6z M401,164.4c-2.7,0-4.9-2.2-4.9-4.9c0-2.7,2.2-4.9,4.9-4.9c2.7,0,4.9,2.2,4.9,4.9l0,0
	C405.9,162.2,403.7,164.4,401,164.4L401,164.4z M401,149.2c-3,0-5.4-2.4-5.4-5.4s2.4-5.4,5.4-5.4c3,0,5.4,2.4,5.4,5.4
	C406.4,146.7,404,149.2,401,149.2L401,149.2z M401,134c-3.3,0-5.9-2.7-5.9-5.9c0-3.3,2.7-5.9,5.9-5.9c3.3,0,5.9,2.7,5.9,5.9l0,0
	C406.9,131.3,404.3,134,401,134z M401,118.9c-3.6,0-6.5-2.9-6.5-6.5s2.9-6.5,6.5-6.5c3.6,0,6.5,2.9,6.5,6.5c0,0,0,0,0,0
	C407.5,116,404.6,118.8,401,118.9L401,118.9z M401,103.7c-3.9,0-7-3.2-7-7c0-3.9,3.2-7.1,7-7.1c3.9,0,7,3.2,7,7v0
	C408,100.6,404.9,103.7,401,103.7L401,103.7z M416.7,410.7C416.7,410.7,416.6,410.7,416.7,410.7c-0.1-0.1,0-0.2,0-0.2
	S416.8,410.6,416.7,410.7C416.8,410.7,416.7,410.7,416.7,410.7L416.7,410.7z M416.7,395.1c-0.1,0-0.2-0.1-0.2-0.2
	c0-0.1,0.1-0.2,0.2-0.2c0.1,0,0.2,0.1,0.2,0.2c0,0,0,0,0,0C416.8,395,416.8,395.1,416.7,395.1L416.7,395.1z M416.7,379.6
	c-0.2,0-0.3-0.1-0.3-0.3c0-0.2,0.1-0.3,0.3-0.3c0.2,0,0.3,0.1,0.3,0.3l0,0C417,379.4,416.8,379.5,416.7,379.6L416.7,379.6z
	 M416.7,364c-0.2,0-0.4-0.2-0.4-0.4s0.2-0.4,0.4-0.4s0.4,0.2,0.4,0.4C417.1,363.8,416.9,363.9,416.7,364L416.7,364z M416.7,348.5
	c-0.3,0-0.6-0.3-0.6-0.6c0-0.3,0.3-0.6,0.6-0.6c0.3,0,0.6,0.3,0.6,0.6l0,0C417.3,348.2,417,348.4,416.7,348.5L416.7,348.5z
	 M416.7,332.9c-0.4,0-0.8-0.3-0.8-0.8s0.3-0.8,0.8-0.8s0.8,0.3,0.8,0.8C417.4,332.6,417.1,332.9,416.7,332.9L416.7,332.9z
	 M416.7,317.5c-0.6,0-1-0.4-1-1s0.4-1,1-1s1,0.4,1,1C417.7,317,417.2,317.4,416.7,317.5L416.7,317.5z M416.7,302
	c-0.7,0-1.3-0.6-1.3-1.3s0.6-1.3,1.3-1.3s1.3,0.6,1.3,1.3C417.9,301.5,417.4,302,416.7,302L416.7,302z"/>
<path fill="#FFFFFF" d="M63.7,398.1c-0.9,2.3-2.7,4.1-5,5c2.7,1.2,4.6,3.7,4.9,6.6c0.4-3.5,3.2-6.3,6.7-6.7
	C67.4,402.7,64.8,400.8,63.7,398.1z"/>
<path fill="#FFFFFF" d="M63.7,411.7c-0.3,2.6-1.7,4.9-3.9,6.3H69C66.1,417.2,64,414.7,63.7,411.7z"/>
<path fill="#FFFFFF" d="M209.3,246.1c-1.7-0.7-3.2-1.9-4.2-3.5c-0.9,1.5-2.1,2.7-3.6,3.6c1.6,1,2.8,2.5,3.5,4.2
	C205.8,248.5,207.4,246.9,209.3,246.1z"/>
<path fill="#FFFFFF" d="M173.6,299.8c0.4-3.5,3.2-6.3,6.7-6.7c-2.9-0.3-5.5-2.2-6.6-4.9c-0.9,2.3-2.7,4.1-5,5
	C171.3,294.4,173.2,296.9,173.6,299.8z"/>
<path fill="#FFFFFF" d="M193.6,261.8c-1.7-0.7-3.2-1.9-4.2-3.5c-0.8,1.5-2.1,2.7-3.6,3.6c1.6,1,2.8,2.5,3.5,4.2
	C190.2,264.2,191.7,262.6,193.6,261.8z"/>
<path fill="#FFFFFF" d="M189.3,284.1c0.4-3.5,3.2-6.3,6.7-6.7c-2.9-0.3-5.5-2.2-6.6-4.9c-0.9,2.3-2.7,4.1-5,5
	C187,278.7,188.9,281.2,189.3,284.1z"/>
<path fill="#FFFFFF" d="M205,268.4c0.4-3.5,3.2-6.3,6.7-6.7c-2.9-0.3-5.5-2.2-6.6-4.9c-0.9,2.3-2.7,4.1-5,5
	C202.8,263,204.7,265.5,205,268.4z"/>
<path fill="#FFFFFF" d="M130.8,324.6c-1.7-0.7-3.2-1.9-4.2-3.5c-0.9,1.5-2.1,2.7-3.6,3.6c1.6,1,2.8,2.5,3.5,4.2
	C127.3,327,128.9,325.4,130.8,324.6z"/>
<path fill="#FFFFFF" d="M177.9,277.5c-1.7-0.7-3.2-1.9-4.2-3.5c-0.9,1.5-2.1,2.7-3.6,3.6c1.6,1,2.8,2.5,3.5,4.2
	C174.4,279.9,176,278.3,177.9,277.5z"/>
<path fill="#FFFFFF" d="M146.5,308.9c-1.7-0.7-3.2-1.9-4.2-3.5c-0.9,1.5-2.1,2.7-3.6,3.6c1.6,1,2.8,2.5,3.5,4.2
	C143.1,311.3,144.6,309.7,146.5,308.9z"/>
<path fill="#FFFFFF" d="M126.5,346.9c0.4-3.5,3.2-6.3,6.7-6.7c-2.9-0.3-5.5-2.2-6.6-4.9c-0.9,2.3-2.7,4.1-5,5
	C124.2,341.5,126.1,344,126.5,346.9z"/>
<path fill="#FFFFFF" d="M142.2,331.2c0.4-3.5,3.2-6.3,6.7-6.7c-2.9-0.3-5.5-2.2-6.6-4.9c-0.9,2.3-2.7,4.1-5,5
	C139.9,325.8,141.8,328.3,142.2,331.2z"/>
<path fill="#FFFFFF" d="M157.9,315.5c0.4-3.5,3.2-6.3,6.7-6.7c-2.9-0.3-5.5-2.2-6.6-4.9c-0.9,2.3-2.7,4.1-5,5
	C155.6,310.1,157.5,312.6,157.9,315.5z"/>
<path fill="#FFFFFF" d="M162.2,293.2c-1.7-0.7-3.2-1.9-4.2-3.5c-0.9,1.5-2.1,2.7-3.6,3.6c1.6,1,2.8,2.5,3.5,4.2
	C158.8,295.6,160.3,294,162.2,293.2z"/>
<path fill="#2B2B2B" d="M418,0H20C9,0,0,9,0,20v398c0,11,9,20,20,20h398c11,0,20-9,20-20V20C438,9,429,0,418,0z M418,57.8
	c-0.1,0-0.3-0.1-0.4-0.1c0.2,0,0.3,0,0.4-0.1V57.8z M20,20h398v0.6l-5.7,5.7l-3.2,3.2L396.6,42l-3.2,3.2l-12.5,12.5l-3.2,3.2
	l-12.5,12.5l-3.2,3.1l-12.5,12.5l-3.2,3.2l-12.5,12.5l-3.2,3.2L318,120.5l-3.2,3.1l-12.6,12.5l-3.1,3.1l-12.6,12.6l-3.1,3.1
	l-12.6,12.6l-3.1,3.1l-12.6,12.6l-3.1,3.1L239.5,199l-3.1,3.1l-12.6,12.6l-3.1,3.1L208,230.4l-3,3l-12.7,12.7l-3,3l-12.7,12.7l-3,3
	L161,277.4l-3,3l-12.7,12.7l-3,3l-12.8,12.8l-3,3l-12.7,12.7l-3,3l-12.7,12.7l-2.9,2.9L82.4,356l-2.9,2.9l-12.8,12.8l-2.9,2.9
	l-12.8,12.8l-2.9,2.9l-12.8,12.8l-2.9,3.1L20.8,418H20V20z M409.2,52.8c1.2,2.7,3.7,4.6,6.7,4.9c-3.5,0.4-6.3,3.2-6.7,6.7
	c-0.3-2.9-2.2-5.5-4.9-6.6C406.5,56.8,408.3,55.1,409.2,52.8L409.2,52.8z M405.7,42.1c1.5-0.9,2.7-2.1,3.6-3.6
	c1,1.6,2.5,2.8,4.2,3.5c-1.9,0.8-3.5,2.4-4.3,4.3C408.5,44.6,407.2,43.1,405.7,42.1L405.7,42.1z M393.5,68.5
	c1.2,2.7,3.7,4.6,6.7,4.9c-3.5,0.4-6.3,3.2-6.7,6.7c-0.3-2.9-2.2-5.5-4.9-6.6C390.8,72.5,392.6,70.8,393.5,68.5L393.5,68.5z
	 M390,57.8c1.5-0.9,2.7-2.1,3.6-3.6c1,1.6,2.5,2.8,4.2,3.5c-1.9,0.8-3.5,2.4-4.3,4.3C392.8,60.3,391.6,58.8,390,57.8z M377.8,84.2
	c1.2,2.7,3.7,4.6,6.7,4.9c-3.5,0.4-6.3,3.2-6.7,6.7c-0.3-2.9-2.2-5.5-4.9-6.6C375.1,88.2,376.9,86.4,377.8,84.2L377.8,84.2z
	 M374.3,73.5c1.5-0.9,2.7-2.1,3.6-3.6c1,1.6,2.5,2.8,4.2,3.5c-1.9,0.8-3.5,2.4-4.3,4.3C377.1,76,375.9,74.5,374.3,73.5L374.3,73.5z
	 M362.1,99.9c1.2,2.7,3.7,4.6,6.7,4.9c-3.5,0.4-6.3,3.2-6.7,6.7c-0.3-2.9-2.2-5.5-4.9-6.6C359.4,103.9,361.2,102.1,362.1,99.9
	L362.1,99.9z M358.6,89.2c1.5-0.9,2.7-2.1,3.6-3.6c1,1.6,2.5,2.8,4.2,3.5c-1.9,0.8-3.5,2.4-4.3,4.3
	C361.4,91.7,360.2,90.2,358.6,89.2L358.6,89.2z M346.4,115.6c1.2,2.7,3.7,4.6,6.7,4.9c-3.5,0.4-6.3,3.2-6.7,6.7
	c-0.3-2.9-2.2-5.5-4.9-6.6C343.7,119.6,345.5,117.8,346.4,115.6L346.4,115.6z M342.9,104.9c1.5-0.9,2.7-2.1,3.6-3.6
	c1,1.6,2.5,2.8,4.2,3.5c-1.9,0.8-3.5,2.4-4.3,4.3C345.7,107.4,344.4,105.9,342.9,104.9L342.9,104.9z M330.7,131.3
	c1.2,2.7,3.7,4.6,6.7,4.9c-3.5,0.4-6.3,3.2-6.7,6.7c-0.3-2.9-2.2-5.5-4.9-6.6C328,135.3,329.8,133.5,330.7,131.3L330.7,131.3z
	 M327.2,120.6c1.5-0.9,2.7-2.1,3.6-3.6c1,1.6,2.5,2.8,4.2,3.5c-1.9,0.8-3.5,2.4-4.3,4.3C330,123.1,328.7,121.6,327.2,120.6
	L327.2,120.6z M315,147c1.2,2.7,3.7,4.6,6.7,4.9c-3.5,0.4-6.3,3.2-6.7,6.7c-0.3-2.9-2.2-5.5-4.9-6.6
	C312.3,151.1,314.1,149.3,315,147z M311.4,136.3c1.5-0.9,2.7-2.1,3.6-3.6c1,1.6,2.5,2.8,4.2,3.5c-1.9,0.8-3.5,2.4-4.3,4.3
	C314.3,138.8,313,137.3,311.4,136.3L311.4,136.3z M299.2,162.7c1.2,2.7,3.7,4.6,6.7,4.9c-3.5,0.4-6.3,3.2-6.7,6.7
	c-0.3-2.9-2.2-5.5-4.9-6.6C296.6,166.7,298.4,164.9,299.2,162.7L299.2,162.7z M295.7,152c1.5-0.9,2.7-2.1,3.6-3.6
	c1,1.6,2.5,2.8,4.2,3.5c-1.9,0.8-3.5,2.4-4.3,4.3C298.6,154.5,297.3,153,295.7,152z M283.5,178.4c1.2,2.7,3.7,4.6,6.7,4.9
	c-3.5,0.4-6.3,3.2-6.7,6.7c-0.3-2.9-2.2-5.5-4.9-6.6C280.9,182.5,282.7,180.6,283.5,178.4z M280,167.7c1.5-0.8,2.7-2.1,3.6-3.6
	c1,1.6,2.5,2.8,4.2,3.5c-1.9,0.8-3.5,2.4-4.3,4.3C282.8,170.2,281.6,168.7,280,167.7z M267.8,194.1c1.2,2.7,3.7,4.6,6.7,4.9
	c-3.5,0.4-6.3,3.2-6.7,6.7c-0.3-2.9-2.2-5.5-4.9-6.6C265.1,198.1,266.9,196.3,267.8,194.1L267.8,194.1z M264.3,183.4
	c1.5-0.9,2.7-2.1,3.6-3.6c1,1.6,2.5,2.8,4.2,3.5c-1.9,0.8-3.5,2.4-4.3,4.3C267.1,185.9,265.9,184.4,264.3,183.4L264.3,183.4z
	 M252.1,209.8c1.2,2.7,3.7,4.6,6.7,4.9c-3.5,0.4-6.3,3.2-6.7,6.7c-0.3-2.9-2.2-5.5-4.9-6.6C249.4,213.8,251.2,212,252.1,209.8
	L252.1,209.8z M248.6,199.1c1.5-0.9,2.7-2.1,3.6-3.6c1,1.6,2.5,2.8,4.2,3.5c-1.9,0.8-3.5,2.4-4.3,4.3
	C251.4,201.6,250.2,200.1,248.6,199.1L248.6,199.1z M236.4,225.5c1.2,2.7,3.7,4.6,6.7,4.9c-3.5,0.4-6.3,3.2-6.7,6.7
	c-0.3-2.9-2.2-5.5-4.9-6.6C233.7,229.5,235.5,227.7,236.4,225.5L236.4,225.5z M232.9,214.8c1.5-0.9,2.7-2.1,3.6-3.6
	c1,1.6,2.5,2.8,4.2,3.5c-1.9,0.8-3.5,2.4-4.3,4.3C235.7,217.3,234.5,215.8,232.9,214.8L232.9,214.8z M220.7,241.2
	c1.2,2.7,3.7,4.6,6.7,4.9c-3.5,0.4-6.3,3.2-6.7,6.7c-0.3-2.9-2.2-5.5-4.9-6.6C218,245.2,219.8,243.4,220.7,241.2L220.7,241.2z
	 M217.2,230.5c1.5-0.9,2.7-2.1,3.6-3.6c1,1.6,2.5,2.8,4.2,3.5c-1.9,0.8-3.5,2.4-4.3,4.3C220,233,218.8,231.5,217.2,230.5
	L217.2,230.5z M205,256.8c1.2,2.7,3.7,4.6,6.7,4.9c-3.5,0.4-6.3,3.2-6.7,6.7c-0.3-2.9-2.2-5.5-4.9-6.6
	C202.3,260.9,204.1,259.1,205,256.8z M201.5,246.2c1.5-0.9,2.7-2.1,3.6-3.6c1,1.6,2.5,2.8,4.2,3.5c-1.9,0.8-3.5,2.4-4.3,4.3
	C204.3,248.7,203.1,247.2,201.5,246.2L201.5,246.2z M189.3,272.5c1.2,2.7,3.7,4.6,6.6,4.9c-3.5,0.4-6.3,3.2-6.7,6.7
	c-0.3-2.9-2.2-5.5-4.9-6.6C186.6,276.6,188.4,274.8,189.3,272.5L189.3,272.5z M185.8,261.9c1.5-0.8,2.7-2.1,3.6-3.6
	c1,1.6,2.5,2.8,4.2,3.5c-1.9,0.8-3.5,2.4-4.3,4.3C188.6,264.4,187.4,262.9,185.8,261.9L185.8,261.9z M173.6,288.2
	c1.2,2.7,3.7,4.6,6.6,4.9c-3.5,0.4-6.3,3.2-6.7,6.7c-0.3-2.9-2.2-5.5-4.9-6.6C170.9,292.3,172.7,290.5,173.6,288.2L173.6,288.2z
	 M170.1,277.6c1.5-0.8,2.8-2.1,3.6-3.6c1,1.6,2.5,2.8,4.2,3.5c-1.9,0.8-3.5,2.4-4.3,4.3C172.9,280.1,171.7,278.6,170.1,277.6
	L170.1,277.6z M157.9,304c1.2,2.7,3.7,4.6,6.6,4.9c-3.5,0.4-6.3,3.2-6.7,6.7c-0.3-2.9-2.2-5.5-4.9-6.6
	C155.2,308,157,306.2,157.9,304L157.9,304z M154.4,293.3c1.5-0.9,2.7-2.1,3.6-3.6c1,1.6,2.5,2.8,4.2,3.5c-1.9,0.8-3.5,2.4-4.3,4.3
	C157.2,295.8,156,294.3,154.4,293.3L154.4,293.3z M142.2,319.7c1.2,2.7,3.7,4.6,6.6,4.9c-3.5,0.4-6.3,3.2-6.7,6.7
	c-0.3-2.9-2.2-5.5-4.9-6.6C139.5,323.7,141.3,321.9,142.2,319.7L142.2,319.7z M138.7,309c1.5-0.9,2.7-2.1,3.6-3.6
	c1,1.6,2.5,2.8,4.2,3.5c-1.9,0.8-3.5,2.4-4.3,4.3C141.5,311.5,140.3,310,138.7,309z M126.5,335.4c1.2,2.7,3.7,4.6,6.6,4.9
	c-3.5,0.4-6.3,3.2-6.7,6.7c-0.3-2.9-2.2-5.5-4.9-6.6C123.8,339.4,125.6,337.6,126.5,335.4L126.5,335.4z M123,324.7
	c1.5-0.9,2.7-2.1,3.6-3.6c1,1.6,2.5,2.8,4.2,3.5c-1.9,0.8-3.5,2.4-4.3,4.3C125.8,327.1,124.6,325.7,123,324.7z M110.8,351
	c1.2,2.7,3.7,4.6,6.6,4.9c-3.5,0.4-6.3,3.2-6.7,6.7c-0.3-2.9-2.2-5.5-4.9-6.6C108.1,355.1,109.9,353.3,110.8,351z M107.3,340.3
	c1.5-0.9,2.7-2.1,3.6-3.6c1,1.6,2.5,2.8,4.2,3.5c-1.9,0.8-3.5,2.4-4.3,4.3C110.1,342.8,108.9,341.4,107.3,340.3L107.3,340.3z
	 M95.1,366.7c1.2,2.7,3.7,4.6,6.6,4.9c-3.5,0.4-6.3,3.2-6.7,6.7c-0.3-2.9-2.2-5.5-4.9-6.6C92.4,370.8,94.2,369,95.1,366.7
	L95.1,366.7z M91.6,356c1.5-0.8,2.7-2.1,3.6-3.6c1,1.6,2.5,2.8,4.2,3.5c-1.9,0.8-3.5,2.4-4.3,4.3C94.4,358.5,93.2,357.1,91.6,356
	L91.6,356z M79.4,382.4c1.2,2.7,3.7,4.6,6.6,4.9c-3.5,0.4-6.3,3.2-6.7,6.7c-0.3-2.9-2.2-5.5-4.9-6.6
	C76.7,386.5,78.5,384.7,79.4,382.4L79.4,382.4z M75.9,371.7c1.5-0.9,2.7-2.1,3.6-3.6c1,1.6,2.5,2.8,4.2,3.5
	c-1.9,0.8-3.5,2.4-4.3,4.3C78.7,374.2,77.5,372.8,75.9,371.7L75.9,371.7z M48,414.3c0.7,1.6,1.9,2.9,3.4,3.7h-6.2
	C46.5,417,47.4,415.8,48,414.3z M44.5,403.2c1.5-0.9,2.7-2.1,3.6-3.6c1,1.6,2.5,2.8,4.2,3.5c-1.9,0.8-3.5,2.4-4.3,4.3
	C47.3,405.6,46.1,404.1,44.5,403.2z M63.7,409.7c-0.3-2.9-2.2-5.5-4.9-6.6c2.3-0.9,4.1-2.7,5-5c1.2,2.7,3.7,4.6,6.6,4.9
	C66.9,403.4,64.1,406.2,63.7,409.7z M69,418h-9.2c2.2-1.4,3.6-3.7,3.9-6.3C64,414.7,66.1,417.2,69,418z M60.2,387.5
	c1.5-0.9,2.7-2.1,3.6-3.6c1,1.6,2.5,2.8,4.2,3.5c-1.9,0.8-3.5,2.4-4.3,4.3C63,389.9,61.8,388.4,60.2,387.5L60.2,387.5z M34.6,418
	h-4.1c0.7-0.6,1.4-1.4,1.9-2.2C33,416.6,33.7,417.4,34.6,418z M73.4,418c4-1.3,6.3-5.5,5.1-9.6c-0.9-2.9-3.4-5-6.4-5.3
	c3.8-0.4,6.8-3.4,7.3-7.3c0.5,4.2,4.3,7.2,8.5,6.7c4.2-0.5,7.2-4.3,6.7-8.5c-0.4-3.5-3.2-6.3-6.7-6.7c3.8-0.4,6.8-3.4,7.3-7.3
	c0.5,4.2,4.3,7.2,8.4,6.7c4.2-0.5,7.2-4.3,6.7-8.4c-0.4-3.5-3.2-6.3-6.7-6.7c3.8-0.4,6.8-3.4,7.3-7.3c0.5,4.2,4.3,7.2,8.4,6.7
	c4.2-0.5,7.2-4.3,6.7-8.4c-0.4-3.5-3.2-6.3-6.7-6.7c3.8-0.4,6.8-3.4,7.3-7.3c0.5,4.2,4.3,7.2,8.4,6.7c4.2-0.5,7.2-4.3,6.7-8.4
	c-0.4-3.5-3.2-6.3-6.7-6.7c3.8-0.4,6.8-3.4,7.3-7.3c0.5,4.2,4.3,7.2,8.4,6.7c4.2-0.5,7.2-4.3,6.7-8.4c-0.4-3.5-3.2-6.3-6.7-6.7
	c3.8-0.4,6.8-3.4,7.3-7.3c0.5,4.2,4.3,7.2,8.4,6.7c4.2-0.5,7.2-4.3,6.7-8.4c-0.4-3.5-3.2-6.3-6.7-6.7c3.8-0.4,6.8-3.4,7.3-7.3
	c0.5,4.2,4.3,7.2,8.4,6.7c4.2-0.5,7.2-4.3,6.7-8.4c-0.4-3.5-3.2-6.3-6.7-6.7c3.8-0.4,6.8-3.4,7.3-7.3c0.5,4.2,4.3,7.2,8.4,6.7
	c4.2-0.5,7.2-4.3,6.7-8.4c-0.4-3.5-3.2-6.3-6.7-6.7c3.8-0.4,6.8-3.4,7.2-7.2c0.5,4.2,4.3,7.2,8.4,6.7c4.2-0.5,7.2-4.3,6.7-8.4
	c-0.4-3.5-3.2-6.3-6.7-6.7c3.8-0.4,6.8-3.4,7.3-7.3c0.5,4.2,4.3,7.2,8.4,6.7c4.2-0.5,7.2-4.3,6.7-8.4c-0.4-3.5-3.2-6.3-6.7-6.7
	c3.8-0.4,6.8-3.4,7.3-7.3c0.5,4.2,4.3,7.2,8.4,6.7c4.2-0.5,7.2-4.3,6.7-8.4c-0.4-3.5-3.2-6.3-6.7-6.7c3.8-0.4,6.8-3.4,7.3-7.3
	c0.5,4.2,4.3,7.2,8.4,6.7c4.2-0.5,7.2-4.3,6.7-8.4c-0.4-3.5-3.2-6.3-6.7-6.7c3.8-0.4,6.8-3.4,7.3-7.3c0.5,4.2,4.3,7.2,8.4,6.7
	c4.2-0.5,7.2-4.3,6.7-8.4c-0.4-3.5-3.2-6.3-6.7-6.7c3.8-0.4,6.8-3.4,7.3-7.3c0.5,4.2,4.3,7.2,8.4,6.7c4.2-0.5,7.2-4.3,6.7-8.4
	c-0.4-3.5-3.2-6.3-6.7-6.7c3.8-0.4,6.8-3.4,7.3-7.3c0.5,4.2,4.3,7.2,8.4,6.7c4.2-0.5,7.2-4.3,6.7-8.4c-0.4-3.5-3.2-6.3-6.7-6.7
	c3.8-0.4,6.8-3.4,7.3-7.3c0.5,4.2,4.3,7.2,8.4,6.7c4.2-0.5,7.2-4.3,6.7-8.4c-0.4-3.5-3.2-6.3-6.7-6.7c3.8-0.4,6.8-3.4,7.3-7.3
	c0.5,4.2,4.3,7.2,8.4,6.7c4.2-0.5,7.2-4.3,6.7-8.4c-0.4-3.5-3.2-6.3-6.7-6.7c3.8-0.4,6.8-3.4,7.3-7.3c0.5,4.2,4.3,7.2,8.4,6.7
	c4.2-0.5,7.2-4.3,6.7-8.4c-0.4-3.5-3.2-6.3-6.7-6.7c3.8-0.4,6.8-3.4,7.3-7.3c0.5,4.2,4.3,7.2,8.4,6.7c4.2-0.5,7.2-4.3,6.7-8.4
	c-0.4-3.5-3.2-6.3-6.7-6.7c3.8-0.4,6.8-3.4,7.3-7.3c0.5,4.2,4.3,7.2,8.4,6.7c4.2-0.5,7.2-4.3,6.7-8.4c-0.4-3.5-3.2-6.3-6.7-6.7
	c3.8-0.4,6.8-3.4,7.3-7.3c0.5,4.2,4.3,7.2,8.4,6.7c4.2-0.5,7.2-4.3,6.7-8.4c-0.4-3.5-3.2-6.3-6.7-6.7c3.8-0.4,6.8-3.4,7.3-7.3
	c0.4,3.8,3.7,6.7,7.6,6.7c0.4,0,0.9,0,1.3-0.1V74c-0.4-0.1-0.9-0.1-1.3-0.1c-3.9,0-7,3.2-7,7c0,3.9,3.2,7.1,7,7.1
	c0.4,0,0.9-0.1,1.3-0.1v2.5c-3.5-0.7-7,1.5-7.7,5s1.5,7,5,7.7c0.9,0.2,1.7,0.2,2.6,0v3.6c-0.4-0.1-0.9-0.2-1.3-0.2
	c-3.3,0-5.9,2.6-5.9,5.9s2.6,5.9,5.9,5.9c0,0,0,0,0,0c0.4,0,0.9-0.1,1.3-0.2v4.7c-0.4-0.1-0.9-0.2-1.3-0.2c-3-0.1-5.5,2.2-5.6,5.2
	c-0.1,3,2.2,5.5,5.2,5.6c0.2,0,0.3,0,0.5,0c0.4,0,0.9-0.1,1.3-0.2v5.7c-0.4-0.1-0.9-0.2-1.3-0.2c-2.7,0-4.9,2.2-4.9,4.9
	c0,2.7,2.2,4.9,4.9,4.9c0,0,0,0,0,0c0.4,0,0.9-0.1,1.3-0.2v6.7c-0.4-0.1-0.9-0.2-1.3-0.2c-2.5,0-4.5,2-4.5,4.5s2,4.5,4.5,4.5
	c0.4,0,0.9-0.1,1.3-0.2v7.7c-0.4-0.2-0.9-0.2-1.3-0.2c-2.2,0-4,1.8-4,4s1.8,4,4,4c0.4,0,0.9-0.1,1.3-0.2v8.6
	c-0.4-0.2-0.9-0.3-1.3-0.3c-2,0-3.6,1.6-3.6,3.6c0,2,1.6,3.6,3.6,3.6c0.4,0,0.9-0.1,1.3-0.3v9.4c-0.4-0.2-0.9-0.3-1.3-0.3
	c-1.8,0-3.2,1.4-3.2,3.2s1.4,3.2,3.2,3.2c0.5,0,0.9-0.1,1.3-0.3v10.2c-0.3-0.2-0.7-0.3-1.1-0.3c-1.6,0-2.9,1.2-2.9,2.8
	c0.1,1.6,1.4,2.8,3,2.8c0.4,0,0.7-0.1,1.1-0.3v10.9c-0.4-0.1-0.7-0.2-1.1-0.2c-1.4,0-2.5,1.1-2.5,2.4c0.1,1.4,1.2,2.5,2.6,2.4
	c0.4,0,0.7-0.1,1.1-0.2v11.5c-0.4-0.1-0.7-0.2-1.1-0.2c-1.2,0-2.2,0.9-2.2,2.1c0.1,1.2,1.1,2.1,2.3,2.1c0.4,0,0.7-0.1,1.1-0.2V268
	c-0.7-0.7-1.9-0.7-2.6,0c-0.7,0.7-0.7,1.9,0,2.6s1.9,0.7,2.6,0c0,0,0,0,0,0v13.7c-0.4-0.7-1.4-1-2.1-0.5s-1,1.4-0.5,2.1
	s1.4,1,2.1,0.5c0.2-0.1,0.4-0.3,0.5-0.5V418H73.4z"/>
<circle fill="#2B2B2B" cx="401" cy="96.7" r="7"/>
<circle fill="#2B2B2B" cx="385.3" cy="112.3" r="7"/>
<circle fill="#2B2B2B" cx="401" cy="112.3" r="6.5"/>
<circle fill="#2B2B2B" cx="369.6" cy="128.1" r="7"/>
<circle fill="#2B2B2B" cx="385.3" cy="128.1" r="6.5"/>
<circle fill="#2B2B2B" cx="401" cy="128.1" r="5.9"/>
<circle fill="#2B2B2B" cx="353.9" cy="143.8" r="7"/>
<circle fill="#2B2B2B" cx="369.6" cy="143.8" r="6.5"/>
<circle fill="#2B2B2B" cx="385.3" cy="143.8" r="5.9"/>
<circle fill="#2B2B2B" cx="401" cy="143.8" r="5.4"/>
<circle fill="#2B2B2B" cx="338.2" cy="159.4" r="7"/>
<circle fill="#2B2B2B" cx="353.9" cy="159.4" r="6.5"/>
<circle fill="#2B2B2B" cx="369.6" cy="159.4" r="5.9"/>
<circle fill="#2B2B2B" cx="385.3" cy="159.4" r="5.4"/>
<circle fill="#2B2B2B" cx="401" cy="159.4" r="4.9"/>
<circle fill="#2B2B2B" cx="322.5" cy="175.1" r="7"/>
<circle fill="#2B2B2B" cx="338.2" cy="175.1" r="6.5"/>
<circle fill="#2B2B2B" cx="353.9" cy="175.1" r="5.9"/>
<circle fill="#2B2B2B" cx="369.6" cy="175.1" r="5.4"/>
<circle fill="#2B2B2B" cx="385.3" cy="175.1" r="4.9"/>
<circle fill="#2B2B2B" cx="401" cy="175.1" r="4.5"/>
<circle fill="#2B2B2B" cx="306.8" cy="190.8" r="7"/>
<circle fill="#2B2B2B" cx="322.5" cy="190.8" r="6.5"/>
<circle fill="#2B2B2B" cx="338.2" cy="190.8" r="5.9"/>
<circle fill="#2B2B2B" cx="353.9" cy="190.8" r="5.4"/>
<circle fill="#2B2B2B" cx="369.6" cy="190.8" r="4.9"/>
<circle fill="#2B2B2B" cx="385.3" cy="190.8" r="4.5"/>
<circle fill="#2B2B2B" cx="401" cy="190.8" r="4"/>
<circle fill="#2B2B2B" cx="291.1" cy="206.5" r="7"/>
<circle fill="#2B2B2B" cx="306.8" cy="206.5" r="6.5"/>
<circle fill="#2B2B2B" cx="322.5" cy="206.5" r="5.9"/>
<circle fill="#2B2B2B" cx="338.2" cy="206.5" r="5.4"/>
<circle fill="#2B2B2B" cx="353.9" cy="206.5" r="4.9"/>
<circle fill="#2B2B2B" cx="369.6" cy="206.5" r="4.5"/>
<circle fill="#2B2B2B" cx="385.3" cy="206.5" r="4"/>
<circle fill="#2B2B2B" cx="401" cy="206.5" r="3.6"/>
<circle fill="#2B2B2B" cx="275.4" cy="222.2" r="7"/>
<circle fill="#2B2B2B" cx="291.1" cy="222.2" r="6.5"/>
<circle fill="#2B2B2B" cx="306.8" cy="222.2" r="5.9"/>
<circle fill="#2B2B2B" cx="322.5" cy="222.2" r="5.4"/>
<circle fill="#2B2B2B" cx="338.2" cy="222.2" r="4.9"/>
<circle fill="#2B2B2B" cx="353.9" cy="222.2" r="4.5"/>
<circle fill="#2B2B2B" cx="369.6" cy="222.2" r="4"/>
<circle fill="#2B2B2B" cx="385.3" cy="222.2" r="3.6"/>
<circle fill="#2B2B2B" cx="401" cy="222.2" r="3.2"/>
<circle fill="#2B2B2B" cx="259.7" cy="237.9" r="7"/>
<circle fill="#2B2B2B" cx="275.4" cy="237.9" r="6.5"/>
<circle fill="#2B2B2B" cx="291.1" cy="237.9" r="5.9"/>
<circle fill="#2B2B2B" cx="306.8" cy="237.9" r="5.4"/>
<circle fill="#2B2B2B" cx="322.5" cy="237.9" r="4.9"/>
<circle fill="#2B2B2B" cx="338.2" cy="237.9" r="4.5"/>
<circle fill="#2B2B2B" cx="353.9" cy="237.9" r="4"/>
<circle fill="#2B2B2B" cx="369.6" cy="237.9" r="3.6"/>
<circle fill="#2B2B2B" cx="385.3" cy="237.9" r="3.2"/>
<circle fill="#2B2B2B" cx="401" cy="237.9" r="2.8"/>
<circle fill="#2B2B2B" cx="244" cy="253.6" r="7"/>
<circle fill="#2B2B2B" cx="259.7" cy="253.6" r="6.5"/>
<circle fill="#2B2B2B" cx="275.4" cy="253.6" r="5.9"/>
<circle fill="#2B2B2B" cx="291.1" cy="253.6" r="5.4"/>
<circle fill="#2B2B2B" cx="306.8" cy="253.6" r="4.9"/>
<circle fill="#2B2B2B" cx="322.5" cy="253.6" r="4.5"/>
<circle fill="#2B2B2B" cx="338.2" cy="253.6" r="4"/>
<circle fill="#2B2B2B" cx="353.9" cy="253.6" r="3.6"/>
<circle fill="#2B2B2B" cx="369.6" cy="253.6" r="3.2"/>
<circle fill="#2B2B2B" cx="385.3" cy="253.6" r="2.8"/>
<circle fill="#2B2B2B" cx="401" cy="253.6" r="2.4"/>
<circle fill="#2B2B2B" cx="228.3" cy="269.3" r="7"/>
<circle fill="#2B2B2B" cx="244" cy="269.3" r="6.5"/>
<circle fill="#2B2B2B" cx="259.7" cy="269.3" r="5.9"/>
<circle fill="#2B2B2B" cx="275.4" cy="269.3" r="5.4"/>
<circle fill="#2B2B2B" cx="291.1" cy="269.3" r="4.9"/>
<circle fill="#2B2B2B" cx="306.8" cy="269.3" r="4.5"/>
<circle fill="#2B2B2B" cx="322.5" cy="269.3" r="4"/>
<circle fill="#2B2B2B" cx="338.2" cy="269.3" r="3.6"/>
<circle fill="#2B2B2B" cx="353.9" cy="269.3" r="3.2"/>
<circle fill="#2B2B2B" cx="369.6" cy="269.3" r="2.8"/>
<circle fill="#2B2B2B" cx="385.3" cy="269.3" r="2.4"/>
<circle fill="#2B2B2B" cx="401" cy="269.3" r="2.1"/>
<circle fill="#2B2B2B" cx="212.6" cy="285" r="7"/>
<circle fill="#2B2B2B" cx="228.3" cy="285" r="6.5"/>
<circle fill="#2B2B2B" cx="244" cy="285" r="5.9"/>
<circle fill="#2B2B2B" cx="259.7" cy="285" r="5.4"/>
<circle fill="#2B2B2B" cx="275.4" cy="285" r="4.9"/>
<circle fill="#2B2B2B" cx="291.1" cy="285" r="4.5"/>
<circle fill="#2B2B2B" cx="306.8" cy="285" r="4"/>
<circle fill="#2B2B2B" cx="322.5" cy="285" r="3.6"/>
<circle fill="#2B2B2B" cx="338.2" cy="285" r="3.2"/>
<circle fill="#2B2B2B" cx="353.9" cy="285" r="2.8"/>
<circle fill="#2B2B2B" cx="369.6" cy="285" r="2.4"/>
<circle fill="#2B2B2B" cx="385.3" cy="285" r="2.1"/>
<circle fill="#2B2B2B" cx="401" cy="285" r="1.8"/>
<circle fill="#2B2B2B" cx="196.9" cy="300.7" r="7"/>
<circle fill="#2B2B2B" cx="212.6" cy="300.7" r="6.5"/>
<circle fill="#2B2B2B" cx="228.3" cy="300.7" r="5.9"/>
<circle fill="#2B2B2B" cx="244" cy="300.7" r="5.4"/>
<circle fill="#2B2B2B" cx="259.7" cy="300.7" r="4.9"/>
<circle fill="#2B2B2B" cx="275.4" cy="300.7" r="4.5"/>
<circle fill="#2B2B2B" cx="291.1" cy="300.7" r="4"/>
<circle fill="#2B2B2B" cx="306.8" cy="300.7" r="3.6"/>
<circle fill="#2B2B2B" cx="322.5" cy="300.7" r="3.2"/>
<circle fill="#2B2B2B" cx="338.2" cy="300.7" r="2.8"/>
<circle fill="#2B2B2B" cx="353.9" cy="300.7" r="2.4"/>
<circle fill="#2B2B2B" cx="369.6" cy="300.7" r="2.1"/>
<circle fill="#2B2B2B" cx="385.3" cy="300.7" r="1.8"/>
<circle fill="#2B2B2B" cx="401" cy="300.7" r="1.5"/>
<circle fill="#2B2B2B" cx="416.7" cy="300.7" r="1.3"/>
<circle fill="#2B2B2B" cx="181.1" cy="316.4" r="7"/>
<circle fill="#2B2B2B" cx="196.9" cy="316.4" r="6.5"/>
<circle fill="#2B2B2B" cx="212.6" cy="316.4" r="5.9"/>
<circle fill="#2B2B2B" cx="228.3" cy="316.4" r="5.4"/>
<circle fill="#2B2B2B" cx="244" cy="316.4" r="4.9"/>
<circle fill="#2B2B2B" cx="259.7" cy="316.4" r="4.5"/>
<circle fill="#2B2B2B" cx="275.4" cy="316.4" r="4"/>
<circle fill="#2B2B2B" cx="291.1" cy="316.4" r="3.6"/>
<circle fill="#2B2B2B" cx="306.8" cy="316.4" r="3.2"/>
<circle fill="#2B2B2B" cx="322.5" cy="316.4" r="2.8"/>
<circle fill="#2B2B2B" cx="338.2" cy="316.4" r="2.4"/>
<circle fill="#2B2B2B" cx="353.9" cy="316.4" r="2.1"/>
<circle fill="#2B2B2B" cx="369.6" cy="316.4" r="1.8"/>
<circle fill="#2B2B2B" cx="385.3" cy="316.4" r="1.5"/>
<circle fill="#2B2B2B" cx="401" cy="316.4" r="1.3"/>
<circle fill="#2B2B2B" cx="416.7" cy="316.4" r="1"/>
<circle fill="#2B2B2B" cx="165.4" cy="332.1" r="7"/>
<circle fill="#2B2B2B" cx="181.1" cy="332.1" r="6.5"/>
<circle fill="#2B2B2B" cx="196.9" cy="332.1" r="5.9"/>
<circle fill="#2B2B2B" cx="212.6" cy="332.1" r="5.4"/>
<circle fill="#2B2B2B" cx="228.3" cy="332.1" r="4.9"/>
<circle fill="#2B2B2B" cx="244" cy="332.1" r="4.5"/>
<circle fill="#2B2B2B" cx="259.7" cy="332.1" r="4"/>
<circle fill="#2B2B2B" cx="275.4" cy="332.1" r="3.6"/>
<circle fill="#2B2B2B" cx="291.1" cy="332.1" r="3.2"/>
<circle fill="#2B2B2B" cx="306.8" cy="332.1" r="2.8"/>
<circle fill="#2B2B2B" cx="322.5" cy="332.1" r="2.4"/>
<circle fill="#2B2B2B" cx="338.2" cy="332.1" r="2.1"/>
<circle fill="#2B2B2B" cx="353.9" cy="332.1" r="1.8"/>
<circle fill="#2B2B2B" cx="369.6" cy="332.1" r="1.5"/>
<circle fill="#2B2B2B" cx="385.3" cy="332.1" r="1.3"/>
<circle fill="#2B2B2B" cx="401" cy="332.1" r="1"/>
<circle fill="#2B2B2B" cx="416.7" cy="332.1" r="0.8"/>
<circle fill="#2B2B2B" cx="149.7" cy="347.8" r="7"/>
<circle fill="#2B2B2B" cx="165.4" cy="347.8" r="6.5"/>
<circle fill="#2B2B2B" cx="181.1" cy="347.8" r="5.9"/>
<circle fill="#2B2B2B" cx="196.9" cy="347.8" r="5.4"/>
<circle fill="#2B2B2B" cx="212.6" cy="347.8" r="4.9"/>
<circle fill="#2B2B2B" cx="228.3" cy="347.8" r="4.5"/>
<circle fill="#2B2B2B" cx="244" cy="347.8" r="4"/>
<circle fill="#2B2B2B" cx="259.7" cy="347.8" r="3.6"/>
<circle fill="#2B2B2B" cx="275.4" cy="347.8" r="3.2"/>
<circle fill="#2B2B2B" cx="291.1" cy="347.8" r="2.8"/>
<circle fill="#2B2B2B" cx="306.8" cy="347.8" r="2.4"/>
<circle fill="#2B2B2B" cx="322.5" cy="347.8" r="2.1"/>
<circle fill="#2B2B2B" cx="338.2" cy="347.8" r="1.8"/>
<circle fill="#2B2B2B" cx="353.9" cy="347.8" r="1.5"/>
<circle fill="#2B2B2B" cx="369.6" cy="347.8" r="1.3"/>
<circle fill="#2B2B2B" cx="385.3" cy="347.8" r="1"/>
<circle fill="#2B2B2B" cx="401" cy="347.8" r="0.8"/>
<circle fill="#2B2B2B" cx="416.7" cy="347.8" r="0.6"/>
<circle fill="#2B2B2B" cx="134" cy="363.5" r="7"/>
<circle fill="#2B2B2B" cx="149.7" cy="363.5" r="6.5"/>
<circle fill="#2B2B2B" cx="165.4" cy="363.5" r="5.9"/>
<circle fill="#2B2B2B" cx="181.1" cy="363.5" r="5.4"/>
<circle fill="#2B2B2B" cx="196.9" cy="363.5" r="4.9"/>
<circle fill="#2B2B2B" cx="212.6" cy="363.5" r="4.5"/>
<circle fill="#2B2B2B" cx="228.3" cy="363.5" r="4"/>
<circle fill="#2B2B2B" cx="244" cy="363.5" r="3.6"/>
<circle fill="#2B2B2B" cx="259.7" cy="363.5" r="3.2"/>
<circle fill="#2B2B2B" cx="275.4" cy="363.5" r="2.8"/>
<circle fill="#2B2B2B" cx="291.1" cy="363.5" r="2.4"/>
<circle fill="#2B2B2B" cx="306.8" cy="363.5" r="2.1"/>
<circle fill="#2B2B2B" cx="322.5" cy="363.5" r="1.8"/>
<circle fill="#2B2B2B" cx="338.2" cy="363.5" r="1.5"/>
<circle fill="#2B2B2B" cx="353.9" cy="363.5" r="1.3"/>
<circle fill="#2B2B2B" cx="369.6" cy="363.5" r="1"/>
<circle fill="#2B2B2B" cx="385.3" cy="363.5" r="0.8"/>
<circle fill="#2B2B2B" cx="401" cy="363.5" r="0.6"/>
<circle fill="#2B2B2B" cx="416.7" cy="363.5" r="0.4"/>
<circle fill="#2B2B2B" cx="118.3" cy="379.2" r="7"/>
<circle fill="#2B2B2B" cx="134" cy="379.2" r="6.5"/>
<circle fill="#2B2B2B" cx="149.7" cy="379.2" r="5.9"/>
<circle fill="#2B2B2B" cx="165.4" cy="379.2" r="5.4"/>
<circle fill="#2B2B2B" cx="181.1" cy="379.2" r="4.9"/>
<circle fill="#2B2B2B" cx="196.9" cy="379.2" r="4.5"/>
<circle fill="#2B2B2B" cx="212.6" cy="379.2" r="4"/>
<circle fill="#2B2B2B" cx="228.3" cy="379.2" r="3.6"/>
<circle fill="#2B2B2B" cx="244" cy="379.2" r="3.2"/>
<circle fill="#2B2B2B" cx="259.7" cy="379.2" r="2.8"/>
<circle fill="#2B2B2B" cx="275.4" cy="379.2" r="2.4"/>
<circle fill="#2B2B2B" cx="291.1" cy="379.2" r="2.1"/>
<circle fill="#2B2B2B" cx="306.8" cy="379.2" r="1.8"/>
<circle fill="#2B2B2B" cx="322.5" cy="379.2" r="1.5"/>
<circle fill="#2B2B2B" cx="338.2" cy="379.2" r="1.3"/>
<circle fill="#2B2B2B" cx="353.9" cy="379.2" r="1"/>
<circle fill="#2B2B2B" cx="369.6" cy="379.2" r="0.8"/>
<circle fill="#2B2B2B" cx="385.3" cy="379.2" r="0.6"/>
<circle fill="#2B2B2B" cx="401" cy="379.2" r="0.4"/>
<circle fill="#2B2B2B" cx="416.7" cy="379.2" r="0.3"/>
<circle fill="#2B2B2B" cx="102.6" cy="394.9" r="7"/>
<circle fill="#2B2B2B" cx="118.3" cy="394.9" r="6.5"/>
<circle fill="#2B2B2B" cx="134" cy="394.9" r="5.9"/>
<circle fill="#2B2B2B" cx="149.7" cy="394.9" r="5.4"/>
<circle fill="#2B2B2B" cx="165.4" cy="394.9" r="4.9"/>
<circle fill="#2B2B2B" cx="181.1" cy="394.9" r="4.5"/>
<circle fill="#2B2B2B" cx="196.9" cy="394.9" r="4"/>
<circle fill="#2B2B2B" cx="212.6" cy="394.9" r="3.6"/>
<circle fill="#2B2B2B" cx="228.3" cy="394.9" r="3.2"/>
<circle fill="#2B2B2B" cx="244" cy="394.9" r="2.8"/>
<circle fill="#2B2B2B" cx="259.7" cy="394.9" r="2.4"/>
<circle fill="#2B2B2B" cx="275.4" cy="394.9" r="2.1"/>
<circle fill="#2B2B2B" cx="291.1" cy="394.9" r="1.8"/>
<circle fill="#2B2B2B" cx="306.8" cy="394.9" r="1.5"/>
<circle fill="#2B2B2B" cx="322.5" cy="394.9" r="1.3"/>
<circle fill="#2B2B2B" cx="338.2" cy="394.9" r="1"/>
<circle fill="#2B2B2B" cx="353.9" cy="394.9" r="0.8"/>
<circle fill="#2B2B2B" cx="369.6" cy="394.9" r="0.6"/>
<circle fill="#2B2B2B" cx="385.3" cy="394.9" r="0.4"/>
<circle fill="#2B2B2B" cx="401" cy="394.9" r="0.3"/>
<circle fill="#2B2B2B" cx="416.7" cy="394.9" r="0.2"/>
<circle fill="#2B2B2B" cx="86.9" cy="410.6" r="7"/>
<circle fill="#2B2B2B" cx="102.6" cy="410.6" r="6.5"/>
<circle fill="#2B2B2B" cx="118.3" cy="410.6" r="5.9"/>
<circle fill="#2B2B2B" cx="134" cy="410.6" r="5.4"/>
<circle fill="#2B2B2B" cx="149.7" cy="410.6" r="4.9"/>
<circle fill="#2B2B2B" cx="165.4" cy="410.6" r="4.5"/>
<circle fill="#2B2B2B" cx="181.1" cy="410.6" r="4"/>
<circle fill="#2B2B2B" cx="196.9" cy="410.6" r="3.6"/>
<circle fill="#2B2B2B" cx="212.6" cy="410.6" r="3.2"/>
<circle fill="#2B2B2B" cx="228.3" cy="410.6" r="2.8"/>
<circle fill="#2B2B2B" cx="244" cy="410.6" r="2.4"/>
<circle fill="#2B2B2B" cx="259.7" cy="410.6" r="2.1"/>
<circle fill="#2B2B2B" cx="275.4" cy="410.6" r="1.8"/>
<circle fill="#2B2B2B" cx="291.1" cy="410.6" r="1.5"/>
<circle fill="#2B2B2B" cx="306.8" cy="410.6" r="1.3"/>
<circle fill="#2B2B2B" cx="322.5" cy="410.6" r="1"/>
<circle fill="#2B2B2B" cx="338.2" cy="410.6" r="0.8"/>
<circle fill="#2B2B2B" cx="353.9" cy="410.6" r="0.6"/>
<circle fill="#2B2B2B" cx="369.6" cy="410.6" r="0.4"/>
<circle fill="#2B2B2B" cx="385.3" cy="410.6" r="0.3"/>
<circle fill="#2B2B2B" cx="401" cy="410.6" r="0.2"/>
<circle fill="#2B2B2B" cx="416.7" cy="410.6" r="0.1"/>
<rect x="105" y="105" fill="#FFFFFF" width="228" height="228"/>
<path fill="#2B2B2B" d="M334,85H105c-11,0-20,9-20,20v229c0,11,9,20,20,20h229c11,0,20-9,20-20V105C354,94,345,85,334,85z M333,333
	H105V105h228V333z"/>
<polygon fill="#222222" points="192.6,272 166.8,272 158.8,247.2 150.7,272 124.9,272 145.8,287.2 137.6,312.1 158.8,296.6 
	179.9,312.1 171.8,287.2 "/>
<g>
	<path fill="#FFFFFF" d="M539.6,287.3V137.8h39.8c25.4,0,42.7,4.2,53.9,12.9c15.4,11.9,20,32.1,20,62.1c0,27.7-4,47.1-16.7,59.1
		c-11.2,10.6-29.2,15.4-57.3,15.4H539.6z M580.2,268.3c20.2,0,33.1-2.7,40.8-11c7.9-8.3,10.6-22.3,10.6-44.6
		c0-24.6-3.1-38.9-12.5-47.1c-7.9-6.9-20.2-9-38.9-9H561v111.6H580.2z"/>
	<path fill="#FFFFFF" d="M757,233.4l-59.3-0.2c0.2,25.6,6.7,40.2,29.2,40.2c22.5,0,28.5-14,28.7-21.4h21c0,13.7-10.2,37.5-49.6,37.5
		c-37.7,0-50.6-21.2-50.6-58.3c0-37.1,12.9-59.4,50.6-59.4c35.4,0,50.2,19.6,50.2,61.6H757z M756.1,218.2
		c-2.5-20.4-10.8-30.8-29.4-30.8c-19.2,0-26.7,11.7-28.5,30.8H756.1z"/>
	<path fill="#FFFFFF" d="M830.3,286.7l-43.7-112.2h23.5l31.7,91l30.4-91h22.5l-43.5,112.2H830.3z"/>
	<path fill="#FFFFFF" d="M914.2,287.1V137.4h51.6c44.8,0,61.4,10.2,61.4,50.4s-16.5,50.2-62.1,50.2H939v49.1H914.2z M965.2,216.1
		c12.9,0,23.3-1,29.8-6.7c4.8-4.2,7.3-10.8,7.3-21.9c0-10.2-2.3-16.9-6.5-21c-6.2-6.5-17.1-7.3-30.6-7.3H939v56.9H965.2z"/>
	<path fill="#FFFFFF" d="M1049.2,286.7v-80l-1.7-32.7h20.2l3.5,21.4c2.9-8.1,12.3-24.2,40.2-24.2v22.5c-29.6,0-36.7,22.5-38.1,30.4
		v62.5H1049.2z"/>
	<path fill="#FFFFFF" d="M1123.5,230.6c0-35.4,12.7-59.4,52.7-59.4c40.2-0.2,53.1,23.9,53.1,59.4s-12.9,58.9-53.1,58.9
		C1136.2,289.6,1123.5,266.1,1123.5,230.6z M1204.3,230.6c0-26.7-6.7-40-28.1-40c-21.2,0-28.1,13.3-28.1,40
		c0,26.9,6.9,39.6,28.1,39.6C1197.6,270.2,1204.3,257.5,1204.3,230.6z"/>
	<path fill="#FFFFFF" d="M1331.5,275.4c-6.9,7.7-17.7,13.3-35,13.3c-32.9,0-45.6-21.2-45.6-58.3c0-36.9,12.7-58.5,45.6-58.5
		c20.6,0,32.9,13.1,37.3,19.6l2.9-17.5h20.2l-1.2,32.5v80.6c0,21.7,0,49.6-53.1,49.6c-25,0-36.4-10-41.6-20.2
		c-3.5-7.3-4.2-14.6-4.2-18.5h22.5c0,1.9-1.3,20.4,25,20.4c9.6,0,15.8-1.9,19.8-5.2c6.9-5.6,7.5-15,7.5-26V275.4z M1331.5,212.1
		c-3.5-7.3-12.3-20.8-30.4-20.8c-17.7,0-25.4,13.7-25.4,39.1c0,25.6,7.7,38.9,25.4,38.9c19.8,0,27.9-12.5,30.4-22.5V212.1z"/>
	<path fill="#FFFFFF" d="M1390.5,286.7v-80l-1.7-32.7h20.2l3.5,21.4c2.9-8.1,12.3-24.2,40.2-24.2v22.5c-29.6,0-36.7,22.5-38.1,30.4
		v62.5H1390.5z"/>
	<path fill="#FFFFFF" d="M1544.6,234.8l-55.2-0.2c0.6,24.2,7.1,36.4,27.1,36.4c20.4,0,26.2-12.5,26.7-19.8h24.2
		c0,15.2-11.2,38.3-50.8,38.3c-38.7,0-51.6-21.9-51.6-58.7c0-37.1,12.9-59.6,51.6-59.6c37.1,0,51.6,21,51.6,63.5H1544.6z
		 M1543.5,217.3c-2.7-19-10.6-28.1-27.1-28.1c-17.3,0-24.4,10-26.4,28.1H1543.5z"/>
	<path fill="#FFFFFF" d="M1660.8,207.1c0-10-5.8-17.3-23.5-17.5c-17.3,0-21.9,7.3-21.9,13.7c0,26.4,70.2,6.2,70.2,52.3
		c0,22.1-15.6,33.9-48.9,33.7c-30.6,0-47.7-11.7-47.7-39.4h21.7c0,15,9.8,21,25.8,21.2c17.1,0,24.6-5.8,24.6-14
		c0-27.9-69.8-5.8-70-53.9c0-19.6,15.4-32.1,45.6-31.9c31.4,0,45.8,12.3,45.8,35.6H1660.8z"/>
	<path fill="#FFFFFF" d="M1775.5,207.1c0-10-5.8-17.3-23.5-17.5c-17.3,0-21.9,7.3-21.9,13.7c0,26.4,70.2,6.2,70.2,52.3
		c0,22.1-15.6,33.9-48.9,33.7c-30.6,0-47.7-11.7-47.7-39.4h21.7c0,15,9.8,21,25.8,21.2c17.1,0,24.6-5.8,24.6-14
		c0-27.9-69.8-5.8-70-53.9c0-19.6,15.4-32.1,45.6-31.9c31.4,0,45.8,12.3,45.8,35.6H1775.5z"/>
</g>
<g>
</g>
<g>
</g>
<g>
</g>
<g>
</g>
<g>
</g>
<g>
</g>
<g>
</g>
<g>
</g>
<g>
</g>
<g>
</g>
<g>
</g>
<g>
</g>
<g>
</g>
<g>
</g>
<g>
</g>
</svg>
